<?xml version="1.0" encoding="UTF-8" standalone="no"?>
<!-- Created with Inkscape (http://www.inkscape.org/) -->

<svg
   xmlns:dc="http://purl.org/dc/elements/1.1/"
   xmlns:cc="http://creativecommons.org/ns#"
   xmlns:rdf="http://www.w3.org/1999/02/22-rdf-syntax-ns#"
   xmlns:svg="http://www.w3.org/2000/svg"
   xmlns="http://www.w3.org/2000/svg"
   xmlns:sodipodi="http://sodipodi.sourceforge.net/DTD/sodipodi-0.dtd"
   xmlns:inkscape="http://www.inkscape.org/namespaces/inkscape"
   width="231.09846"
   height="146.31799"
   id="svg7818"
   version="1.1"
   inkscape:version="0.48.4 r9939"
   sodipodi:docname="New document 4">
  <defs
     id="defs7820" />
  <sodipodi:namedview
     id="base"
     pagecolor="#ffffff"
     bordercolor="#666666"
     borderopacity="1.0"
     inkscape:pageopacity="0.0"
     inkscape:pageshadow="2"
     inkscape:zoom="0.98994949"
     inkscape:cx="145.71163"
     inkscape:cy="66.769113"
     inkscape:document-units="px"
     inkscape:current-layer="layer1"
     showgrid="false"
     units="cm"
     fit-margin-top="0.5"
     fit-margin-right="0.5"
     fit-margin-bottom="0.5"
     fit-margin-left="0.5"
     inkscape:window-width="467"
     inkscape:window-height="456"
     inkscape:window-x="264"
     inkscape:window-y="276"
     inkscape:window-maximized="0" />
  <metadata
     id="metadata7823">
    <rdf:RDF>
      <cc:Work
         rdf:about="">
        <dc:format>image/svg+xml</dc:format>
        <dc:type
           rdf:resource="http://purl.org/dc/dcmitype/StillImage" />
        <dc:title></dc:title>
      </cc:Work>
    </rdf:RDF>
  </metadata>
  <g
     inkscape:label="Layer 1"
     inkscape:groupmode="layer"
     id="layer1"
     transform="translate(-138.73839,-384.91554)">
    <g
       transform="matrix(0.00900007,0,0,0.00900007,-252.50823,18.243047)"
       style="fill:#9f0000;fill-opacity:0;stroke:#9f0000;stroke-width:120;stroke-linecap:round;stroke-linejoin:round;stroke-opacity:1"
       id="g3562">
      <rect
         x="50500"
         y="50600"
         width="3000"
         height="800"
         rx="0"
         id="rect3564" />
    </g>
    <g
       transform="matrix(0.00900007,0,0,0.00900007,-252.50823,18.243047)"
       style="fill:#9f0000;fill-opacity:0;stroke:#9f0000;stroke-width:60;stroke-linecap:round;stroke-linejoin:round;stroke-opacity:1"
       id="g3566">
      <path
         inkscape:connector-curvature="0"
         d="m 50500,51000 -1000,0"
         id="path3568" />
    </g>
    <g
       transform="matrix(0.00900007,0,0,0.00900007,-252.50823,18.243047)"
       style="fill:#9f0000;fill-opacity:0;stroke:#9f0000;stroke-width:60;stroke-linecap:round;stroke-linejoin:round;stroke-opacity:1"
       id="g3572">
      <path
         inkscape:connector-curvature="0"
         d="m 53500,51000 1000,0"
         id="path3574" />
    </g>
    <g
       transform="matrix(0.00900007,0,0,0.00900007,-252.50823,18.243047)"
       style="fill:#009f9f;fill-opacity:0;stroke:#009f9f;stroke-width:60;stroke-linecap:round;stroke-linejoin:round;stroke-opacity:1"
       id="g3576">
      <path
         inkscape:connector-curvature="0"
         d="m 51930,50390 -130,-190"
         id="path3578" />
      <path
         inkscape:connector-curvature="0"
         d="m 51710,50390 0,-400 150,0 40,20 10,20 20,40 0,60 -20,30 -10,20 -40,20 -150,0"
         id="path3580" />
      <path
         inkscape:connector-curvature="0"
         d="m 52090,50030 20,-20 30,-20 100,0 40,20 20,20 10,40 0,40 -10,50 -230,230 240,0"
         id="path3582" />
      <path
         inkscape:connector-curvature="0"
         d="m 51750,51120 -220,0"
         id="path3584" />
      <path
         inkscape:connector-curvature="0"
         d="m 51640,51120 0,-400 -40,60 -40,40 -30,20"
         id="path3586" />
      <path
         inkscape:connector-curvature="0"
         d="m 52000,50720 40,0 40,20 20,20 20,40 10,70 0,100 -10,80 -20,30 -20,20 -40,20 -40,0 -40,-20 -20,-20 -10,-30 -20,-80 0,-100 20,-70 10,-40 20,-20 40,-20"
         id="path3588" />
      <path
         inkscape:connector-curvature="0"
         d="m 52310,51120 0,-400"
         id="path3590" />
      <path
         inkscape:connector-curvature="0"
         d="m 52340,50970 120,150"
         id="path3592" />
      <path
         inkscape:connector-curvature="0"
         d="m 52460,50860 -150,150"
         id="path3594" />
    </g>
    <g
       transform="matrix(0.00900007,0,0,0.00900007,-252.50823,18.243047)"
       style="fill:#9f0000;fill-opacity:0;stroke:#9f0000;stroke-width:100;stroke-linecap:round;stroke-linejoin:round;stroke-opacity:1"
       id="g3598">
      <circle
         sodipodi:ry="1110"
         sodipodi:rx="1110"
         sodipodi:cy="51000"
         sodipodi:cx="57000"
         d="m 58110,51000 c 0,613.036 -496.964,1110 -1110,1110 -613.036,0 -1110,-496.964 -1110,-1110 0,-613.036 496.964,-1110 1110,-1110 613.036,0 1110,496.964 1110,1110 z"
         cx="57000"
         cy="51000"
         r="1110"
         id="circle3600" />
    </g>
    <g
       transform="matrix(0.00900007,0,0,0.00900007,-252.50823,18.243047)"
       style="fill:#9f0000;fill-opacity:0;stroke:#9f0000;stroke-width:60;stroke-linecap:round;stroke-linejoin:round;stroke-opacity:1"
       id="g3602">
      <polyline
         fill="none;"
         points="56750,50750 57500,50000 "
         id="polyline3604" />
      <polyline
         fill="none;"
         points="56750,51250 57500,52000 57500,52000 "
         id="polyline3606" />
    </g>
    <g
       transform="matrix(0.00900007,0,0,0.00900007,-252.50823,18.243047)"
       style="fill:#9f0000;fill-opacity:0;stroke:#9f0000;stroke-width:200;stroke-linecap:round;stroke-linejoin:round;stroke-opacity:1"
       id="g3608">
      <polyline
         fill="none;"
         points="56750,50250 56750,51750 56750,51750 "
         id="polyline3610" />
    </g>
    <g
       transform="matrix(0.00900007,0,0,0.00900007,-252.50823,18.243047)"
       style="fill:#9f0000;fill-opacity:1;stroke:#9f0000;stroke-width:60;stroke-linecap:round;stroke-linejoin:round;stroke-opacity:1"
       id="g3612">
      <polyline
         style="fill-rule:evenodd"
         points="57000,51700 57200,51500 57400,51900 57000,51700 57000,51700 "
         id="polyline3614" />
      <path
         inkscape:connector-curvature="0"
         d="m 57500,50000 0,-1000"
         id="path3616" />
    </g>
    <g
       transform="matrix(0.00900007,0,0,0.00900007,-252.50823,18.243047)"
       style="fill:#009f9f;fill-opacity:0;stroke:#009f9f;stroke-width:60;stroke-linecap:round;stroke-linejoin:round;stroke-opacity:1"
       id="g3618">
      <path
         inkscape:connector-curvature="0"
         d="m 57320,49380 20,20 20,50 0,40 -20,60 -40,40 -30,10 -80,20 -60,0 -70,-20 -40,-10 -40,-40 -20,-60 0,-40 20,-50 20,-20"
         id="path3620" />
    </g>
    <g
       transform="matrix(0.00900007,0,0,0.00900007,-252.50823,18.243047)"
       style="fill:#9f0000;fill-opacity:0;stroke:#9f0000;stroke-width:60;stroke-linecap:round;stroke-linejoin:round;stroke-opacity:1"
       id="g3622">
      <path
         inkscape:connector-curvature="0"
         d="m 57960,49390 0,220"
         id="path3624" />
      <path
         inkscape:connector-curvature="0"
         d="m 57960,49500 -400,0 60,40 40,40 20,30"
         id="path3626" />
      <path
         inkscape:connector-curvature="0"
         d="m 56750,51000 -2250,0"
         id="path3628" />
    </g>
    <g
       transform="matrix(0.00900007,0,0,0.00900007,-252.50823,18.243047)"
       style="fill:#009f9f;fill-opacity:0;stroke:#009f9f;stroke-width:60;stroke-linecap:round;stroke-linejoin:round;stroke-opacity:1"
       id="g3630">
      <path
         inkscape:connector-curvature="0"
         d="m 55650,50650 60,20 10,20 20,40 0,60 -20,30 -10,20 -40,20 -150,0 0,-400 130,0 40,20 20,20 10,40 0,40 -10,30 -20,20 -40,20 -130,0"
         id="path3632" />
    </g>
    <g
       transform="matrix(0.00900007,0,0,0.00900007,-252.50823,18.243047)"
       style="fill:#9f0000;fill-opacity:0;stroke:#9f0000;stroke-width:60;stroke-linecap:round;stroke-linejoin:round;stroke-opacity:1"
       id="g3634">
      <path
         inkscape:connector-curvature="0"
         d="m 55510,51100 20,-20 30,-20 100,0 40,20 20,20 10,40 0,40 -10,50 -230,230 240,0"
         id="path3636" />
      <path
         inkscape:connector-curvature="0"
         d="m 57500,52000 0,1000"
         id="path3638" />
    </g>
    <g
       transform="matrix(0.00900007,0,0,0.00900007,-252.50823,18.243047)"
       style="fill:#009f9f;fill-opacity:0;stroke:#009f9f;stroke-width:60;stroke-linecap:round;stroke-linejoin:round;stroke-opacity:1"
       id="g3640">
      <path
         inkscape:connector-curvature="0"
         d="m 57150,52580 0,-130"
         id="path3642" />
      <path
         inkscape:connector-curvature="0"
         d="m 57360,52390 0,190 -400,0 0,-190"
         id="path3644" />
    </g>
    <g
       transform="matrix(0.00900007,0,0,0.00900007,-252.50823,18.243047)"
       style="fill:#9f0000;fill-opacity:0;stroke:#9f0000;stroke-width:60;stroke-linecap:round;stroke-linejoin:round;stroke-opacity:1"
       id="g3646">
      <path
         inkscape:connector-curvature="0"
         d="m 57560,52630 0,-240 150,130 0,-60 20,-40 20,-20 40,-10 100,0 30,10 20,20 20,40 0,120 -20,30 -20,20"
         id="path3648" />
    </g>
    <g
       transform="matrix(0.00900007,0,0,0.00900007,-252.50823,18.243047)"
       style="fill:#009f9f;fill-opacity:0;stroke:#009f9f;stroke-width:60;stroke-linecap:round;stroke-linejoin:round;stroke-opacity:1"
       id="g3650">
      <path
         inkscape:connector-curvature="0"
         d="m 56060,52660 -40,-20 -30,-40 -60,-50 -40,-20 -40,0"
         id="path3652" />
      <path
         inkscape:connector-curvature="0"
         d="m 55870,52620 -40,-20 -30,-40 -20,-70 0,-130 20,-80 30,-40 40,-20 80,0 40,20 30,40 20,80 0,130 -20,70 -30,40 -40,20 -80,0"
         id="path3654" />
      <path
         inkscape:connector-curvature="0"
         d="m 56420,52620 -220,0"
         id="path3656" />
      <path
         inkscape:connector-curvature="0"
         d="m 56310,52620 0,-400 -40,60 -40,40 -30,20"
         id="path3658" />
      <path
         inkscape:connector-curvature="0"
         d="m 54790,49420 60,20 10,20 20,40 0,60 -20,30 -10,20 -40,20 -150,0 0,-400 130,0 40,20 20,20 10,40 0,40 -10,30 -20,20 -40,20 -130,0"
         id="path3660" />
      <path
         inkscape:connector-curvature="0"
         d="m 55280,49590 -20,20 -50,20 -40,0 -60,-20 -40,-40 -10,-30 -20,-80 0,-60 20,-70 10,-40 40,-40 60,-20 40,0 50,20 20,20"
         id="path3662" />
      <path
         inkscape:connector-curvature="0"
         d="m 55650,49230 -190,0 -20,190 20,-20 30,-20 100,0 40,20 20,20 10,40 0,100 -10,30 -20,20 -40,20 -100,0 -30,-20 -20,-20"
         id="path3664" />
      <path
         inkscape:connector-curvature="0"
         d="m 56010,49370 0,260"
         id="path3666" />
      <path
         inkscape:connector-curvature="0"
         d="m 55910,49210 -90,290 240,0"
         id="path3668" />
      <path
         inkscape:connector-curvature="0"
         d="m 56180,49230 260,0 -170,400"
         id="path3670" />
    </g>
    <g
       transform="matrix(0.00900007,0,0,0.00900007,-252.50823,18.243047)"
       style="fill:#9f009f;fill-opacity:0;stroke:#9f009f;stroke-width:50;stroke-linecap:round;stroke-linejoin:round;stroke-opacity:1"
       id="g3672">
      <path
         inkscape:connector-curvature="0"
         d="m 54990,49780 160,0"
         id="path3674" />
      <path
         inkscape:connector-curvature="0"
         d="m 55070,50070 0,-290"
         id="path3676" />
      <path
         inkscape:connector-curvature="0"
         d="m 55300,49780 60,0 30,20 20,20 20,60 0,100 -20,50 -20,30 -30,10 -60,0 -20,-10 -30,-30 -10,-50 0,-100 10,-60 30,-20 20,-20"
         id="path3678" />
      <path
         inkscape:connector-curvature="0"
         d="m 55560,50070 60,0 30,-10 10,-20 30,-40 10,-50 0,-110 -10,-30 -20,-10 -20,-20 -60,0 -30,20 -10,10 -10,30 0,70 10,20 10,20 30,10 60,0 20,-10 20,-20 10,-20"
         id="path3680" />
      <path
         inkscape:connector-curvature="0"
         d="m 55820,49810 10,-10 30,-20 70,0 20,20 20,10 10,30 0,30 -10,40 -170,160 180,0"
         id="path3682" />
    </g>
    <g
       transform="matrix(0.00900007,0,0,0.00900007,-252.50823,18.243047)"
       style="fill:#9f0000;fill-opacity:0;stroke:#9f0000;stroke-width:120;stroke-linecap:round;stroke-linejoin:round;stroke-opacity:1"
       id="g3686">
      <rect
         x="57100"
         y="45000"
         width="800"
         height="3000"
         rx="0"
         id="rect3688" />
    </g>
    <g
       transform="matrix(0.00900007,0,0,0.00900007,-252.50823,18.243047)"
       style="fill:#9f0000;fill-opacity:0;stroke:#9f0000;stroke-width:60;stroke-linecap:round;stroke-linejoin:round;stroke-opacity:1"
       id="g3690">
      <path
         inkscape:connector-curvature="0"
         d="m 57500,45000 0,-1000"
         id="path3692" />
    </g>
    <g
       transform="matrix(0.00900007,0,0,0.00900007,-252.50823,18.243047)"
       style="fill:#9f0000;fill-opacity:0;stroke:#9f0000;stroke-width:60;stroke-linecap:round;stroke-linejoin:round;stroke-opacity:1"
       id="g3696">
      <path
         inkscape:connector-curvature="0"
         d="m 57500,48000 0,1000"
         id="path3698" />
    </g>
    <g
       transform="matrix(0.00900007,0,0,0.00900007,-252.50823,18.243047)"
       style="fill:#009f9f;fill-opacity:0;stroke:#009f9f;stroke-width:60;stroke-linecap:round;stroke-linejoin:round;stroke-opacity:1"
       id="g3700">
      <path
         inkscape:connector-curvature="0"
         d="m 58430,46570 -190,130"
         id="path3702" />
      <path
         inkscape:connector-curvature="0"
         d="m 58430,46790 -400,0 0,-150 20,-40 20,-10 40,-20 60,0 30,20 20,10 20,40 0,150"
         id="path3704" />
      <path
         inkscape:connector-curvature="0"
         d="m 58030,46430 0,-240 150,130 0,-60 20,-40 20,-20 40,-10 100,0 30,10 20,20 20,40 0,120 -20,30 -20,20"
         id="path3706" />
      <path
         inkscape:connector-curvature="0"
         d="m 57700,46730 0,220"
         id="path3708" />
      <path
         inkscape:connector-curvature="0"
         d="m 57700,46840 -400,0 60,40 40,40 20,30"
         id="path3710" />
      <path
         inkscape:connector-curvature="0"
         d="m 57700,46550 -400,0"
         id="path3712" />
      <path
         inkscape:connector-curvature="0"
         d="m 57550,46520 150,-120"
         id="path3714" />
      <path
         inkscape:connector-curvature="0"
         d="m 57440,46400 150,150"
         id="path3716" />
      <path
         inkscape:connector-curvature="0"
         d="m 57300,46040 0,190 190,20 -20,-20 -20,-30 0,-100 20,-40 20,-20 40,-10 100,0 30,10 20,20 20,40 0,100 -20,30 -20,20"
         id="path3718" />
    </g>
    <g
       transform="matrix(0.00900007,0,0,0.00900007,-252.50823,18.243047)"
       style="fill:#9f0000;fill-opacity:0;stroke:#9f0000;stroke-width:120;stroke-linecap:round;stroke-linejoin:round;stroke-opacity:1"
       id="g3730">
      <rect
         x="49100"
         y="47000"
         width="800"
         height="3000"
         rx="0"
         id="rect3732" />
    </g>
    <g
       transform="matrix(0.00900007,0,0,0.00900007,-252.50823,18.243047)"
       style="fill:#9f0000;fill-opacity:0;stroke:#9f0000;stroke-width:60;stroke-linecap:round;stroke-linejoin:round;stroke-opacity:1"
       id="g3734">
      <path
         inkscape:connector-curvature="0"
         d="m 49500,47000 0,-1000"
         id="path3736" />
    </g>
    <g
       transform="matrix(0.00900007,0,0,0.00900007,-252.50823,18.243047)"
       style="fill:#9f0000;fill-opacity:0;stroke:#9f0000;stroke-width:60;stroke-linecap:round;stroke-linejoin:round;stroke-opacity:1"
       id="g3740">
      <path
         inkscape:connector-curvature="0"
         d="m 49500,50000 0,1000"
         id="path3742" />
    </g>
    <g
       transform="matrix(0.00900007,0,0,0.00900007,-252.50823,18.243047)"
       style="fill:#009f9f;fill-opacity:0;stroke:#009f9f;stroke-width:60;stroke-linecap:round;stroke-linejoin:round;stroke-opacity:1"
       id="g3744">
      <path
         inkscape:connector-curvature="0"
         d="m 50430,48570 -190,130"
         id="path3746" />
      <path
         inkscape:connector-curvature="0"
         d="m 50430,48790 -400,0 0,-150 20,-40 20,-10 40,-20 60,0 30,20 20,10 20,40 0,150"
         id="path3748" />
      <path
         inkscape:connector-curvature="0"
         d="m 50430,48190 0,220"
         id="path3750" />
      <path
         inkscape:connector-curvature="0"
         d="m 50430,48300 -400,0 60,40 40,40 20,30"
         id="path3752" />
      <path
         inkscape:connector-curvature="0"
         d="m 49700,48730 0,220"
         id="path3754" />
      <path
         inkscape:connector-curvature="0"
         d="m 49700,48840 -400,0 60,40 40,40 20,30"
         id="path3756" />
      <path
         inkscape:connector-curvature="0"
         d="m 49300,48480 0,-40 20,-40 20,-20 40,-20 70,-10 100,0 80,10 30,20 20,20 20,40 0,40 -20,40 -20,20 -30,10 -80,20 -100,0 -70,-20 -40,-10 -20,-20 -20,-40"
         id="path3758" />
      <path
         inkscape:connector-curvature="0"
         d="m 49700,48170 -400,0"
         id="path3760" />
      <path
         inkscape:connector-curvature="0"
         d="m 49550,48140 150,-120"
         id="path3762" />
      <path
         inkscape:connector-curvature="0"
         d="m 49440,48020 150,150"
         id="path3764" />
    </g>
    <g
       transform="matrix(0.00900007,0,0,0.00900007,-252.50823,18.243047)"
       style="fill:#009f00;fill-opacity:0;stroke:#009f00;stroke-width:60;stroke-linecap:round;stroke-linejoin:round;stroke-opacity:1"
       id="g3766">
      <path
         inkscape:connector-curvature="0"
         d="m 49500,51000 -2500,0"
         id="path3768" />
    </g>
    <g
       transform="matrix(0.00900007,0,0,0.00900007,-252.50823,18.243047)"
       style="fill:#000000;fill-opacity:0;stroke:#000000;stroke-width:60;stroke-linecap:round;stroke-linejoin:round;stroke-opacity:1"
       id="g3770">
      <path
         inkscape:connector-curvature="0"
         d="m 45470,50840 0,-600"
         id="path3772" />
      <path
         inkscape:connector-curvature="0"
         d="m 45760,50840 0,-600 350,600 0,-600"
         id="path3774" />
      <path
         inkscape:connector-curvature="0"
         d="m 46390,50840 0,-600"
         id="path3776" />
      <path
         inkscape:connector-curvature="0"
         d="m 46600,50240 340,0"
         id="path3778" />
      <path
         inkscape:connector-curvature="0"
         d="m 46770,50840 0,-600"
         id="path3780" />
    </g>
    <g
       transform="matrix(0.00900007,0,0,0.00900007,-252.50823,18.243047)"
       style="fill:#009f00;fill-opacity:0;stroke:#009f00;stroke-width:60;stroke-linecap:round;stroke-linejoin:round;stroke-opacity:1"
       id="g3782">
      <path
         inkscape:connector-curvature="0"
         d="m 49500,46000 0,-2500"
         id="path3784" />
      <path
         inkscape:connector-curvature="0"
         d="m 57500,43500 0,500"
         id="path3786" />
    </g>
    <g
       transform="matrix(0.00900007,0,0,0.00900007,-252.50823,18.243047)"
       style="fill:#000000;fill-opacity:0;stroke:#000000;stroke-width:60;stroke-linecap:round;stroke-linejoin:round;stroke-opacity:1"
       id="g3788">
      <path
         inkscape:connector-curvature="0"
         d="m 57560,42740 200,600 200,-600"
         id="path3790" />
      <path
         inkscape:connector-curvature="0"
         d="m 58500,43290 -30,20 -90,30 -60,0 -80,-30 -60,-50 -30,-60 -30,-110 0,-90 30,-110 30,-60 60,-60 80,-30 60,0 90,30 30,30"
         id="path3792" />
      <path
         inkscape:connector-curvature="0"
         d="m 59100,43290 -30,20 -90,30 -60,0 -80,-30 -60,-50 -30,-60 -30,-110 0,-90 30,-110 30,-60 60,-60 80,-30 60,0 90,30 30,30"
         id="path3794" />
    </g>
    <g
       transform="matrix(0.00900007,0,0,0.00900007,-252.50823,18.243047)"
       style="fill:#9f0000;fill-opacity:0;stroke:#9f0000;stroke-width:60;stroke-linecap:round;stroke-linejoin:round;stroke-opacity:1"
       id="g3798">
      <polyline
         fill="none;"
         points="57000,54500 57500,55000 58000,54500 57000,54500 "
         id="polyline3800" />
    </g>
    <g
       transform="matrix(0.00900007,0,0,0.00900007,-252.50823,18.243047)"
       style="fill:#009f00;fill-opacity:0;stroke:#009f00;stroke-width:60;stroke-linecap:round;stroke-linejoin:round;stroke-opacity:1"
       id="g3802">
      <path
         inkscape:connector-curvature="0"
         d="m 57500,53000 0,1500"
         id="path3804" />
    </g>
    <g
       transform="matrix(0.00900007,0,0,0.00900007,-252.50823,18.243047)"
       style="fill:#9f0000;fill-opacity:0;stroke:#9f0000;stroke-width:100;stroke-linecap:round;stroke-linejoin:round;stroke-opacity:1"
       id="g3808">
      <circle
         sodipodi:ry="1110"
         sodipodi:rx="1110"
         sodipodi:cy="49000"
         sodipodi:cx="64000"
         d="m 65110,49000 c 0,613.036 -496.964,1110 -1110,1110 -613.036,0 -1110,-496.964 -1110,-1110 0,-613.036 496.964,-1110 1110,-1110 613.036,0 1110,496.964 1110,1110 z"
         cx="64000"
         cy="49000"
         r="1110"
         id="circle3810" />
    </g>
    <g
       transform="matrix(0.00900007,0,0,0.00900007,-252.50823,18.243047)"
       style="fill:#9f0000;fill-opacity:0;stroke:#9f0000;stroke-width:60;stroke-linecap:round;stroke-linejoin:round;stroke-opacity:1"
       id="g3812">
      <polyline
         fill="none;"
         points="63750,48750 64500,48000 "
         id="polyline3814" />
      <polyline
         fill="none;"
         points="63750,49250 64500,50000 64500,50000 "
         id="polyline3816" />
    </g>
    <g
       transform="matrix(0.00900007,0,0,0.00900007,-252.50823,18.243047)"
       style="fill:#9f0000;fill-opacity:0;stroke:#9f0000;stroke-width:200;stroke-linecap:round;stroke-linejoin:round;stroke-opacity:1"
       id="g3818">
      <polyline
         fill="none;"
         points="63750,48250 63750,49750 63750,49750 "
         id="polyline3820" />
    </g>
    <g
       transform="matrix(0.00900007,0,0,0.00900007,-252.50823,18.243047)"
       style="fill:#9f0000;fill-opacity:1;stroke:#9f0000;stroke-width:60;stroke-linecap:round;stroke-linejoin:round;stroke-opacity:1"
       id="g3822">
      <polyline
         style="fill-rule:evenodd"
         points="64000,49700 64200,49500 64400,49900 64000,49700 64000,49700 "
         id="polyline3824" />
      <path
         inkscape:connector-curvature="0"
         d="m 64500,48000 0,-1000"
         id="path3826" />
    </g>
    <g
       transform="matrix(0.00900007,0,0,0.00900007,-252.50823,18.243047)"
       style="fill:#009f9f;fill-opacity:0;stroke:#009f9f;stroke-width:60;stroke-linecap:round;stroke-linejoin:round;stroke-opacity:1"
       id="g3828">
      <path
         inkscape:connector-curvature="0"
         d="m 64320,47380 20,20 20,50 0,40 -20,60 -40,40 -30,10 -80,20 -60,0 -70,-20 -40,-10 -40,-40 -20,-60 0,-40 20,-50 20,-20"
         id="path3830" />
    </g>
    <g
       transform="matrix(0.00900007,0,0,0.00900007,-252.50823,18.243047)"
       style="fill:#9f0000;fill-opacity:0;stroke:#9f0000;stroke-width:60;stroke-linecap:round;stroke-linejoin:round;stroke-opacity:1"
       id="g3832">
      <path
         inkscape:connector-curvature="0"
         d="m 64960,47390 0,220"
         id="path3834" />
      <path
         inkscape:connector-curvature="0"
         d="m 64960,47500 -400,0 60,40 40,40 20,30"
         id="path3836" />
      <path
         inkscape:connector-curvature="0"
         d="m 63750,49000 -2250,0"
         id="path3838" />
    </g>
    <g
       transform="matrix(0.00900007,0,0,0.00900007,-252.50823,18.243047)"
       style="fill:#009f9f;fill-opacity:0;stroke:#009f9f;stroke-width:60;stroke-linecap:round;stroke-linejoin:round;stroke-opacity:1"
       id="g3840">
      <path
         inkscape:connector-curvature="0"
         d="m 62650,48650 60,20 10,20 20,40 0,60 -20,30 -10,20 -40,20 -150,0 0,-400 130,0 40,20 20,20 10,40 0,40 -10,30 -20,20 -40,20 -130,0"
         id="path3842" />
    </g>
    <g
       transform="matrix(0.00900007,0,0,0.00900007,-252.50823,18.243047)"
       style="fill:#9f0000;fill-opacity:0;stroke:#9f0000;stroke-width:60;stroke-linecap:round;stroke-linejoin:round;stroke-opacity:1"
       id="g3844">
      <path
         inkscape:connector-curvature="0"
         d="m 62510,49100 20,-20 30,-20 100,0 40,20 20,20 10,40 0,40 -10,50 -230,230 240,0"
         id="path3846" />
      <path
         inkscape:connector-curvature="0"
         d="m 64500,50000 0,1000"
         id="path3848" />
    </g>
    <g
       transform="matrix(0.00900007,0,0,0.00900007,-252.50823,18.243047)"
       style="fill:#009f9f;fill-opacity:0;stroke:#009f9f;stroke-width:60;stroke-linecap:round;stroke-linejoin:round;stroke-opacity:1"
       id="g3850">
      <path
         inkscape:connector-curvature="0"
         d="m 64150,50580 0,-130"
         id="path3852" />
      <path
         inkscape:connector-curvature="0"
         d="m 64360,50390 0,190 -400,0 0,-190"
         id="path3854" />
    </g>
    <g
       transform="matrix(0.00900007,0,0,0.00900007,-252.50823,18.243047)"
       style="fill:#9f0000;fill-opacity:0;stroke:#9f0000;stroke-width:60;stroke-linecap:round;stroke-linejoin:round;stroke-opacity:1"
       id="g3856">
      <path
         inkscape:connector-curvature="0"
         d="m 64560,50630 0,-240 150,130 0,-60 20,-40 20,-20 40,-10 100,0 30,10 20,20 20,40 0,120 -20,30 -20,20"
         id="path3858" />
    </g>
    <g
       transform="matrix(0.00900007,0,0,0.00900007,-252.50823,18.243047)"
       style="fill:#009f9f;fill-opacity:0;stroke:#009f9f;stroke-width:60;stroke-linecap:round;stroke-linejoin:round;stroke-opacity:1"
       id="g3860">
      <path
         inkscape:connector-curvature="0"
         d="m 63060,50660 -40,-20 -30,-40 -60,-50 -40,-20 -40,0"
         id="path3862" />
      <path
         inkscape:connector-curvature="0"
         d="m 62870,50620 -40,-20 -30,-40 -20,-70 0,-130 20,-80 30,-40 40,-20 80,0 40,20 30,40 20,80 0,130 -20,70 -30,40 -40,20 -80,0"
         id="path3864" />
      <path
         inkscape:connector-curvature="0"
         d="m 63200,50260 20,-20 30,-20 100,0 40,20 20,20 10,40 0,40 -10,50 -230,230 240,0"
         id="path3866" />
      <path
         inkscape:connector-curvature="0"
         d="m 61790,47420 60,20 10,20 20,40 0,60 -20,30 -10,20 -40,20 -150,0 0,-400 130,0 40,20 20,20 10,40 0,40 -10,30 -20,20 -40,20 -130,0"
         id="path3868" />
      <path
         inkscape:connector-curvature="0"
         d="m 62280,47590 -20,20 -50,20 -40,0 -60,-20 -40,-40 -10,-30 -20,-80 0,-60 20,-70 10,-40 40,-40 60,-20 40,0 50,20 20,20"
         id="path3870" />
      <path
         inkscape:connector-curvature="0"
         d="m 62650,47230 -190,0 -20,190 20,-20 30,-20 100,0 40,20 20,20 10,40 0,100 -10,30 -20,20 -40,20 -100,0 -30,-20 -20,-20"
         id="path3872" />
      <path
         inkscape:connector-curvature="0"
         d="m 63010,47370 0,260"
         id="path3874" />
      <path
         inkscape:connector-curvature="0"
         d="m 62910,47210 -90,290 240,0"
         id="path3876" />
      <path
         inkscape:connector-curvature="0"
         d="m 63180,47230 260,0 -170,400"
         id="path3878" />
    </g>
    <g
       transform="matrix(0.00900007,0,0,0.00900007,-252.50823,18.243047)"
       style="fill:#9f009f;fill-opacity:0;stroke:#9f009f;stroke-width:50;stroke-linecap:round;stroke-linejoin:round;stroke-opacity:1"
       id="g3880">
      <path
         inkscape:connector-curvature="0"
         d="m 61990,47780 160,0"
         id="path3882" />
      <path
         inkscape:connector-curvature="0"
         d="m 62070,48070 0,-290"
         id="path3884" />
      <path
         inkscape:connector-curvature="0"
         d="m 62300,47780 60,0 30,20 20,20 20,60 0,100 -20,50 -20,30 -30,10 -60,0 -20,-10 -30,-30 -10,-50 0,-100 10,-60 30,-20 20,-20"
         id="path3886" />
      <path
         inkscape:connector-curvature="0"
         d="m 62560,48070 60,0 30,-10 10,-20 30,-40 10,-50 0,-110 -10,-30 -20,-10 -20,-20 -60,0 -30,20 -10,10 -10,30 0,70 10,20 10,20 30,10 60,0 20,-10 20,-20 10,-20"
         id="path3888" />
      <path
         inkscape:connector-curvature="0"
         d="m 62820,47810 10,-10 30,-20 70,0 20,20 20,10 10,30 0,30 -10,40 -170,160 180,0"
         id="path3890" />
    </g>
    <g
       transform="matrix(0.00900007,0,0,0.00900007,-252.50823,18.243047)"
       style="fill:#009f00;fill-opacity:0;stroke:#009f00;stroke-width:60;stroke-linecap:round;stroke-linejoin:round;stroke-opacity:1"
       id="g3894">
      <path
         inkscape:connector-curvature="0"
         d="m 57500,49000 4000,0"
         id="path3896" />
      <path
         inkscape:connector-curvature="0"
         d="m 64500,47000 0,-3500"
         id="path3898" />
    </g>
    <g
       transform="matrix(0.00900007,0,0,0.00900007,-252.50823,18.243047)"
       style="fill:#000000;fill-opacity:0;stroke:#000000;stroke-width:60;stroke-linecap:round;stroke-linejoin:round;stroke-opacity:1"
       id="g3900">
      <path
         inkscape:connector-curvature="0"
         d="m 64990,43340 -200,-280"
         id="path3902" />
      <path
         inkscape:connector-curvature="0"
         d="m 64640,43340 0,-600 230,0 60,30 30,30 30,60 0,80 -30,60 -30,30 -60,30 -230,0"
         id="path3904" />
      <path
         inkscape:connector-curvature="0"
         d="m 65240,43030 200,0"
         id="path3906" />
      <path
         inkscape:connector-curvature="0"
         d="m 65530,43340 -290,0 0,-600 290,0"
         id="path3908" />
      <path
         inkscape:connector-curvature="0"
         d="m 65750,43310 90,30 140,0 60,-30 30,-20 30,-60 0,-60 -30,-60 -30,-20 -60,-30 -110,-30 -60,-30 -30,-30 -30,-60 0,-50 30,-60 30,-30 60,-30 140,0 90,30"
         id="path3910" />
      <path
         inkscape:connector-curvature="0"
         d="m 66350,43030 200,0"
         id="path3912" />
      <path
         inkscape:connector-curvature="0"
         d="m 66640,43340 -290,0 0,-600 290,0"
         id="path3914" />
      <path
         inkscape:connector-curvature="0"
         d="m 66810,42740 340,0"
         id="path3916" />
      <path
         inkscape:connector-curvature="0"
         d="m 66980,43340 0,-600"
         id="path3918" />
    </g>
    <g
       transform="matrix(0.00900007,0,0,0.00900007,-252.50823,18.243047)"
       style="fill:#009f00;fill-opacity:0;stroke:#009f00;stroke-width:60;stroke-linecap:round;stroke-linejoin:round;stroke-opacity:1"
       id="g3920">
      <path
         inkscape:connector-curvature="0"
         d="m 64500,51000 0,3500"
         id="path3922" />
    </g>
    <g
       transform="matrix(0.00900007,0,0,0.00900007,-252.50823,18.243047)"
       style="fill:#9f0000;fill-opacity:0;stroke:#9f0000;stroke-width:60;stroke-linecap:round;stroke-linejoin:round;stroke-opacity:1"
       id="g3926">
      <polyline
         fill="none;"
         points="64000,54500 64500,55000 65000,54500 64000,54500 "
         id="polyline3928" />
    </g>
  </g>
</svg>
