<?xml version="1.0" encoding="UTF-8" standalone="no"?>
<svg
   xmlns:dc="http://purl.org/dc/elements/1.1/"
   xmlns:cc="http://creativecommons.org/ns#"
   xmlns:rdf="http://www.w3.org/1999/02/22-rdf-syntax-ns#"
   xmlns:svg="http://www.w3.org/2000/svg"
   xmlns="http://www.w3.org/2000/svg"
   xmlns:sodipodi="http://sodipodi.sourceforge.net/DTD/sodipodi-0.dtd"
   xmlns:inkscape="http://www.inkscape.org/namespaces/inkscape"
   version="1.1"
   width="168.69922"
   height="164.78705"
   viewBox="0 0 18744.357 18309.685"
   id="svg2"
   inkscape:version="0.48.4 r9939"
   sodipodi:docname="at90usb162-F_SilkS.svg">
  <metadata
     id="metadata328">
    <rdf:RDF>
      <cc:Work
         rdf:about="">
        <dc:format>image/svg+xml</dc:format>
        <dc:type
           rdf:resource="http://purl.org/dc/dcmitype/StillImage" />
      </cc:Work>
    </rdf:RDF>
  </metadata>
  <defs
     id="defs326" />
  <sodipodi:namedview
     pagecolor="#ffffff"
     bordercolor="#666666"
     borderopacity="1"
     objecttolerance="10"
     gridtolerance="10"
     guidetolerance="10"
     inkscape:pageopacity="0"
     inkscape:pageshadow="2"
     inkscape:window-width="1402"
     inkscape:window-height="911"
     id="namedview324"
     showgrid="false"
     fit-margin-top="0"
     fit-margin-left="0"
     fit-margin-right="0"
     fit-margin-bottom="0"
     inkscape:zoom="2.4176052"
     inkscape:cx="90.638635"
     inkscape:cy="80.971818"
     inkscape:window-x="0"
     inkscape:window-y="0"
     inkscape:window-maximized="0"
     inkscape:current-layer="svg2" />
  <title
     id="title4">SVG Picture created as at90usb162-F_SilkS.svg date 2015/04/29 08:24:14 </title>
  <desc
     id="desc6">Picture generated by PCBNEW </desc>
  <g
     style="fill:#000000;fill-opacity:1;stroke:#000000;stroke-linecap:round;stroke-linejoin:round;stroke-opacity:1"
     id="g8"
     transform="translate(-73440.374,-43325)" />
  <g
     style="fill:#000000;fill-opacity:0;stroke:#000000;stroke-width:39.37009811;stroke-linecap:round;stroke-linejoin:round;stroke-opacity:1"
     id="g10"
     transform="translate(-73440.374,-43325)">
    <path
       d="m 92165,61615 -18705,0"
       id="path12"
       inkscape:connector-curvature="0" />
    <path
       d="m 92165,43945 0,17670"
       id="path14"
       inkscape:connector-curvature="0" />
    <path
       d="m 73460,43945 18705,0"
       id="path16"
       inkscape:connector-curvature="0" />
    <path
       d="m 73460,61615 0,-17670"
       id="path18"
       inkscape:connector-curvature="0" />
  </g>
  <g
     style="fill:#000000;fill-opacity:0;stroke:#000000;stroke-width:50;stroke-linecap:round;stroke-linejoin:round;stroke-opacity:1"
     id="g20"
     transform="translate(-73440.374,-43325)">
    <path
       d="m 79855,48900 0,-5550"
       id="path22"
       inkscape:connector-curvature="0" />
    <path
       d="m 85755,43350 0,5550"
       id="path24"
       inkscape:connector-curvature="0" />
    <path
       d="m 79855,48900 5900,0"
       id="path26"
       inkscape:connector-curvature="0" />
    <path
       d="m 79855,43350 5900,0"
       id="path28"
       inkscape:connector-curvature="0" />
  </g>
  <g
     style="fill:#000000;fill-opacity:0;stroke:#000000;stroke-width:125;stroke-linecap:round;stroke-linejoin:round;stroke-opacity:1"
     id="g30"
     transform="translate(-73440.374,-43325)">
    <path
       d="m 89960,54050 0,-2500"
       id="path32"
       inkscape:connector-curvature="0" />
    <path
       d="m 87960,54050 0,-2500"
       id="path34"
       inkscape:connector-curvature="0" />
    <path
       d="m 88960,50550 a 1000,1000 0 0 0 -1000,1000"
       id="path36"
       inkscape:connector-curvature="0" />
    <path
       d="M 89960,51550 A 1000,1000 0 0 0 88960,50550"
       id="path38"
       inkscape:connector-curvature="0" />
    <path
       d="m 87960,54050 a 1000,1000 0 0 0 1000,1000"
       id="path40"
       inkscape:connector-curvature="0" />
    <path
       d="m 88960,55050 a 1000,1000 0 0 0 1000,-1000"
       id="path42"
       inkscape:connector-curvature="0" />
  </g>
  <g
     style="fill:#000000;fill-opacity:0;stroke:#000000;stroke-width:120;stroke-linecap:round;stroke-linejoin:round;stroke-opacity:1"
     id="g44"
     transform="translate(-73440.374,-43325)">
    <path
       d="m 80905,51465 0,-1980"
       id="path46"
       inkscape:connector-curvature="0" />
    <path
       d="m 80905,49485 1000,0"
       id="path48"
       inkscape:connector-curvature="0" />
    <path
       d="m 81905,49485 0,2000"
       id="path50"
       inkscape:connector-curvature="0" />
    <path
       d="m 81905,51485 -1000,0"
       id="path52"
       inkscape:connector-curvature="0" />
    <path
       d="m 81155,51485 -250,-250"
       id="path54"
       inkscape:connector-curvature="0" />
    <path
       d="m 91185,50325 0,1980"
       id="path56"
       inkscape:connector-curvature="0" />
    <path
       d="m 91185,52305 -1000,0"
       id="path58"
       inkscape:connector-curvature="0" />
    <path
       d="m 90185,52305 0,-2000"
       id="path60"
       inkscape:connector-curvature="0" />
    <path
       d="m 90185,50305 1000,0"
       id="path62"
       inkscape:connector-curvature="0" />
    <path
       d="m 90935,50305 250,250"
       id="path64"
       inkscape:connector-curvature="0" />
    <path
       d="m 90190,55280 0,-1980"
       id="path66"
       inkscape:connector-curvature="0" />
    <path
       d="m 90190,53300 1000,0"
       id="path68"
       inkscape:connector-curvature="0" />
    <path
       d="m 91190,53300 0,2000"
       id="path70"
       inkscape:connector-curvature="0" />
    <path
       d="m 91190,55300 -1000,0"
       id="path72"
       inkscape:connector-curvature="0" />
    <path
       d="m 90440,55300 -250,-250"
       id="path74"
       inkscape:connector-curvature="0" />
    <path
       d="m 87050,53110 0,1980"
       id="path76"
       inkscape:connector-curvature="0" />
    <path
       d="m 87050,55090 -1000,0"
       id="path78"
       inkscape:connector-curvature="0" />
    <path
       d="m 86050,55090 0,-2000"
       id="path80"
       inkscape:connector-curvature="0" />
    <path
       d="m 86050,53090 1000,0"
       id="path82"
       inkscape:connector-curvature="0" />
    <path
       d="m 86800,53090 250,250"
       id="path84"
       inkscape:connector-curvature="0" />
    <path
       d="m 83925,49485 1980,0"
       id="path86"
       inkscape:connector-curvature="0" />
    <path
       d="m 85905,49485 0,1000"
       id="path88"
       inkscape:connector-curvature="0" />
    <path
       d="m 85905,50485 -2000,0"
       id="path90"
       inkscape:connector-curvature="0" />
    <path
       d="m 83905,50485 0,-1000"
       id="path92"
       inkscape:connector-curvature="0" />
    <path
       d="m 83905,49735 250,-250"
       id="path94"
       inkscape:connector-curvature="0" />
  </g>
  <g
     style="fill:#000000;fill-opacity:0;stroke:#000000;stroke-width:150;stroke-linecap:round;stroke-linejoin:round;stroke-opacity:1"
     id="g96"
     transform="translate(-73440.374,-43325)">
    <path
       d="m 82410,49985 0,1000"
       id="path98"
       inkscape:connector-curvature="0" />
    <circle
       cx="82410"
       cy="49985"
       r="559.01703"
       id="circle100"
       sodipodi:cx="82410"
       sodipodi:cy="49985"
       sodipodi:rx="559.01703"
       sodipodi:ry="559.01703"
       d="m 82969.017,49985 c 0,308.737 -250.28,559.017 -559.017,559.017 -308.737,0 -559.017,-250.28 -559.017,-559.017 0,-308.737 250.28,-559.017 559.017,-559.017 308.737,0 559.017,250.28 559.017,559.017 z" />
    <path
       d="m 83205,49985 0,1000"
       id="path102"
       inkscape:connector-curvature="0" />
    <circle
       cx="83205"
       cy="49985"
       r="559.01703"
       id="circle104"
       sodipodi:cx="83205"
       sodipodi:cy="49985"
       sodipodi:rx="559.01703"
       sodipodi:ry="559.01703"
       d="m 83764.017,49985 c 0,308.737 -250.28,559.017 -559.017,559.017 -308.737,0 -559.017,-250.28 -559.017,-559.017 0,-308.737 250.28,-559.017 559.017,-559.017 308.737,0 559.017,250.28 559.017,559.017 z" />
    <path
       d="m 84405,50985 1000,0"
       id="path106"
       inkscape:connector-curvature="0" />
    <circle
       cx="84405"
       cy="50985"
       r="559.01703"
       id="circle108"
       sodipodi:cx="84405"
       sodipodi:cy="50985"
       sodipodi:rx="559.01703"
       sodipodi:ry="559.01703"
       d="m 84964.017,50985 c 0,308.737 -250.28,559.017 -559.017,559.017 -308.737,0 -559.017,-250.28 -559.017,-559.017 0,-308.737 250.28,-559.017 559.017,-559.017 308.737,0 559.017,250.28 559.017,559.017 z" />
  </g>
  <g
     style="fill:#000000;fill-opacity:0;stroke:#000000;stroke-width:120;stroke-linecap:round;stroke-linejoin:round;stroke-opacity:1"
     id="g110"
     transform="translate(-73440.374,-43325)">
    <path
       d="m 76855,52145 2000,0"
       id="path112"
       inkscape:connector-curvature="0" />
    <path
       d="m 78855,52145 0,2000"
       id="path114"
       inkscape:connector-curvature="0" />
    <path
       d="m 78855,54145 -2000,0"
       id="path116"
       inkscape:connector-curvature="0" />
    <path
       d="m 76855,54145 0,-2000"
       id="path118"
       inkscape:connector-curvature="0" />
  </g>
  <g
     style="fill:#000000;fill-opacity:0;stroke:#000000;stroke-width:150;stroke-linecap:round;stroke-linejoin:round;stroke-opacity:1"
     id="g120"
     transform="translate(-73440.374,-43325)">
    <path
       d="m 88275,57410 0,1000"
       id="path122"
       inkscape:connector-curvature="0" />
    <circle
       cx="88275"
       cy="57410"
       r="559.01703"
       id="circle124"
       sodipodi:cx="88275"
       sodipodi:cy="57410"
       sodipodi:rx="559.01703"
       sodipodi:ry="559.01703"
       d="m 88834.017,57410 c 0,308.737 -250.28,559.017 -559.017,559.017 -308.737,0 -559.017,-250.28 -559.017,-559.017 0,-308.737 250.28,-559.017 559.017,-559.017 308.737,0 559.017,250.28 559.017,559.017 z" />
    <path
       d="m 86715,57410 0,1000"
       id="path126"
       inkscape:connector-curvature="0" />
    <circle
       cx="86715"
       cy="57410"
       r="559.01703"
       id="circle128"
       sodipodi:cx="86715"
       sodipodi:cy="57410"
       sodipodi:rx="559.01703"
       sodipodi:ry="559.01703"
       d="m 87274.017,57410 c 0,308.737 -250.28,559.017 -559.017,559.017 -308.737,0 -559.017,-250.28 -559.017,-559.017 0,-308.737 250.28,-559.017 559.017,-559.017 308.737,0 559.017,250.28 559.017,559.017 z" />
    <path
       d="m 85160,57405 0,1000"
       id="path130"
       inkscape:connector-curvature="0" />
    <circle
       cx="85160"
       cy="57405"
       r="559.01703"
       id="circle132"
       sodipodi:cx="85160"
       sodipodi:cy="57405"
       sodipodi:rx="559.01703"
       sodipodi:ry="559.01703"
       d="m 85719.017,57405 c 0,308.737 -250.28,559.017 -559.017,559.017 -308.737,0 -559.017,-250.28 -559.017,-559.017 0,-308.737 250.28,-559.017 559.017,-559.017 308.737,0 559.017,250.28 559.017,559.017 z" />
    <path
       d="m 83600,57410 0,1000"
       id="path134"
       inkscape:connector-curvature="0" />
    <circle
       cx="83600"
       cy="57410"
       r="559.01703"
       id="circle136"
       sodipodi:cx="83600"
       sodipodi:cy="57410"
       sodipodi:rx="559.01703"
       sodipodi:ry="559.01703"
       d="m 84159.017,57410 c 0,308.737 -250.28,559.017 -559.017,559.017 -308.737,0 -559.017,-250.28 -559.017,-559.017 0,-308.737 250.28,-559.017 559.017,-559.017 308.737,0 559.017,250.28 559.017,559.017 z" />
    <path
       d="m 82040,57410 0,1000"
       id="path138"
       inkscape:connector-curvature="0" />
    <circle
       cx="82040"
       cy="57410"
       r="559.01703"
       id="circle140"
       sodipodi:cx="82040"
       sodipodi:cy="57410"
       sodipodi:rx="559.01703"
       sodipodi:ry="559.01703"
       d="m 82599.017,57410 c 0,308.737 -250.28,559.017 -559.017,559.017 -308.737,0 -559.017,-250.28 -559.017,-559.017 0,-308.737 250.28,-559.017 559.017,-559.017 308.737,0 559.017,250.28 559.017,559.017 z" />
    <path
       d="m 80485,57410 0,1000"
       id="path142"
       inkscape:connector-curvature="0" />
    <circle
       cx="80485"
       cy="57410"
       r="559.01703"
       id="circle144"
       sodipodi:cx="80485"
       sodipodi:cy="57410"
       sodipodi:rx="559.01703"
       sodipodi:ry="559.01703"
       d="m 81044.017,57410 c 0,308.737 -250.28,559.017 -559.017,559.017 -308.737,0 -559.017,-250.28 -559.017,-559.017 0,-308.737 250.28,-559.017 559.017,-559.017 308.737,0 559.017,250.28 559.017,559.017 z" />
    <path
       d="m 78920,57405 0,1000"
       id="path146"
       inkscape:connector-curvature="0" />
    <circle
       cx="78920"
       cy="57405"
       r="559.01703"
       id="circle148"
       sodipodi:cx="78920"
       sodipodi:cy="57405"
       sodipodi:rx="559.01703"
       sodipodi:ry="559.01703"
       d="m 79479.017,57405 c 0,308.737 -250.28,559.017 -559.017,559.017 -308.737,0 -559.017,-250.28 -559.017,-559.017 0,-308.737 250.28,-559.017 559.017,-559.017 308.737,0 559.017,250.28 559.017,559.017 z" />
    <path
       d="m 77365,57405 0,1000"
       id="path150"
       inkscape:connector-curvature="0" />
    <circle
       cx="77365"
       cy="57405"
       r="559.01703"
       id="circle152"
       sodipodi:cx="77365"
       sodipodi:cy="57405"
       sodipodi:rx="559.01703"
       sodipodi:ry="559.01703"
       d="m 77924.017,57405 c 0,308.737 -250.28,559.017 -559.017,559.017 -308.737,0 -559.017,-250.28 -559.017,-559.017 0,-308.737 250.28,-559.017 559.017,-559.017 308.737,0 559.017,250.28 559.017,559.017 z" />
    <path
       d="m 89835,57405 0,1000"
       id="path154"
       inkscape:connector-curvature="0" />
    <circle
       cx="89835"
       cy="57405"
       r="559.01703"
       id="circle156"
       sodipodi:cx="89835"
       sodipodi:cy="57405"
       sodipodi:rx="559.01703"
       sodipodi:ry="559.01703"
       d="m 90394.017,57405 c 0,308.737 -250.28,559.017 -559.017,559.017 -308.737,0 -559.017,-250.28 -559.017,-559.017 0,-308.737 250.28,-559.017 559.017,-559.017 308.737,0 559.017,250.28 559.017,559.017 z" />
    <path
       d="m 75810,57410 0,1000"
       id="path158"
       inkscape:connector-curvature="0" />
    <circle
       cx="75810"
       cy="57410"
       r="559.01703"
       id="circle160"
       sodipodi:cx="75810"
       sodipodi:cy="57410"
       sodipodi:rx="559.01703"
       sodipodi:ry="559.01703"
       d="m 76369.017,57410 c 0,308.737 -250.28,559.017 -559.017,559.017 -308.737,0 -559.017,-250.28 -559.017,-559.017 0,-308.737 250.28,-559.017 559.017,-559.017 308.737,0 559.017,250.28 559.017,559.017 z" />
  </g>
  <g
     style="fill:#000000;fill-opacity:0;stroke:#000000;stroke-width:120;stroke-linecap:round;stroke-linejoin:round;stroke-opacity:1"
     id="g162"
     transform="translate(-73440.374,-43325)">
    <path
       d="m 82332,44837 0,-600 228,0 57,29 29,29 29,57 0,85 -29,58 -29,28 -57,29 -228,0"
       id="path164"
       inkscape:connector-curvature="0" />
    <path
       d="m 83246,44837 -343,0"
       id="path166"
       inkscape:connector-curvature="0" />
    <path
       d="m 83075,44837 0,-600 -58,86 -57,57 -57,29"
       id="path168"
       inkscape:connector-curvature="0" />
    <path
       d="m 82047,45167 0,486 29,57 29,29 57,28 114,0 57,-28 29,-29 28,-57 0,-486"
       id="path170"
       inkscape:connector-curvature="0" />
    <path
       d="m 82647,45739 86,28 143,0 57,-28 29,-29 28,-57 0,-57 -28,-57 -29,-29 -57,-28 -114,-29 -57,-28 -29,-29 -29,-57 0,-57 29,-57 29,-29 57,-29 143,0 85,29"
       id="path172"
       inkscape:connector-curvature="0" />
    <path
       d="m 83447,45453 86,29 29,28 28,57 0,86 -28,57 -29,29 -57,28 -229,0 0,-600 200,0 58,29 28,29 29,57 0,57 -29,57 -28,29 -58,28 -200,0"
       id="path174"
       inkscape:connector-curvature="0" />
    <path
       d="m 88474,48737 400,600"
       id="path176"
       inkscape:connector-curvature="0" />
    <path
       d="m 88874,48737 -400,600"
       id="path178"
       inkscape:connector-curvature="0" />
    <path
       d="m 89417,49337 -343,0"
       id="path180"
       inkscape:connector-curvature="0" />
    <path
       d="m 89245,49337 0,-600 -57,86 -57,57 -57,29"
       id="path182"
       inkscape:connector-curvature="0" />
    <path
       d="m 88050,49920 -57,-29 -28,-29 -29,-57 0,-28 29,-57 28,-29 57,-29 115,0 57,29 28,29 29,57 0,28 -29,57 -28,29 -57,29 -115,0 -57,28 -28,29 -29,57 0,114 29,57 28,29 57,28 115,0 57,-28 28,-29 29,-57 0,-114 -29,-57 -28,-29 -57,-28"
       id="path184"
       inkscape:connector-curvature="0" />
    <path
       d="m 88536,50262 0,-600 200,429 200,-429 0,600"
       id="path186"
       inkscape:connector-curvature="0" />
    <path
       d="m 89222,50262 0,-600"
       id="path188"
       inkscape:connector-curvature="0" />
    <path
       d="m 89479,50262 0,-314 -29,-57 -57,-29 -86,0 -57,29 -28,29"
       id="path190"
       inkscape:connector-curvature="0" />
    <path
       d="m 89707,49862 315,0 -315,400 315,0"
       id="path192"
       inkscape:connector-curvature="0" />
  </g>
  <g
     style="fill:#000000;fill-opacity:0;stroke:#000000;stroke-width:80;stroke-linecap:round;stroke-linejoin:round;stroke-opacity:1"
     id="g194"
     transform="translate(-73440.374,-43325)">
    <path
       d="m 80318,50658 -19,19 -57,19 -38,0 -58,-19 -38,-38 -19,-38 -19,-76 0,-57 19,-76 19,-38 38,-39 58,-19 38,0 57,19 19,20"
       id="path196"
       inkscape:connector-curvature="0" />
    <path
       d="m 80451,50296 248,0 -134,153 58,0 38,19 19,19 19,38 0,95 -19,38 -19,19 -38,19 -115,0 -38,-19 -19,-19"
       id="path198"
       inkscape:connector-curvature="0" />
    <path
       d="m 91583,50623 -19,19 -57,19 -38,0 -58,-19 -38,-38 -19,-38 -19,-76 0,-57 19,-76 19,-38 38,-39 58,-19 38,0 57,19 19,20"
       id="path200"
       inkscape:connector-curvature="0" />
    <path
       d="m 91964,50661 -229,0"
       id="path202"
       inkscape:connector-curvature="0" />
    <path
       d="m 91850,50661 0,-400 -39,58 -38,38 -38,19"
       id="path204"
       inkscape:connector-curvature="0" />
    <path
       d="m 91613,53593 -19,19 -57,19 -38,0 -58,-19 -38,-38 -19,-38 -19,-76 0,-57 19,-76 19,-38 38,-39 58,-19 38,0 57,19 19,20"
       id="path206"
       inkscape:connector-curvature="0" />
    <path
       d="m 91765,53270 19,-20 38,-19 96,0 38,19 19,20 19,38 0,38 -19,57 -229,228 248,0"
       id="path208"
       inkscape:connector-curvature="0" />
    <path
       d="m 86493,52873 -19,19 -57,19 -38,0 -58,-19 -38,-38 -19,-38 -19,-76 0,-57 19,-76 19,-38 38,-39 58,-19 38,0 57,19 19,20"
       id="path210"
       inkscape:connector-curvature="0" />
    <path
       d="m 86836,52645 0,266"
       id="path212"
       inkscape:connector-curvature="0" />
    <path
       d="m 86740,52492 -95,286 248,0"
       id="path214"
       inkscape:connector-curvature="0" />
    <path
       d="m 86303,50143 -19,19 -57,19 -38,0 -58,-19 -38,-38 -19,-38 -19,-76 0,-57 19,-76 19,-38 38,-39 58,-19 38,0 57,19 19,20"
       id="path216"
       inkscape:connector-curvature="0" />
    <path
       d="m 86665,49781 -191,0 -19,191 19,-19 38,-19 96,0 38,19 19,19 19,38 0,95 -19,38 -19,19 -38,19 -96,0 -38,-19 -19,-19"
       id="path218"
       inkscape:connector-curvature="0" />
    <path
       d="m 82331,52047 -166,-262"
       id="path220"
       inkscape:connector-curvature="0" />
    <path
       d="m 82045,52047 0,-550 191,0 48,26 23,27 24,52 0,78 -24,53 -23,26 -48,26 -191,0"
       id="path222"
       inkscape:connector-curvature="0" />
    <path
       d="m 82807,52047 -285,0"
       id="path224"
       inkscape:connector-curvature="0" />
    <path
       d="m 82665,52047 0,-550 -48,79 -48,52 -47,26"
       id="path226"
       inkscape:connector-curvature="0" />
    <path
       d="m 83411,52052 -166,-262"
       id="path228"
       inkscape:connector-curvature="0" />
    <path
       d="m 83125,52052 0,-550 191,0 48,26 23,27 24,52 0,78 -24,53 -23,26 -48,26 -191,0"
       id="path230"
       inkscape:connector-curvature="0" />
    <path
       d="m 83602,51555 23,-27 48,-26 119,0 48,26 24,27 23,52 0,52 -23,79 -286,314 309,0"
       id="path232"
       inkscape:connector-curvature="0" />
    <path
       d="m 86361,51207 -166,-262"
       id="path234"
       inkscape:connector-curvature="0" />
    <path
       d="m 86075,51207 0,-550 191,0 48,26 23,27 24,52 0,78 -24,53 -23,26 -48,26 -191,0"
       id="path236"
       inkscape:connector-curvature="0" />
    <path
       d="m 86528,50657 309,0 -166,210 71,0 48,26 24,26 23,52 0,131 -23,53 -24,26 -48,26 -143,0 -47,-26 -24,-26"
       id="path238"
       inkscape:connector-curvature="0" />
    <path
       d="m 77554,51981 0,-400 153,0 38,19 19,20 19,38 0,57 -19,38 -19,19 -38,19 -153,0"
       id="path240"
       inkscape:connector-curvature="0" />
    <path
       d="m 77935,51620 19,-20 38,-19 96,0 38,19 19,20 19,38 0,38 -19,57 -229,228 248,0"
       id="path242"
       inkscape:connector-curvature="0" />
    <path
       d="m 88191,56662 -166,-262"
       id="path244"
       inkscape:connector-curvature="0" />
    <path
       d="m 87905,56662 0,-550 191,0 48,26 23,27 24,52 0,78 -24,53 -23,26 -48,26 -191,0"
       id="path246"
       inkscape:connector-curvature="0" />
    <path
       d="m 88620,56295 0,367"
       id="path248"
       inkscape:connector-curvature="0" />
    <path
       d="m 88501,56086 -119,393 309,0"
       id="path250"
       inkscape:connector-curvature="0" />
    <path
       d="m 86636,56667 -166,-262"
       id="path252"
       inkscape:connector-curvature="0" />
    <path
       d="m 86350,56667 0,-550 191,0 48,26 23,27 24,52 0,78 -24,53 -23,26 -48,26 -191,0"
       id="path254"
       inkscape:connector-curvature="0" />
    <path
       d="m 87089,56117 -239,0 -23,262 23,-26 48,-26 119,0 48,26 24,26 23,52 0,131 -23,53 -24,26 -48,26 -119,0 -48,-26 -23,-26"
       id="path256"
       inkscape:connector-curvature="0" />
    <path
       d="m 85066,56637 -166,-262"
       id="path258"
       inkscape:connector-curvature="0" />
    <path
       d="m 84780,56637 0,-550 191,0 48,26 23,27 24,52 0,78 -24,53 -23,26 -48,26 -191,0"
       id="path260"
       inkscape:connector-curvature="0" />
    <path
       d="m 85495,56087 -95,0 -48,26 -24,27 -48,78 -23,105 0,209 23,53 24,26 48,26 95,0 48,-26 24,-26 23,-53 0,-131 -23,-52 -24,-26 -48,-26 -95,0 -48,26 -24,26 -23,52"
       id="path262"
       inkscape:connector-curvature="0" />
    <path
       d="m 83526,56652 -166,-262"
       id="path264"
       inkscape:connector-curvature="0" />
    <path
       d="m 83240,56652 0,-550 191,0 48,26 23,27 24,52 0,78 -24,53 -23,26 -48,26 -191,0"
       id="path266"
       inkscape:connector-curvature="0" />
    <path
       d="m 83693,56102 333,0 -214,550"
       id="path268"
       inkscape:connector-curvature="0" />
    <path
       d="m 81956,56677 -166,-262"
       id="path270"
       inkscape:connector-curvature="0" />
    <path
       d="m 81670,56677 0,-550 191,0 48,26 23,27 24,52 0,78 -24,53 -23,26 -48,26 -191,0"
       id="path272"
       inkscape:connector-curvature="0" />
    <path
       d="m 82242,56363 -48,-26 -24,-27 -23,-52 0,-26 23,-52 24,-27 48,-26 95,0 48,26 24,27 23,52 0,26 -23,52 -24,27 -48,26 -95,0 -48,26 -24,26 -23,53 0,104 23,53 24,26 48,26 95,0 48,-26 24,-26 23,-53 0,-104 -23,-53 -24,-26 -48,-26"
       id="path274"
       inkscape:connector-curvature="0" />
    <path
       d="m 80396,56582 -166,-262"
       id="path276"
       inkscape:connector-curvature="0" />
    <path
       d="m 80110,56582 0,-550 191,0 48,26 23,27 24,52 0,78 -24,53 -23,26 -48,26 -191,0"
       id="path278"
       inkscape:connector-curvature="0" />
    <path
       d="m 80634,56582 96,0 47,-26 24,-26 48,-79 23,-105 0,-209 -23,-52 -24,-27 -48,-26 -95,0 -48,26 -24,27 -23,52 0,131 23,52 24,26 48,27 95,0 48,-27 24,-26 23,-52"
       id="path280"
       inkscape:connector-curvature="0" />
    <path
       d="m 78578,56602 -167,-262"
       id="path282"
       inkscape:connector-curvature="0" />
    <path
       d="m 78292,56602 0,-550 191,0 47,26 24,27 24,52 0,78 -24,53 -24,26 -47,26 -191,0"
       id="path284"
       inkscape:connector-curvature="0" />
    <path
       d="m 79054,56602 -285,0"
       id="path286"
       inkscape:connector-curvature="0" />
    <path
       d="m 78911,56602 0,-550 -47,79 -48,52 -47,26"
       id="path288"
       inkscape:connector-curvature="0" />
    <path
       d="m 79364,56052 47,0 48,26 24,27 24,52 23,105 0,131 -23,104 -24,53 -24,26 -48,26 -47,0 -48,-26 -24,-26 -23,-53 -24,-104 0,-131 24,-105 23,-52 24,-27 48,-26"
       id="path290"
       inkscape:connector-curvature="0" />
    <path
       d="m 77058,56612 -167,-262"
       id="path292"
       inkscape:connector-curvature="0" />
    <path
       d="m 76772,56612 0,-550 191,0 47,26 24,27 24,52 0,78 -24,53 -24,26 -47,26 -191,0"
       id="path294"
       inkscape:connector-curvature="0" />
    <path
       d="m 77534,56612 -285,0"
       id="path296"
       inkscape:connector-curvature="0" />
    <path
       d="m 77391,56612 0,-550 -47,79 -48,52 -47,26"
       id="path298"
       inkscape:connector-curvature="0" />
    <path
       d="m 78010,56612 -285,0"
       id="path300"
       inkscape:connector-curvature="0" />
    <path
       d="m 77868,56612 0,-550 -48,79 -48,52 -47,26"
       id="path302"
       inkscape:connector-curvature="0" />
    <path
       d="m 89528,56642 -167,-262"
       id="path304"
       inkscape:connector-curvature="0" />
    <path
       d="m 89242,56642 0,-550 191,0 47,26 24,27 24,52 0,78 -24,53 -24,26 -47,26 -191,0"
       id="path306"
       inkscape:connector-curvature="0" />
    <path
       d="m 90004,56642 -285,0"
       id="path308"
       inkscape:connector-curvature="0" />
    <path
       d="m 89861,56642 0,-550 -47,79 -48,52 -47,26"
       id="path310"
       inkscape:connector-curvature="0" />
    <path
       d="m 90195,56145 24,-27 47,-26 119,0 48,26 24,27 23,52 0,52 -23,79 -286,314 309,0"
       id="path312"
       inkscape:connector-curvature="0" />
    <path
       d="m 75488,56607 -167,-262"
       id="path314"
       inkscape:connector-curvature="0" />
    <path
       d="m 75202,56607 0,-550 191,0 47,26 24,27 24,52 0,78 -24,53 -24,26 -47,26 -191,0"
       id="path316"
       inkscape:connector-curvature="0" />
    <path
       d="m 75964,56607 -285,0"
       id="path318"
       inkscape:connector-curvature="0" />
    <path
       d="m 75821,56607 0,-550 -47,79 -48,52 -47,26"
       id="path320"
       inkscape:connector-curvature="0" />
    <path
       d="m 76131,56057 309,0 -166,210 71,0 48,26 24,26 23,52 0,131 -23,53 -24,26 -48,26 -143,0 -47,-26 -24,-26"
       id="path322"
       inkscape:connector-curvature="0" />
  </g>
</svg>
