<?xml version="1.0" encoding="UTF-8" standalone="no"?>
<!-- Created with Inkscape (http://www.inkscape.org/) -->

<svg
   xmlns:dc="http://purl.org/dc/elements/1.1/"
   xmlns:cc="http://creativecommons.org/ns#"
   xmlns:rdf="http://www.w3.org/1999/02/22-rdf-syntax-ns#"
   xmlns:svg="http://www.w3.org/2000/svg"
   xmlns="http://www.w3.org/2000/svg"
   xmlns:sodipodi="http://sodipodi.sourceforge.net/DTD/sodipodi-0.dtd"
   xmlns:inkscape="http://www.inkscape.org/namespaces/inkscape"
   width="168.72221"
   height="149.23436"
   id="svg3939"
   version="1.1"
   inkscape:version="0.48.4 r9939"
   sodipodi:docname="New document 2">
  <defs
     id="defs3941" />
  <sodipodi:namedview
     id="base"
     pagecolor="#ffffff"
     bordercolor="#666666"
     borderopacity="1.0"
     inkscape:pageopacity="0.0"
     inkscape:pageshadow="2"
     inkscape:zoom="0.98994949"
     inkscape:cx="99.207217"
     inkscape:cy="78.409767"
     inkscape:document-units="px"
     inkscape:current-layer="layer1"
     showgrid="false"
     fit-margin-top="0"
     fit-margin-left="0"
     fit-margin-right="0"
     fit-margin-bottom="0"
     inkscape:window-width="467"
     inkscape:window-height="456"
     inkscape:window-x="132"
     inkscape:window-y="138"
     inkscape:window-maximized="0" />
  <metadata
     id="metadata3944">
    <rdf:RDF>
      <cc:Work
         rdf:about="">
        <dc:format>image/svg+xml</dc:format>
        <dc:type
           rdf:resource="http://purl.org/dc/dcmitype/StillImage" />
        <dc:title></dc:title>
      </cc:Work>
    </rdf:RDF>
  </metadata>
  <g
     inkscape:label="Layer 1"
     inkscape:groupmode="layer"
     id="layer1"
     transform="translate(-178.49722,-494.89342)">
    <path
       style="fill:#000000;fill-opacity:0;stroke:#000000;stroke-width:0.35433048;stroke-linecap:round;stroke-linejoin:round;stroke-opacity:1"
       inkscape:connector-curvature="0"
       id="path384"
       d="m 347.02955,643.93637 -168.34481,0" />
    <path
       style="fill:#000000;fill-opacity:0;stroke:#000000;stroke-width:0.35433048;stroke-linecap:round;stroke-linejoin:round;stroke-opacity:1"
       inkscape:connector-curvature="0"
       id="path386"
       d="m 347.02955,500.52154 0,143.41483" />
    <path
       style="fill:#000000;fill-opacity:0;stroke:#000000;stroke-width:0.35433048;stroke-linecap:round;stroke-linejoin:round;stroke-opacity:1"
       inkscape:connector-curvature="0"
       id="path388"
       d="m 178.68474,500.52154 168.34481,0" />
    <path
       style="fill:#000000;fill-opacity:0;stroke:#000000;stroke-width:0.35433048;stroke-linecap:round;stroke-linejoin:round;stroke-opacity:1"
       inkscape:connector-curvature="0"
       id="path390"
       d="m 178.68474,643.93637 0,-143.41483" />
    <g
       transform="matrix(0.00899999,0,0,0.00899999,-482.54453,89.311992)"
       style="fill:#000000;fill-opacity:0;stroke:#000000;stroke-width:120;stroke-linecap:round;stroke-linejoin:round;stroke-opacity:1"
       id="g392">
      <path
         inkscape:connector-curvature="0"
         d="m 82342,46577 0,-600 228,0 57,29 29,29 29,57 0,85 -29,58 -29,28 -57,29 -228,0"
         id="path394" />
      <path
         inkscape:connector-curvature="0"
         d="m 83256,46577 -343,0"
         id="path396" />
      <path
         inkscape:connector-curvature="0"
         d="m 83085,46577 0,-600 -58,86 -57,57 -57,29"
         id="path398" />
      <path
         inkscape:connector-curvature="0"
         d="m 82057,46907 0,486 29,57 29,29 57,28 114,0 57,-28 29,-29 28,-57 0,-486"
         id="path400" />
      <path
         inkscape:connector-curvature="0"
         d="m 82657,47479 86,28 143,0 57,-28 29,-29 28,-57 0,-57 -28,-57 -29,-29 -57,-28 -114,-29 -57,-28 -29,-29 -29,-57 0,-57 29,-57 29,-29 57,-29 143,0 85,29"
         id="path402" />
      <path
         inkscape:connector-curvature="0"
         d="m 83457,47193 86,29 29,28 28,57 0,86 -28,57 -29,29 -57,28 -229,0 0,-600 200,0 58,29 28,29 29,57 0,57 -29,57 -28,29 -58,28 -200,0"
         id="path404" />
      <path
         inkscape:connector-curvature="0"
         d="m 88484,50477 400,600"
         id="path406" />
      <path
         inkscape:connector-curvature="0"
         d="m 88884,50477 -400,600"
         id="path408" />
      <path
         inkscape:connector-curvature="0"
         d="m 89427,51077 -343,0"
         id="path410" />
      <path
         inkscape:connector-curvature="0"
         d="m 89255,51077 0,-600 -57,86 -57,57 -57,29"
         id="path412" />
      <path
         inkscape:connector-curvature="0"
         d="m 88060,51660 -57,-29 -28,-29 -29,-57 0,-28 29,-57 28,-29 57,-29 115,0 57,29 28,29 29,57 0,28 -29,57 -28,29 -57,29 -115,0 -57,28 -28,29 -29,57 0,114 29,57 28,29 57,28 115,0 57,-28 28,-29 29,-57 0,-114 -29,-57 -28,-29 -57,-28"
         id="path414" />
      <path
         inkscape:connector-curvature="0"
         d="m 88546,52002 0,-600 200,429 200,-429 0,600"
         id="path416" />
      <path
         inkscape:connector-curvature="0"
         d="m 89232,52002 0,-600"
         id="path418" />
      <path
         inkscape:connector-curvature="0"
         d="m 89489,52002 0,-314 -29,-57 -57,-29 -86,0 -57,29 -28,29"
         id="path420" />
      <path
         inkscape:connector-curvature="0"
         d="m 89717,51602 315,0 -315,400 315,0"
         id="path422" />
    </g>
    <g
       transform="matrix(0.00899999,0,0,0.00899999,-482.54453,89.311992)"
       style="fill:#000000;fill-opacity:0;stroke:#000000;stroke-width:80;stroke-linecap:round;stroke-linejoin:round;stroke-opacity:1"
       id="g424">
      <path
         inkscape:connector-curvature="0"
         d="m 80328,52398 -19,19 -57,19 -38,0 -58,-19 -38,-38 -19,-38 -19,-76 0,-57 19,-76 19,-38 38,-39 58,-19 38,0 57,19 19,20"
         id="path426" />
      <path
         inkscape:connector-curvature="0"
         d="m 80461,52036 248,0 -134,153 58,0 38,19 19,19 19,38 0,95 -19,38 -19,19 -38,19 -115,0 -38,-19 -19,-19"
         id="path428" />
      <path
         inkscape:connector-curvature="0"
         d="m 91593,52363 -19,19 -57,19 -38,0 -58,-19 -38,-38 -19,-38 -19,-76 0,-57 19,-76 19,-38 38,-39 58,-19 38,0 57,19 19,20"
         id="path430" />
      <path
         inkscape:connector-curvature="0"
         d="m 91974,52401 -229,0"
         id="path432" />
      <path
         inkscape:connector-curvature="0"
         d="m 91860,52401 0,-400 -39,58 -38,38 -38,19"
         id="path434" />
      <path
         inkscape:connector-curvature="0"
         d="m 91623,55333 -19,19 -57,19 -38,0 -58,-19 -38,-38 -19,-38 -19,-76 0,-57 19,-76 19,-38 38,-39 58,-19 38,0 57,19 19,20"
         id="path436" />
      <path
         inkscape:connector-curvature="0"
         d="m 91775,55010 19,-20 38,-19 96,0 38,19 19,20 19,38 0,38 -19,57 -229,228 248,0"
         id="path438" />
      <path
         inkscape:connector-curvature="0"
         d="m 86503,54613 -19,19 -57,19 -38,0 -58,-19 -38,-38 -19,-38 -19,-76 0,-57 19,-76 19,-38 38,-39 58,-19 38,0 57,19 19,20"
         id="path440" />
      <path
         inkscape:connector-curvature="0"
         d="m 86846,54385 0,266"
         id="path442" />
      <path
         inkscape:connector-curvature="0"
         d="m 86750,54232 -95,286 248,0"
         id="path444" />
      <path
         inkscape:connector-curvature="0"
         d="m 86313,51883 -19,19 -57,19 -38,0 -58,-19 -38,-38 -19,-38 -19,-76 0,-57 19,-76 19,-38 38,-39 58,-19 38,0 57,19 19,20"
         id="path446" />
      <path
         inkscape:connector-curvature="0"
         d="m 86675,51521 -191,0 -19,191 19,-19 38,-19 96,0 38,19 19,19 19,38 0,95 -19,38 -19,19 -38,19 -96,0 -38,-19 -19,-19"
         id="path448" />
      <path
         inkscape:connector-curvature="0"
         d="m 82341,53787 -166,-262"
         id="path450" />
      <path
         inkscape:connector-curvature="0"
         d="m 82055,53787 0,-550 191,0 48,26 23,27 24,52 0,78 -24,53 -23,26 -48,26 -191,0"
         id="path452" />
      <path
         inkscape:connector-curvature="0"
         d="m 82817,53787 -285,0"
         id="path454" />
      <path
         inkscape:connector-curvature="0"
         d="m 82675,53787 0,-550 -48,79 -48,52 -47,26"
         id="path456" />
      <path
         inkscape:connector-curvature="0"
         d="m 83421,53792 -166,-262"
         id="path458" />
      <path
         inkscape:connector-curvature="0"
         d="m 83135,53792 0,-550 191,0 48,26 23,27 24,52 0,78 -24,53 -23,26 -48,26 -191,0"
         id="path460" />
      <path
         inkscape:connector-curvature="0"
         d="m 83612,53295 23,-27 48,-26 119,0 48,26 24,27 23,52 0,52 -23,79 -286,314 309,0"
         id="path462" />
      <path
         inkscape:connector-curvature="0"
         d="m 86371,52947 -166,-262"
         id="path464" />
      <path
         inkscape:connector-curvature="0"
         d="m 86085,52947 0,-550 191,0 48,26 23,27 24,52 0,78 -24,53 -23,26 -48,26 -191,0"
         id="path466" />
      <path
         inkscape:connector-curvature="0"
         d="m 86538,52397 309,0 -166,210 71,0 48,26 24,26 23,52 0,131 -23,53 -24,26 -48,26 -143,0 -47,-26 -24,-26"
         id="path468" />
      <path
         inkscape:connector-curvature="0"
         d="m 77564,53721 0,-400 153,0 38,19 19,20 19,38 0,57 -19,38 -19,19 -38,19 -153,0"
         id="path470" />
      <path
         inkscape:connector-curvature="0"
         d="m 77945,53360 19,-20 38,-19 96,0 38,19 19,20 19,38 0,38 -19,57 -229,228 248,0"
         id="path472" />
    </g>
    <g
       transform="matrix(0.00899999,0,0,0.00899999,-482.54453,89.311992)"
       style="fill:#000000;fill-opacity:0;stroke:#000000;stroke-width:50;stroke-linecap:round;stroke-linejoin:round;stroke-opacity:1"
       id="g474">
      <path
         inkscape:connector-curvature="0"
         d="m 79865,50640 0,-5550"
         id="path476" />
      <path
         inkscape:connector-curvature="0"
         d="m 85765,45090 0,5550"
         id="path478" />
      <path
         inkscape:connector-curvature="0"
         d="m 79865,50640 5900,0"
         id="path480" />
      <path
         inkscape:connector-curvature="0"
         d="m 79865,45090 5900,0"
         id="path482" />
    </g>
    <g
       transform="matrix(0.00899999,0,0,0.00899999,-482.54453,89.311992)"
       style="fill:#000000;fill-opacity:0;stroke:#000000;stroke-width:125;stroke-linecap:round;stroke-linejoin:round;stroke-opacity:1"
       id="g484">
      <path
         inkscape:connector-curvature="0"
         d="m 89970,55790 0,-2500"
         id="path486" />
      <path
         inkscape:connector-curvature="0"
         d="m 87970,55790 0,-2500"
         id="path488" />
      <path
         inkscape:connector-curvature="0"
         d="m 88970,52290 a 1000,1000 0 0 0 -1000,1000"
         id="path490" />
      <path
         inkscape:connector-curvature="0"
         d="M 89970,53290 A 1000,1000 0 0 0 88970,52290"
         id="path492" />
      <path
         inkscape:connector-curvature="0"
         d="m 87970,55790 a 1000,1000 0 0 0 1000,1000"
         id="path494" />
      <path
         inkscape:connector-curvature="0"
         d="m 88970,56790 a 1000,1000 0 0 0 1000,-1000"
         id="path496" />
    </g>
    <g
       transform="matrix(0.00899999,0,0,0.00899999,-482.54453,89.311992)"
       style="fill:#000000;fill-opacity:0;stroke:#000000;stroke-width:120;stroke-linecap:round;stroke-linejoin:round;stroke-opacity:1"
       id="g498">
      <path
         inkscape:connector-curvature="0"
         d="m 80915,53205 0,-1980"
         id="path500" />
      <path
         inkscape:connector-curvature="0"
         d="m 80915,51225 1000,0"
         id="path502" />
      <path
         inkscape:connector-curvature="0"
         d="m 81915,51225 0,2000"
         id="path504" />
      <path
         inkscape:connector-curvature="0"
         d="m 81915,53225 -1000,0"
         id="path506" />
      <path
         inkscape:connector-curvature="0"
         d="m 81165,53225 -250,-250"
         id="path508" />
      <path
         inkscape:connector-curvature="0"
         d="m 91195,52065 0,1980"
         id="path510" />
      <path
         inkscape:connector-curvature="0"
         d="m 91195,54045 -1000,0"
         id="path512" />
      <path
         inkscape:connector-curvature="0"
         d="m 90195,54045 0,-2000"
         id="path514" />
      <path
         inkscape:connector-curvature="0"
         d="m 90195,52045 1000,0"
         id="path516" />
      <path
         inkscape:connector-curvature="0"
         d="m 90945,52045 250,250"
         id="path518" />
      <path
         inkscape:connector-curvature="0"
         d="m 90200,57020 0,-1980"
         id="path520" />
      <path
         inkscape:connector-curvature="0"
         d="m 90200,55040 1000,0"
         id="path522" />
      <path
         inkscape:connector-curvature="0"
         d="m 91200,55040 0,2000"
         id="path524" />
      <path
         inkscape:connector-curvature="0"
         d="m 91200,57040 -1000,0"
         id="path526" />
      <path
         inkscape:connector-curvature="0"
         d="m 90450,57040 -250,-250"
         id="path528" />
      <path
         inkscape:connector-curvature="0"
         d="m 87060,54850 0,1980"
         id="path530" />
      <path
         inkscape:connector-curvature="0"
         d="m 87060,56830 -1000,0"
         id="path532" />
      <path
         inkscape:connector-curvature="0"
         d="m 86060,56830 0,-2000"
         id="path534" />
      <path
         inkscape:connector-curvature="0"
         d="m 86060,54830 1000,0"
         id="path536" />
      <path
         inkscape:connector-curvature="0"
         d="m 86810,54830 250,250"
         id="path538" />
      <path
         inkscape:connector-curvature="0"
         d="m 83935,51225 1980,0"
         id="path540" />
      <path
         inkscape:connector-curvature="0"
         d="m 85915,51225 0,1000"
         id="path542" />
      <path
         inkscape:connector-curvature="0"
         d="m 85915,52225 -2000,0"
         id="path544" />
      <path
         inkscape:connector-curvature="0"
         d="m 83915,52225 0,-1000"
         id="path546" />
      <path
         inkscape:connector-curvature="0"
         d="m 83915,51475 250,-250"
         id="path548" />
    </g>
    <g
       transform="matrix(0.00899999,0,0,0.00899999,-482.54453,89.311992)"
       style="fill:#000000;fill-opacity:0;stroke:#000000;stroke-width:150;stroke-linecap:round;stroke-linejoin:round;stroke-opacity:1"
       id="g550">
      <path
         inkscape:connector-curvature="0"
         d="m 82420,51725 0,1000"
         id="path552" />
      <circle
         sodipodi:ry="559.01703"
         sodipodi:rx="559.01703"
         sodipodi:cy="51725"
         sodipodi:cx="82420"
         d="m 82979.017,51725 c 0,308.737 -250.28,559.017 -559.017,559.017 -308.737,0 -559.017,-250.28 -559.017,-559.017 0,-308.737 250.28,-559.017 559.017,-559.017 308.737,0 559.017,250.28 559.017,559.017 z"
         cx="82420"
         cy="51725"
         r="559.01703"
         id="circle554" />
      <path
         inkscape:connector-curvature="0"
         d="m 83215,51725 0,1000"
         id="path556" />
      <circle
         sodipodi:ry="559.01703"
         sodipodi:rx="559.01703"
         sodipodi:cy="51725"
         sodipodi:cx="83215"
         d="m 83774.017,51725 c 0,308.737 -250.28,559.017 -559.017,559.017 -308.737,0 -559.017,-250.28 -559.017,-559.017 0,-308.737 250.28,-559.017 559.017,-559.017 308.737,0 559.017,250.28 559.017,559.017 z"
         cx="83215"
         cy="51725"
         r="559.01703"
         id="circle558" />
      <path
         inkscape:connector-curvature="0"
         d="m 84415,52725 1000,0"
         id="path560" />
      <circle
         sodipodi:ry="559.01703"
         sodipodi:rx="559.01703"
         sodipodi:cy="52725"
         sodipodi:cx="84415"
         d="m 84974.017,52725 c 0,308.737 -250.28,559.017 -559.017,559.017 -308.737,0 -559.017,-250.28 -559.017,-559.017 0,-308.737 250.28,-559.017 559.017,-559.017 308.737,0 559.017,250.28 559.017,559.017 z"
         cx="84415"
         cy="52725"
         r="559.01703"
         id="circle562" />
    </g>
    <g
       transform="matrix(0.00899999,0,0,0.00899999,-482.54453,89.311992)"
       style="fill:#000000;fill-opacity:0;stroke:#000000;stroke-width:120;stroke-linecap:round;stroke-linejoin:round;stroke-opacity:1"
       id="g564">
      <path
         inkscape:connector-curvature="0"
         d="m 76865,53885 2000,0"
         id="path566" />
      <path
         inkscape:connector-curvature="0"
         d="m 78865,53885 0,2000"
         id="path568" />
      <path
         inkscape:connector-curvature="0"
         d="m 78865,55885 -2000,0"
         id="path570" />
      <path
         inkscape:connector-curvature="0"
         d="m 76865,55885 0,-2000"
         id="path572" />
    </g>
    <g
       transform="matrix(0.00899999,0,0,0.00899999,-482.54453,89.311992)"
       style="fill:#000000;fill-opacity:1;stroke:#000000;stroke-width:39.37009811;stroke-linecap:round;stroke-linejoin:round;stroke-opacity:1"
       id="g576">
      <circle
         sodipodi:ry="275.815"
         sodipodi:rx="275.815"
         sodipodi:cy="50190"
         sodipodi:cx="81415"
         d="m 81690.815,50190 c 0,152.328 -123.487,275.815 -275.815,275.815 -152.328,0 -275.815,-123.487 -275.815,-275.815 0,-152.328 123.487,-275.815 275.815,-275.815 152.328,0 275.815,123.487 275.815,275.815 z"
         cx="81415"
         cy="50190"
         r="275.815"
         id="circle578" />
      <circle
         sodipodi:ry="275.815"
         sodipodi:rx="275.815"
         sodipodi:cy="50190"
         sodipodi:cx="82415"
         d="m 82690.815,50190 c 0,152.328 -123.487,275.815 -275.815,275.815 -152.328,0 -275.815,-123.487 -275.815,-275.815 0,-152.328 123.487,-275.815 275.815,-275.815 152.328,0 275.815,123.487 275.815,275.815 z"
         cx="82415"
         cy="50190"
         r="275.815"
         id="circle580" />
      <circle
         sodipodi:ry="275.815"
         sodipodi:rx="275.815"
         sodipodi:cy="50190"
         sodipodi:cx="83215"
         d="m 83490.815,50190 c 0,152.328 -123.487,275.815 -275.815,275.815 -152.328,0 -275.815,-123.487 -275.815,-275.815 0,-152.328 123.487,-275.815 275.815,-275.815 152.328,0 275.815,123.487 275.815,275.815 z"
         cx="83215"
         cy="50190"
         r="275.815"
         id="circle582" />
      <circle
         sodipodi:ry="275.815"
         sodipodi:rx="275.815"
         sodipodi:cy="50190"
         sodipodi:cx="84215"
         d="m 84490.815,50190 c 0,152.328 -123.487,275.815 -275.815,275.815 -152.328,0 -275.815,-123.487 -275.815,-275.815 0,-152.328 123.487,-275.815 275.815,-275.815 152.328,0 275.815,123.487 275.815,275.815 z"
         cx="84215"
         cy="50190"
         r="275.815"
         id="circle584" />
      <circle
         sodipodi:ry="570.815"
         sodipodi:rx="570.815"
         sodipodi:cy="49140"
         sodipodi:cx="80215"
         d="m 80785.815,49140 c 0,315.252 -255.563,570.815 -570.815,570.815 -315.252,0 -570.815,-255.563 -570.815,-570.815 0,-315.252 255.563,-570.815 570.815,-570.815 315.252,0 570.815,255.563 570.815,570.815 z"
         cx="80215"
         cy="49140"
         r="570.815"
         id="circle586" />
      <circle
         sodipodi:ry="570.815"
         sodipodi:rx="570.815"
         sodipodi:cy="49140"
         sodipodi:cx="85615"
         d="m 86185.815,49140 c 0,315.252 -255.563,570.815 -570.815,570.815 -315.252,0 -570.815,-255.563 -570.815,-570.815 0,-315.252 255.563,-570.815 570.815,-570.815 315.252,0 570.815,255.563 570.815,570.815 z"
         cx="85615"
         cy="49140"
         r="570.815"
         id="circle588" />
      <circle
         sodipodi:ry="260.315"
         sodipodi:rx="260.315"
         sodipodi:cy="55540"
         sodipodi:cx="88970"
         d="m 89230.315,55540 c 0,143.768 -116.547,260.315 -260.315,260.315 -143.768,0 -260.315,-116.547 -260.315,-260.315 0,-143.768 116.547,-260.315 260.315,-260.315 143.768,0 260.315,116.547 260.315,260.315 z"
         cx="88970"
         cy="55540"
         r="260.315"
         id="circle590" />
      <circle
         sodipodi:ry="260.315"
         sodipodi:rx="260.315"
         sodipodi:cy="53540"
         sodipodi:cx="88970"
         d="m 89230.315,53540 c 0,143.768 -116.547,260.315 -260.315,260.315 -143.768,0 -260.315,-116.547 -260.315,-260.315 0,-143.768 116.547,-260.315 260.315,-260.315 143.768,0 260.315,116.547 260.315,260.315 z"
         cx="88970"
         cy="53540"
         r="260.315"
         id="circle592" />
      <circle
         sodipodi:ry="255.315"
         sodipodi:rx="255.315"
         sodipodi:cy="52725"
         sodipodi:cx="81415"
         d="m 81670.315,52725 c 0,141.007 -114.308,255.315 -255.315,255.315 -141.007,0 -255.315,-114.308 -255.315,-255.315 0,-141.007 114.308,-255.315 255.315,-255.315 141.007,0 255.315,114.308 255.315,255.315 z"
         cx="81415"
         cy="52725"
         r="255.315"
         id="circle594" />
      <circle
         sodipodi:ry="255.315"
         sodipodi:rx="255.315"
         sodipodi:cy="51725"
         sodipodi:cx="81415"
         d="m 81670.315,51725 c 0,141.007 -114.308,255.315 -255.315,255.315 -141.007,0 -255.315,-114.308 -255.315,-255.315 0,-141.007 114.308,-255.315 255.315,-255.315 141.007,0 255.315,114.308 255.315,255.315 z"
         cx="81415"
         cy="51725"
         r="255.315"
         id="circle596" />
      <circle
         sodipodi:ry="255.315"
         sodipodi:rx="255.315"
         sodipodi:cy="52545"
         sodipodi:cx="90695"
         d="m 90950.315,52545 c 0,141.007 -114.308,255.315 -255.315,255.315 -141.007,0 -255.315,-114.308 -255.315,-255.315 0,-141.007 114.308,-255.315 255.315,-255.315 141.007,0 255.315,114.308 255.315,255.315 z"
         cx="90695"
         cy="52545"
         r="255.315"
         id="circle598" />
      <circle
         sodipodi:ry="255.315"
         sodipodi:rx="255.315"
         sodipodi:cy="53545"
         sodipodi:cx="90695"
         d="m 90950.315,53545 c 0,141.007 -114.308,255.315 -255.315,255.315 -141.007,0 -255.315,-114.308 -255.315,-255.315 0,-141.007 114.308,-255.315 255.315,-255.315 141.007,0 255.315,114.308 255.315,255.315 z"
         cx="90695"
         cy="53545"
         r="255.315"
         id="circle600" />
      <circle
         sodipodi:ry="255.315"
         sodipodi:rx="255.315"
         sodipodi:cy="56540"
         sodipodi:cx="90700"
         d="m 90955.315,56540 c 0,141.007 -114.308,255.315 -255.315,255.315 -141.007,0 -255.315,-114.308 -255.315,-255.315 0,-141.007 114.308,-255.315 255.315,-255.315 141.007,0 255.315,114.308 255.315,255.315 z"
         cx="90700"
         cy="56540"
         r="255.315"
         id="circle602" />
      <circle
         sodipodi:ry="255.315"
         sodipodi:rx="255.315"
         sodipodi:cy="55540"
         sodipodi:cx="90700"
         d="m 90955.315,55540 c 0,141.007 -114.308,255.315 -255.315,255.315 -141.007,0 -255.315,-114.308 -255.315,-255.315 0,-141.007 114.308,-255.315 255.315,-255.315 141.007,0 255.315,114.308 255.315,255.315 z"
         cx="90700"
         cy="55540"
         r="255.315"
         id="circle604" />
      <circle
         sodipodi:ry="255.315"
         sodipodi:rx="255.315"
         sodipodi:cy="55330"
         sodipodi:cx="86560"
         d="m 86815.315,55330 c 0,141.007 -114.308,255.315 -255.315,255.315 -141.007,0 -255.315,-114.308 -255.315,-255.315 0,-141.007 114.308,-255.315 255.315,-255.315 141.007,0 255.315,114.308 255.315,255.315 z"
         cx="86560"
         cy="55330"
         r="255.315"
         id="circle606" />
      <circle
         sodipodi:ry="255.315"
         sodipodi:rx="255.315"
         sodipodi:cy="56330"
         sodipodi:cx="86560"
         d="m 86815.315,56330 c 0,141.007 -114.308,255.315 -255.315,255.315 -141.007,0 -255.315,-114.308 -255.315,-255.315 0,-141.007 114.308,-255.315 255.315,-255.315 141.007,0 255.315,114.308 255.315,255.315 z"
         cx="86560"
         cy="56330"
         r="255.315"
         id="circle608" />
      <circle
         sodipodi:ry="255.315"
         sodipodi:rx="255.315"
         sodipodi:cy="51725"
         sodipodi:cx="84415"
         d="m 84670.315,51725 c 0,141.007 -114.308,255.315 -255.315,255.315 -141.007,0 -255.315,-114.308 -255.315,-255.315 0,-141.007 114.308,-255.315 255.315,-255.315 141.007,0 255.315,114.308 255.315,255.315 z"
         cx="84415"
         cy="51725"
         r="255.315"
         id="circle610" />
      <circle
         sodipodi:ry="255.315"
         sodipodi:rx="255.315"
         sodipodi:cy="51725"
         sodipodi:cx="85415"
         d="m 85670.315,51725 c 0,141.007 -114.308,255.315 -255.315,255.315 -141.007,0 -255.315,-114.308 -255.315,-255.315 0,-141.007 114.308,-255.315 255.315,-255.315 141.007,0 255.315,114.308 255.315,255.315 z"
         cx="85415"
         cy="51725"
         r="255.315"
         id="circle612" />
      <circle
         sodipodi:ry="255.315"
         sodipodi:rx="255.315"
         sodipodi:cy="51725"
         sodipodi:cx="82420"
         d="m 82675.315,51725 c 0,141.007 -114.308,255.315 -255.315,255.315 -141.007,0 -255.315,-114.308 -255.315,-255.315 0,-141.007 114.308,-255.315 255.315,-255.315 141.007,0 255.315,114.308 255.315,255.315 z"
         cx="82420"
         cy="51725"
         r="255.315"
         id="circle614" />
      <circle
         sodipodi:ry="255.315"
         sodipodi:rx="255.315"
         sodipodi:cy="52725"
         sodipodi:cx="82420"
         d="m 82675.315,52725 c 0,141.007 -114.308,255.315 -255.315,255.315 -141.007,0 -255.315,-114.308 -255.315,-255.315 0,-141.007 114.308,-255.315 255.315,-255.315 141.007,0 255.315,114.308 255.315,255.315 z"
         cx="82420"
         cy="52725"
         r="255.315"
         id="circle616" />
      <circle
         sodipodi:ry="255.315"
         sodipodi:rx="255.315"
         sodipodi:cy="51725"
         sodipodi:cx="83215"
         d="m 83470.315,51725 c 0,141.007 -114.308,255.315 -255.315,255.315 -141.007,0 -255.315,-114.308 -255.315,-255.315 0,-141.007 114.308,-255.315 255.315,-255.315 141.007,0 255.315,114.308 255.315,255.315 z"
         cx="83215"
         cy="51725"
         r="255.315"
         id="circle618" />
      <circle
         sodipodi:ry="255.315"
         sodipodi:rx="255.315"
         sodipodi:cy="52725"
         sodipodi:cx="83215"
         d="m 83470.315,52725 c 0,141.007 -114.308,255.315 -255.315,255.315 -141.007,0 -255.315,-114.308 -255.315,-255.315 0,-141.007 114.308,-255.315 255.315,-255.315 141.007,0 255.315,114.308 255.315,255.315 z"
         cx="83215"
         cy="52725"
         r="255.315"
         id="circle620" />
      <circle
         sodipodi:ry="255.315"
         sodipodi:rx="255.315"
         sodipodi:cy="52725"
         sodipodi:cx="84415"
         d="m 84670.315,52725 c 0,141.007 -114.308,255.315 -255.315,255.315 -141.007,0 -255.315,-114.308 -255.315,-255.315 0,-141.007 114.308,-255.315 255.315,-255.315 141.007,0 255.315,114.308 255.315,255.315 z"
         cx="84415"
         cy="52725"
         r="255.315"
         id="circle622" />
      <circle
         sodipodi:ry="255.315"
         sodipodi:rx="255.315"
         sodipodi:cy="52725"
         sodipodi:cx="85415"
         d="m 85670.315,52725 c 0,141.007 -114.308,255.315 -255.315,255.315 -141.007,0 -255.315,-114.308 -255.315,-255.315 0,-141.007 114.308,-255.315 255.315,-255.315 141.007,0 255.315,114.308 255.315,255.315 z"
         cx="85415"
         cy="52725"
         r="255.315"
         id="circle624" />
      <polyline
         style="fill-rule:evenodd"
         points="77084,55665 77084,55104 77645,55104 77645,55665 77084,55665 "
         id="polyline626" />
      <circle
         sodipodi:ry="280.315"
         sodipodi:rx="280.315"
         sodipodi:cy="54385"
         sodipodi:cx="77365"
         d="m 77645.315,54385 c 0,154.814 -125.501,280.315 -280.315,280.315 -154.814,0 -280.315,-125.501 -280.315,-280.315 0,-154.814 125.501,-280.315 280.315,-280.315 154.814,0 280.315,125.501 280.315,280.315 z"
         cx="77365"
         cy="54385"
         r="280.315"
         id="circle628" />
      <circle
         sodipodi:ry="280.315"
         sodipodi:rx="280.315"
         sodipodi:cy="55385"
         sodipodi:cx="78365"
         d="m 78645.315,55385 c 0,154.814 -125.501,280.315 -280.315,280.315 -154.814,0 -280.315,-125.501 -280.315,-280.315 0,-154.814 125.501,-280.315 280.315,-280.315 154.814,0 280.315,125.501 280.315,280.315 z"
         cx="78365"
         cy="55385"
         r="280.315"
         id="circle630" />
      <circle
         sodipodi:ry="280.315"
         sodipodi:rx="280.315"
         sodipodi:cy="54385"
         sodipodi:cx="78365"
         d="m 78645.315,54385 c 0,154.814 -125.501,280.315 -280.315,280.315 -154.814,0 -280.315,-125.501 -280.315,-280.315 0,-154.814 125.501,-280.315 280.315,-280.315 154.814,0 280.315,125.501 280.315,280.315 z"
         cx="78365"
         cy="54385"
         r="280.315"
         id="circle632" />
    </g>
  </g>
</svg>
