<?xml version="1.0" encoding="UTF-8" standalone="no"?>
<svg
   xmlns:dc="http://purl.org/dc/elements/1.1/"
   xmlns:cc="http://creativecommons.org/ns#"
   xmlns:rdf="http://www.w3.org/1999/02/22-rdf-syntax-ns#"
   xmlns:svg="http://www.w3.org/2000/svg"
   xmlns="http://www.w3.org/2000/svg"
   xmlns:sodipodi="http://sodipodi.sourceforge.net/DTD/sodipodi-0.dtd"
   xmlns:inkscape="http://www.inkscape.org/namespaces/inkscape"
   version="1.1"
   width="168.69922"
   height="164.78705"
   viewBox="0 0 18744.357 18309.685"
   id="svg2"
   inkscape:version="0.48.4 r9939"
   sodipodi:docname="at90usb162-F_SilkS.svg">
  <metadata
     id="metadata550">
    <rdf:RDF>
      <cc:Work
         rdf:about="">
        <dc:format>image/svg+xml</dc:format>
        <dc:type
           rdf:resource="http://purl.org/dc/dcmitype/StillImage" />
        <dc:title>SVG Picture created as at90usb162-F_SilkS.svg date 2015/08/07 10:23:02 </dc:title>
      </cc:Work>
    </rdf:RDF>
  </metadata>
  <defs
     id="defs548" />
  <sodipodi:namedview
     pagecolor="#ffffff"
     bordercolor="#666666"
     borderopacity="1"
     objecttolerance="10"
     gridtolerance="10"
     guidetolerance="10"
     inkscape:pageopacity="0"
     inkscape:pageshadow="2"
     inkscape:window-width="1334"
     inkscape:window-height="833"
     id="namedview546"
     showgrid="false"
     fit-margin-top="0"
     fit-margin-left="0"
     fit-margin-right="0"
     fit-margin-bottom="0"
     inkscape:zoom="1.7095051"
     inkscape:cx="103.70286"
     inkscape:cy="94.651998"
     inkscape:window-x="0"
     inkscape:window-y="0"
     inkscape:window-maximized="0"
     inkscape:current-layer="svg2" />
  <title
     id="title4">SVG Picture created as at90usb162-F_SilkS.svg date 2015/08/07 10:23:02 </title>
  <desc
     id="desc6">Picture generated by PCBNEW </desc>
  <g
     style="fill:#000000;fill-opacity:1;stroke:#000000;stroke-linecap:round;stroke-linejoin:round;stroke-opacity:1"
     id="g8"
     transform="translate(-73440.374,-43325)" />
  <g
     style="fill:#000000;fill-opacity:0;stroke:#000000;stroke-width:39.37009811;stroke-linecap:round;stroke-linejoin:round;stroke-opacity:1"
     id="g10"
     transform="translate(-73440.374,-43325)">
    <path
       d="m 92165,61615 -18705,0"
       id="path12"
       inkscape:connector-curvature="0" />
    <path
       d="m 92165,43945 0,17670"
       id="path14"
       inkscape:connector-curvature="0" />
    <path
       d="m 73460,43945 18705,0"
       id="path16"
       inkscape:connector-curvature="0" />
    <path
       d="m 73460,61615 0,-17670"
       id="path18"
       inkscape:connector-curvature="0" />
  </g>
  <g
     style="fill:#000000;fill-opacity:0;stroke:#000000;stroke-width:50;stroke-linecap:round;stroke-linejoin:round;stroke-opacity:1"
     id="g20"
     transform="translate(-73440.374,-43325)">
    <path
       d="m 79855,48900 0,-5550"
       id="path22"
       inkscape:connector-curvature="0" />
    <path
       d="m 85755,43350 0,5550"
       id="path24"
       inkscape:connector-curvature="0" />
    <path
       d="m 79855,48900 5900,0"
       id="path26"
       inkscape:connector-curvature="0" />
    <path
       d="m 79855,43350 5900,0"
       id="path28"
       inkscape:connector-curvature="0" />
  </g>
  <g
     style="fill:#000000;fill-opacity:0;stroke:#000000;stroke-width:125;stroke-linecap:round;stroke-linejoin:round;stroke-opacity:1"
     id="g30"
     transform="translate(-73440.374,-43325)">
    <path
       d="m 89960,54050 0,-2500"
       id="path32"
       inkscape:connector-curvature="0" />
    <path
       d="m 87960,54050 0,-2500"
       id="path34"
       inkscape:connector-curvature="0" />
    <path
       d="m 88960,50550 a 1000,1000 0 0 0 -1000,1000"
       id="path36"
       inkscape:connector-curvature="0" />
    <path
       d="M 89960,51550 A 1000,1000 0 0 0 88960,50550"
       id="path38"
       inkscape:connector-curvature="0" />
    <path
       d="m 87960,54050 a 1000,1000 0 0 0 1000,1000"
       id="path40"
       inkscape:connector-curvature="0" />
    <path
       d="m 88960,55050 a 1000,1000 0 0 0 1000,-1000"
       id="path42"
       inkscape:connector-curvature="0" />
  </g>
  <g
     style="fill:#000000;fill-opacity:0;stroke:#000000;stroke-width:120;stroke-linecap:round;stroke-linejoin:round;stroke-opacity:1"
     id="g44"
     transform="translate(-73440.374,-43325)">
    <path
       d="m 79855,51465 0,-1980"
       id="path46"
       inkscape:connector-curvature="0" />
    <path
       d="m 79855,49485 1000,0"
       id="path48"
       inkscape:connector-curvature="0" />
    <path
       d="m 80855,49485 0,2000"
       id="path50"
       inkscape:connector-curvature="0" />
    <path
       d="m 80855,51485 -1000,0"
       id="path52"
       inkscape:connector-curvature="0" />
    <path
       d="m 80105,51485 -250,-250"
       id="path54"
       inkscape:connector-curvature="0" />
    <path
       d="m 91185,50325 0,1980"
       id="path56"
       inkscape:connector-curvature="0" />
    <path
       d="m 91185,52305 -1000,0"
       id="path58"
       inkscape:connector-curvature="0" />
    <path
       d="m 90185,52305 0,-2000"
       id="path60"
       inkscape:connector-curvature="0" />
    <path
       d="m 90185,50305 1000,0"
       id="path62"
       inkscape:connector-curvature="0" />
    <path
       d="m 90935,50305 250,250"
       id="path64"
       inkscape:connector-curvature="0" />
    <path
       d="m 90190,55280 0,-1980"
       id="path66"
       inkscape:connector-curvature="0" />
    <path
       d="m 90190,53300 1000,0"
       id="path68"
       inkscape:connector-curvature="0" />
    <path
       d="m 91190,53300 0,2000"
       id="path70"
       inkscape:connector-curvature="0" />
    <path
       d="m 91190,55300 -1000,0"
       id="path72"
       inkscape:connector-curvature="0" />
    <path
       d="m 90440,55300 -250,-250"
       id="path74"
       inkscape:connector-curvature="0" />
    <path
       d="m 87050,53110 0,1980"
       id="path76"
       inkscape:connector-curvature="0" />
    <path
       d="m 87050,55090 -1000,0"
       id="path78"
       inkscape:connector-curvature="0" />
    <path
       d="m 86050,55090 0,-2000"
       id="path80"
       inkscape:connector-curvature="0" />
    <path
       d="m 86050,53090 1000,0"
       id="path82"
       inkscape:connector-curvature="0" />
    <path
       d="m 86800,53090 250,250"
       id="path84"
       inkscape:connector-curvature="0" />
    <path
       d="m 85280,49505 0,1980"
       id="path86"
       inkscape:connector-curvature="0" />
    <path
       d="m 85280,51485 -1000,0"
       id="path88"
       inkscape:connector-curvature="0" />
    <path
       d="m 84280,51485 0,-2000"
       id="path90"
       inkscape:connector-curvature="0" />
    <path
       d="m 84280,49485 1000,0"
       id="path92"
       inkscape:connector-curvature="0" />
    <path
       d="m 85030,49485 250,250"
       id="path94"
       inkscape:connector-curvature="0" />
  </g>
  <g
     style="fill:#000000;fill-opacity:0;stroke:#000000;stroke-width:150;stroke-linecap:round;stroke-linejoin:round;stroke-opacity:1"
     id="g96"
     transform="translate(-73440.374,-43325)">
    <path
       d="m 82210,49980 0,1000"
       id="path98"
       inkscape:connector-curvature="0" />
    <circle
       cx="82210"
       cy="49980"
       r="559.01703"
       id="circle100"
       sodipodi:cx="82210"
       sodipodi:cy="49980"
       sodipodi:rx="559.01703"
       sodipodi:ry="559.01703"
       d="m 82769.017,49980 c 0,308.737 -250.28,559.017 -559.017,559.017 -308.737,0 -559.017,-250.28 -559.017,-559.017 0,-308.737 250.28,-559.017 559.017,-559.017 308.737,0 559.017,250.28 559.017,559.017 z" />
    <path
       d="m 83400,49985 0,1000"
       id="path102"
       inkscape:connector-curvature="0" />
    <circle
       cx="83400"
       cy="49985"
       r="559.01703"
       id="circle104"
       sodipodi:cx="83400"
       sodipodi:cy="49985"
       sodipodi:rx="559.01703"
       sodipodi:ry="559.01703"
       d="m 83959.017,49985 c 0,308.737 -250.28,559.017 -559.017,559.017 -308.737,0 -559.017,-250.28 -559.017,-559.017 0,-308.737 250.28,-559.017 559.017,-559.017 308.737,0 559.017,250.28 559.017,559.017 z" />
    <path
       d="m 86060,49985 0,1000"
       id="path106"
       inkscape:connector-curvature="0" />
    <circle
       cx="86060"
       cy="49985"
       r="559.01703"
       id="circle108"
       sodipodi:cx="86060"
       sodipodi:cy="49985"
       sodipodi:rx="559.01703"
       sodipodi:ry="559.01703"
       d="m 86619.017,49985 c 0,308.737 -250.28,559.017 -559.017,559.017 -308.737,0 -559.017,-250.28 -559.017,-559.017 0,-308.737 250.28,-559.017 559.017,-559.017 308.737,0 559.017,250.28 559.017,559.017 z" />
  </g>
  <g
     style="fill:#000000;fill-opacity:0;stroke:#000000;stroke-width:120;stroke-linecap:round;stroke-linejoin:round;stroke-opacity:1"
     id="g110"
     transform="translate(-73440.374,-43325)">
    <path
       d="m 74345,52145 2000,0"
       id="path112"
       inkscape:connector-curvature="0" />
    <path
       d="m 76345,52145 0,2000"
       id="path114"
       inkscape:connector-curvature="0" />
    <path
       d="m 76345,54145 -2000,0"
       id="path116"
       inkscape:connector-curvature="0" />
    <path
       d="m 74345,54145 0,-2000"
       id="path118"
       inkscape:connector-curvature="0" />
  </g>
  <g
     style="fill:#000000;fill-opacity:0;stroke:#000000;stroke-width:150;stroke-linecap:round;stroke-linejoin:round;stroke-opacity:1"
     id="g120"
     transform="translate(-73440.374,-43325)">
    <path
       d="m 88275,57410 0,1000"
       id="path122"
       inkscape:connector-curvature="0" />
    <circle
       cx="88275"
       cy="57410"
       r="559.01703"
       id="circle124"
       sodipodi:cx="88275"
       sodipodi:cy="57410"
       sodipodi:rx="559.01703"
       sodipodi:ry="559.01703"
       d="m 88834.017,57410 c 0,308.737 -250.28,559.017 -559.017,559.017 -308.737,0 -559.017,-250.28 -559.017,-559.017 0,-308.737 250.28,-559.017 559.017,-559.017 308.737,0 559.017,250.28 559.017,559.017 z" />
    <path
       d="m 86715,57410 0,1000"
       id="path126"
       inkscape:connector-curvature="0" />
    <circle
       cx="86715"
       cy="57410"
       r="559.01703"
       id="circle128"
       sodipodi:cx="86715"
       sodipodi:cy="57410"
       sodipodi:rx="559.01703"
       sodipodi:ry="559.01703"
       d="m 87274.017,57410 c 0,308.737 -250.28,559.017 -559.017,559.017 -308.737,0 -559.017,-250.28 -559.017,-559.017 0,-308.737 250.28,-559.017 559.017,-559.017 308.737,0 559.017,250.28 559.017,559.017 z" />
    <path
       d="m 85160,57405 0,1000"
       id="path130"
       inkscape:connector-curvature="0" />
    <circle
       cx="85160"
       cy="57405"
       r="559.01703"
       id="circle132"
       sodipodi:cx="85160"
       sodipodi:cy="57405"
       sodipodi:rx="559.01703"
       sodipodi:ry="559.01703"
       d="m 85719.017,57405 c 0,308.737 -250.28,559.017 -559.017,559.017 -308.737,0 -559.017,-250.28 -559.017,-559.017 0,-308.737 250.28,-559.017 559.017,-559.017 308.737,0 559.017,250.28 559.017,559.017 z" />
    <path
       d="m 83600,57410 0,1000"
       id="path134"
       inkscape:connector-curvature="0" />
    <circle
       cx="83600"
       cy="57410"
       r="559.01703"
       id="circle136"
       sodipodi:cx="83600"
       sodipodi:cy="57410"
       sodipodi:rx="559.01703"
       sodipodi:ry="559.01703"
       d="m 84159.017,57410 c 0,308.737 -250.28,559.017 -559.017,559.017 -308.737,0 -559.017,-250.28 -559.017,-559.017 0,-308.737 250.28,-559.017 559.017,-559.017 308.737,0 559.017,250.28 559.017,559.017 z" />
    <path
       d="m 82040,57410 0,1000"
       id="path138"
       inkscape:connector-curvature="0" />
    <circle
       cx="82040"
       cy="57410"
       r="559.01703"
       id="circle140"
       sodipodi:cx="82040"
       sodipodi:cy="57410"
       sodipodi:rx="559.01703"
       sodipodi:ry="559.01703"
       d="m 82599.017,57410 c 0,308.737 -250.28,559.017 -559.017,559.017 -308.737,0 -559.017,-250.28 -559.017,-559.017 0,-308.737 250.28,-559.017 559.017,-559.017 308.737,0 559.017,250.28 559.017,559.017 z" />
    <path
       d="m 80485,57410 0,1000"
       id="path142"
       inkscape:connector-curvature="0" />
    <circle
       cx="80485"
       cy="57410"
       r="559.01703"
       id="circle144"
       sodipodi:cx="80485"
       sodipodi:cy="57410"
       sodipodi:rx="559.01703"
       sodipodi:ry="559.01703"
       d="m 81044.017,57410 c 0,308.737 -250.28,559.017 -559.017,559.017 -308.737,0 -559.017,-250.28 -559.017,-559.017 0,-308.737 250.28,-559.017 559.017,-559.017 308.737,0 559.017,250.28 559.017,559.017 z" />
    <path
       d="m 78920,57405 0,1000"
       id="path146"
       inkscape:connector-curvature="0" />
    <circle
       cx="78920"
       cy="57405"
       r="559.01703"
       id="circle148"
       sodipodi:cx="78920"
       sodipodi:cy="57405"
       sodipodi:rx="559.01703"
       sodipodi:ry="559.01703"
       d="m 79479.017,57405 c 0,308.737 -250.28,559.017 -559.017,559.017 -308.737,0 -559.017,-250.28 -559.017,-559.017 0,-308.737 250.28,-559.017 559.017,-559.017 308.737,0 559.017,250.28 559.017,559.017 z" />
    <path
       d="m 77365,57405 0,1000"
       id="path150"
       inkscape:connector-curvature="0" />
    <circle
       cx="77365"
       cy="57405"
       r="559.01703"
       id="circle152"
       sodipodi:cx="77365"
       sodipodi:cy="57405"
       sodipodi:rx="559.01703"
       sodipodi:ry="559.01703"
       d="m 77924.017,57405 c 0,308.737 -250.28,559.017 -559.017,559.017 -308.737,0 -559.017,-250.28 -559.017,-559.017 0,-308.737 250.28,-559.017 559.017,-559.017 308.737,0 559.017,250.28 559.017,559.017 z" />
    <path
       d="m 89835,57405 0,1000"
       id="path154"
       inkscape:connector-curvature="0" />
    <circle
       cx="89835"
       cy="57405"
       r="559.01703"
       id="circle156"
       sodipodi:cx="89835"
       sodipodi:cy="57405"
       sodipodi:rx="559.01703"
       sodipodi:ry="559.01703"
       d="m 90394.017,57405 c 0,308.737 -250.28,559.017 -559.017,559.017 -308.737,0 -559.017,-250.28 -559.017,-559.017 0,-308.737 250.28,-559.017 559.017,-559.017 308.737,0 559.017,250.28 559.017,559.017 z" />
    <path
       d="m 75810,57410 0,1000"
       id="path158"
       inkscape:connector-curvature="0" />
    <circle
       cx="75810"
       cy="57410"
       r="559.01703"
       id="circle160"
       sodipodi:cx="75810"
       sodipodi:cy="57410"
       sodipodi:rx="559.01703"
       sodipodi:ry="559.01703"
       d="m 76369.017,57410 c 0,308.737 -250.28,559.017 -559.017,559.017 -308.737,0 -559.017,-250.28 -559.017,-559.017 0,-308.737 250.28,-559.017 559.017,-559.017 308.737,0 559.017,250.28 559.017,559.017 z" />
  </g>
  <g
     style="fill:#000000;fill-opacity:0;stroke:#000000;stroke-width:60;stroke-linecap:round;stroke-linejoin:round;stroke-opacity:1"
     id="g162"
     transform="translate(-73440.374,-43325)">
    <path
       d="m 77700,51645 1000,0"
       id="path164"
       inkscape:connector-curvature="0" />
    <path
       d="m 78700,51645 0,2000"
       id="path166"
       inkscape:connector-curvature="0" />
    <path
       d="m 78700,53645 -1000,0"
       id="path168"
       inkscape:connector-curvature="0" />
    <path
       d="m 77700,53645 0,-2000"
       id="path170"
       inkscape:connector-curvature="0" />
  </g>
  <g
     style="fill:#000000;fill-opacity:0;stroke:#000000;stroke-width:59.05509949;stroke-linecap:round;stroke-linejoin:round;stroke-opacity:1"
     id="g172"
     transform="translate(-73440.374,-43325)" />
  <g
     style="fill:#000000;fill-opacity:0;stroke:#000000;stroke-width:120;stroke-linecap:round;stroke-linejoin:round;stroke-opacity:1"
     id="g174"
     transform="translate(-73440.374,-43325)">
    <path
       d="m 82332,44837 0,-600 228,0 57,29 29,29 29,57 0,85 -29,58 -29,28 -57,29 -228,0"
       id="path176"
       inkscape:connector-curvature="0" />
    <path
       d="m 83246,44837 -343,0"
       id="path178"
       inkscape:connector-curvature="0" />
    <path
       d="m 83075,44837 0,-600 -58,86 -57,57 -57,29"
       id="path180"
       inkscape:connector-curvature="0" />
    <path
       d="m 82047,45167 0,486 29,57 29,29 57,28 114,0 57,-28 29,-29 28,-57 0,-486"
       id="path182"
       inkscape:connector-curvature="0" />
    <path
       d="m 82647,45739 86,28 143,0 57,-28 29,-29 28,-57 0,-57 -28,-57 -29,-29 -57,-28 -114,-29 -57,-28 -29,-29 -29,-57 0,-57 29,-57 29,-29 57,-29 143,0 85,29"
       id="path184"
       inkscape:connector-curvature="0" />
    <path
       d="m 83447,45453 86,29 29,28 28,57 0,86 -28,57 -29,29 -57,28 -229,0 0,-600 200,0 58,29 28,29 29,57 0,57 -29,57 -28,29 -58,28 -200,0"
       id="path186"
       inkscape:connector-curvature="0" />
    <path
       d="m 88479,49742 400,600"
       id="path188"
       inkscape:connector-curvature="0" />
    <path
       d="m 88879,49742 -400,600"
       id="path190"
       inkscape:connector-curvature="0" />
    <path
       d="m 89422,50342 -343,0"
       id="path192"
       inkscape:connector-curvature="0" />
    <path
       d="m 89250,50342 0,-600 -57,86 -57,57 -57,29"
       id="path194"
       inkscape:connector-curvature="0" />
    <path
       d="m 88855,53709 -29,57 -29,29 -57,28 -28,0 -57,-28 -29,-29 -29,-57 0,-114 29,-58 29,-28 57,-29 28,0 57,29 29,28 29,58 0,114 28,57 29,29 57,28 114,0 57,-28 29,-29 28,-57 0,-114 -28,-58 -29,-28 -57,-29 -114,0 -57,29 -29,28 -28,58"
       id="path196"
       inkscape:connector-curvature="0" />
    <path
       d="m 89197,53223 -600,0 429,-200 -429,-200 600,0"
       id="path198"
       inkscape:connector-curvature="0" />
    <path
       d="m 89197,52537 -600,0"
       id="path200"
       inkscape:connector-curvature="0" />
    <path
       d="m 89197,52280 -314,0 -57,29 -29,57 0,86 29,57 29,28"
       id="path202"
       inkscape:connector-curvature="0" />
    <path
       d="m 88797,52052 0,-315 400,315 0,-315"
       id="path204"
       inkscape:connector-curvature="0" />
  </g>
  <g
     style="fill:#000000;fill-opacity:0;stroke:#000000;stroke-width:80;stroke-linecap:round;stroke-linejoin:round;stroke-opacity:1"
     id="g206"
     transform="translate(-73440.374,-43325)">
    <path
       d="m 80293,50603 -19,19 -57,19 -38,0 -58,-19 -38,-38 -19,-38 -19,-76 0,-57 19,-76 19,-38 38,-39 58,-19 38,0 57,19 19,20"
       id="path208"
       inkscape:connector-curvature="0" />
    <path
       d="m 80426,50241 248,0 -134,153 58,0 38,19 19,19 19,38 0,95 -19,38 -19,19 -38,19 -115,0 -38,-19 -19,-19"
       id="path210"
       inkscape:connector-curvature="0" />
    <path
       d="m 80101,52031 -228,0"
       id="path212"
       inkscape:connector-curvature="0" />
    <path
       d="m 79987,52031 0,-400 -38,58 -38,38 -38,19"
       id="path214"
       inkscape:connector-curvature="0" />
    <path
       d="m 80444,51765 0,266"
       id="path216"
       inkscape:connector-curvature="0" />
    <path
       d="m 80273,51765 0,209 19,38 38,19 57,0 38,-19 19,-19"
       id="path218"
       inkscape:connector-curvature="0" />
    <path
       d="m 80768,51822 -133,0"
       id="path220"
       inkscape:connector-curvature="0" />
    <path
       d="m 80635,52031 0,-400 190,0"
       id="path222"
       inkscape:connector-curvature="0" />
    <path
       d="m 90618,51428 -19,19 -57,19 -38,0 -58,-19 -38,-38 -19,-38 -19,-76 0,-57 19,-76 19,-38 38,-39 58,-19 38,0 57,19 19,20"
       id="path224"
       inkscape:connector-curvature="0" />
    <path
       d="m 90999,51466 -229,0"
       id="path226"
       inkscape:connector-curvature="0" />
    <path
       d="m 90885,51466 0,-400 -39,58 -38,38 -38,19"
       id="path228"
       inkscape:connector-curvature="0" />
    <path
       d="m 91776,51728 0,229"
       id="path230"
       inkscape:connector-curvature="0" />
    <path
       d="m 91776,51842 -400,0 58,38 38,39 19,38"
       id="path232"
       inkscape:connector-curvature="0" />
    <path
       d="m 91548,51499 -19,39 -19,19 -38,19 -19,0 -38,-19 -20,-19 -19,-39 0,-76 19,-38 20,-19 38,-19 19,0 38,19 19,19 19,38 0,76 19,39 19,19 38,19 76,0 38,-19 19,-19 19,-39 0,-76 -19,-38 -19,-19 -38,-19 -76,0 -38,19 -19,19 -19,38"
       id="path234"
       inkscape:connector-curvature="0" />
    <path
       d="m 91510,51176 400,0"
       id="path236"
       inkscape:connector-curvature="0" />
    <path
       d="m 91529,51176 -19,-38 0,-77 19,-38 19,-19 38,-19 114,0 38,19 19,19 19,38 0,77 -19,38"
       id="path238"
       inkscape:connector-curvature="0" />
    <path
       d="m 91567,50680 0,134"
       id="path240"
       inkscape:connector-curvature="0" />
    <path
       d="m 91776,50814 -400,0 0,-191"
       id="path242"
       inkscape:connector-curvature="0" />
    <path
       d="m 90633,54418 -19,19 -57,19 -38,0 -58,-19 -38,-38 -19,-38 -19,-76 0,-57 19,-76 19,-38 38,-39 58,-19 38,0 57,19 19,20"
       id="path244"
       inkscape:connector-curvature="0" />
    <path
       d="m 90785,54095 19,-20 38,-19 96,0 38,19 19,20 19,38 0,38 -19,57 -229,228 248,0"
       id="path246"
       inkscape:connector-curvature="0" />
    <path
       d="m 91781,54728 0,229"
       id="path248"
       inkscape:connector-curvature="0" />
    <path
       d="m 91781,54842 -400,0 58,38 38,39 19,38"
       id="path250"
       inkscape:connector-curvature="0" />
    <path
       d="m 91553,54499 -19,39 -19,19 -38,19 -19,0 -38,-19 -20,-19 -19,-39 0,-76 19,-38 20,-19 38,-19 19,0 38,19 19,19 19,38 0,76 19,39 19,19 38,19 76,0 38,-19 19,-19 19,-39 0,-76 -19,-38 -19,-19 -38,-19 -76,0 -38,19 -19,19 -19,38"
       id="path252"
       inkscape:connector-curvature="0" />
    <path
       d="m 91515,54176 400,0"
       id="path254"
       inkscape:connector-curvature="0" />
    <path
       d="m 91534,54176 -19,-38 0,-77 19,-38 19,-19 38,-19 114,0 38,19 19,19 19,38 0,77 -19,38"
       id="path256"
       inkscape:connector-curvature="0" />
    <path
       d="m 91572,53680 0,134"
       id="path258"
       inkscape:connector-curvature="0" />
    <path
       d="m 91781,53814 -400,0 0,-191"
       id="path260"
       inkscape:connector-curvature="0" />
    <path
       d="m 86483,54213 -19,19 -57,19 -38,0 -58,-19 -38,-38 -19,-38 -19,-76 0,-57 19,-76 19,-38 38,-39 58,-19 38,0 57,19 19,20"
       id="path262"
       inkscape:connector-curvature="0" />
    <path
       d="m 86826,53985 0,266"
       id="path264"
       inkscape:connector-curvature="0" />
    <path
       d="m 86730,53832 -95,286 248,0"
       id="path266"
       inkscape:connector-curvature="0" />
    <path
       d="m 87591,54709 0,228"
       id="path268"
       inkscape:connector-curvature="0" />
    <path
       d="m 87591,54823 -400,0 58,38 38,38 19,38"
       id="path270"
       inkscape:connector-curvature="0" />
    <path
       d="m 87191,54461 0,-38 19,-38 20,-19 38,-19 76,-19 95,0 76,19 38,19 19,19 19,38 0,38 -19,38 -19,19 -38,19 -76,19 -95,0 -76,-19 -38,-19 -20,-19 -19,-38"
       id="path272"
       inkscape:connector-curvature="0" />
    <path
       d="m 87191,54080 0,-38 19,-38 20,-19 38,-19 76,-19 95,0 76,19 38,19 19,19 19,38 0,38 -19,38 -19,19 -38,19 -76,19 -95,0 -76,-19 -38,-19 -20,-19 -19,-38"
       id="path274"
       inkscape:connector-curvature="0" />
    <path
       d="m 87325,53775 266,0"
       id="path276"
       inkscape:connector-curvature="0" />
    <path
       d="m 87363,53775 -19,-19 -19,-38 0,-57 19,-38 38,-19 209,0"
       id="path278"
       inkscape:connector-curvature="0" />
    <path
       d="m 87382,53280 0,133"
       id="path280"
       inkscape:connector-curvature="0" />
    <path
       d="m 87591,53413 -400,0 0,-190"
       id="path282"
       inkscape:connector-curvature="0" />
    <path
       d="m 84718,50608 -19,19 -57,19 -38,0 -58,-19 -38,-38 -19,-38 -19,-76 0,-57 19,-76 19,-38 38,-39 58,-19 38,0 57,19 19,20"
       id="path284"
       inkscape:connector-curvature="0" />
    <path
       d="m 85080,50246 -191,0 -19,191 19,-19 38,-19 96,0 38,19 19,19 19,38 0,95 -19,38 -19,19 -38,19 -96,0 -38,-19 -19,-19"
       id="path286"
       inkscape:connector-curvature="0" />
    <path
       d="m 84228,51785 0,266"
       id="path288"
       inkscape:connector-curvature="0" />
    <path
       d="m 84132,51632 -95,286 248,0"
       id="path290"
       inkscape:connector-curvature="0" />
    <path
       d="m 84437,52013 19,19 -19,19 -19,-19 19,-19 0,38"
       id="path292"
       inkscape:connector-curvature="0" />
    <path
       d="m 84590,51651 266,0 -171,400"
       id="path294"
       inkscape:connector-curvature="0" />
    <path
       d="m 85009,51785 0,266"
       id="path296"
       inkscape:connector-curvature="0" />
    <path
       d="m 85009,51823 19,-19 38,-19 57,0 38,19 19,38 0,209"
       id="path298"
       inkscape:connector-curvature="0" />
    <path
       d="m 85504,51842 -134,0"
       id="path300"
       inkscape:connector-curvature="0" />
    <path
       d="m 85370,52051 0,-400 191,0"
       id="path302"
       inkscape:connector-curvature="0" />
    <path
       d="m 82131,52042 -166,-262"
       id="path304"
       inkscape:connector-curvature="0" />
    <path
       d="m 81845,52042 0,-550 191,0 48,26 23,27 24,52 0,78 -24,53 -23,26 -48,26 -191,0"
       id="path306"
       inkscape:connector-curvature="0" />
    <path
       d="m 82607,52042 -285,0"
       id="path308"
       inkscape:connector-curvature="0" />
    <path
       d="m 82465,52042 0,-550 -48,79 -48,52 -47,26"
       id="path310"
       inkscape:connector-curvature="0" />
    <path
       d="m 81814,52315 23,-27 48,-26 119,0 48,26 23,27 24,52 0,52 -24,79 -285,314 309,0"
       id="path312"
       inkscape:connector-curvature="0" />
    <path
       d="m 82290,52315 24,-27 47,-26 119,0 48,26 24,27 23,52 0,52 -23,79 -286,314 309,0"
       id="path314"
       inkscape:connector-curvature="0" />
    <path
       d="m 83316,52037 -166,-262"
       id="path316"
       inkscape:connector-curvature="0" />
    <path
       d="m 83030,52037 0,-550 191,0 48,26 23,27 24,52 0,78 -24,53 -23,26 -48,26 -191,0"
       id="path318"
       inkscape:connector-curvature="0" />
    <path
       d="m 83507,51540 23,-27 48,-26 119,0 48,26 24,27 23,52 0,52 -23,79 -286,314 309,0"
       id="path320"
       inkscape:connector-curvature="0" />
    <path
       d="m 83024,52285 23,-27 48,-26 119,0 48,26 23,27 24,52 0,52 -24,79 -285,314 309,0"
       id="path322"
       inkscape:connector-curvature="0" />
    <path
       d="m 83500,52285 24,-27 47,-26 119,0 48,26 24,27 23,52 0,52 -23,79 -286,314 309,0"
       id="path324"
       inkscape:connector-curvature="0" />
    <path
       d="m 86906,49432 -166,-262"
       id="path326"
       inkscape:connector-curvature="0" />
    <path
       d="m 86620,49432 0,-550 191,0 48,26 23,27 24,52 0,78 -24,53 -23,26 -48,26 -191,0"
       id="path328"
       inkscape:connector-curvature="0" />
    <path
       d="m 87073,48882 309,0 -166,210 71,0 48,26 24,26 23,52 0,131 -23,53 -24,26 -48,26 -143,0 -47,-26 -24,-26"
       id="path330"
       inkscape:connector-curvature="0" />
    <path
       d="m 86857,51022 -286,0"
       id="path332"
       inkscape:connector-curvature="0" />
    <path
       d="m 86714,51022 0,-550 -48,79 -47,52 -48,26"
       id="path334"
       inkscape:connector-curvature="0" />
    <path
       d="m 87071,51022 0,-550 167,393 166,-393 0,550"
       id="path336"
       inkscape:connector-curvature="0" />
    <path
       d="m 75049,53306 0,-400 153,0 38,19 19,20 19,38 0,57 -19,38 -19,19 -38,19 -153,0"
       id="path338"
       inkscape:connector-curvature="0" />
    <path
       d="m 75430,52945 19,-20 38,-19 96,0 38,19 19,20 19,38 0,38 -19,57 -229,228 248,0"
       id="path340"
       inkscape:connector-curvature="0" />
    <path
       d="m 88186,56682 -166,-262"
       id="path342"
       inkscape:connector-curvature="0" />
    <path
       d="m 87900,56682 0,-550 191,0 48,26 23,27 24,52 0,78 -24,53 -23,26 -48,26 -191,0"
       id="path344"
       inkscape:connector-curvature="0" />
    <path
       d="m 88615,56315 0,367"
       id="path346"
       inkscape:connector-curvature="0" />
    <path
       d="m 88496,56106 -119,393 309,0"
       id="path348"
       inkscape:connector-curvature="0" />
    <path
       d="m 87972,59512 -286,0"
       id="path350"
       inkscape:connector-curvature="0" />
    <path
       d="m 87829,59512 0,-550 -48,79 -47,52 -48,26"
       id="path352"
       inkscape:connector-curvature="0" />
    <path
       d="m 88186,59512 0,-550"
       id="path354"
       inkscape:connector-curvature="0" />
    <path
       d="m 88234,59303 143,209"
       id="path356"
       inkscape:connector-curvature="0" />
    <path
       d="m 88377,59145 -191,210"
       id="path358"
       inkscape:connector-curvature="0" />
    <path
       d="m 88662,59198 -47,-26 -24,-27 -24,-52 0,-26 24,-52 24,-27 47,-26 96,0 47,26 24,27 24,52 0,26 -24,52 -24,27 -47,26 -96,0 -47,26 -24,26 -24,53 0,104 24,53 24,26 47,26 96,0 47,-26 24,-26 24,-53 0,-104 -24,-53 -24,-26 -47,-26"
       id="path360"
       inkscape:connector-curvature="0" />
    <path
       d="m 86626,56672 -166,-262"
       id="path362"
       inkscape:connector-curvature="0" />
    <path
       d="m 86340,56672 0,-550 191,0 48,26 23,27 24,52 0,78 -24,53 -23,26 -48,26 -191,0"
       id="path364"
       inkscape:connector-curvature="0" />
    <path
       d="m 87079,56122 -239,0 -23,262 23,-26 48,-26 119,0 48,26 24,26 23,52 0,131 -23,53 -24,26 -48,26 -119,0 -48,-26 -23,-26"
       id="path366"
       inkscape:connector-curvature="0" />
    <path
       d="m 86417,59512 -286,0"
       id="path368"
       inkscape:connector-curvature="0" />
    <path
       d="m 86274,59512 0,-550 -48,79 -47,52 -48,26"
       id="path370"
       inkscape:connector-curvature="0" />
    <path
       d="m 86631,59512 0,-550"
       id="path372"
       inkscape:connector-curvature="0" />
    <path
       d="m 86679,59303 143,209"
       id="path374"
       inkscape:connector-curvature="0" />
    <path
       d="m 86822,59145 -191,210"
       id="path376"
       inkscape:connector-curvature="0" />
    <path
       d="m 87107,59198 -47,-26 -24,-27 -24,-52 0,-26 24,-52 24,-27 47,-26 96,0 47,26 24,27 24,52 0,26 -24,52 -24,27 -47,26 -96,0 -47,26 -24,26 -24,53 0,104 24,53 24,26 47,26 96,0 47,-26 24,-26 24,-53 0,-104 -24,-53 -24,-26 -47,-26"
       id="path378"
       inkscape:connector-curvature="0" />
    <path
       d="m 85076,56662 -166,-262"
       id="path380"
       inkscape:connector-curvature="0" />
    <path
       d="m 84790,56662 0,-550 191,0 48,26 23,27 24,52 0,78 -24,53 -23,26 -48,26 -191,0"
       id="path382"
       inkscape:connector-curvature="0" />
    <path
       d="m 85505,56112 -95,0 -48,26 -24,27 -48,78 -23,105 0,209 23,53 24,26 48,26 95,0 48,-26 24,-26 23,-53 0,-131 -23,-52 -24,-26 -48,-26 -95,0 -48,26 -24,26 -23,52"
       id="path384"
       inkscape:connector-curvature="0" />
    <path
       d="m 84862,59507 -286,0"
       id="path386"
       inkscape:connector-curvature="0" />
    <path
       d="m 84719,59507 0,-550 -48,79 -47,52 -48,26"
       id="path388"
       inkscape:connector-curvature="0" />
    <path
       d="m 85076,59507 0,-550"
       id="path390"
       inkscape:connector-curvature="0" />
    <path
       d="m 85124,59298 143,209"
       id="path392"
       inkscape:connector-curvature="0" />
    <path
       d="m 85267,59140 -191,210"
       id="path394"
       inkscape:connector-curvature="0" />
    <path
       d="m 85552,59193 -47,-26 -24,-27 -24,-52 0,-26 24,-52 24,-27 47,-26 96,0 47,26 24,27 24,52 0,26 -24,52 -24,27 -47,26 -96,0 -47,26 -24,26 -24,53 0,104 24,53 24,26 47,26 96,0 47,-26 24,-26 24,-53 0,-104 -24,-53 -24,-26 -47,-26"
       id="path396"
       inkscape:connector-curvature="0" />
    <path
       d="m 83511,56667 -166,-262"
       id="path398"
       inkscape:connector-curvature="0" />
    <path
       d="m 83225,56667 0,-550 191,0 48,26 23,27 24,52 0,78 -24,53 -23,26 -48,26 -191,0"
       id="path400"
       inkscape:connector-curvature="0" />
    <path
       d="m 83678,56117 333,0 -214,550"
       id="path402"
       inkscape:connector-curvature="0" />
    <path
       d="m 83307,59512 -286,0"
       id="path404"
       inkscape:connector-curvature="0" />
    <path
       d="m 83164,59512 0,-550 -48,79 -47,52 -48,26"
       id="path406"
       inkscape:connector-curvature="0" />
    <path
       d="m 83521,59512 0,-550"
       id="path408"
       inkscape:connector-curvature="0" />
    <path
       d="m 83569,59303 143,209"
       id="path410"
       inkscape:connector-curvature="0" />
    <path
       d="m 83712,59145 -191,210"
       id="path412"
       inkscape:connector-curvature="0" />
    <path
       d="m 83997,59198 -47,-26 -24,-27 -24,-52 0,-26 24,-52 24,-27 47,-26 96,0 47,26 24,27 24,52 0,26 -24,52 -24,27 -47,26 -96,0 -47,26 -24,26 -24,53 0,104 24,53 24,26 47,26 96,0 47,-26 24,-26 24,-53 0,-104 -24,-53 -24,-26 -47,-26"
       id="path414"
       inkscape:connector-curvature="0" />
    <path
       d="m 81956,56662 -166,-262"
       id="path416"
       inkscape:connector-curvature="0" />
    <path
       d="m 81670,56662 0,-550 191,0 48,26 23,27 24,52 0,78 -24,53 -23,26 -48,26 -191,0"
       id="path418"
       inkscape:connector-curvature="0" />
    <path
       d="m 82242,56348 -48,-26 -24,-27 -23,-52 0,-26 23,-52 24,-27 48,-26 95,0 48,26 24,27 23,52 0,26 -23,52 -24,27 -48,26 -95,0 -48,26 -24,26 -23,53 0,104 23,53 24,26 48,26 95,0 48,-26 24,-26 23,-53 0,-104 -23,-53 -24,-26 -48,-26"
       id="path420"
       inkscape:connector-curvature="0" />
    <path
       d="m 81722,59507 -286,0"
       id="path422"
       inkscape:connector-curvature="0" />
    <path
       d="m 81579,59507 0,-550 -48,79 -47,52 -48,26"
       id="path424"
       inkscape:connector-curvature="0" />
    <path
       d="m 81936,59507 0,-550"
       id="path426"
       inkscape:connector-curvature="0" />
    <path
       d="m 81984,59298 143,209"
       id="path428"
       inkscape:connector-curvature="0" />
    <path
       d="m 82127,59140 -191,210"
       id="path430"
       inkscape:connector-curvature="0" />
    <path
       d="m 82412,59193 -47,-26 -24,-27 -24,-52 0,-26 24,-52 24,-27 47,-26 96,0 47,26 24,27 24,52 0,26 -24,52 -24,27 -47,26 -96,0 -47,26 -24,26 -24,53 0,104 24,53 24,26 47,26 96,0 47,-26 24,-26 24,-53 0,-104 -24,-53 -24,-26 -47,-26"
       id="path432"
       inkscape:connector-curvature="0" />
    <path
       d="m 80386,56642 -166,-262"
       id="path434"
       inkscape:connector-curvature="0" />
    <path
       d="m 80100,56642 0,-550 191,0 48,26 23,27 24,52 0,78 -24,53 -23,26 -48,26 -191,0"
       id="path436"
       inkscape:connector-curvature="0" />
    <path
       d="m 80624,56642 96,0 47,-26 24,-26 48,-79 23,-105 0,-209 -23,-52 -24,-27 -48,-26 -95,0 -48,26 -24,27 -23,52 0,131 23,52 24,26 48,27 95,0 48,-27 24,-26 23,-52"
       id="path438"
       inkscape:connector-curvature="0" />
    <path
       d="m 80177,59512 -286,0"
       id="path440"
       inkscape:connector-curvature="0" />
    <path
       d="m 80034,59512 0,-550 -48,79 -47,52 -48,26"
       id="path442"
       inkscape:connector-curvature="0" />
    <path
       d="m 80391,59512 0,-550"
       id="path444"
       inkscape:connector-curvature="0" />
    <path
       d="m 80439,59303 143,209"
       id="path446"
       inkscape:connector-curvature="0" />
    <path
       d="m 80582,59145 -191,210"
       id="path448"
       inkscape:connector-curvature="0" />
    <path
       d="m 80867,59198 -47,-26 -24,-27 -24,-52 0,-26 24,-52 24,-27 47,-26 96,0 47,26 24,27 24,52 0,26 -24,52 -24,27 -47,26 -96,0 -47,26 -24,26 -24,53 0,104 24,53 24,26 47,26 96,0 47,-26 24,-26 24,-53 0,-104 -24,-53 -24,-26 -47,-26"
       id="path450"
       inkscape:connector-curvature="0" />
    <path
       d="m 78588,56662 -167,-262"
       id="path452"
       inkscape:connector-curvature="0" />
    <path
       d="m 78302,56662 0,-550 191,0 47,26 24,27 24,52 0,78 -24,53 -24,26 -47,26 -191,0"
       id="path454"
       inkscape:connector-curvature="0" />
    <path
       d="m 79064,56662 -285,0"
       id="path456"
       inkscape:connector-curvature="0" />
    <path
       d="m 78921,56662 0,-550 -47,79 -48,52 -47,26"
       id="path458"
       inkscape:connector-curvature="0" />
    <path
       d="m 79374,56112 47,0 48,26 24,27 24,52 23,105 0,131 -23,104 -24,53 -24,26 -48,26 -47,0 -48,-26 -24,-26 -23,-53 -24,-104 0,-131 24,-105 23,-52 24,-27 48,-26"
       id="path460"
       inkscape:connector-curvature="0" />
    <path
       d="m 78632,59512 -286,0"
       id="path462"
       inkscape:connector-curvature="0" />
    <path
       d="m 78489,59512 0,-550 -48,79 -47,52 -48,26"
       id="path464"
       inkscape:connector-curvature="0" />
    <path
       d="m 78846,59512 0,-550"
       id="path466"
       inkscape:connector-curvature="0" />
    <path
       d="m 78894,59303 143,209"
       id="path468"
       inkscape:connector-curvature="0" />
    <path
       d="m 79037,59145 -191,210"
       id="path470"
       inkscape:connector-curvature="0" />
    <path
       d="m 79322,59198 -47,-26 -24,-27 -24,-52 0,-26 24,-52 24,-27 47,-26 96,0 47,26 24,27 24,52 0,26 -24,52 -24,27 -47,26 -96,0 -47,26 -24,26 -24,53 0,104 24,53 24,26 47,26 96,0 47,-26 24,-26 24,-53 0,-104 -24,-53 -24,-26 -47,-26"
       id="path472"
       inkscape:connector-curvature="0" />
    <path
       d="m 77038,56672 -167,-262"
       id="path474"
       inkscape:connector-curvature="0" />
    <path
       d="m 76752,56672 0,-550 191,0 47,26 24,27 24,52 0,78 -24,53 -24,26 -47,26 -191,0"
       id="path476"
       inkscape:connector-curvature="0" />
    <path
       d="m 77514,56672 -285,0"
       id="path478"
       inkscape:connector-curvature="0" />
    <path
       d="m 77371,56672 0,-550 -47,79 -48,52 -47,26"
       id="path480"
       inkscape:connector-curvature="0" />
    <path
       d="m 77990,56672 -285,0"
       id="path482"
       inkscape:connector-curvature="0" />
    <path
       d="m 77848,56672 0,-550 -48,79 -48,52 -47,26"
       id="path484"
       inkscape:connector-curvature="0" />
    <path
       d="m 77062,59507 -286,0"
       id="path486"
       inkscape:connector-curvature="0" />
    <path
       d="m 76919,59507 0,-550 -48,79 -47,52 -48,26"
       id="path488"
       inkscape:connector-curvature="0" />
    <path
       d="m 77276,59507 0,-550"
       id="path490"
       inkscape:connector-curvature="0" />
    <path
       d="m 77324,59298 143,209"
       id="path492"
       inkscape:connector-curvature="0" />
    <path
       d="m 77467,59140 -191,210"
       id="path494"
       inkscape:connector-curvature="0" />
    <path
       d="m 77752,59193 -47,-26 -24,-27 -24,-52 0,-26 24,-52 24,-27 47,-26 96,0 47,26 24,27 24,52 0,26 -24,52 -24,27 -47,26 -96,0 -47,26 -24,26 -24,53 0,104 24,53 24,26 47,26 96,0 47,-26 24,-26 24,-53 0,-104 -24,-53 -24,-26 -47,-26"
       id="path496"
       inkscape:connector-curvature="0" />
    <path
       d="m 89508,56662 -167,-262"
       id="path498"
       inkscape:connector-curvature="0" />
    <path
       d="m 89222,56662 0,-550 191,0 47,26 24,27 24,52 0,78 -24,53 -24,26 -47,26 -191,0"
       id="path500"
       inkscape:connector-curvature="0" />
    <path
       d="m 89984,56662 -285,0"
       id="path502"
       inkscape:connector-curvature="0" />
    <path
       d="m 89841,56662 0,-550 -47,79 -48,52 -47,26"
       id="path504"
       inkscape:connector-curvature="0" />
    <path
       d="m 90175,56165 24,-27 47,-26 119,0 48,26 24,27 23,52 0,52 -23,79 -286,314 309,0"
       id="path506"
       inkscape:connector-curvature="0" />
    <path
       d="m 89311,59193 -48,-26 -24,-27 -24,-52 0,-26 24,-52 24,-27 48,-26 95,0 48,26 23,27 24,52 0,26 -24,52 -23,27 -48,26 -95,0 -48,26 -24,26 -24,53 0,104 24,53 24,26 48,26 95,0 48,-26 23,-26 24,-53 0,-104 -24,-53 -23,-26 -48,-26"
       id="path508"
       inkscape:connector-curvature="0" />
    <path
       d="m 89692,59010 23,-27 48,-26 119,0 48,26 24,27 23,52 0,52 -23,79 -286,314 309,0"
       id="path510"
       inkscape:connector-curvature="0" />
    <path
       d="m 90287,58957 48,0 47,26 24,27 24,52 24,105 0,131 -24,104 -24,53 -24,26 -47,26 -48,0 -48,-26 -24,-26 -23,-53 -24,-104 0,-131 24,-105 23,-52 24,-27 48,-26"
       id="path512"
       inkscape:connector-curvature="0" />
    <path
       d="m 75493,56682 -167,-262"
       id="path514"
       inkscape:connector-curvature="0" />
    <path
       d="m 75207,56682 0,-550 191,0 47,26 24,27 24,52 0,78 -24,53 -24,26 -47,26 -191,0"
       id="path516"
       inkscape:connector-curvature="0" />
    <path
       d="m 75969,56682 -285,0"
       id="path518"
       inkscape:connector-curvature="0" />
    <path
       d="m 75826,56682 0,-550 -47,79 -48,52 -47,26"
       id="path520"
       inkscape:connector-curvature="0" />
    <path
       d="m 76136,56132 309,0 -166,210 71,0 48,26 24,26 23,52 0,131 -23,53 -24,26 -48,26 -143,0 -47,-26 -24,-26"
       id="path522"
       inkscape:connector-curvature="0" />
    <path
       d="m 75507,59507 -286,0"
       id="path524"
       inkscape:connector-curvature="0" />
    <path
       d="m 75364,59507 0,-550 -48,79 -47,52 -48,26"
       id="path526"
       inkscape:connector-curvature="0" />
    <path
       d="m 75721,59507 0,-550"
       id="path528"
       inkscape:connector-curvature="0" />
    <path
       d="m 75769,59298 143,209"
       id="path530"
       inkscape:connector-curvature="0" />
    <path
       d="m 75912,59140 -191,210"
       id="path532"
       inkscape:connector-curvature="0" />
    <path
       d="m 76197,59193 -47,-26 -24,-27 -24,-52 0,-26 24,-52 24,-27 47,-26 96,0 47,26 24,27 24,52 0,26 -24,52 -24,27 -47,26 -96,0 -47,26 -24,26 -24,53 0,104 24,53 24,26 47,26 96,0 47,-26 24,-26 24,-53 0,-104 -24,-53 -24,-26 -47,-26"
       id="path534"
       inkscape:connector-curvature="0" />
  </g>
  <g
     style="fill:#000000;fill-opacity:0;stroke:#000000;stroke-width:60;stroke-linecap:round;stroke-linejoin:round;stroke-opacity:1"
     id="g536"
     transform="translate(-73440.374,-43325)">
    <path
       d="m 77950,52466 0,214 -15,43 -28,29 -43,14 -29,0"
       id="path538"
       inkscape:connector-curvature="0" />
    <path
       d="m 78092,52766 0,-300 115,0 28,14 15,15 14,28 0,43 -14,29 -15,14 -28,14 -115,0"
       id="path540"
       inkscape:connector-curvature="0" />
    <path
       d="m 78550,52766 -172,0"
       id="path542"
       inkscape:connector-curvature="0" />
    <path
       d="m 78464,52766 0,-300 -29,43 -28,28 -29,15"
       id="path544"
       inkscape:connector-curvature="0" />
  </g>
</svg>
