G04 #@! TF.FileFunction,Legend,Bot*
%FSLAX46Y46*%
G04 Gerber Fmt 4.6, Leading zero omitted, Abs format (unit mm)*
G04 Created by KiCad (PCBNEW 4.0.7) date 08/25/20 08:50:58*
%MOMM*%
%LPD*%
G01*
G04 APERTURE LIST*
%ADD10C,0.150000*%
%ADD11C,0.152400*%
%ADD12C,0.203200*%
%ADD13R,2.000000X5.000000*%
%ADD14C,1.501140*%
%ADD15C,2.999740*%
%ADD16R,1.998980X0.449580*%
%ADD17R,0.449580X1.998980*%
%ADD18C,1.422400*%
%ADD19C,1.397000*%
%ADD20R,1.524000X1.524000*%
%ADD21C,1.524000*%
%ADD22C,0.254000*%
G04 APERTURE END LIST*
D10*
D11*
X204470000Y-139306300D02*
X205613000Y-139306300D01*
X204470000Y-133769100D02*
X205587600Y-133769100D01*
X204470000Y-139306300D02*
X204470000Y-133769100D01*
X206705200Y-140500100D02*
X206705200Y-141592300D01*
X212318600Y-140525500D02*
X212318600Y-141592300D01*
X212344000Y-141592300D02*
X206705200Y-141617700D01*
X212293200Y-131508500D02*
X206781400Y-131483100D01*
X213385400Y-133261100D02*
X213385400Y-140449300D01*
X206756000Y-131508500D02*
X206756000Y-132549900D01*
X212750400Y-132651500D02*
X205689200Y-132651500D01*
X205638400Y-140474700D02*
X205638400Y-132753100D01*
X213385400Y-140474700D02*
X205765400Y-140474700D01*
X214528400Y-133692900D02*
X214528400Y-139331700D01*
X214528400Y-139331700D02*
X213385400Y-139331700D01*
X213375240Y-133235700D02*
X212791040Y-132651500D01*
X214523320Y-133692900D02*
X213375240Y-133692900D01*
X212293200Y-132651500D02*
X212293200Y-131503420D01*
X212818166Y-133677660D02*
G75*
G03X212818166Y-133677660I-479246J0D01*
G01*
D12*
X210491009Y-135842224D02*
X210491009Y-134572224D01*
X209426628Y-135721271D02*
X209475009Y-135781748D01*
X209620152Y-135842224D01*
X209716914Y-135842224D01*
X209862056Y-135781748D01*
X209958818Y-135660795D01*
X210007199Y-135539843D01*
X210055580Y-135297938D01*
X210055580Y-135116510D01*
X210007199Y-134874605D01*
X209958818Y-134753652D01*
X209862056Y-134632700D01*
X209716914Y-134572224D01*
X209620152Y-134572224D01*
X209475009Y-134632700D01*
X209426628Y-134693176D01*
X208459009Y-135842224D02*
X209039580Y-135842224D01*
X208749294Y-135842224D02*
X208749294Y-134572224D01*
X208846056Y-134753652D01*
X208942818Y-134874605D01*
X209039580Y-134935081D01*
%LPC*%
D13*
X232141600Y-152161100D03*
X228181600Y-152161100D03*
X224221600Y-152161100D03*
X220261600Y-152161100D03*
X216301600Y-152161100D03*
X212341600Y-152161100D03*
X208381600Y-152161100D03*
X204421600Y-152161100D03*
X200461600Y-152161100D03*
X196501600Y-152161100D03*
X192541600Y-152161100D03*
X188581600Y-152161100D03*
D14*
X206768700Y-123063000D03*
X209308700Y-123063000D03*
X211340700Y-123063000D03*
X213880700Y-123063000D03*
D15*
X203720700Y-120396000D03*
X217436700Y-120396000D03*
D16*
X214315040Y-139313920D03*
X214315040Y-138513820D03*
X214315040Y-137713720D03*
X214315040Y-136913620D03*
X214315040Y-136113520D03*
X214315040Y-135313420D03*
X214315040Y-134513320D03*
X214315040Y-133713220D03*
X204749400Y-133718300D03*
X204749400Y-139331700D03*
X204749400Y-138518900D03*
X204749400Y-137706100D03*
X204749400Y-136918700D03*
X204749400Y-136105900D03*
X204749400Y-135318500D03*
X204749400Y-134505700D03*
D17*
X212323680Y-131711700D03*
X211526120Y-131711700D03*
X210723480Y-131711700D03*
X209925920Y-131711700D03*
X209123280Y-131711700D03*
X208325720Y-131711700D03*
X207523080Y-131711700D03*
X206725520Y-131711700D03*
X212318600Y-141312900D03*
X211531200Y-141312900D03*
X210718400Y-141312900D03*
X209931000Y-141312900D03*
X209143600Y-141312900D03*
X208330800Y-141312900D03*
X207518000Y-141312900D03*
X206705200Y-141312900D03*
D18*
X225958400Y-136652000D03*
X225958400Y-131572000D03*
D19*
X204101700Y-129501900D03*
X204101700Y-126961900D03*
X230339900Y-129044700D03*
X230339900Y-131584700D03*
X230352600Y-139192000D03*
X230352600Y-136652000D03*
X219837000Y-136118600D03*
X219837000Y-138658600D03*
X215341200Y-126961900D03*
X215341200Y-129501900D03*
X208813400Y-126949200D03*
X208813400Y-129489200D03*
X211836000Y-126961900D03*
X211836000Y-129501900D03*
X218592400Y-126961900D03*
X218592400Y-129501900D03*
D20*
X190106300Y-136258300D03*
D21*
X190106300Y-133718300D03*
X192646300Y-136258300D03*
X192646300Y-133718300D03*
D19*
X224218500Y-145821400D03*
X224218500Y-148361400D03*
X220256100Y-145821400D03*
X220256100Y-148361400D03*
X216306400Y-145808700D03*
X216306400Y-148348700D03*
X212344000Y-145821400D03*
X212344000Y-148361400D03*
X208381600Y-145821400D03*
X208381600Y-148361400D03*
X204431900Y-145821400D03*
X204431900Y-148361400D03*
X200456800Y-145808700D03*
X200456800Y-148348700D03*
X196507100Y-145808700D03*
X196507100Y-148348700D03*
X228180900Y-145808700D03*
X228180900Y-148348700D03*
X192557400Y-145821400D03*
X192557400Y-148361400D03*
D20*
X198628000Y-132448300D03*
D21*
X198628000Y-134988300D03*
X198539100Y-143776700D03*
X196481700Y-141719300D03*
X201841100Y-134975600D03*
X215455500Y-131737100D03*
D22*
G36*
X233476800Y-155879800D02*
X231013000Y-155879800D01*
X231013000Y-149783800D01*
X233476800Y-149783800D01*
X233476800Y-155879800D01*
X233476800Y-155879800D01*
G37*
X233476800Y-155879800D02*
X231013000Y-155879800D01*
X231013000Y-149783800D01*
X233476800Y-149783800D01*
X233476800Y-155879800D01*
G36*
X189712600Y-155879800D02*
X187210700Y-155879800D01*
X187210700Y-149783800D01*
X189712600Y-149783800D01*
X189712600Y-155879800D01*
X189712600Y-155879800D01*
G37*
X189712600Y-155879800D02*
X187210700Y-155879800D01*
X187210700Y-149783800D01*
X189712600Y-149783800D01*
X189712600Y-155879800D01*
M02*
