G04 #@! TF.FileFunction,Copper,L1,Top,Signal*
%FSLAX46Y46*%
G04 Gerber Fmt 4.6, Leading zero omitted, Abs format (unit mm)*
G04 Created by KiCad (PCBNEW 4.0.7) date 08/25/20 08:50:58*
%MOMM*%
%LPD*%
G01*
G04 APERTURE LIST*
%ADD10C,0.150000*%
%ADD11R,2.000000X5.000000*%
%ADD12C,1.501140*%
%ADD13C,2.999740*%
%ADD14C,1.422400*%
%ADD15C,1.397000*%
%ADD16R,1.524000X1.524000*%
%ADD17C,1.524000*%
%ADD18C,0.381000*%
%ADD19C,0.508000*%
%ADD20C,0.025400*%
G04 APERTURE END LIST*
D10*
D11*
X232141600Y-152161100D03*
X228181600Y-152161100D03*
X224221600Y-152161100D03*
X220261600Y-152161100D03*
X216301600Y-152161100D03*
X212341600Y-152161100D03*
X208381600Y-152161100D03*
X204421600Y-152161100D03*
X200461600Y-152161100D03*
X196501600Y-152161100D03*
X192541600Y-152161100D03*
X188581600Y-152161100D03*
D12*
X206768700Y-123063000D03*
X209308700Y-123063000D03*
X211340700Y-123063000D03*
X213880700Y-123063000D03*
D13*
X203720700Y-120396000D03*
X217436700Y-120396000D03*
D14*
X225958400Y-136652000D03*
X225958400Y-131572000D03*
D15*
X204101700Y-129501900D03*
X204101700Y-126961900D03*
X230339900Y-129044700D03*
X230339900Y-131584700D03*
X230352600Y-139192000D03*
X230352600Y-136652000D03*
X219837000Y-136118600D03*
X219837000Y-138658600D03*
X215341200Y-126961900D03*
X215341200Y-129501900D03*
X208813400Y-126949200D03*
X208813400Y-129489200D03*
X211836000Y-126961900D03*
X211836000Y-129501900D03*
X218592400Y-126961900D03*
X218592400Y-129501900D03*
D16*
X190106300Y-136258300D03*
D17*
X190106300Y-133718300D03*
X192646300Y-136258300D03*
X192646300Y-133718300D03*
D15*
X224218500Y-145821400D03*
X224218500Y-148361400D03*
X220256100Y-145821400D03*
X220256100Y-148361400D03*
X216306400Y-145808700D03*
X216306400Y-148348700D03*
X212344000Y-145821400D03*
X212344000Y-148361400D03*
X208381600Y-145821400D03*
X208381600Y-148361400D03*
X204431900Y-145821400D03*
X204431900Y-148361400D03*
X200456800Y-145808700D03*
X200456800Y-148348700D03*
X196507100Y-145808700D03*
X196507100Y-148348700D03*
X228180900Y-145808700D03*
X228180900Y-148348700D03*
X192557400Y-145821400D03*
X192557400Y-148361400D03*
D16*
X198628000Y-132448300D03*
D17*
X198628000Y-134988300D03*
X198539100Y-143776700D03*
X196481700Y-141719300D03*
X201841100Y-134975600D03*
X215455500Y-131737100D03*
D18*
X196481700Y-141719300D02*
X198539100Y-143776700D01*
X207289400Y-134988300D02*
X201853800Y-134988300D01*
X201853800Y-134988300D02*
X201841100Y-134975600D01*
X224221600Y-152161100D02*
X224221600Y-150663200D01*
X213245700Y-134988300D02*
X207289400Y-134988300D01*
X222199200Y-143941800D02*
X213245700Y-134988300D01*
X222199200Y-148640800D02*
X222199200Y-143941800D01*
X224221600Y-150663200D02*
X222199200Y-148640800D01*
X224221600Y-152161100D02*
X224221600Y-150155200D01*
D19*
X230936800Y-143865600D02*
X230936800Y-142468600D01*
X228803200Y-140335000D02*
X224053400Y-140335000D01*
X230936800Y-142468600D02*
X228803200Y-140335000D01*
X228181600Y-152161100D02*
X228181600Y-150761000D01*
X224053400Y-140335000D02*
X219837000Y-136118600D01*
X230936800Y-148005800D02*
X230936800Y-143865600D01*
X228181600Y-150761000D02*
X230936800Y-148005800D01*
X219837000Y-136118600D02*
X215455500Y-131737100D01*
D20*
G36*
X201155300Y-125247400D02*
X201155803Y-125250938D01*
X201157271Y-125254196D01*
X201159590Y-125256916D01*
X201162574Y-125258882D01*
X201165987Y-125259940D01*
X201168000Y-125260100D01*
X219989400Y-125260100D01*
X219992938Y-125259597D01*
X219996196Y-125258129D01*
X219998916Y-125255810D01*
X220000882Y-125252826D01*
X220001940Y-125249413D01*
X220002100Y-125247400D01*
X220002100Y-112128000D01*
X233591400Y-112128000D01*
X233591400Y-155994400D01*
X230898700Y-155994400D01*
X230898700Y-149050396D01*
X231440048Y-148509048D01*
X231481816Y-148458200D01*
X231524033Y-148407887D01*
X231525834Y-148404611D01*
X231528212Y-148401716D01*
X231559279Y-148343775D01*
X231590949Y-148286168D01*
X231592082Y-148282597D01*
X231593848Y-148279303D01*
X231613051Y-148216493D01*
X231632948Y-148153771D01*
X231633365Y-148150050D01*
X231634459Y-148146473D01*
X231641096Y-148081134D01*
X231648431Y-148015737D01*
X231648482Y-148008413D01*
X231648495Y-148008284D01*
X231648484Y-148008163D01*
X231648500Y-148005800D01*
X231648500Y-142468600D01*
X231642083Y-142403156D01*
X231636355Y-142337682D01*
X231635311Y-142334090D01*
X231634946Y-142330363D01*
X231615939Y-142267411D01*
X231597603Y-142204297D01*
X231595880Y-142200974D01*
X231594799Y-142197392D01*
X231563946Y-142139366D01*
X231533682Y-142080980D01*
X231531346Y-142078054D01*
X231529590Y-142074751D01*
X231488090Y-142023868D01*
X231447026Y-141972427D01*
X231441883Y-141967212D01*
X231441801Y-141967112D01*
X231441708Y-141967035D01*
X231440048Y-141965352D01*
X229306448Y-139831752D01*
X229255622Y-139790003D01*
X229205287Y-139747767D01*
X229202008Y-139745964D01*
X229199115Y-139743588D01*
X229141161Y-139712513D01*
X229083568Y-139680851D01*
X229080001Y-139679720D01*
X229076703Y-139677951D01*
X229013847Y-139658734D01*
X228951171Y-139638852D01*
X228947450Y-139638435D01*
X228943873Y-139637341D01*
X228878534Y-139630704D01*
X228813137Y-139623369D01*
X228805813Y-139623318D01*
X228805684Y-139623305D01*
X228805563Y-139623316D01*
X228803200Y-139623300D01*
X224348196Y-139623300D01*
X221475180Y-136750284D01*
X224787963Y-136750284D01*
X224829344Y-136975752D01*
X224913731Y-137188887D01*
X225037908Y-137381573D01*
X225197147Y-137546469D01*
X225385382Y-137677296D01*
X225595442Y-137769069D01*
X225819328Y-137818294D01*
X226048511Y-137823094D01*
X226274261Y-137783288D01*
X226487981Y-137700392D01*
X226681529Y-137577563D01*
X226847533Y-137419479D01*
X226979670Y-137232162D01*
X227072908Y-137022747D01*
X227123694Y-136799211D01*
X227124392Y-136749216D01*
X229194881Y-136749216D01*
X229235812Y-136972234D01*
X229319281Y-137183054D01*
X229442110Y-137373646D01*
X229599618Y-137536751D01*
X229785808Y-137666156D01*
X229993586Y-137756932D01*
X230215039Y-137805621D01*
X230441732Y-137810370D01*
X230665029Y-137770996D01*
X230876427Y-137689001D01*
X231067872Y-137567506D01*
X231232072Y-137411140D01*
X231362774Y-137225859D01*
X231454998Y-137018719D01*
X231505233Y-136797611D01*
X231508849Y-136538629D01*
X231464808Y-136316205D01*
X231378403Y-136106571D01*
X231252926Y-135917712D01*
X231093155Y-135756822D01*
X230905177Y-135630030D01*
X230696152Y-135542163D01*
X230474041Y-135496570D01*
X230247304Y-135494987D01*
X230024577Y-135537475D01*
X229814345Y-135622414D01*
X229624615Y-135746570D01*
X229462614Y-135905213D01*
X229334512Y-136092301D01*
X229245189Y-136300708D01*
X229198046Y-136522496D01*
X229194881Y-136749216D01*
X227124392Y-136749216D01*
X227127350Y-136537383D01*
X227082825Y-136312516D01*
X226995471Y-136100579D01*
X226868616Y-135909646D01*
X226707090Y-135746989D01*
X226517047Y-135618803D01*
X226305726Y-135529972D01*
X226081175Y-135483878D01*
X225851947Y-135482278D01*
X225626774Y-135525232D01*
X225414233Y-135611104D01*
X225222419Y-135736624D01*
X225058638Y-135897010D01*
X224929129Y-136086153D01*
X224838824Y-136296850D01*
X224791164Y-136521073D01*
X224787963Y-136750284D01*
X221475180Y-136750284D01*
X220989536Y-136264640D01*
X220989633Y-136264211D01*
X220993249Y-136005229D01*
X220949208Y-135782805D01*
X220862803Y-135573171D01*
X220737326Y-135384312D01*
X220577555Y-135223422D01*
X220389577Y-135096630D01*
X220180552Y-135008763D01*
X219958441Y-134963170D01*
X219731704Y-134961587D01*
X219693727Y-134968831D01*
X216661101Y-131936205D01*
X216671438Y-131890709D01*
X216674515Y-131670284D01*
X224787963Y-131670284D01*
X224829344Y-131895752D01*
X224913731Y-132108887D01*
X225037908Y-132301573D01*
X225197147Y-132466469D01*
X225385382Y-132597296D01*
X225595442Y-132689069D01*
X225819328Y-132738294D01*
X226048511Y-132743094D01*
X226274261Y-132703288D01*
X226487981Y-132620392D01*
X226681529Y-132497563D01*
X226847533Y-132339479D01*
X226979670Y-132152162D01*
X227072908Y-131942747D01*
X227123694Y-131719211D01*
X227124214Y-131681916D01*
X229182181Y-131681916D01*
X229223112Y-131904934D01*
X229306581Y-132115754D01*
X229429410Y-132306346D01*
X229586918Y-132469451D01*
X229773108Y-132598856D01*
X229980886Y-132689632D01*
X230202339Y-132738321D01*
X230429032Y-132743070D01*
X230652329Y-132703696D01*
X230863727Y-132621701D01*
X231055172Y-132500206D01*
X231219372Y-132343840D01*
X231350074Y-132158559D01*
X231442298Y-131951419D01*
X231492533Y-131730311D01*
X231496149Y-131471329D01*
X231452108Y-131248905D01*
X231365703Y-131039271D01*
X231240226Y-130850412D01*
X231080455Y-130689522D01*
X230892477Y-130562730D01*
X230683452Y-130474863D01*
X230461341Y-130429270D01*
X230234604Y-130427687D01*
X230011877Y-130470175D01*
X229801645Y-130555114D01*
X229611915Y-130679270D01*
X229449914Y-130837913D01*
X229321812Y-131025001D01*
X229232489Y-131233408D01*
X229185346Y-131455196D01*
X229182181Y-131681916D01*
X227124214Y-131681916D01*
X227127350Y-131457383D01*
X227082825Y-131232516D01*
X226995471Y-131020579D01*
X226868616Y-130829646D01*
X226707090Y-130666989D01*
X226517047Y-130538803D01*
X226305726Y-130449972D01*
X226081175Y-130403878D01*
X225851947Y-130402278D01*
X225626774Y-130445232D01*
X225414233Y-130531104D01*
X225222419Y-130656624D01*
X225058638Y-130817010D01*
X224929129Y-131006153D01*
X224838824Y-131216850D01*
X224791164Y-131441073D01*
X224787963Y-131670284D01*
X216674515Y-131670284D01*
X216675253Y-131617502D01*
X216628793Y-131382862D01*
X216537642Y-131161715D01*
X216405274Y-130962484D01*
X216236728Y-130792757D01*
X216038426Y-130659001D01*
X215817920Y-130566309D01*
X215583610Y-130518212D01*
X215344421Y-130516542D01*
X215109462Y-130561363D01*
X214887683Y-130650967D01*
X214687533Y-130781942D01*
X214516634Y-130949298D01*
X214381497Y-131146662D01*
X214287268Y-131366515D01*
X214237536Y-131600483D01*
X214234196Y-131839656D01*
X214277376Y-132074922D01*
X214365430Y-132297320D01*
X214495004Y-132498380D01*
X214661163Y-132670443D01*
X214857578Y-132806955D01*
X215076768Y-132902717D01*
X215310384Y-132954081D01*
X215549527Y-132959090D01*
X215652787Y-132940883D01*
X218685698Y-135973794D01*
X218682446Y-135989096D01*
X218679281Y-136215816D01*
X218720212Y-136438834D01*
X218803681Y-136649654D01*
X218926510Y-136840246D01*
X219084018Y-137003351D01*
X219270208Y-137132756D01*
X219477986Y-137223532D01*
X219699439Y-137272221D01*
X219926132Y-137276970D01*
X219979469Y-137267565D01*
X223550152Y-140838248D01*
X223600978Y-140879997D01*
X223651313Y-140922233D01*
X223654592Y-140924036D01*
X223657485Y-140926412D01*
X223715439Y-140957487D01*
X223773032Y-140989149D01*
X223776599Y-140990280D01*
X223779897Y-140992049D01*
X223842753Y-141011266D01*
X223905429Y-141031148D01*
X223909150Y-141031565D01*
X223912727Y-141032659D01*
X223978066Y-141039296D01*
X224043463Y-141046631D01*
X224050787Y-141046682D01*
X224050916Y-141046695D01*
X224051037Y-141046684D01*
X224053400Y-141046700D01*
X228508404Y-141046700D01*
X230225100Y-142763396D01*
X230225100Y-147711004D01*
X229879504Y-148056600D01*
X229301760Y-148056600D01*
X229293108Y-148012905D01*
X229206703Y-147803271D01*
X229081226Y-147614412D01*
X228921455Y-147453522D01*
X228733477Y-147326730D01*
X228524452Y-147238863D01*
X228302341Y-147193270D01*
X228075604Y-147191687D01*
X227852877Y-147234175D01*
X227642645Y-147319114D01*
X227452915Y-147443270D01*
X227290914Y-147601913D01*
X227162812Y-147789001D01*
X227073489Y-147997408D01*
X227060907Y-148056600D01*
X225336845Y-148056600D01*
X225330708Y-148025605D01*
X225244303Y-147815971D01*
X225118826Y-147627112D01*
X224959055Y-147466222D01*
X224771077Y-147339430D01*
X224562052Y-147251563D01*
X224339941Y-147205970D01*
X224113204Y-147204387D01*
X223890477Y-147246875D01*
X223680245Y-147331814D01*
X223490515Y-147455970D01*
X223328514Y-147614613D01*
X223200412Y-147801701D01*
X223111089Y-148010108D01*
X223101207Y-148056600D01*
X222847400Y-148056600D01*
X222847400Y-145918616D01*
X223060781Y-145918616D01*
X223101712Y-146141634D01*
X223185181Y-146352454D01*
X223308010Y-146543046D01*
X223465518Y-146706151D01*
X223651708Y-146835556D01*
X223859486Y-146926332D01*
X224080939Y-146975021D01*
X224307632Y-146979770D01*
X224530929Y-146940396D01*
X224742327Y-146858401D01*
X224933772Y-146736906D01*
X225097972Y-146580540D01*
X225228674Y-146395259D01*
X225320898Y-146188119D01*
X225371133Y-145967011D01*
X225371986Y-145905916D01*
X227023181Y-145905916D01*
X227064112Y-146128934D01*
X227147581Y-146339754D01*
X227270410Y-146530346D01*
X227427918Y-146693451D01*
X227614108Y-146822856D01*
X227821886Y-146913632D01*
X228043339Y-146962321D01*
X228270032Y-146967070D01*
X228493329Y-146927696D01*
X228704727Y-146845701D01*
X228896172Y-146724206D01*
X229060372Y-146567840D01*
X229191074Y-146382559D01*
X229283298Y-146175419D01*
X229333533Y-145954311D01*
X229337149Y-145695329D01*
X229293108Y-145472905D01*
X229206703Y-145263271D01*
X229081226Y-145074412D01*
X228921455Y-144913522D01*
X228733477Y-144786730D01*
X228524452Y-144698863D01*
X228302341Y-144653270D01*
X228075604Y-144651687D01*
X227852877Y-144694175D01*
X227642645Y-144779114D01*
X227452915Y-144903270D01*
X227290914Y-145061913D01*
X227162812Y-145249001D01*
X227073489Y-145457408D01*
X227026346Y-145679196D01*
X227023181Y-145905916D01*
X225371986Y-145905916D01*
X225374749Y-145708029D01*
X225330708Y-145485605D01*
X225244303Y-145275971D01*
X225118826Y-145087112D01*
X224959055Y-144926222D01*
X224771077Y-144799430D01*
X224562052Y-144711563D01*
X224339941Y-144665970D01*
X224113204Y-144664387D01*
X223890477Y-144706875D01*
X223680245Y-144791814D01*
X223490515Y-144915970D01*
X223328514Y-145074613D01*
X223200412Y-145261701D01*
X223111089Y-145470108D01*
X223063946Y-145691896D01*
X223060781Y-145918616D01*
X222847400Y-145918616D01*
X222847400Y-143941800D01*
X222841557Y-143882212D01*
X222836339Y-143822563D01*
X222835387Y-143819288D01*
X222835055Y-143815897D01*
X222817757Y-143758603D01*
X222801045Y-143701079D01*
X222799476Y-143698052D01*
X222798491Y-143694790D01*
X222770376Y-143641914D01*
X222742826Y-143588765D01*
X222740701Y-143586103D01*
X222739100Y-143583092D01*
X222701240Y-143536671D01*
X222663901Y-143489897D01*
X222659222Y-143485152D01*
X222659144Y-143485056D01*
X222659055Y-143484982D01*
X222657547Y-143483453D01*
X213704047Y-134529953D01*
X213657782Y-134491951D01*
X213611912Y-134453461D01*
X213608922Y-134451818D01*
X213606291Y-134449656D01*
X213553561Y-134421382D01*
X213501053Y-134392516D01*
X213497802Y-134391485D01*
X213494800Y-134389875D01*
X213437522Y-134372363D01*
X213380468Y-134354265D01*
X213377085Y-134353885D01*
X213373822Y-134352888D01*
X213314233Y-134346835D01*
X213254750Y-134340163D01*
X213248087Y-134340117D01*
X213247963Y-134340104D01*
X213247847Y-134340115D01*
X213245700Y-134340100D01*
X202883302Y-134340100D01*
X202790874Y-134200984D01*
X202622328Y-134031257D01*
X202424026Y-133897501D01*
X202203520Y-133804809D01*
X201969210Y-133756712D01*
X201730021Y-133755042D01*
X201495062Y-133799863D01*
X201273283Y-133889467D01*
X201073133Y-134020442D01*
X200902234Y-134187798D01*
X200767097Y-134385162D01*
X200672868Y-134605015D01*
X200623136Y-134838983D01*
X200619796Y-135078156D01*
X200662976Y-135313422D01*
X200751030Y-135535820D01*
X200880604Y-135736880D01*
X201046763Y-135908943D01*
X201243178Y-136045455D01*
X201462368Y-136141217D01*
X201695984Y-136192581D01*
X201935127Y-136197590D01*
X202170689Y-136156054D01*
X202393696Y-136069555D01*
X202595656Y-135941388D01*
X202768875Y-135776434D01*
X202867587Y-135636500D01*
X212977206Y-135636500D01*
X221551000Y-144210294D01*
X221551000Y-148056600D01*
X221374445Y-148056600D01*
X221368308Y-148025605D01*
X221281903Y-147815971D01*
X221156426Y-147627112D01*
X220996655Y-147466222D01*
X220808677Y-147339430D01*
X220599652Y-147251563D01*
X220377541Y-147205970D01*
X220150804Y-147204387D01*
X219928077Y-147246875D01*
X219717845Y-147331814D01*
X219528115Y-147455970D01*
X219366114Y-147614613D01*
X219238012Y-147801701D01*
X219148689Y-148010108D01*
X219138807Y-148056600D01*
X217427260Y-148056600D01*
X217418608Y-148012905D01*
X217332203Y-147803271D01*
X217206726Y-147614412D01*
X217046955Y-147453522D01*
X216858977Y-147326730D01*
X216649952Y-147238863D01*
X216427841Y-147193270D01*
X216201104Y-147191687D01*
X215978377Y-147234175D01*
X215768145Y-147319114D01*
X215578415Y-147443270D01*
X215416414Y-147601913D01*
X215288312Y-147789001D01*
X215198989Y-147997408D01*
X215186407Y-148056600D01*
X213462345Y-148056600D01*
X213456208Y-148025605D01*
X213369803Y-147815971D01*
X213244326Y-147627112D01*
X213084555Y-147466222D01*
X212896577Y-147339430D01*
X212687552Y-147251563D01*
X212465441Y-147205970D01*
X212238704Y-147204387D01*
X212015977Y-147246875D01*
X211805745Y-147331814D01*
X211616015Y-147455970D01*
X211454014Y-147614613D01*
X211325912Y-147801701D01*
X211236589Y-148010108D01*
X211226707Y-148056600D01*
X209499945Y-148056600D01*
X209493808Y-148025605D01*
X209407403Y-147815971D01*
X209281926Y-147627112D01*
X209122155Y-147466222D01*
X208934177Y-147339430D01*
X208725152Y-147251563D01*
X208503041Y-147205970D01*
X208276304Y-147204387D01*
X208053577Y-147246875D01*
X207843345Y-147331814D01*
X207653615Y-147455970D01*
X207491614Y-147614613D01*
X207363512Y-147801701D01*
X207274189Y-148010108D01*
X207264307Y-148056600D01*
X205550245Y-148056600D01*
X205544108Y-148025605D01*
X205457703Y-147815971D01*
X205332226Y-147627112D01*
X205172455Y-147466222D01*
X204984477Y-147339430D01*
X204775452Y-147251563D01*
X204553341Y-147205970D01*
X204326604Y-147204387D01*
X204103877Y-147246875D01*
X203893645Y-147331814D01*
X203703915Y-147455970D01*
X203541914Y-147614613D01*
X203413812Y-147801701D01*
X203324489Y-148010108D01*
X203314607Y-148056600D01*
X201577660Y-148056600D01*
X201569008Y-148012905D01*
X201482603Y-147803271D01*
X201357126Y-147614412D01*
X201197355Y-147453522D01*
X201009377Y-147326730D01*
X200800352Y-147238863D01*
X200578241Y-147193270D01*
X200351504Y-147191687D01*
X200128777Y-147234175D01*
X199918545Y-147319114D01*
X199728815Y-147443270D01*
X199566814Y-147601913D01*
X199438712Y-147789001D01*
X199349389Y-147997408D01*
X199336807Y-148056600D01*
X197627960Y-148056600D01*
X197619308Y-148012905D01*
X197532903Y-147803271D01*
X197407426Y-147614412D01*
X197247655Y-147453522D01*
X197059677Y-147326730D01*
X196850652Y-147238863D01*
X196628541Y-147193270D01*
X196401804Y-147191687D01*
X196179077Y-147234175D01*
X195968845Y-147319114D01*
X195779115Y-147443270D01*
X195617114Y-147601913D01*
X195489012Y-147789001D01*
X195399689Y-147997408D01*
X195387107Y-148056600D01*
X193675745Y-148056600D01*
X193669608Y-148025605D01*
X193583203Y-147815971D01*
X193457726Y-147627112D01*
X193297955Y-147466222D01*
X193109977Y-147339430D01*
X192900952Y-147251563D01*
X192678841Y-147205970D01*
X192452104Y-147204387D01*
X192229377Y-147246875D01*
X192019145Y-147331814D01*
X191829415Y-147455970D01*
X191667414Y-147614613D01*
X191539312Y-147801701D01*
X191449989Y-148010108D01*
X191440107Y-148056600D01*
X189839600Y-148056600D01*
X189836062Y-148057103D01*
X189832804Y-148058571D01*
X189830084Y-148060890D01*
X189828118Y-148063874D01*
X189827060Y-148067287D01*
X189826900Y-148069300D01*
X189826900Y-155994400D01*
X187096100Y-155994400D01*
X187096100Y-145918616D01*
X191399681Y-145918616D01*
X191440612Y-146141634D01*
X191524081Y-146352454D01*
X191646910Y-146543046D01*
X191804418Y-146706151D01*
X191990608Y-146835556D01*
X192198386Y-146926332D01*
X192419839Y-146975021D01*
X192646532Y-146979770D01*
X192869829Y-146940396D01*
X193081227Y-146858401D01*
X193272672Y-146736906D01*
X193436872Y-146580540D01*
X193567574Y-146395259D01*
X193659798Y-146188119D01*
X193710033Y-145967011D01*
X193710886Y-145905916D01*
X195349381Y-145905916D01*
X195390312Y-146128934D01*
X195473781Y-146339754D01*
X195596610Y-146530346D01*
X195754118Y-146693451D01*
X195940308Y-146822856D01*
X196148086Y-146913632D01*
X196369539Y-146962321D01*
X196596232Y-146967070D01*
X196819529Y-146927696D01*
X197030927Y-146845701D01*
X197222372Y-146724206D01*
X197386572Y-146567840D01*
X197517274Y-146382559D01*
X197609498Y-146175419D01*
X197659733Y-145954311D01*
X197660408Y-145905916D01*
X199299081Y-145905916D01*
X199340012Y-146128934D01*
X199423481Y-146339754D01*
X199546310Y-146530346D01*
X199703818Y-146693451D01*
X199890008Y-146822856D01*
X200097786Y-146913632D01*
X200319239Y-146962321D01*
X200545932Y-146967070D01*
X200769229Y-146927696D01*
X200980627Y-146845701D01*
X201172072Y-146724206D01*
X201336272Y-146567840D01*
X201466974Y-146382559D01*
X201559198Y-146175419D01*
X201609433Y-145954311D01*
X201609931Y-145918616D01*
X203274181Y-145918616D01*
X203315112Y-146141634D01*
X203398581Y-146352454D01*
X203521410Y-146543046D01*
X203678918Y-146706151D01*
X203865108Y-146835556D01*
X204072886Y-146926332D01*
X204294339Y-146975021D01*
X204521032Y-146979770D01*
X204744329Y-146940396D01*
X204955727Y-146858401D01*
X205147172Y-146736906D01*
X205311372Y-146580540D01*
X205442074Y-146395259D01*
X205534298Y-146188119D01*
X205584533Y-145967011D01*
X205585208Y-145918616D01*
X207223881Y-145918616D01*
X207264812Y-146141634D01*
X207348281Y-146352454D01*
X207471110Y-146543046D01*
X207628618Y-146706151D01*
X207814808Y-146835556D01*
X208022586Y-146926332D01*
X208244039Y-146975021D01*
X208470732Y-146979770D01*
X208694029Y-146940396D01*
X208905427Y-146858401D01*
X209096872Y-146736906D01*
X209261072Y-146580540D01*
X209391774Y-146395259D01*
X209483998Y-146188119D01*
X209534233Y-145967011D01*
X209534908Y-145918616D01*
X211186281Y-145918616D01*
X211227212Y-146141634D01*
X211310681Y-146352454D01*
X211433510Y-146543046D01*
X211591018Y-146706151D01*
X211777208Y-146835556D01*
X211984986Y-146926332D01*
X212206439Y-146975021D01*
X212433132Y-146979770D01*
X212656429Y-146940396D01*
X212867827Y-146858401D01*
X213059272Y-146736906D01*
X213223472Y-146580540D01*
X213354174Y-146395259D01*
X213446398Y-146188119D01*
X213496633Y-145967011D01*
X213497486Y-145905916D01*
X215148681Y-145905916D01*
X215189612Y-146128934D01*
X215273081Y-146339754D01*
X215395910Y-146530346D01*
X215553418Y-146693451D01*
X215739608Y-146822856D01*
X215947386Y-146913632D01*
X216168839Y-146962321D01*
X216395532Y-146967070D01*
X216618829Y-146927696D01*
X216830227Y-146845701D01*
X217021672Y-146724206D01*
X217185872Y-146567840D01*
X217316574Y-146382559D01*
X217408798Y-146175419D01*
X217459033Y-145954311D01*
X217459531Y-145918616D01*
X219098381Y-145918616D01*
X219139312Y-146141634D01*
X219222781Y-146352454D01*
X219345610Y-146543046D01*
X219503118Y-146706151D01*
X219689308Y-146835556D01*
X219897086Y-146926332D01*
X220118539Y-146975021D01*
X220345232Y-146979770D01*
X220568529Y-146940396D01*
X220779927Y-146858401D01*
X220971372Y-146736906D01*
X221135572Y-146580540D01*
X221266274Y-146395259D01*
X221358498Y-146188119D01*
X221408733Y-145967011D01*
X221412349Y-145708029D01*
X221368308Y-145485605D01*
X221281903Y-145275971D01*
X221156426Y-145087112D01*
X220996655Y-144926222D01*
X220808677Y-144799430D01*
X220599652Y-144711563D01*
X220377541Y-144665970D01*
X220150804Y-144664387D01*
X219928077Y-144706875D01*
X219717845Y-144791814D01*
X219528115Y-144915970D01*
X219366114Y-145074613D01*
X219238012Y-145261701D01*
X219148689Y-145470108D01*
X219101546Y-145691896D01*
X219098381Y-145918616D01*
X217459531Y-145918616D01*
X217462649Y-145695329D01*
X217418608Y-145472905D01*
X217332203Y-145263271D01*
X217206726Y-145074412D01*
X217046955Y-144913522D01*
X216858977Y-144786730D01*
X216649952Y-144698863D01*
X216427841Y-144653270D01*
X216201104Y-144651687D01*
X215978377Y-144694175D01*
X215768145Y-144779114D01*
X215578415Y-144903270D01*
X215416414Y-145061913D01*
X215288312Y-145249001D01*
X215198989Y-145457408D01*
X215151846Y-145679196D01*
X215148681Y-145905916D01*
X213497486Y-145905916D01*
X213500249Y-145708029D01*
X213456208Y-145485605D01*
X213369803Y-145275971D01*
X213244326Y-145087112D01*
X213084555Y-144926222D01*
X212896577Y-144799430D01*
X212687552Y-144711563D01*
X212465441Y-144665970D01*
X212238704Y-144664387D01*
X212015977Y-144706875D01*
X211805745Y-144791814D01*
X211616015Y-144915970D01*
X211454014Y-145074613D01*
X211325912Y-145261701D01*
X211236589Y-145470108D01*
X211189446Y-145691896D01*
X211186281Y-145918616D01*
X209534908Y-145918616D01*
X209537849Y-145708029D01*
X209493808Y-145485605D01*
X209407403Y-145275971D01*
X209281926Y-145087112D01*
X209122155Y-144926222D01*
X208934177Y-144799430D01*
X208725152Y-144711563D01*
X208503041Y-144665970D01*
X208276304Y-144664387D01*
X208053577Y-144706875D01*
X207843345Y-144791814D01*
X207653615Y-144915970D01*
X207491614Y-145074613D01*
X207363512Y-145261701D01*
X207274189Y-145470108D01*
X207227046Y-145691896D01*
X207223881Y-145918616D01*
X205585208Y-145918616D01*
X205588149Y-145708029D01*
X205544108Y-145485605D01*
X205457703Y-145275971D01*
X205332226Y-145087112D01*
X205172455Y-144926222D01*
X204984477Y-144799430D01*
X204775452Y-144711563D01*
X204553341Y-144665970D01*
X204326604Y-144664387D01*
X204103877Y-144706875D01*
X203893645Y-144791814D01*
X203703915Y-144915970D01*
X203541914Y-145074613D01*
X203413812Y-145261701D01*
X203324489Y-145470108D01*
X203277346Y-145691896D01*
X203274181Y-145918616D01*
X201609931Y-145918616D01*
X201613049Y-145695329D01*
X201569008Y-145472905D01*
X201482603Y-145263271D01*
X201357126Y-145074412D01*
X201197355Y-144913522D01*
X201009377Y-144786730D01*
X200800352Y-144698863D01*
X200578241Y-144653270D01*
X200351504Y-144651687D01*
X200128777Y-144694175D01*
X199918545Y-144779114D01*
X199728815Y-144903270D01*
X199566814Y-145061913D01*
X199438712Y-145249001D01*
X199349389Y-145457408D01*
X199302246Y-145679196D01*
X199299081Y-145905916D01*
X197660408Y-145905916D01*
X197663349Y-145695329D01*
X197619308Y-145472905D01*
X197532903Y-145263271D01*
X197407426Y-145074412D01*
X197247655Y-144913522D01*
X197059677Y-144786730D01*
X196850652Y-144698863D01*
X196628541Y-144653270D01*
X196401804Y-144651687D01*
X196179077Y-144694175D01*
X195968845Y-144779114D01*
X195779115Y-144903270D01*
X195617114Y-145061913D01*
X195489012Y-145249001D01*
X195399689Y-145457408D01*
X195352546Y-145679196D01*
X195349381Y-145905916D01*
X193710886Y-145905916D01*
X193713649Y-145708029D01*
X193669608Y-145485605D01*
X193583203Y-145275971D01*
X193457726Y-145087112D01*
X193297955Y-144926222D01*
X193109977Y-144799430D01*
X192900952Y-144711563D01*
X192678841Y-144665970D01*
X192452104Y-144664387D01*
X192229377Y-144706875D01*
X192019145Y-144791814D01*
X191829415Y-144915970D01*
X191667414Y-145074613D01*
X191539312Y-145261701D01*
X191449989Y-145470108D01*
X191402846Y-145691896D01*
X191399681Y-145918616D01*
X187096100Y-145918616D01*
X187096100Y-141821856D01*
X195260396Y-141821856D01*
X195303576Y-142057122D01*
X195391630Y-142279520D01*
X195521204Y-142480580D01*
X195687363Y-142652643D01*
X195883778Y-142789155D01*
X196102968Y-142884917D01*
X196336584Y-142936281D01*
X196575727Y-142941290D01*
X196755328Y-142909622D01*
X197349999Y-143504293D01*
X197321136Y-143640083D01*
X197317796Y-143879256D01*
X197360976Y-144114522D01*
X197449030Y-144336920D01*
X197578604Y-144537980D01*
X197744763Y-144710043D01*
X197941178Y-144846555D01*
X198160368Y-144942317D01*
X198393984Y-144993681D01*
X198633127Y-144998690D01*
X198868689Y-144957154D01*
X199091696Y-144870655D01*
X199293656Y-144742488D01*
X199466875Y-144577534D01*
X199604755Y-144382076D01*
X199702044Y-144163560D01*
X199755038Y-143930309D01*
X199758853Y-143657102D01*
X199712393Y-143422462D01*
X199621242Y-143201315D01*
X199488874Y-143002084D01*
X199320328Y-142832357D01*
X199122026Y-142698601D01*
X198901520Y-142605909D01*
X198667210Y-142557812D01*
X198428021Y-142556142D01*
X198266120Y-142587026D01*
X197670676Y-141991582D01*
X197697638Y-141872909D01*
X197701453Y-141599702D01*
X197654993Y-141365062D01*
X197563842Y-141143915D01*
X197431474Y-140944684D01*
X197262928Y-140774957D01*
X197064626Y-140641201D01*
X196844120Y-140548509D01*
X196609810Y-140500412D01*
X196370621Y-140498742D01*
X196135662Y-140543563D01*
X195913883Y-140633167D01*
X195713733Y-140764142D01*
X195542834Y-140931498D01*
X195407697Y-141128862D01*
X195313468Y-141348715D01*
X195263736Y-141582683D01*
X195260396Y-141821856D01*
X187096100Y-141821856D01*
X187096100Y-135496300D01*
X188884386Y-135496300D01*
X188884386Y-137020300D01*
X188890198Y-137093187D01*
X188928482Y-137216811D01*
X188999692Y-137324875D01*
X189098188Y-137408822D01*
X189216171Y-137462006D01*
X189344300Y-137480214D01*
X190868300Y-137480214D01*
X190941187Y-137474402D01*
X191064811Y-137436118D01*
X191172875Y-137364908D01*
X191256822Y-137266412D01*
X191310006Y-137148429D01*
X191328214Y-137020300D01*
X191328214Y-135496300D01*
X191322402Y-135423413D01*
X191284118Y-135299789D01*
X191212908Y-135191725D01*
X191114412Y-135107778D01*
X190996429Y-135054594D01*
X190868300Y-135036386D01*
X189344300Y-135036386D01*
X189271413Y-135042198D01*
X189147789Y-135080482D01*
X189039725Y-135151692D01*
X188955778Y-135250188D01*
X188902594Y-135368171D01*
X188884386Y-135496300D01*
X187096100Y-135496300D01*
X187096100Y-133820856D01*
X191424996Y-133820856D01*
X191468176Y-134056122D01*
X191556230Y-134278520D01*
X191685804Y-134479580D01*
X191851963Y-134651643D01*
X192048378Y-134788155D01*
X192267568Y-134883917D01*
X192501184Y-134935281D01*
X192740327Y-134940290D01*
X192975889Y-134898754D01*
X193198896Y-134812255D01*
X193400856Y-134684088D01*
X193574075Y-134519134D01*
X193711955Y-134323676D01*
X193809244Y-134105160D01*
X193862238Y-133871909D01*
X193866053Y-133598702D01*
X193819593Y-133364062D01*
X193728442Y-133142915D01*
X193596074Y-132943684D01*
X193427528Y-132773957D01*
X193229226Y-132640201D01*
X193008720Y-132547509D01*
X192774410Y-132499412D01*
X192535221Y-132497742D01*
X192300262Y-132542563D01*
X192078483Y-132632167D01*
X191878333Y-132763142D01*
X191707434Y-132930498D01*
X191572297Y-133127862D01*
X191478068Y-133347715D01*
X191428336Y-133581683D01*
X191424996Y-133820856D01*
X187096100Y-133820856D01*
X187096100Y-131686300D01*
X197406086Y-131686300D01*
X197406086Y-133210300D01*
X197411898Y-133283187D01*
X197421500Y-133314193D01*
X197421500Y-134797750D01*
X197410036Y-134851683D01*
X197406696Y-135090856D01*
X197421500Y-135171516D01*
X197421500Y-136182100D01*
X197422369Y-136186716D01*
X197425097Y-136190955D01*
X197429259Y-136193799D01*
X197434200Y-136194800D01*
X198435214Y-136194800D01*
X198482884Y-136205281D01*
X198722027Y-136210290D01*
X198809875Y-136194800D01*
X199821800Y-136194800D01*
X199826416Y-136193931D01*
X199830655Y-136191203D01*
X199833499Y-136187041D01*
X199834500Y-136182100D01*
X199834500Y-135183450D01*
X199843938Y-135141909D01*
X199847753Y-134868702D01*
X199834500Y-134801770D01*
X199834500Y-133318768D01*
X199849914Y-133210300D01*
X199849914Y-131686300D01*
X199844102Y-131613413D01*
X199834500Y-131582407D01*
X199834500Y-131254500D01*
X199833631Y-131249884D01*
X199830903Y-131245645D01*
X199826741Y-131242801D01*
X199821800Y-131241800D01*
X199498468Y-131241800D01*
X199390000Y-131226386D01*
X197866000Y-131226386D01*
X197793113Y-131232198D01*
X197762107Y-131241800D01*
X197434200Y-131241800D01*
X197429584Y-131242669D01*
X197425345Y-131245397D01*
X197422501Y-131249559D01*
X197421500Y-131254500D01*
X197421500Y-131577832D01*
X197406086Y-131686300D01*
X187096100Y-131686300D01*
X187096100Y-129599116D01*
X202943981Y-129599116D01*
X202984912Y-129822134D01*
X203068381Y-130032954D01*
X203191210Y-130223546D01*
X203348718Y-130386651D01*
X203534908Y-130516056D01*
X203742686Y-130606832D01*
X203964139Y-130655521D01*
X204190832Y-130660270D01*
X204414129Y-130620896D01*
X204625527Y-130538901D01*
X204816972Y-130417406D01*
X204981172Y-130261040D01*
X205111874Y-130075759D01*
X205204098Y-129868619D01*
X205254333Y-129647511D01*
X205255186Y-129586416D01*
X207655681Y-129586416D01*
X207696612Y-129809434D01*
X207780081Y-130020254D01*
X207902910Y-130210846D01*
X208060418Y-130373951D01*
X208246608Y-130503356D01*
X208454386Y-130594132D01*
X208675839Y-130642821D01*
X208902532Y-130647570D01*
X209125829Y-130608196D01*
X209337227Y-130526201D01*
X209528672Y-130404706D01*
X209692872Y-130248340D01*
X209823574Y-130063059D01*
X209915798Y-129855919D01*
X209966033Y-129634811D01*
X209966531Y-129599116D01*
X210678281Y-129599116D01*
X210719212Y-129822134D01*
X210802681Y-130032954D01*
X210925510Y-130223546D01*
X211083018Y-130386651D01*
X211269208Y-130516056D01*
X211476986Y-130606832D01*
X211698439Y-130655521D01*
X211925132Y-130660270D01*
X212148429Y-130620896D01*
X212359827Y-130538901D01*
X212551272Y-130417406D01*
X212715472Y-130261040D01*
X212846174Y-130075759D01*
X212938398Y-129868619D01*
X212988633Y-129647511D01*
X212992249Y-129388529D01*
X212948208Y-129166105D01*
X212861803Y-128956471D01*
X212736326Y-128767612D01*
X212576555Y-128606722D01*
X212388577Y-128479930D01*
X212179552Y-128392063D01*
X211957441Y-128346470D01*
X211730704Y-128344887D01*
X211507977Y-128387375D01*
X211297745Y-128472314D01*
X211108015Y-128596470D01*
X210946014Y-128755113D01*
X210817912Y-128942201D01*
X210728589Y-129150608D01*
X210681446Y-129372396D01*
X210678281Y-129599116D01*
X209966531Y-129599116D01*
X209969649Y-129375829D01*
X209925608Y-129153405D01*
X209839203Y-128943771D01*
X209713726Y-128754912D01*
X209553955Y-128594022D01*
X209365977Y-128467230D01*
X209156952Y-128379363D01*
X208934841Y-128333770D01*
X208708104Y-128332187D01*
X208485377Y-128374675D01*
X208275145Y-128459614D01*
X208085415Y-128583770D01*
X207923414Y-128742413D01*
X207795312Y-128929501D01*
X207705989Y-129137908D01*
X207658846Y-129359696D01*
X207655681Y-129586416D01*
X205255186Y-129586416D01*
X205257949Y-129388529D01*
X205213908Y-129166105D01*
X205127503Y-128956471D01*
X205002026Y-128767612D01*
X204842255Y-128606722D01*
X204654277Y-128479930D01*
X204445252Y-128392063D01*
X204223141Y-128346470D01*
X203996404Y-128344887D01*
X203773677Y-128387375D01*
X203563445Y-128472314D01*
X203373715Y-128596470D01*
X203211714Y-128755113D01*
X203083612Y-128942201D01*
X202994289Y-129150608D01*
X202947146Y-129372396D01*
X202943981Y-129599116D01*
X187096100Y-129599116D01*
X187096100Y-127046416D01*
X207655681Y-127046416D01*
X207696612Y-127269434D01*
X207780081Y-127480254D01*
X207902910Y-127670846D01*
X208060418Y-127833951D01*
X208246608Y-127963356D01*
X208454386Y-128054132D01*
X208675839Y-128102821D01*
X208902532Y-128107570D01*
X209125829Y-128068196D01*
X209337227Y-127986201D01*
X209528672Y-127864706D01*
X209692872Y-127708340D01*
X209823574Y-127523059D01*
X209915798Y-127315919D01*
X209966033Y-127094811D01*
X209966531Y-127059116D01*
X210678281Y-127059116D01*
X210719212Y-127282134D01*
X210802681Y-127492954D01*
X210925510Y-127683546D01*
X211083018Y-127846651D01*
X211269208Y-127976056D01*
X211476986Y-128066832D01*
X211698439Y-128115521D01*
X211925132Y-128120270D01*
X212148429Y-128080896D01*
X212359827Y-127998901D01*
X212551272Y-127877406D01*
X212715472Y-127721040D01*
X212846174Y-127535759D01*
X212938398Y-127328619D01*
X212988633Y-127107511D01*
X212989308Y-127059116D01*
X214183481Y-127059116D01*
X214224412Y-127282134D01*
X214307881Y-127492954D01*
X214430710Y-127683546D01*
X214588218Y-127846651D01*
X214774408Y-127976056D01*
X214982186Y-128066832D01*
X215203639Y-128115521D01*
X215430332Y-128120270D01*
X215653629Y-128080896D01*
X215865027Y-127998901D01*
X216056472Y-127877406D01*
X216220672Y-127721040D01*
X216351374Y-127535759D01*
X216443598Y-127328619D01*
X216493833Y-127107511D01*
X216494508Y-127059116D01*
X217434681Y-127059116D01*
X217475612Y-127282134D01*
X217559081Y-127492954D01*
X217681910Y-127683546D01*
X217839418Y-127846651D01*
X218025608Y-127976056D01*
X218233386Y-128066832D01*
X218454839Y-128115521D01*
X218681532Y-128120270D01*
X218904829Y-128080896D01*
X219116227Y-127998901D01*
X219307672Y-127877406D01*
X219471872Y-127721040D01*
X219602574Y-127535759D01*
X219694798Y-127328619D01*
X219745033Y-127107511D01*
X219748649Y-126848529D01*
X219704608Y-126626105D01*
X219618203Y-126416471D01*
X219492726Y-126227612D01*
X219332955Y-126066722D01*
X219144977Y-125939930D01*
X218935952Y-125852063D01*
X218713841Y-125806470D01*
X218487104Y-125804887D01*
X218264377Y-125847375D01*
X218054145Y-125932314D01*
X217864415Y-126056470D01*
X217702414Y-126215113D01*
X217574312Y-126402201D01*
X217484989Y-126610608D01*
X217437846Y-126832396D01*
X217434681Y-127059116D01*
X216494508Y-127059116D01*
X216497449Y-126848529D01*
X216453408Y-126626105D01*
X216367003Y-126416471D01*
X216241526Y-126227612D01*
X216081755Y-126066722D01*
X215893777Y-125939930D01*
X215684752Y-125852063D01*
X215462641Y-125806470D01*
X215235904Y-125804887D01*
X215013177Y-125847375D01*
X214802945Y-125932314D01*
X214613215Y-126056470D01*
X214451214Y-126215113D01*
X214323112Y-126402201D01*
X214233789Y-126610608D01*
X214186646Y-126832396D01*
X214183481Y-127059116D01*
X212989308Y-127059116D01*
X212992249Y-126848529D01*
X212948208Y-126626105D01*
X212861803Y-126416471D01*
X212736326Y-126227612D01*
X212576555Y-126066722D01*
X212388577Y-125939930D01*
X212179552Y-125852063D01*
X211957441Y-125806470D01*
X211730704Y-125804887D01*
X211507977Y-125847375D01*
X211297745Y-125932314D01*
X211108015Y-126056470D01*
X210946014Y-126215113D01*
X210817912Y-126402201D01*
X210728589Y-126610608D01*
X210681446Y-126832396D01*
X210678281Y-127059116D01*
X209966531Y-127059116D01*
X209969649Y-126835829D01*
X209925608Y-126613405D01*
X209839203Y-126403771D01*
X209713726Y-126214912D01*
X209553955Y-126054022D01*
X209365977Y-125927230D01*
X209156952Y-125839363D01*
X208934841Y-125793770D01*
X208708104Y-125792187D01*
X208485377Y-125834675D01*
X208275145Y-125919614D01*
X208085415Y-126043770D01*
X207923414Y-126202413D01*
X207795312Y-126389501D01*
X207705989Y-126597908D01*
X207658846Y-126819696D01*
X207655681Y-127046416D01*
X187096100Y-127046416D01*
X187096100Y-112128000D01*
X201155300Y-112128000D01*
X201155300Y-125247400D01*
X201155300Y-125247400D01*
G37*
X201155300Y-125247400D02*
X201155803Y-125250938D01*
X201157271Y-125254196D01*
X201159590Y-125256916D01*
X201162574Y-125258882D01*
X201165987Y-125259940D01*
X201168000Y-125260100D01*
X219989400Y-125260100D01*
X219992938Y-125259597D01*
X219996196Y-125258129D01*
X219998916Y-125255810D01*
X220000882Y-125252826D01*
X220001940Y-125249413D01*
X220002100Y-125247400D01*
X220002100Y-112128000D01*
X233591400Y-112128000D01*
X233591400Y-155994400D01*
X230898700Y-155994400D01*
X230898700Y-149050396D01*
X231440048Y-148509048D01*
X231481816Y-148458200D01*
X231524033Y-148407887D01*
X231525834Y-148404611D01*
X231528212Y-148401716D01*
X231559279Y-148343775D01*
X231590949Y-148286168D01*
X231592082Y-148282597D01*
X231593848Y-148279303D01*
X231613051Y-148216493D01*
X231632948Y-148153771D01*
X231633365Y-148150050D01*
X231634459Y-148146473D01*
X231641096Y-148081134D01*
X231648431Y-148015737D01*
X231648482Y-148008413D01*
X231648495Y-148008284D01*
X231648484Y-148008163D01*
X231648500Y-148005800D01*
X231648500Y-142468600D01*
X231642083Y-142403156D01*
X231636355Y-142337682D01*
X231635311Y-142334090D01*
X231634946Y-142330363D01*
X231615939Y-142267411D01*
X231597603Y-142204297D01*
X231595880Y-142200974D01*
X231594799Y-142197392D01*
X231563946Y-142139366D01*
X231533682Y-142080980D01*
X231531346Y-142078054D01*
X231529590Y-142074751D01*
X231488090Y-142023868D01*
X231447026Y-141972427D01*
X231441883Y-141967212D01*
X231441801Y-141967112D01*
X231441708Y-141967035D01*
X231440048Y-141965352D01*
X229306448Y-139831752D01*
X229255622Y-139790003D01*
X229205287Y-139747767D01*
X229202008Y-139745964D01*
X229199115Y-139743588D01*
X229141161Y-139712513D01*
X229083568Y-139680851D01*
X229080001Y-139679720D01*
X229076703Y-139677951D01*
X229013847Y-139658734D01*
X228951171Y-139638852D01*
X228947450Y-139638435D01*
X228943873Y-139637341D01*
X228878534Y-139630704D01*
X228813137Y-139623369D01*
X228805813Y-139623318D01*
X228805684Y-139623305D01*
X228805563Y-139623316D01*
X228803200Y-139623300D01*
X224348196Y-139623300D01*
X221475180Y-136750284D01*
X224787963Y-136750284D01*
X224829344Y-136975752D01*
X224913731Y-137188887D01*
X225037908Y-137381573D01*
X225197147Y-137546469D01*
X225385382Y-137677296D01*
X225595442Y-137769069D01*
X225819328Y-137818294D01*
X226048511Y-137823094D01*
X226274261Y-137783288D01*
X226487981Y-137700392D01*
X226681529Y-137577563D01*
X226847533Y-137419479D01*
X226979670Y-137232162D01*
X227072908Y-137022747D01*
X227123694Y-136799211D01*
X227124392Y-136749216D01*
X229194881Y-136749216D01*
X229235812Y-136972234D01*
X229319281Y-137183054D01*
X229442110Y-137373646D01*
X229599618Y-137536751D01*
X229785808Y-137666156D01*
X229993586Y-137756932D01*
X230215039Y-137805621D01*
X230441732Y-137810370D01*
X230665029Y-137770996D01*
X230876427Y-137689001D01*
X231067872Y-137567506D01*
X231232072Y-137411140D01*
X231362774Y-137225859D01*
X231454998Y-137018719D01*
X231505233Y-136797611D01*
X231508849Y-136538629D01*
X231464808Y-136316205D01*
X231378403Y-136106571D01*
X231252926Y-135917712D01*
X231093155Y-135756822D01*
X230905177Y-135630030D01*
X230696152Y-135542163D01*
X230474041Y-135496570D01*
X230247304Y-135494987D01*
X230024577Y-135537475D01*
X229814345Y-135622414D01*
X229624615Y-135746570D01*
X229462614Y-135905213D01*
X229334512Y-136092301D01*
X229245189Y-136300708D01*
X229198046Y-136522496D01*
X229194881Y-136749216D01*
X227124392Y-136749216D01*
X227127350Y-136537383D01*
X227082825Y-136312516D01*
X226995471Y-136100579D01*
X226868616Y-135909646D01*
X226707090Y-135746989D01*
X226517047Y-135618803D01*
X226305726Y-135529972D01*
X226081175Y-135483878D01*
X225851947Y-135482278D01*
X225626774Y-135525232D01*
X225414233Y-135611104D01*
X225222419Y-135736624D01*
X225058638Y-135897010D01*
X224929129Y-136086153D01*
X224838824Y-136296850D01*
X224791164Y-136521073D01*
X224787963Y-136750284D01*
X221475180Y-136750284D01*
X220989536Y-136264640D01*
X220989633Y-136264211D01*
X220993249Y-136005229D01*
X220949208Y-135782805D01*
X220862803Y-135573171D01*
X220737326Y-135384312D01*
X220577555Y-135223422D01*
X220389577Y-135096630D01*
X220180552Y-135008763D01*
X219958441Y-134963170D01*
X219731704Y-134961587D01*
X219693727Y-134968831D01*
X216661101Y-131936205D01*
X216671438Y-131890709D01*
X216674515Y-131670284D01*
X224787963Y-131670284D01*
X224829344Y-131895752D01*
X224913731Y-132108887D01*
X225037908Y-132301573D01*
X225197147Y-132466469D01*
X225385382Y-132597296D01*
X225595442Y-132689069D01*
X225819328Y-132738294D01*
X226048511Y-132743094D01*
X226274261Y-132703288D01*
X226487981Y-132620392D01*
X226681529Y-132497563D01*
X226847533Y-132339479D01*
X226979670Y-132152162D01*
X227072908Y-131942747D01*
X227123694Y-131719211D01*
X227124214Y-131681916D01*
X229182181Y-131681916D01*
X229223112Y-131904934D01*
X229306581Y-132115754D01*
X229429410Y-132306346D01*
X229586918Y-132469451D01*
X229773108Y-132598856D01*
X229980886Y-132689632D01*
X230202339Y-132738321D01*
X230429032Y-132743070D01*
X230652329Y-132703696D01*
X230863727Y-132621701D01*
X231055172Y-132500206D01*
X231219372Y-132343840D01*
X231350074Y-132158559D01*
X231442298Y-131951419D01*
X231492533Y-131730311D01*
X231496149Y-131471329D01*
X231452108Y-131248905D01*
X231365703Y-131039271D01*
X231240226Y-130850412D01*
X231080455Y-130689522D01*
X230892477Y-130562730D01*
X230683452Y-130474863D01*
X230461341Y-130429270D01*
X230234604Y-130427687D01*
X230011877Y-130470175D01*
X229801645Y-130555114D01*
X229611915Y-130679270D01*
X229449914Y-130837913D01*
X229321812Y-131025001D01*
X229232489Y-131233408D01*
X229185346Y-131455196D01*
X229182181Y-131681916D01*
X227124214Y-131681916D01*
X227127350Y-131457383D01*
X227082825Y-131232516D01*
X226995471Y-131020579D01*
X226868616Y-130829646D01*
X226707090Y-130666989D01*
X226517047Y-130538803D01*
X226305726Y-130449972D01*
X226081175Y-130403878D01*
X225851947Y-130402278D01*
X225626774Y-130445232D01*
X225414233Y-130531104D01*
X225222419Y-130656624D01*
X225058638Y-130817010D01*
X224929129Y-131006153D01*
X224838824Y-131216850D01*
X224791164Y-131441073D01*
X224787963Y-131670284D01*
X216674515Y-131670284D01*
X216675253Y-131617502D01*
X216628793Y-131382862D01*
X216537642Y-131161715D01*
X216405274Y-130962484D01*
X216236728Y-130792757D01*
X216038426Y-130659001D01*
X215817920Y-130566309D01*
X215583610Y-130518212D01*
X215344421Y-130516542D01*
X215109462Y-130561363D01*
X214887683Y-130650967D01*
X214687533Y-130781942D01*
X214516634Y-130949298D01*
X214381497Y-131146662D01*
X214287268Y-131366515D01*
X214237536Y-131600483D01*
X214234196Y-131839656D01*
X214277376Y-132074922D01*
X214365430Y-132297320D01*
X214495004Y-132498380D01*
X214661163Y-132670443D01*
X214857578Y-132806955D01*
X215076768Y-132902717D01*
X215310384Y-132954081D01*
X215549527Y-132959090D01*
X215652787Y-132940883D01*
X218685698Y-135973794D01*
X218682446Y-135989096D01*
X218679281Y-136215816D01*
X218720212Y-136438834D01*
X218803681Y-136649654D01*
X218926510Y-136840246D01*
X219084018Y-137003351D01*
X219270208Y-137132756D01*
X219477986Y-137223532D01*
X219699439Y-137272221D01*
X219926132Y-137276970D01*
X219979469Y-137267565D01*
X223550152Y-140838248D01*
X223600978Y-140879997D01*
X223651313Y-140922233D01*
X223654592Y-140924036D01*
X223657485Y-140926412D01*
X223715439Y-140957487D01*
X223773032Y-140989149D01*
X223776599Y-140990280D01*
X223779897Y-140992049D01*
X223842753Y-141011266D01*
X223905429Y-141031148D01*
X223909150Y-141031565D01*
X223912727Y-141032659D01*
X223978066Y-141039296D01*
X224043463Y-141046631D01*
X224050787Y-141046682D01*
X224050916Y-141046695D01*
X224051037Y-141046684D01*
X224053400Y-141046700D01*
X228508404Y-141046700D01*
X230225100Y-142763396D01*
X230225100Y-147711004D01*
X229879504Y-148056600D01*
X229301760Y-148056600D01*
X229293108Y-148012905D01*
X229206703Y-147803271D01*
X229081226Y-147614412D01*
X228921455Y-147453522D01*
X228733477Y-147326730D01*
X228524452Y-147238863D01*
X228302341Y-147193270D01*
X228075604Y-147191687D01*
X227852877Y-147234175D01*
X227642645Y-147319114D01*
X227452915Y-147443270D01*
X227290914Y-147601913D01*
X227162812Y-147789001D01*
X227073489Y-147997408D01*
X227060907Y-148056600D01*
X225336845Y-148056600D01*
X225330708Y-148025605D01*
X225244303Y-147815971D01*
X225118826Y-147627112D01*
X224959055Y-147466222D01*
X224771077Y-147339430D01*
X224562052Y-147251563D01*
X224339941Y-147205970D01*
X224113204Y-147204387D01*
X223890477Y-147246875D01*
X223680245Y-147331814D01*
X223490515Y-147455970D01*
X223328514Y-147614613D01*
X223200412Y-147801701D01*
X223111089Y-148010108D01*
X223101207Y-148056600D01*
X222847400Y-148056600D01*
X222847400Y-145918616D01*
X223060781Y-145918616D01*
X223101712Y-146141634D01*
X223185181Y-146352454D01*
X223308010Y-146543046D01*
X223465518Y-146706151D01*
X223651708Y-146835556D01*
X223859486Y-146926332D01*
X224080939Y-146975021D01*
X224307632Y-146979770D01*
X224530929Y-146940396D01*
X224742327Y-146858401D01*
X224933772Y-146736906D01*
X225097972Y-146580540D01*
X225228674Y-146395259D01*
X225320898Y-146188119D01*
X225371133Y-145967011D01*
X225371986Y-145905916D01*
X227023181Y-145905916D01*
X227064112Y-146128934D01*
X227147581Y-146339754D01*
X227270410Y-146530346D01*
X227427918Y-146693451D01*
X227614108Y-146822856D01*
X227821886Y-146913632D01*
X228043339Y-146962321D01*
X228270032Y-146967070D01*
X228493329Y-146927696D01*
X228704727Y-146845701D01*
X228896172Y-146724206D01*
X229060372Y-146567840D01*
X229191074Y-146382559D01*
X229283298Y-146175419D01*
X229333533Y-145954311D01*
X229337149Y-145695329D01*
X229293108Y-145472905D01*
X229206703Y-145263271D01*
X229081226Y-145074412D01*
X228921455Y-144913522D01*
X228733477Y-144786730D01*
X228524452Y-144698863D01*
X228302341Y-144653270D01*
X228075604Y-144651687D01*
X227852877Y-144694175D01*
X227642645Y-144779114D01*
X227452915Y-144903270D01*
X227290914Y-145061913D01*
X227162812Y-145249001D01*
X227073489Y-145457408D01*
X227026346Y-145679196D01*
X227023181Y-145905916D01*
X225371986Y-145905916D01*
X225374749Y-145708029D01*
X225330708Y-145485605D01*
X225244303Y-145275971D01*
X225118826Y-145087112D01*
X224959055Y-144926222D01*
X224771077Y-144799430D01*
X224562052Y-144711563D01*
X224339941Y-144665970D01*
X224113204Y-144664387D01*
X223890477Y-144706875D01*
X223680245Y-144791814D01*
X223490515Y-144915970D01*
X223328514Y-145074613D01*
X223200412Y-145261701D01*
X223111089Y-145470108D01*
X223063946Y-145691896D01*
X223060781Y-145918616D01*
X222847400Y-145918616D01*
X222847400Y-143941800D01*
X222841557Y-143882212D01*
X222836339Y-143822563D01*
X222835387Y-143819288D01*
X222835055Y-143815897D01*
X222817757Y-143758603D01*
X222801045Y-143701079D01*
X222799476Y-143698052D01*
X222798491Y-143694790D01*
X222770376Y-143641914D01*
X222742826Y-143588765D01*
X222740701Y-143586103D01*
X222739100Y-143583092D01*
X222701240Y-143536671D01*
X222663901Y-143489897D01*
X222659222Y-143485152D01*
X222659144Y-143485056D01*
X222659055Y-143484982D01*
X222657547Y-143483453D01*
X213704047Y-134529953D01*
X213657782Y-134491951D01*
X213611912Y-134453461D01*
X213608922Y-134451818D01*
X213606291Y-134449656D01*
X213553561Y-134421382D01*
X213501053Y-134392516D01*
X213497802Y-134391485D01*
X213494800Y-134389875D01*
X213437522Y-134372363D01*
X213380468Y-134354265D01*
X213377085Y-134353885D01*
X213373822Y-134352888D01*
X213314233Y-134346835D01*
X213254750Y-134340163D01*
X213248087Y-134340117D01*
X213247963Y-134340104D01*
X213247847Y-134340115D01*
X213245700Y-134340100D01*
X202883302Y-134340100D01*
X202790874Y-134200984D01*
X202622328Y-134031257D01*
X202424026Y-133897501D01*
X202203520Y-133804809D01*
X201969210Y-133756712D01*
X201730021Y-133755042D01*
X201495062Y-133799863D01*
X201273283Y-133889467D01*
X201073133Y-134020442D01*
X200902234Y-134187798D01*
X200767097Y-134385162D01*
X200672868Y-134605015D01*
X200623136Y-134838983D01*
X200619796Y-135078156D01*
X200662976Y-135313422D01*
X200751030Y-135535820D01*
X200880604Y-135736880D01*
X201046763Y-135908943D01*
X201243178Y-136045455D01*
X201462368Y-136141217D01*
X201695984Y-136192581D01*
X201935127Y-136197590D01*
X202170689Y-136156054D01*
X202393696Y-136069555D01*
X202595656Y-135941388D01*
X202768875Y-135776434D01*
X202867587Y-135636500D01*
X212977206Y-135636500D01*
X221551000Y-144210294D01*
X221551000Y-148056600D01*
X221374445Y-148056600D01*
X221368308Y-148025605D01*
X221281903Y-147815971D01*
X221156426Y-147627112D01*
X220996655Y-147466222D01*
X220808677Y-147339430D01*
X220599652Y-147251563D01*
X220377541Y-147205970D01*
X220150804Y-147204387D01*
X219928077Y-147246875D01*
X219717845Y-147331814D01*
X219528115Y-147455970D01*
X219366114Y-147614613D01*
X219238012Y-147801701D01*
X219148689Y-148010108D01*
X219138807Y-148056600D01*
X217427260Y-148056600D01*
X217418608Y-148012905D01*
X217332203Y-147803271D01*
X217206726Y-147614412D01*
X217046955Y-147453522D01*
X216858977Y-147326730D01*
X216649952Y-147238863D01*
X216427841Y-147193270D01*
X216201104Y-147191687D01*
X215978377Y-147234175D01*
X215768145Y-147319114D01*
X215578415Y-147443270D01*
X215416414Y-147601913D01*
X215288312Y-147789001D01*
X215198989Y-147997408D01*
X215186407Y-148056600D01*
X213462345Y-148056600D01*
X213456208Y-148025605D01*
X213369803Y-147815971D01*
X213244326Y-147627112D01*
X213084555Y-147466222D01*
X212896577Y-147339430D01*
X212687552Y-147251563D01*
X212465441Y-147205970D01*
X212238704Y-147204387D01*
X212015977Y-147246875D01*
X211805745Y-147331814D01*
X211616015Y-147455970D01*
X211454014Y-147614613D01*
X211325912Y-147801701D01*
X211236589Y-148010108D01*
X211226707Y-148056600D01*
X209499945Y-148056600D01*
X209493808Y-148025605D01*
X209407403Y-147815971D01*
X209281926Y-147627112D01*
X209122155Y-147466222D01*
X208934177Y-147339430D01*
X208725152Y-147251563D01*
X208503041Y-147205970D01*
X208276304Y-147204387D01*
X208053577Y-147246875D01*
X207843345Y-147331814D01*
X207653615Y-147455970D01*
X207491614Y-147614613D01*
X207363512Y-147801701D01*
X207274189Y-148010108D01*
X207264307Y-148056600D01*
X205550245Y-148056600D01*
X205544108Y-148025605D01*
X205457703Y-147815971D01*
X205332226Y-147627112D01*
X205172455Y-147466222D01*
X204984477Y-147339430D01*
X204775452Y-147251563D01*
X204553341Y-147205970D01*
X204326604Y-147204387D01*
X204103877Y-147246875D01*
X203893645Y-147331814D01*
X203703915Y-147455970D01*
X203541914Y-147614613D01*
X203413812Y-147801701D01*
X203324489Y-148010108D01*
X203314607Y-148056600D01*
X201577660Y-148056600D01*
X201569008Y-148012905D01*
X201482603Y-147803271D01*
X201357126Y-147614412D01*
X201197355Y-147453522D01*
X201009377Y-147326730D01*
X200800352Y-147238863D01*
X200578241Y-147193270D01*
X200351504Y-147191687D01*
X200128777Y-147234175D01*
X199918545Y-147319114D01*
X199728815Y-147443270D01*
X199566814Y-147601913D01*
X199438712Y-147789001D01*
X199349389Y-147997408D01*
X199336807Y-148056600D01*
X197627960Y-148056600D01*
X197619308Y-148012905D01*
X197532903Y-147803271D01*
X197407426Y-147614412D01*
X197247655Y-147453522D01*
X197059677Y-147326730D01*
X196850652Y-147238863D01*
X196628541Y-147193270D01*
X196401804Y-147191687D01*
X196179077Y-147234175D01*
X195968845Y-147319114D01*
X195779115Y-147443270D01*
X195617114Y-147601913D01*
X195489012Y-147789001D01*
X195399689Y-147997408D01*
X195387107Y-148056600D01*
X193675745Y-148056600D01*
X193669608Y-148025605D01*
X193583203Y-147815971D01*
X193457726Y-147627112D01*
X193297955Y-147466222D01*
X193109977Y-147339430D01*
X192900952Y-147251563D01*
X192678841Y-147205970D01*
X192452104Y-147204387D01*
X192229377Y-147246875D01*
X192019145Y-147331814D01*
X191829415Y-147455970D01*
X191667414Y-147614613D01*
X191539312Y-147801701D01*
X191449989Y-148010108D01*
X191440107Y-148056600D01*
X189839600Y-148056600D01*
X189836062Y-148057103D01*
X189832804Y-148058571D01*
X189830084Y-148060890D01*
X189828118Y-148063874D01*
X189827060Y-148067287D01*
X189826900Y-148069300D01*
X189826900Y-155994400D01*
X187096100Y-155994400D01*
X187096100Y-145918616D01*
X191399681Y-145918616D01*
X191440612Y-146141634D01*
X191524081Y-146352454D01*
X191646910Y-146543046D01*
X191804418Y-146706151D01*
X191990608Y-146835556D01*
X192198386Y-146926332D01*
X192419839Y-146975021D01*
X192646532Y-146979770D01*
X192869829Y-146940396D01*
X193081227Y-146858401D01*
X193272672Y-146736906D01*
X193436872Y-146580540D01*
X193567574Y-146395259D01*
X193659798Y-146188119D01*
X193710033Y-145967011D01*
X193710886Y-145905916D01*
X195349381Y-145905916D01*
X195390312Y-146128934D01*
X195473781Y-146339754D01*
X195596610Y-146530346D01*
X195754118Y-146693451D01*
X195940308Y-146822856D01*
X196148086Y-146913632D01*
X196369539Y-146962321D01*
X196596232Y-146967070D01*
X196819529Y-146927696D01*
X197030927Y-146845701D01*
X197222372Y-146724206D01*
X197386572Y-146567840D01*
X197517274Y-146382559D01*
X197609498Y-146175419D01*
X197659733Y-145954311D01*
X197660408Y-145905916D01*
X199299081Y-145905916D01*
X199340012Y-146128934D01*
X199423481Y-146339754D01*
X199546310Y-146530346D01*
X199703818Y-146693451D01*
X199890008Y-146822856D01*
X200097786Y-146913632D01*
X200319239Y-146962321D01*
X200545932Y-146967070D01*
X200769229Y-146927696D01*
X200980627Y-146845701D01*
X201172072Y-146724206D01*
X201336272Y-146567840D01*
X201466974Y-146382559D01*
X201559198Y-146175419D01*
X201609433Y-145954311D01*
X201609931Y-145918616D01*
X203274181Y-145918616D01*
X203315112Y-146141634D01*
X203398581Y-146352454D01*
X203521410Y-146543046D01*
X203678918Y-146706151D01*
X203865108Y-146835556D01*
X204072886Y-146926332D01*
X204294339Y-146975021D01*
X204521032Y-146979770D01*
X204744329Y-146940396D01*
X204955727Y-146858401D01*
X205147172Y-146736906D01*
X205311372Y-146580540D01*
X205442074Y-146395259D01*
X205534298Y-146188119D01*
X205584533Y-145967011D01*
X205585208Y-145918616D01*
X207223881Y-145918616D01*
X207264812Y-146141634D01*
X207348281Y-146352454D01*
X207471110Y-146543046D01*
X207628618Y-146706151D01*
X207814808Y-146835556D01*
X208022586Y-146926332D01*
X208244039Y-146975021D01*
X208470732Y-146979770D01*
X208694029Y-146940396D01*
X208905427Y-146858401D01*
X209096872Y-146736906D01*
X209261072Y-146580540D01*
X209391774Y-146395259D01*
X209483998Y-146188119D01*
X209534233Y-145967011D01*
X209534908Y-145918616D01*
X211186281Y-145918616D01*
X211227212Y-146141634D01*
X211310681Y-146352454D01*
X211433510Y-146543046D01*
X211591018Y-146706151D01*
X211777208Y-146835556D01*
X211984986Y-146926332D01*
X212206439Y-146975021D01*
X212433132Y-146979770D01*
X212656429Y-146940396D01*
X212867827Y-146858401D01*
X213059272Y-146736906D01*
X213223472Y-146580540D01*
X213354174Y-146395259D01*
X213446398Y-146188119D01*
X213496633Y-145967011D01*
X213497486Y-145905916D01*
X215148681Y-145905916D01*
X215189612Y-146128934D01*
X215273081Y-146339754D01*
X215395910Y-146530346D01*
X215553418Y-146693451D01*
X215739608Y-146822856D01*
X215947386Y-146913632D01*
X216168839Y-146962321D01*
X216395532Y-146967070D01*
X216618829Y-146927696D01*
X216830227Y-146845701D01*
X217021672Y-146724206D01*
X217185872Y-146567840D01*
X217316574Y-146382559D01*
X217408798Y-146175419D01*
X217459033Y-145954311D01*
X217459531Y-145918616D01*
X219098381Y-145918616D01*
X219139312Y-146141634D01*
X219222781Y-146352454D01*
X219345610Y-146543046D01*
X219503118Y-146706151D01*
X219689308Y-146835556D01*
X219897086Y-146926332D01*
X220118539Y-146975021D01*
X220345232Y-146979770D01*
X220568529Y-146940396D01*
X220779927Y-146858401D01*
X220971372Y-146736906D01*
X221135572Y-146580540D01*
X221266274Y-146395259D01*
X221358498Y-146188119D01*
X221408733Y-145967011D01*
X221412349Y-145708029D01*
X221368308Y-145485605D01*
X221281903Y-145275971D01*
X221156426Y-145087112D01*
X220996655Y-144926222D01*
X220808677Y-144799430D01*
X220599652Y-144711563D01*
X220377541Y-144665970D01*
X220150804Y-144664387D01*
X219928077Y-144706875D01*
X219717845Y-144791814D01*
X219528115Y-144915970D01*
X219366114Y-145074613D01*
X219238012Y-145261701D01*
X219148689Y-145470108D01*
X219101546Y-145691896D01*
X219098381Y-145918616D01*
X217459531Y-145918616D01*
X217462649Y-145695329D01*
X217418608Y-145472905D01*
X217332203Y-145263271D01*
X217206726Y-145074412D01*
X217046955Y-144913522D01*
X216858977Y-144786730D01*
X216649952Y-144698863D01*
X216427841Y-144653270D01*
X216201104Y-144651687D01*
X215978377Y-144694175D01*
X215768145Y-144779114D01*
X215578415Y-144903270D01*
X215416414Y-145061913D01*
X215288312Y-145249001D01*
X215198989Y-145457408D01*
X215151846Y-145679196D01*
X215148681Y-145905916D01*
X213497486Y-145905916D01*
X213500249Y-145708029D01*
X213456208Y-145485605D01*
X213369803Y-145275971D01*
X213244326Y-145087112D01*
X213084555Y-144926222D01*
X212896577Y-144799430D01*
X212687552Y-144711563D01*
X212465441Y-144665970D01*
X212238704Y-144664387D01*
X212015977Y-144706875D01*
X211805745Y-144791814D01*
X211616015Y-144915970D01*
X211454014Y-145074613D01*
X211325912Y-145261701D01*
X211236589Y-145470108D01*
X211189446Y-145691896D01*
X211186281Y-145918616D01*
X209534908Y-145918616D01*
X209537849Y-145708029D01*
X209493808Y-145485605D01*
X209407403Y-145275971D01*
X209281926Y-145087112D01*
X209122155Y-144926222D01*
X208934177Y-144799430D01*
X208725152Y-144711563D01*
X208503041Y-144665970D01*
X208276304Y-144664387D01*
X208053577Y-144706875D01*
X207843345Y-144791814D01*
X207653615Y-144915970D01*
X207491614Y-145074613D01*
X207363512Y-145261701D01*
X207274189Y-145470108D01*
X207227046Y-145691896D01*
X207223881Y-145918616D01*
X205585208Y-145918616D01*
X205588149Y-145708029D01*
X205544108Y-145485605D01*
X205457703Y-145275971D01*
X205332226Y-145087112D01*
X205172455Y-144926222D01*
X204984477Y-144799430D01*
X204775452Y-144711563D01*
X204553341Y-144665970D01*
X204326604Y-144664387D01*
X204103877Y-144706875D01*
X203893645Y-144791814D01*
X203703915Y-144915970D01*
X203541914Y-145074613D01*
X203413812Y-145261701D01*
X203324489Y-145470108D01*
X203277346Y-145691896D01*
X203274181Y-145918616D01*
X201609931Y-145918616D01*
X201613049Y-145695329D01*
X201569008Y-145472905D01*
X201482603Y-145263271D01*
X201357126Y-145074412D01*
X201197355Y-144913522D01*
X201009377Y-144786730D01*
X200800352Y-144698863D01*
X200578241Y-144653270D01*
X200351504Y-144651687D01*
X200128777Y-144694175D01*
X199918545Y-144779114D01*
X199728815Y-144903270D01*
X199566814Y-145061913D01*
X199438712Y-145249001D01*
X199349389Y-145457408D01*
X199302246Y-145679196D01*
X199299081Y-145905916D01*
X197660408Y-145905916D01*
X197663349Y-145695329D01*
X197619308Y-145472905D01*
X197532903Y-145263271D01*
X197407426Y-145074412D01*
X197247655Y-144913522D01*
X197059677Y-144786730D01*
X196850652Y-144698863D01*
X196628541Y-144653270D01*
X196401804Y-144651687D01*
X196179077Y-144694175D01*
X195968845Y-144779114D01*
X195779115Y-144903270D01*
X195617114Y-145061913D01*
X195489012Y-145249001D01*
X195399689Y-145457408D01*
X195352546Y-145679196D01*
X195349381Y-145905916D01*
X193710886Y-145905916D01*
X193713649Y-145708029D01*
X193669608Y-145485605D01*
X193583203Y-145275971D01*
X193457726Y-145087112D01*
X193297955Y-144926222D01*
X193109977Y-144799430D01*
X192900952Y-144711563D01*
X192678841Y-144665970D01*
X192452104Y-144664387D01*
X192229377Y-144706875D01*
X192019145Y-144791814D01*
X191829415Y-144915970D01*
X191667414Y-145074613D01*
X191539312Y-145261701D01*
X191449989Y-145470108D01*
X191402846Y-145691896D01*
X191399681Y-145918616D01*
X187096100Y-145918616D01*
X187096100Y-141821856D01*
X195260396Y-141821856D01*
X195303576Y-142057122D01*
X195391630Y-142279520D01*
X195521204Y-142480580D01*
X195687363Y-142652643D01*
X195883778Y-142789155D01*
X196102968Y-142884917D01*
X196336584Y-142936281D01*
X196575727Y-142941290D01*
X196755328Y-142909622D01*
X197349999Y-143504293D01*
X197321136Y-143640083D01*
X197317796Y-143879256D01*
X197360976Y-144114522D01*
X197449030Y-144336920D01*
X197578604Y-144537980D01*
X197744763Y-144710043D01*
X197941178Y-144846555D01*
X198160368Y-144942317D01*
X198393984Y-144993681D01*
X198633127Y-144998690D01*
X198868689Y-144957154D01*
X199091696Y-144870655D01*
X199293656Y-144742488D01*
X199466875Y-144577534D01*
X199604755Y-144382076D01*
X199702044Y-144163560D01*
X199755038Y-143930309D01*
X199758853Y-143657102D01*
X199712393Y-143422462D01*
X199621242Y-143201315D01*
X199488874Y-143002084D01*
X199320328Y-142832357D01*
X199122026Y-142698601D01*
X198901520Y-142605909D01*
X198667210Y-142557812D01*
X198428021Y-142556142D01*
X198266120Y-142587026D01*
X197670676Y-141991582D01*
X197697638Y-141872909D01*
X197701453Y-141599702D01*
X197654993Y-141365062D01*
X197563842Y-141143915D01*
X197431474Y-140944684D01*
X197262928Y-140774957D01*
X197064626Y-140641201D01*
X196844120Y-140548509D01*
X196609810Y-140500412D01*
X196370621Y-140498742D01*
X196135662Y-140543563D01*
X195913883Y-140633167D01*
X195713733Y-140764142D01*
X195542834Y-140931498D01*
X195407697Y-141128862D01*
X195313468Y-141348715D01*
X195263736Y-141582683D01*
X195260396Y-141821856D01*
X187096100Y-141821856D01*
X187096100Y-135496300D01*
X188884386Y-135496300D01*
X188884386Y-137020300D01*
X188890198Y-137093187D01*
X188928482Y-137216811D01*
X188999692Y-137324875D01*
X189098188Y-137408822D01*
X189216171Y-137462006D01*
X189344300Y-137480214D01*
X190868300Y-137480214D01*
X190941187Y-137474402D01*
X191064811Y-137436118D01*
X191172875Y-137364908D01*
X191256822Y-137266412D01*
X191310006Y-137148429D01*
X191328214Y-137020300D01*
X191328214Y-135496300D01*
X191322402Y-135423413D01*
X191284118Y-135299789D01*
X191212908Y-135191725D01*
X191114412Y-135107778D01*
X190996429Y-135054594D01*
X190868300Y-135036386D01*
X189344300Y-135036386D01*
X189271413Y-135042198D01*
X189147789Y-135080482D01*
X189039725Y-135151692D01*
X188955778Y-135250188D01*
X188902594Y-135368171D01*
X188884386Y-135496300D01*
X187096100Y-135496300D01*
X187096100Y-133820856D01*
X191424996Y-133820856D01*
X191468176Y-134056122D01*
X191556230Y-134278520D01*
X191685804Y-134479580D01*
X191851963Y-134651643D01*
X192048378Y-134788155D01*
X192267568Y-134883917D01*
X192501184Y-134935281D01*
X192740327Y-134940290D01*
X192975889Y-134898754D01*
X193198896Y-134812255D01*
X193400856Y-134684088D01*
X193574075Y-134519134D01*
X193711955Y-134323676D01*
X193809244Y-134105160D01*
X193862238Y-133871909D01*
X193866053Y-133598702D01*
X193819593Y-133364062D01*
X193728442Y-133142915D01*
X193596074Y-132943684D01*
X193427528Y-132773957D01*
X193229226Y-132640201D01*
X193008720Y-132547509D01*
X192774410Y-132499412D01*
X192535221Y-132497742D01*
X192300262Y-132542563D01*
X192078483Y-132632167D01*
X191878333Y-132763142D01*
X191707434Y-132930498D01*
X191572297Y-133127862D01*
X191478068Y-133347715D01*
X191428336Y-133581683D01*
X191424996Y-133820856D01*
X187096100Y-133820856D01*
X187096100Y-131686300D01*
X197406086Y-131686300D01*
X197406086Y-133210300D01*
X197411898Y-133283187D01*
X197421500Y-133314193D01*
X197421500Y-134797750D01*
X197410036Y-134851683D01*
X197406696Y-135090856D01*
X197421500Y-135171516D01*
X197421500Y-136182100D01*
X197422369Y-136186716D01*
X197425097Y-136190955D01*
X197429259Y-136193799D01*
X197434200Y-136194800D01*
X198435214Y-136194800D01*
X198482884Y-136205281D01*
X198722027Y-136210290D01*
X198809875Y-136194800D01*
X199821800Y-136194800D01*
X199826416Y-136193931D01*
X199830655Y-136191203D01*
X199833499Y-136187041D01*
X199834500Y-136182100D01*
X199834500Y-135183450D01*
X199843938Y-135141909D01*
X199847753Y-134868702D01*
X199834500Y-134801770D01*
X199834500Y-133318768D01*
X199849914Y-133210300D01*
X199849914Y-131686300D01*
X199844102Y-131613413D01*
X199834500Y-131582407D01*
X199834500Y-131254500D01*
X199833631Y-131249884D01*
X199830903Y-131245645D01*
X199826741Y-131242801D01*
X199821800Y-131241800D01*
X199498468Y-131241800D01*
X199390000Y-131226386D01*
X197866000Y-131226386D01*
X197793113Y-131232198D01*
X197762107Y-131241800D01*
X197434200Y-131241800D01*
X197429584Y-131242669D01*
X197425345Y-131245397D01*
X197422501Y-131249559D01*
X197421500Y-131254500D01*
X197421500Y-131577832D01*
X197406086Y-131686300D01*
X187096100Y-131686300D01*
X187096100Y-129599116D01*
X202943981Y-129599116D01*
X202984912Y-129822134D01*
X203068381Y-130032954D01*
X203191210Y-130223546D01*
X203348718Y-130386651D01*
X203534908Y-130516056D01*
X203742686Y-130606832D01*
X203964139Y-130655521D01*
X204190832Y-130660270D01*
X204414129Y-130620896D01*
X204625527Y-130538901D01*
X204816972Y-130417406D01*
X204981172Y-130261040D01*
X205111874Y-130075759D01*
X205204098Y-129868619D01*
X205254333Y-129647511D01*
X205255186Y-129586416D01*
X207655681Y-129586416D01*
X207696612Y-129809434D01*
X207780081Y-130020254D01*
X207902910Y-130210846D01*
X208060418Y-130373951D01*
X208246608Y-130503356D01*
X208454386Y-130594132D01*
X208675839Y-130642821D01*
X208902532Y-130647570D01*
X209125829Y-130608196D01*
X209337227Y-130526201D01*
X209528672Y-130404706D01*
X209692872Y-130248340D01*
X209823574Y-130063059D01*
X209915798Y-129855919D01*
X209966033Y-129634811D01*
X209966531Y-129599116D01*
X210678281Y-129599116D01*
X210719212Y-129822134D01*
X210802681Y-130032954D01*
X210925510Y-130223546D01*
X211083018Y-130386651D01*
X211269208Y-130516056D01*
X211476986Y-130606832D01*
X211698439Y-130655521D01*
X211925132Y-130660270D01*
X212148429Y-130620896D01*
X212359827Y-130538901D01*
X212551272Y-130417406D01*
X212715472Y-130261040D01*
X212846174Y-130075759D01*
X212938398Y-129868619D01*
X212988633Y-129647511D01*
X212992249Y-129388529D01*
X212948208Y-129166105D01*
X212861803Y-128956471D01*
X212736326Y-128767612D01*
X212576555Y-128606722D01*
X212388577Y-128479930D01*
X212179552Y-128392063D01*
X211957441Y-128346470D01*
X211730704Y-128344887D01*
X211507977Y-128387375D01*
X211297745Y-128472314D01*
X211108015Y-128596470D01*
X210946014Y-128755113D01*
X210817912Y-128942201D01*
X210728589Y-129150608D01*
X210681446Y-129372396D01*
X210678281Y-129599116D01*
X209966531Y-129599116D01*
X209969649Y-129375829D01*
X209925608Y-129153405D01*
X209839203Y-128943771D01*
X209713726Y-128754912D01*
X209553955Y-128594022D01*
X209365977Y-128467230D01*
X209156952Y-128379363D01*
X208934841Y-128333770D01*
X208708104Y-128332187D01*
X208485377Y-128374675D01*
X208275145Y-128459614D01*
X208085415Y-128583770D01*
X207923414Y-128742413D01*
X207795312Y-128929501D01*
X207705989Y-129137908D01*
X207658846Y-129359696D01*
X207655681Y-129586416D01*
X205255186Y-129586416D01*
X205257949Y-129388529D01*
X205213908Y-129166105D01*
X205127503Y-128956471D01*
X205002026Y-128767612D01*
X204842255Y-128606722D01*
X204654277Y-128479930D01*
X204445252Y-128392063D01*
X204223141Y-128346470D01*
X203996404Y-128344887D01*
X203773677Y-128387375D01*
X203563445Y-128472314D01*
X203373715Y-128596470D01*
X203211714Y-128755113D01*
X203083612Y-128942201D01*
X202994289Y-129150608D01*
X202947146Y-129372396D01*
X202943981Y-129599116D01*
X187096100Y-129599116D01*
X187096100Y-127046416D01*
X207655681Y-127046416D01*
X207696612Y-127269434D01*
X207780081Y-127480254D01*
X207902910Y-127670846D01*
X208060418Y-127833951D01*
X208246608Y-127963356D01*
X208454386Y-128054132D01*
X208675839Y-128102821D01*
X208902532Y-128107570D01*
X209125829Y-128068196D01*
X209337227Y-127986201D01*
X209528672Y-127864706D01*
X209692872Y-127708340D01*
X209823574Y-127523059D01*
X209915798Y-127315919D01*
X209966033Y-127094811D01*
X209966531Y-127059116D01*
X210678281Y-127059116D01*
X210719212Y-127282134D01*
X210802681Y-127492954D01*
X210925510Y-127683546D01*
X211083018Y-127846651D01*
X211269208Y-127976056D01*
X211476986Y-128066832D01*
X211698439Y-128115521D01*
X211925132Y-128120270D01*
X212148429Y-128080896D01*
X212359827Y-127998901D01*
X212551272Y-127877406D01*
X212715472Y-127721040D01*
X212846174Y-127535759D01*
X212938398Y-127328619D01*
X212988633Y-127107511D01*
X212989308Y-127059116D01*
X214183481Y-127059116D01*
X214224412Y-127282134D01*
X214307881Y-127492954D01*
X214430710Y-127683546D01*
X214588218Y-127846651D01*
X214774408Y-127976056D01*
X214982186Y-128066832D01*
X215203639Y-128115521D01*
X215430332Y-128120270D01*
X215653629Y-128080896D01*
X215865027Y-127998901D01*
X216056472Y-127877406D01*
X216220672Y-127721040D01*
X216351374Y-127535759D01*
X216443598Y-127328619D01*
X216493833Y-127107511D01*
X216494508Y-127059116D01*
X217434681Y-127059116D01*
X217475612Y-127282134D01*
X217559081Y-127492954D01*
X217681910Y-127683546D01*
X217839418Y-127846651D01*
X218025608Y-127976056D01*
X218233386Y-128066832D01*
X218454839Y-128115521D01*
X218681532Y-128120270D01*
X218904829Y-128080896D01*
X219116227Y-127998901D01*
X219307672Y-127877406D01*
X219471872Y-127721040D01*
X219602574Y-127535759D01*
X219694798Y-127328619D01*
X219745033Y-127107511D01*
X219748649Y-126848529D01*
X219704608Y-126626105D01*
X219618203Y-126416471D01*
X219492726Y-126227612D01*
X219332955Y-126066722D01*
X219144977Y-125939930D01*
X218935952Y-125852063D01*
X218713841Y-125806470D01*
X218487104Y-125804887D01*
X218264377Y-125847375D01*
X218054145Y-125932314D01*
X217864415Y-126056470D01*
X217702414Y-126215113D01*
X217574312Y-126402201D01*
X217484989Y-126610608D01*
X217437846Y-126832396D01*
X217434681Y-127059116D01*
X216494508Y-127059116D01*
X216497449Y-126848529D01*
X216453408Y-126626105D01*
X216367003Y-126416471D01*
X216241526Y-126227612D01*
X216081755Y-126066722D01*
X215893777Y-125939930D01*
X215684752Y-125852063D01*
X215462641Y-125806470D01*
X215235904Y-125804887D01*
X215013177Y-125847375D01*
X214802945Y-125932314D01*
X214613215Y-126056470D01*
X214451214Y-126215113D01*
X214323112Y-126402201D01*
X214233789Y-126610608D01*
X214186646Y-126832396D01*
X214183481Y-127059116D01*
X212989308Y-127059116D01*
X212992249Y-126848529D01*
X212948208Y-126626105D01*
X212861803Y-126416471D01*
X212736326Y-126227612D01*
X212576555Y-126066722D01*
X212388577Y-125939930D01*
X212179552Y-125852063D01*
X211957441Y-125806470D01*
X211730704Y-125804887D01*
X211507977Y-125847375D01*
X211297745Y-125932314D01*
X211108015Y-126056470D01*
X210946014Y-126215113D01*
X210817912Y-126402201D01*
X210728589Y-126610608D01*
X210681446Y-126832396D01*
X210678281Y-127059116D01*
X209966531Y-127059116D01*
X209969649Y-126835829D01*
X209925608Y-126613405D01*
X209839203Y-126403771D01*
X209713726Y-126214912D01*
X209553955Y-126054022D01*
X209365977Y-125927230D01*
X209156952Y-125839363D01*
X208934841Y-125793770D01*
X208708104Y-125792187D01*
X208485377Y-125834675D01*
X208275145Y-125919614D01*
X208085415Y-126043770D01*
X207923414Y-126202413D01*
X207795312Y-126389501D01*
X207705989Y-126597908D01*
X207658846Y-126819696D01*
X207655681Y-127046416D01*
X187096100Y-127046416D01*
X187096100Y-112128000D01*
X201155300Y-112128000D01*
X201155300Y-125247400D01*
M02*
