G04 #@! TF.FileFunction,Copper,L2,Bot,Signal*
%FSLAX46Y46*%
G04 Gerber Fmt 4.6, Leading zero omitted, Abs format (unit mm)*
G04 Created by KiCad (PCBNEW 4.0.7) date 08/25/20 08:50:58*
%MOMM*%
%LPD*%
G01*
G04 APERTURE LIST*
%ADD10C,0.150000*%
%ADD11R,2.000000X5.000000*%
%ADD12C,1.501140*%
%ADD13C,2.999740*%
%ADD14R,1.998980X0.449580*%
%ADD15R,0.449580X1.998980*%
%ADD16C,1.422400*%
%ADD17C,1.397000*%
%ADD18R,1.524000X1.524000*%
%ADD19C,1.524000*%
%ADD20C,0.381000*%
%ADD21C,0.508000*%
%ADD22C,0.025400*%
G04 APERTURE END LIST*
D10*
D11*
X232141600Y-152161100D03*
X228181600Y-152161100D03*
X224221600Y-152161100D03*
X220261600Y-152161100D03*
X216301600Y-152161100D03*
X212341600Y-152161100D03*
X208381600Y-152161100D03*
X204421600Y-152161100D03*
X200461600Y-152161100D03*
X196501600Y-152161100D03*
X192541600Y-152161100D03*
X188581600Y-152161100D03*
D12*
X206768700Y-123063000D03*
X209308700Y-123063000D03*
X211340700Y-123063000D03*
X213880700Y-123063000D03*
D13*
X203720700Y-120396000D03*
X217436700Y-120396000D03*
D14*
X214315040Y-139313920D03*
X214315040Y-138513820D03*
X214315040Y-137713720D03*
X214315040Y-136913620D03*
X214315040Y-136113520D03*
X214315040Y-135313420D03*
X214315040Y-134513320D03*
X214315040Y-133713220D03*
X204749400Y-133718300D03*
X204749400Y-139331700D03*
X204749400Y-138518900D03*
X204749400Y-137706100D03*
X204749400Y-136918700D03*
X204749400Y-136105900D03*
X204749400Y-135318500D03*
X204749400Y-134505700D03*
D15*
X212323680Y-131711700D03*
X211526120Y-131711700D03*
X210723480Y-131711700D03*
X209925920Y-131711700D03*
X209123280Y-131711700D03*
X208325720Y-131711700D03*
X207523080Y-131711700D03*
X206725520Y-131711700D03*
X212318600Y-141312900D03*
X211531200Y-141312900D03*
X210718400Y-141312900D03*
X209931000Y-141312900D03*
X209143600Y-141312900D03*
X208330800Y-141312900D03*
X207518000Y-141312900D03*
X206705200Y-141312900D03*
D16*
X225958400Y-136652000D03*
X225958400Y-131572000D03*
D17*
X204101700Y-129501900D03*
X204101700Y-126961900D03*
X230339900Y-129044700D03*
X230339900Y-131584700D03*
X230352600Y-139192000D03*
X230352600Y-136652000D03*
X219837000Y-136118600D03*
X219837000Y-138658600D03*
X215341200Y-126961900D03*
X215341200Y-129501900D03*
X208813400Y-126949200D03*
X208813400Y-129489200D03*
X211836000Y-126961900D03*
X211836000Y-129501900D03*
X218592400Y-126961900D03*
X218592400Y-129501900D03*
D18*
X190106300Y-136258300D03*
D19*
X190106300Y-133718300D03*
X192646300Y-136258300D03*
X192646300Y-133718300D03*
D17*
X224218500Y-145821400D03*
X224218500Y-148361400D03*
X220256100Y-145821400D03*
X220256100Y-148361400D03*
X216306400Y-145808700D03*
X216306400Y-148348700D03*
X212344000Y-145821400D03*
X212344000Y-148361400D03*
X208381600Y-145821400D03*
X208381600Y-148361400D03*
X204431900Y-145821400D03*
X204431900Y-148361400D03*
X200456800Y-145808700D03*
X200456800Y-148348700D03*
X196507100Y-145808700D03*
X196507100Y-148348700D03*
X228180900Y-145808700D03*
X228180900Y-148348700D03*
X192557400Y-145821400D03*
X192557400Y-148361400D03*
D18*
X198628000Y-132448300D03*
D19*
X198628000Y-134988300D03*
X198539100Y-143776700D03*
X196481700Y-141719300D03*
X201841100Y-134975600D03*
X215455500Y-131737100D03*
D20*
X203746100Y-142240000D02*
X198107300Y-142240000D01*
X196557900Y-143789400D02*
X194589400Y-143789400D01*
X198107300Y-142240000D02*
X196557900Y-143789400D01*
X206705200Y-141312900D02*
X206628996Y-141312900D01*
X205701896Y-142240000D02*
X203746100Y-142240000D01*
X206628996Y-141312900D02*
X205701896Y-142240000D01*
X192557400Y-145821400D02*
X194589400Y-143789400D01*
X192573774Y-145805026D02*
X192557400Y-145821400D01*
X204749400Y-133718300D02*
X192646300Y-133718300D01*
X204749400Y-133718300D02*
X199021700Y-133718300D01*
X209308700Y-123063000D02*
X209308700Y-126453900D01*
X209308700Y-126453900D02*
X208813400Y-126949200D01*
X209321400Y-123075700D02*
X209308700Y-123063000D01*
X211340700Y-123063000D02*
X211340700Y-126466600D01*
X211340700Y-126466600D02*
X211836000Y-126961900D01*
X217639900Y-140563600D02*
X217639900Y-141719300D01*
X221970600Y-143573500D02*
X224218500Y-145821400D01*
X219494100Y-143573500D02*
X221970600Y-143573500D01*
X217639900Y-141719300D02*
X219494100Y-143573500D01*
X214315040Y-137713720D02*
X215958420Y-137713720D01*
X217639900Y-139395200D02*
X217639900Y-140563600D01*
X215958420Y-137713720D02*
X217639900Y-139395200D01*
X214315040Y-138513820D02*
X215806020Y-138513820D01*
X216954100Y-142519400D02*
X220256100Y-145821400D01*
X216954100Y-139661900D02*
X216954100Y-142519400D01*
X215806020Y-138513820D02*
X216954100Y-139661900D01*
X220256100Y-145821400D02*
X220256100Y-145770600D01*
X214315040Y-139313920D02*
X215691720Y-139313920D01*
X216306400Y-139928600D02*
X216306400Y-145808700D01*
X215691720Y-139313920D02*
X216306400Y-139928600D01*
X212344000Y-145821400D02*
X212344000Y-141338300D01*
X212344000Y-141338300D02*
X212318600Y-141312900D01*
X212316200Y-141315300D02*
X212318600Y-141312900D01*
X212328900Y-141323200D02*
X212318600Y-141312900D01*
X211531200Y-141312900D02*
X211531200Y-142671800D01*
X211531200Y-142671800D02*
X208381600Y-145821400D01*
X210358286Y-142946686D02*
X209062886Y-144242086D01*
X206011214Y-144242086D02*
X204431900Y-145821400D01*
X209062886Y-144242086D02*
X206011214Y-144242086D01*
X210718400Y-141312900D02*
X210718400Y-142586572D01*
X210718400Y-142586572D02*
X210358286Y-142946686D01*
X209931000Y-141312900D02*
X209931000Y-142475944D01*
X202666600Y-143598900D02*
X200456800Y-145808700D01*
X208808044Y-143598900D02*
X202666600Y-143598900D01*
X209931000Y-142475944D02*
X208808044Y-143598900D01*
X190106300Y-136258300D02*
X190106300Y-138214100D01*
X198539100Y-143776700D02*
X196507100Y-145808700D01*
X193611500Y-141719300D02*
X196481700Y-141719300D01*
X190106300Y-138214100D02*
X193611500Y-141719300D01*
X200901300Y-142963898D02*
X199351902Y-142963898D01*
X203123800Y-142963898D02*
X200901300Y-142963898D01*
X199351902Y-142963898D02*
X196507100Y-145808700D01*
X209143600Y-142365316D02*
X209143600Y-141312900D01*
X208545018Y-142963898D02*
X209143600Y-142365316D01*
X203123800Y-142963898D02*
X208545018Y-142963898D01*
X201828400Y-134988300D02*
X198628000Y-134988300D01*
X201841100Y-134975600D02*
X201828400Y-134988300D01*
X224221600Y-152161100D02*
X224221600Y-148364500D01*
X224221600Y-148364500D02*
X224218500Y-148361400D01*
X220261600Y-152161100D02*
X220261600Y-148366900D01*
X220261600Y-148366900D02*
X220256100Y-148361400D01*
X216301600Y-152161100D02*
X216301600Y-148353500D01*
X216301600Y-148353500D02*
X216306400Y-148348700D01*
X212341600Y-152161100D02*
X212341600Y-148363800D01*
X212341600Y-148363800D02*
X212344000Y-148361400D01*
X208381600Y-152161100D02*
X208381600Y-148361400D01*
X204421600Y-152161100D02*
X204421600Y-148371700D01*
X204421600Y-148371700D02*
X204431900Y-148361400D01*
X200461600Y-152161100D02*
X200461600Y-148353500D01*
X200461600Y-148353500D02*
X200456800Y-148348700D01*
X196501600Y-152161100D02*
X196501600Y-148354200D01*
X196501600Y-148354200D02*
X196507100Y-148348700D01*
X192541600Y-152161100D02*
X192541600Y-148377200D01*
X192541600Y-148377200D02*
X192557400Y-148361400D01*
X228181600Y-152161100D02*
X228181600Y-148349400D01*
X228181600Y-148349400D02*
X228180900Y-148348700D01*
X204558900Y-131711700D02*
X199364600Y-131711700D01*
X206725520Y-131711700D02*
X204558900Y-131711700D01*
X199364600Y-131711700D02*
X198628000Y-132448300D01*
D21*
X218592400Y-126961900D02*
X215341200Y-126961900D01*
X218592400Y-126961900D02*
X218592400Y-121551700D01*
X218592400Y-121551700D02*
X217436700Y-120396000D01*
X203720700Y-120396000D02*
X217436700Y-120396000D01*
D20*
X228180900Y-145808700D02*
X228180900Y-144945100D01*
X220116400Y-142938498D02*
X219281876Y-142103974D01*
X226174298Y-142938498D02*
X220116400Y-142938498D01*
X228180900Y-144945100D02*
X226174298Y-142938498D01*
X219281876Y-142103974D02*
X218300300Y-141122398D01*
X214315040Y-136913620D02*
X216085420Y-136913620D01*
X218300300Y-139128500D02*
X216085420Y-136913620D01*
X218300300Y-141122398D02*
X218300300Y-139128500D01*
D21*
X206768700Y-123063000D02*
X206768700Y-124294900D01*
X206768700Y-124294900D02*
X204101700Y-126961900D01*
X206768700Y-123063000D02*
X206654400Y-123063000D01*
X210748880Y-135313420D02*
X205714600Y-140347700D01*
X214315040Y-135313420D02*
X210748880Y-135313420D01*
X209123280Y-131711700D02*
X209123280Y-135313420D01*
X209123280Y-135313420D02*
X209118200Y-135313420D01*
X208325720Y-135313420D02*
X209118200Y-135313420D01*
X209118200Y-135313420D02*
X214315040Y-135313420D01*
D20*
X225958400Y-131572000D02*
X230327200Y-131572000D01*
X230327200Y-131572000D02*
X230339900Y-131584700D01*
X220395800Y-133713220D02*
X223817180Y-133713220D01*
X223817180Y-133713220D02*
X225958400Y-131572000D01*
X220827600Y-133713220D02*
X223563180Y-133713220D01*
X214315040Y-133713220D02*
X220395800Y-133713220D01*
X220395800Y-133713220D02*
X220827600Y-133713220D01*
X220827600Y-133713220D02*
X221937580Y-133713220D01*
X210723480Y-131711700D02*
X210723480Y-130614420D01*
X210723480Y-130614420D02*
X211836000Y-129501900D01*
X209925920Y-131711700D02*
X209925920Y-130601720D01*
X209925920Y-130601720D02*
X208813400Y-129489200D01*
X204101700Y-129501900D02*
X207175100Y-129501900D01*
X208325720Y-130652520D02*
X208325720Y-131711700D01*
X207175100Y-129501900D02*
X208325720Y-130652520D01*
X225958400Y-136652000D02*
X230352600Y-136652000D01*
X221640400Y-134513320D02*
X223819720Y-134513320D01*
X223819720Y-134513320D02*
X225958400Y-136652000D01*
X220903800Y-134513320D02*
X221640400Y-134513320D01*
X221640400Y-134513320D02*
X223565720Y-134513320D01*
X214315040Y-134513320D02*
X220903800Y-134513320D01*
X220903800Y-134513320D02*
X221940120Y-134513320D01*
D21*
X212349080Y-131737100D02*
X212323680Y-131711700D01*
X215455500Y-131737100D02*
X212349080Y-131737100D01*
X212323680Y-131711700D02*
X211526120Y-131711700D01*
X219837000Y-136118600D02*
X214320120Y-136118600D01*
X214320120Y-136118600D02*
X214315040Y-136113520D01*
D22*
G36*
X233591400Y-155994400D02*
X230898700Y-155994400D01*
X230898700Y-148069300D01*
X230898197Y-148065762D01*
X230896729Y-148062504D01*
X230894410Y-148059784D01*
X230891426Y-148057818D01*
X230888013Y-148056760D01*
X230886000Y-148056600D01*
X229301760Y-148056600D01*
X229293108Y-148012905D01*
X229206703Y-147803271D01*
X229081226Y-147614412D01*
X228921455Y-147453522D01*
X228733477Y-147326730D01*
X228524452Y-147238863D01*
X228302341Y-147193270D01*
X228075604Y-147191687D01*
X227852877Y-147234175D01*
X227642645Y-147319114D01*
X227452915Y-147443270D01*
X227290914Y-147601913D01*
X227162812Y-147789001D01*
X227073489Y-147997408D01*
X227060907Y-148056600D01*
X225336845Y-148056600D01*
X225330708Y-148025605D01*
X225244303Y-147815971D01*
X225118826Y-147627112D01*
X224959055Y-147466222D01*
X224771077Y-147339430D01*
X224562052Y-147251563D01*
X224339941Y-147205970D01*
X224113204Y-147204387D01*
X223890477Y-147246875D01*
X223680245Y-147331814D01*
X223490515Y-147455970D01*
X223328514Y-147614613D01*
X223200412Y-147801701D01*
X223111089Y-148010108D01*
X223101207Y-148056600D01*
X221374445Y-148056600D01*
X221368308Y-148025605D01*
X221281903Y-147815971D01*
X221156426Y-147627112D01*
X220996655Y-147466222D01*
X220808677Y-147339430D01*
X220599652Y-147251563D01*
X220377541Y-147205970D01*
X220150804Y-147204387D01*
X219928077Y-147246875D01*
X219717845Y-147331814D01*
X219528115Y-147455970D01*
X219366114Y-147614613D01*
X219238012Y-147801701D01*
X219148689Y-148010108D01*
X219138807Y-148056600D01*
X217427260Y-148056600D01*
X217418608Y-148012905D01*
X217332203Y-147803271D01*
X217206726Y-147614412D01*
X217046955Y-147453522D01*
X216858977Y-147326730D01*
X216649952Y-147238863D01*
X216427841Y-147193270D01*
X216201104Y-147191687D01*
X215978377Y-147234175D01*
X215768145Y-147319114D01*
X215578415Y-147443270D01*
X215416414Y-147601913D01*
X215288312Y-147789001D01*
X215198989Y-147997408D01*
X215186407Y-148056600D01*
X213462345Y-148056600D01*
X213456208Y-148025605D01*
X213369803Y-147815971D01*
X213244326Y-147627112D01*
X213084555Y-147466222D01*
X212896577Y-147339430D01*
X212687552Y-147251563D01*
X212465441Y-147205970D01*
X212238704Y-147204387D01*
X212015977Y-147246875D01*
X211805745Y-147331814D01*
X211616015Y-147455970D01*
X211454014Y-147614613D01*
X211325912Y-147801701D01*
X211236589Y-148010108D01*
X211226707Y-148056600D01*
X209499945Y-148056600D01*
X209493808Y-148025605D01*
X209407403Y-147815971D01*
X209281926Y-147627112D01*
X209122155Y-147466222D01*
X208934177Y-147339430D01*
X208725152Y-147251563D01*
X208503041Y-147205970D01*
X208276304Y-147204387D01*
X208053577Y-147246875D01*
X207843345Y-147331814D01*
X207653615Y-147455970D01*
X207491614Y-147614613D01*
X207363512Y-147801701D01*
X207274189Y-148010108D01*
X207264307Y-148056600D01*
X205550245Y-148056600D01*
X205544108Y-148025605D01*
X205457703Y-147815971D01*
X205332226Y-147627112D01*
X205172455Y-147466222D01*
X204984477Y-147339430D01*
X204775452Y-147251563D01*
X204553341Y-147205970D01*
X204326604Y-147204387D01*
X204103877Y-147246875D01*
X203893645Y-147331814D01*
X203703915Y-147455970D01*
X203541914Y-147614613D01*
X203413812Y-147801701D01*
X203324489Y-148010108D01*
X203314607Y-148056600D01*
X201577660Y-148056600D01*
X201569008Y-148012905D01*
X201482603Y-147803271D01*
X201357126Y-147614412D01*
X201197355Y-147453522D01*
X201009377Y-147326730D01*
X200800352Y-147238863D01*
X200578241Y-147193270D01*
X200351504Y-147191687D01*
X200128777Y-147234175D01*
X199918545Y-147319114D01*
X199728815Y-147443270D01*
X199566814Y-147601913D01*
X199438712Y-147789001D01*
X199349389Y-147997408D01*
X199336807Y-148056600D01*
X197627960Y-148056600D01*
X197619308Y-148012905D01*
X197532903Y-147803271D01*
X197407426Y-147614412D01*
X197247655Y-147453522D01*
X197059677Y-147326730D01*
X196850652Y-147238863D01*
X196628541Y-147193270D01*
X196401804Y-147191687D01*
X196179077Y-147234175D01*
X195968845Y-147319114D01*
X195779115Y-147443270D01*
X195617114Y-147601913D01*
X195489012Y-147789001D01*
X195399689Y-147997408D01*
X195387107Y-148056600D01*
X193675745Y-148056600D01*
X193669608Y-148025605D01*
X193583203Y-147815971D01*
X193457726Y-147627112D01*
X193297955Y-147466222D01*
X193109977Y-147339430D01*
X192900952Y-147251563D01*
X192678841Y-147205970D01*
X192452104Y-147204387D01*
X192229377Y-147246875D01*
X192019145Y-147331814D01*
X191829415Y-147455970D01*
X191667414Y-147614613D01*
X191539312Y-147801701D01*
X191449989Y-148010108D01*
X191440107Y-148056600D01*
X189839600Y-148056600D01*
X189836062Y-148057103D01*
X189832804Y-148058571D01*
X189830084Y-148060890D01*
X189828118Y-148063874D01*
X189827060Y-148067287D01*
X189826900Y-148069300D01*
X189826900Y-155994400D01*
X187096100Y-155994400D01*
X187096100Y-135496300D01*
X188884386Y-135496300D01*
X188884386Y-137020300D01*
X188890198Y-137093187D01*
X188928482Y-137216811D01*
X188999692Y-137324875D01*
X189098188Y-137408822D01*
X189216171Y-137462006D01*
X189344300Y-137480214D01*
X189458100Y-137480214D01*
X189458100Y-138214100D01*
X189463943Y-138273692D01*
X189469161Y-138333337D01*
X189470113Y-138336612D01*
X189470445Y-138340003D01*
X189487743Y-138397297D01*
X189504455Y-138454821D01*
X189506024Y-138457848D01*
X189507009Y-138461110D01*
X189535124Y-138513986D01*
X189562674Y-138567135D01*
X189564799Y-138569797D01*
X189566400Y-138572808D01*
X189604260Y-138619229D01*
X189641599Y-138666003D01*
X189646278Y-138670748D01*
X189646356Y-138670844D01*
X189646445Y-138670918D01*
X189647953Y-138672447D01*
X193153153Y-142177646D01*
X193199388Y-142215624D01*
X193245288Y-142254139D01*
X193248278Y-142255783D01*
X193250909Y-142257944D01*
X193303658Y-142286228D01*
X193356147Y-142315084D01*
X193359395Y-142316114D01*
X193362399Y-142317725D01*
X193419692Y-142335241D01*
X193476732Y-142353335D01*
X193480115Y-142353715D01*
X193483378Y-142354712D01*
X193542967Y-142360765D01*
X193602450Y-142367437D01*
X193609113Y-142367483D01*
X193609237Y-142367496D01*
X193609353Y-142367485D01*
X193611500Y-142367500D01*
X195448329Y-142367500D01*
X195521204Y-142480580D01*
X195687363Y-142652643D01*
X195883778Y-142789155D01*
X196102968Y-142884917D01*
X196336584Y-142936281D01*
X196491089Y-142939517D01*
X196289406Y-143141200D01*
X194589400Y-143141200D01*
X194529853Y-143147039D01*
X194470163Y-143152261D01*
X194466888Y-143153213D01*
X194463497Y-143153545D01*
X194406203Y-143170843D01*
X194348679Y-143187555D01*
X194345652Y-143189124D01*
X194342390Y-143190109D01*
X194289514Y-143218224D01*
X194236365Y-143245774D01*
X194233703Y-143247899D01*
X194230692Y-143249500D01*
X194184271Y-143287360D01*
X194137497Y-143324699D01*
X194132752Y-143329378D01*
X194132656Y-143329456D01*
X194132582Y-143329545D01*
X194131053Y-143331053D01*
X192776159Y-144685947D01*
X192678841Y-144665970D01*
X192452104Y-144664387D01*
X192229377Y-144706875D01*
X192019145Y-144791814D01*
X191829415Y-144915970D01*
X191667414Y-145074613D01*
X191539312Y-145261701D01*
X191449989Y-145470108D01*
X191402846Y-145691896D01*
X191399681Y-145918616D01*
X191440612Y-146141634D01*
X191524081Y-146352454D01*
X191646910Y-146543046D01*
X191804418Y-146706151D01*
X191990608Y-146835556D01*
X192198386Y-146926332D01*
X192419839Y-146975021D01*
X192646532Y-146979770D01*
X192869829Y-146940396D01*
X193081227Y-146858401D01*
X193272672Y-146736906D01*
X193436872Y-146580540D01*
X193567574Y-146395259D01*
X193659798Y-146188119D01*
X193710033Y-145967011D01*
X193713649Y-145708029D01*
X193692793Y-145602701D01*
X194857894Y-144437600D01*
X196557900Y-144437600D01*
X196617492Y-144431757D01*
X196677137Y-144426539D01*
X196680412Y-144425587D01*
X196683803Y-144425255D01*
X196741097Y-144407957D01*
X196798621Y-144391245D01*
X196801648Y-144389676D01*
X196804910Y-144388691D01*
X196857786Y-144360576D01*
X196910935Y-144333026D01*
X196913597Y-144330901D01*
X196916608Y-144329300D01*
X196963029Y-144291440D01*
X197009803Y-144254101D01*
X197014548Y-144249422D01*
X197014644Y-144249344D01*
X197014718Y-144249255D01*
X197016247Y-144247747D01*
X197328177Y-143935817D01*
X197349130Y-144049977D01*
X196725860Y-144673247D01*
X196628541Y-144653270D01*
X196401804Y-144651687D01*
X196179077Y-144694175D01*
X195968845Y-144779114D01*
X195779115Y-144903270D01*
X195617114Y-145061913D01*
X195489012Y-145249001D01*
X195399689Y-145457408D01*
X195352546Y-145679196D01*
X195349381Y-145905916D01*
X195390312Y-146128934D01*
X195473781Y-146339754D01*
X195596610Y-146530346D01*
X195754118Y-146693451D01*
X195940308Y-146822856D01*
X196148086Y-146913632D01*
X196369539Y-146962321D01*
X196596232Y-146967070D01*
X196819529Y-146927696D01*
X197030927Y-146845701D01*
X197222372Y-146724206D01*
X197386572Y-146567840D01*
X197517274Y-146382559D01*
X197609498Y-146175419D01*
X197659733Y-145954311D01*
X197663349Y-145695329D01*
X197642493Y-145590001D01*
X198266781Y-144965713D01*
X198393984Y-144993681D01*
X198633127Y-144998690D01*
X198868689Y-144957154D01*
X199091696Y-144870655D01*
X199293656Y-144742488D01*
X199466875Y-144577534D01*
X199604755Y-144382076D01*
X199702044Y-144163560D01*
X199755038Y-143930309D01*
X199758853Y-143657102D01*
X199749942Y-143612098D01*
X201736708Y-143612098D01*
X200675559Y-144673247D01*
X200578241Y-144653270D01*
X200351504Y-144651687D01*
X200128777Y-144694175D01*
X199918545Y-144779114D01*
X199728815Y-144903270D01*
X199566814Y-145061913D01*
X199438712Y-145249001D01*
X199349389Y-145457408D01*
X199302246Y-145679196D01*
X199299081Y-145905916D01*
X199340012Y-146128934D01*
X199423481Y-146339754D01*
X199546310Y-146530346D01*
X199703818Y-146693451D01*
X199890008Y-146822856D01*
X200097786Y-146913632D01*
X200319239Y-146962321D01*
X200545932Y-146967070D01*
X200769229Y-146927696D01*
X200980627Y-146845701D01*
X201172072Y-146724206D01*
X201336272Y-146567840D01*
X201466974Y-146382559D01*
X201559198Y-146175419D01*
X201609433Y-145954311D01*
X201613049Y-145695329D01*
X201592193Y-145590001D01*
X202935094Y-144247100D01*
X205089507Y-144247100D01*
X204650660Y-144685947D01*
X204553341Y-144665970D01*
X204326604Y-144664387D01*
X204103877Y-144706875D01*
X203893645Y-144791814D01*
X203703915Y-144915970D01*
X203541914Y-145074613D01*
X203413812Y-145261701D01*
X203324489Y-145470108D01*
X203277346Y-145691896D01*
X203274181Y-145918616D01*
X203315112Y-146141634D01*
X203398581Y-146352454D01*
X203521410Y-146543046D01*
X203678918Y-146706151D01*
X203865108Y-146835556D01*
X204072886Y-146926332D01*
X204294339Y-146975021D01*
X204521032Y-146979770D01*
X204744329Y-146940396D01*
X204955727Y-146858401D01*
X205147172Y-146736906D01*
X205311372Y-146580540D01*
X205442074Y-146395259D01*
X205534298Y-146188119D01*
X205584533Y-145967011D01*
X205588149Y-145708029D01*
X205567293Y-145602700D01*
X206279707Y-144890286D01*
X207692864Y-144890286D01*
X207653615Y-144915970D01*
X207491614Y-145074613D01*
X207363512Y-145261701D01*
X207274189Y-145470108D01*
X207227046Y-145691896D01*
X207223881Y-145918616D01*
X207264812Y-146141634D01*
X207348281Y-146352454D01*
X207471110Y-146543046D01*
X207628618Y-146706151D01*
X207814808Y-146835556D01*
X208022586Y-146926332D01*
X208244039Y-146975021D01*
X208470732Y-146979770D01*
X208694029Y-146940396D01*
X208905427Y-146858401D01*
X209096872Y-146736906D01*
X209261072Y-146580540D01*
X209391774Y-146395259D01*
X209483998Y-146188119D01*
X209534233Y-145967011D01*
X209537849Y-145708029D01*
X209516993Y-145602701D01*
X211695800Y-143423894D01*
X211695800Y-144863760D01*
X211616015Y-144915970D01*
X211454014Y-145074613D01*
X211325912Y-145261701D01*
X211236589Y-145470108D01*
X211189446Y-145691896D01*
X211186281Y-145918616D01*
X211227212Y-146141634D01*
X211310681Y-146352454D01*
X211433510Y-146543046D01*
X211591018Y-146706151D01*
X211777208Y-146835556D01*
X211984986Y-146926332D01*
X212206439Y-146975021D01*
X212433132Y-146979770D01*
X212656429Y-146940396D01*
X212867827Y-146858401D01*
X213059272Y-146736906D01*
X213223472Y-146580540D01*
X213354174Y-146395259D01*
X213446398Y-146188119D01*
X213496633Y-145967011D01*
X213500249Y-145708029D01*
X213456208Y-145485605D01*
X213369803Y-145275971D01*
X213244326Y-145087112D01*
X213084555Y-144926222D01*
X212992200Y-144863928D01*
X212992200Y-142390528D01*
X213003304Y-142312390D01*
X213003304Y-140313410D01*
X212997492Y-140240523D01*
X212959208Y-140116899D01*
X212887998Y-140008835D01*
X212789502Y-139924888D01*
X212671519Y-139871704D01*
X212543390Y-139853496D01*
X212093810Y-139853496D01*
X212020923Y-139859308D01*
X211923529Y-139889469D01*
X211884119Y-139871704D01*
X211755990Y-139853496D01*
X211306410Y-139853496D01*
X211233523Y-139859308D01*
X211121073Y-139894132D01*
X211071319Y-139871704D01*
X210943190Y-139853496D01*
X210493610Y-139853496D01*
X210420723Y-139859308D01*
X210323329Y-139889469D01*
X210283919Y-139871704D01*
X210155790Y-139853496D01*
X209706210Y-139853496D01*
X209633323Y-139859308D01*
X209535929Y-139889469D01*
X209496519Y-139871704D01*
X209368390Y-139853496D01*
X208918810Y-139853496D01*
X208845923Y-139859308D01*
X208733473Y-139894132D01*
X208683719Y-139871704D01*
X208555590Y-139853496D01*
X208106010Y-139853496D01*
X208033123Y-139859308D01*
X207920673Y-139894132D01*
X207870919Y-139871704D01*
X207742790Y-139853496D01*
X207293210Y-139853496D01*
X207220323Y-139859308D01*
X207107873Y-139894132D01*
X207058119Y-139871704D01*
X206929990Y-139853496D01*
X206480410Y-139853496D01*
X206407523Y-139859308D01*
X206283899Y-139897592D01*
X206175835Y-139968802D01*
X206091888Y-140067298D01*
X206038704Y-140185281D01*
X206020496Y-140313410D01*
X206020496Y-141004707D01*
X205433402Y-141591800D01*
X198107300Y-141591800D01*
X198047716Y-141597642D01*
X197988062Y-141602861D01*
X197984786Y-141603813D01*
X197981397Y-141604145D01*
X197924069Y-141621453D01*
X197866579Y-141638156D01*
X197863556Y-141639723D01*
X197860290Y-141640709D01*
X197807339Y-141668864D01*
X197754265Y-141696375D01*
X197751607Y-141698497D01*
X197748592Y-141700100D01*
X197702144Y-141737982D01*
X197699493Y-141740099D01*
X197701453Y-141599702D01*
X197654993Y-141365062D01*
X197563842Y-141143915D01*
X197431474Y-140944684D01*
X197262928Y-140774957D01*
X197064626Y-140641201D01*
X196844120Y-140548509D01*
X196609810Y-140500412D01*
X196370621Y-140498742D01*
X196135662Y-140543563D01*
X195913883Y-140633167D01*
X195713733Y-140764142D01*
X195542834Y-140931498D01*
X195447247Y-141071100D01*
X193879993Y-141071100D01*
X190754500Y-137945606D01*
X190754500Y-137480214D01*
X190868300Y-137480214D01*
X190941187Y-137474402D01*
X191064811Y-137436118D01*
X191172875Y-137364908D01*
X191256822Y-137266412D01*
X191310006Y-137148429D01*
X191328214Y-137020300D01*
X191328214Y-135496300D01*
X191322402Y-135423413D01*
X191284118Y-135299789D01*
X191212908Y-135191725D01*
X191114412Y-135107778D01*
X190996429Y-135054594D01*
X190868300Y-135036386D01*
X189344300Y-135036386D01*
X189271413Y-135042198D01*
X189147789Y-135080482D01*
X189039725Y-135151692D01*
X188955778Y-135250188D01*
X188902594Y-135368171D01*
X188884386Y-135496300D01*
X187096100Y-135496300D01*
X187096100Y-133820856D01*
X191424996Y-133820856D01*
X191468176Y-134056122D01*
X191556230Y-134278520D01*
X191685804Y-134479580D01*
X191851963Y-134651643D01*
X192048378Y-134788155D01*
X192267568Y-134883917D01*
X192501184Y-134935281D01*
X192740327Y-134940290D01*
X192975889Y-134898754D01*
X193198896Y-134812255D01*
X193400856Y-134684088D01*
X193574075Y-134519134D01*
X193681746Y-134366500D01*
X197575471Y-134366500D01*
X197553997Y-134397862D01*
X197459768Y-134617715D01*
X197410036Y-134851683D01*
X197406696Y-135090856D01*
X197449876Y-135326122D01*
X197537930Y-135548520D01*
X197667504Y-135749580D01*
X197833663Y-135921643D01*
X198030078Y-136058155D01*
X198249268Y-136153917D01*
X198482884Y-136205281D01*
X198722027Y-136210290D01*
X198957589Y-136168754D01*
X199180596Y-136082255D01*
X199382556Y-135954088D01*
X199555775Y-135789134D01*
X199663446Y-135636500D01*
X200815914Y-135636500D01*
X200880604Y-135736880D01*
X201046763Y-135908943D01*
X201243178Y-136045455D01*
X201462368Y-136141217D01*
X201695984Y-136192581D01*
X201935127Y-136197590D01*
X202170689Y-136156054D01*
X202393696Y-136069555D01*
X202595656Y-135941388D01*
X202768875Y-135776434D01*
X202906755Y-135580976D01*
X203004044Y-135362460D01*
X203057038Y-135129209D01*
X203060853Y-134856002D01*
X203014393Y-134621362D01*
X202923242Y-134400215D01*
X202900842Y-134366500D01*
X203289996Y-134366500D01*
X203289996Y-134730490D01*
X203295808Y-134803377D01*
X203330632Y-134915827D01*
X203308204Y-134965581D01*
X203289996Y-135093710D01*
X203289996Y-135543290D01*
X203295808Y-135616177D01*
X203325969Y-135713571D01*
X203308204Y-135752981D01*
X203289996Y-135881110D01*
X203289996Y-136330690D01*
X203295808Y-136403577D01*
X203330632Y-136516027D01*
X203308204Y-136565781D01*
X203289996Y-136693910D01*
X203289996Y-137143490D01*
X203295808Y-137216377D01*
X203325969Y-137313771D01*
X203308204Y-137353181D01*
X203289996Y-137481310D01*
X203289996Y-137930890D01*
X203295808Y-138003777D01*
X203330632Y-138116227D01*
X203308204Y-138165981D01*
X203289996Y-138294110D01*
X203289996Y-138743690D01*
X203295808Y-138816577D01*
X203330632Y-138929027D01*
X203308204Y-138978781D01*
X203289996Y-139106910D01*
X203289996Y-139556490D01*
X203295808Y-139629377D01*
X203334092Y-139753001D01*
X203405302Y-139861065D01*
X203503798Y-139945012D01*
X203621781Y-139998196D01*
X203749910Y-140016404D01*
X205748890Y-140016404D01*
X205821777Y-140010592D01*
X205945401Y-139972308D01*
X206053465Y-139901098D01*
X206137412Y-139802602D01*
X206190596Y-139684619D01*
X206208804Y-139556490D01*
X206208804Y-139106910D01*
X206202992Y-139034023D01*
X206168168Y-138921573D01*
X206190596Y-138871819D01*
X206208804Y-138743690D01*
X206208804Y-138294110D01*
X206202992Y-138221223D01*
X206168168Y-138108773D01*
X206190596Y-138059019D01*
X206208804Y-137930890D01*
X206208804Y-137481310D01*
X206202992Y-137408423D01*
X206172831Y-137311029D01*
X206190596Y-137271619D01*
X206208804Y-137143490D01*
X206208804Y-136693910D01*
X206202992Y-136621023D01*
X206168168Y-136508573D01*
X206190596Y-136458819D01*
X206208804Y-136330690D01*
X206208804Y-135881110D01*
X206202992Y-135808223D01*
X206172831Y-135710829D01*
X206190596Y-135671419D01*
X206208804Y-135543290D01*
X206208804Y-135093710D01*
X206202992Y-135020823D01*
X206168168Y-134908373D01*
X206190596Y-134858619D01*
X206208804Y-134730490D01*
X206208804Y-134280910D01*
X206202992Y-134208023D01*
X206172831Y-134110629D01*
X206190596Y-134071219D01*
X206208804Y-133943090D01*
X206208804Y-133493510D01*
X206208399Y-133488430D01*
X212855636Y-133488430D01*
X212855636Y-133938010D01*
X212861448Y-134010897D01*
X212893940Y-134115819D01*
X212873844Y-134160401D01*
X212855636Y-134288530D01*
X212855636Y-134738110D01*
X212861448Y-134810997D01*
X212899732Y-134934621D01*
X212970942Y-135042685D01*
X213069438Y-135126632D01*
X213187421Y-135179816D01*
X213315550Y-135198024D01*
X215314530Y-135198024D01*
X215387417Y-135192212D01*
X215486525Y-135161520D01*
X219187944Y-135161520D01*
X219109015Y-135213170D01*
X218947014Y-135371813D01*
X218922989Y-135406900D01*
X214367489Y-135406900D01*
X214317524Y-135401825D01*
X214179242Y-135414896D01*
X214132548Y-135428816D01*
X213315550Y-135428816D01*
X213242663Y-135434628D01*
X213119039Y-135472912D01*
X213010975Y-135544122D01*
X212927028Y-135642618D01*
X212873844Y-135760601D01*
X212855636Y-135888730D01*
X212855636Y-136338310D01*
X212861448Y-136411197D01*
X212893940Y-136516119D01*
X212873844Y-136560701D01*
X212855636Y-136688830D01*
X212855636Y-137138410D01*
X212861448Y-137211297D01*
X212893940Y-137316219D01*
X212873844Y-137360801D01*
X212855636Y-137488930D01*
X212855636Y-137938510D01*
X212861448Y-138011397D01*
X212893940Y-138116319D01*
X212873844Y-138160901D01*
X212855636Y-138289030D01*
X212855636Y-138738610D01*
X212861448Y-138811497D01*
X212893940Y-138916419D01*
X212873844Y-138961001D01*
X212855636Y-139089130D01*
X212855636Y-139538710D01*
X212861448Y-139611597D01*
X212899732Y-139735221D01*
X212970942Y-139843285D01*
X213069438Y-139927232D01*
X213187421Y-139980416D01*
X213315550Y-139998624D01*
X215314530Y-139998624D01*
X215387417Y-139992812D01*
X215438194Y-139977087D01*
X215658200Y-140197093D01*
X215658200Y-144851060D01*
X215578415Y-144903270D01*
X215416414Y-145061913D01*
X215288312Y-145249001D01*
X215198989Y-145457408D01*
X215151846Y-145679196D01*
X215148681Y-145905916D01*
X215189612Y-146128934D01*
X215273081Y-146339754D01*
X215395910Y-146530346D01*
X215553418Y-146693451D01*
X215739608Y-146822856D01*
X215947386Y-146913632D01*
X216168839Y-146962321D01*
X216395532Y-146967070D01*
X216618829Y-146927696D01*
X216830227Y-146845701D01*
X217021672Y-146724206D01*
X217185872Y-146567840D01*
X217316574Y-146382559D01*
X217408798Y-146175419D01*
X217459033Y-145954311D01*
X217462649Y-145695329D01*
X217418608Y-145472905D01*
X217332203Y-145263271D01*
X217206726Y-145074412D01*
X217046955Y-144913522D01*
X216954600Y-144851228D01*
X216954600Y-143436594D01*
X219120541Y-145602534D01*
X219101546Y-145691896D01*
X219098381Y-145918616D01*
X219139312Y-146141634D01*
X219222781Y-146352454D01*
X219345610Y-146543046D01*
X219503118Y-146706151D01*
X219689308Y-146835556D01*
X219897086Y-146926332D01*
X220118539Y-146975021D01*
X220345232Y-146979770D01*
X220568529Y-146940396D01*
X220779927Y-146858401D01*
X220971372Y-146736906D01*
X221135572Y-146580540D01*
X221266274Y-146395259D01*
X221358498Y-146188119D01*
X221408733Y-145967011D01*
X221412349Y-145708029D01*
X221368308Y-145485605D01*
X221281903Y-145275971D01*
X221156426Y-145087112D01*
X220996655Y-144926222D01*
X220808677Y-144799430D01*
X220599652Y-144711563D01*
X220377541Y-144665970D01*
X220150804Y-144664387D01*
X220037411Y-144686018D01*
X219573093Y-144221700D01*
X221702106Y-144221700D01*
X223082941Y-145602534D01*
X223063946Y-145691896D01*
X223060781Y-145918616D01*
X223101712Y-146141634D01*
X223185181Y-146352454D01*
X223308010Y-146543046D01*
X223465518Y-146706151D01*
X223651708Y-146835556D01*
X223859486Y-146926332D01*
X224080939Y-146975021D01*
X224307632Y-146979770D01*
X224530929Y-146940396D01*
X224742327Y-146858401D01*
X224933772Y-146736906D01*
X225097972Y-146580540D01*
X225228674Y-146395259D01*
X225320898Y-146188119D01*
X225371133Y-145967011D01*
X225374749Y-145708029D01*
X225330708Y-145485605D01*
X225244303Y-145275971D01*
X225118826Y-145087112D01*
X224959055Y-144926222D01*
X224771077Y-144799430D01*
X224562052Y-144711563D01*
X224339941Y-144665970D01*
X224113204Y-144664387D01*
X223999811Y-144686018D01*
X222900492Y-143586698D01*
X225905804Y-143586698D01*
X227336439Y-145017332D01*
X227290914Y-145061913D01*
X227162812Y-145249001D01*
X227073489Y-145457408D01*
X227026346Y-145679196D01*
X227023181Y-145905916D01*
X227064112Y-146128934D01*
X227147581Y-146339754D01*
X227270410Y-146530346D01*
X227427918Y-146693451D01*
X227614108Y-146822856D01*
X227821886Y-146913632D01*
X228043339Y-146962321D01*
X228270032Y-146967070D01*
X228493329Y-146927696D01*
X228704727Y-146845701D01*
X228896172Y-146724206D01*
X229060372Y-146567840D01*
X229191074Y-146382559D01*
X229283298Y-146175419D01*
X229333533Y-145954311D01*
X229337149Y-145695329D01*
X229293108Y-145472905D01*
X229206703Y-145263271D01*
X229081226Y-145074412D01*
X228921455Y-144913522D01*
X228819704Y-144844890D01*
X228818039Y-144825863D01*
X228817087Y-144822588D01*
X228816755Y-144819197D01*
X228799457Y-144761903D01*
X228782745Y-144704379D01*
X228781176Y-144701352D01*
X228780191Y-144698090D01*
X228752076Y-144645214D01*
X228724526Y-144592065D01*
X228722401Y-144589403D01*
X228720800Y-144586392D01*
X228682965Y-144540002D01*
X228645602Y-144493197D01*
X228640925Y-144488455D01*
X228640844Y-144488356D01*
X228640752Y-144488280D01*
X228639247Y-144486754D01*
X226632645Y-142480151D01*
X226586380Y-142442149D01*
X226540510Y-142403659D01*
X226537520Y-142402016D01*
X226534889Y-142399854D01*
X226482159Y-142371580D01*
X226429651Y-142342714D01*
X226426400Y-142341683D01*
X226423398Y-142340073D01*
X226366120Y-142322561D01*
X226309066Y-142304463D01*
X226305683Y-142304083D01*
X226302420Y-142303086D01*
X226242831Y-142297033D01*
X226183348Y-142290361D01*
X226176685Y-142290315D01*
X226176561Y-142290302D01*
X226176445Y-142290313D01*
X226174298Y-142290298D01*
X220384894Y-142290298D01*
X218948500Y-140853904D01*
X218948500Y-139128500D01*
X218942658Y-139068916D01*
X218937439Y-139009262D01*
X218936487Y-139005986D01*
X218936155Y-139002597D01*
X218918861Y-138945315D01*
X218902145Y-138887779D01*
X218900576Y-138884752D01*
X218899591Y-138881490D01*
X218871476Y-138828614D01*
X218843926Y-138775465D01*
X218841801Y-138772803D01*
X218840200Y-138769792D01*
X218802340Y-138723371D01*
X218765001Y-138676597D01*
X218760326Y-138671856D01*
X218760244Y-138671756D01*
X218760151Y-138671679D01*
X218758646Y-138670153D01*
X216918794Y-136830300D01*
X218920100Y-136830300D01*
X218926510Y-136840246D01*
X219084018Y-137003351D01*
X219270208Y-137132756D01*
X219477986Y-137223532D01*
X219699439Y-137272221D01*
X219926132Y-137276970D01*
X220149429Y-137237596D01*
X220360827Y-137155601D01*
X220552272Y-137034106D01*
X220716472Y-136877740D01*
X220847174Y-136692459D01*
X220939398Y-136485319D01*
X220989633Y-136264211D01*
X220993249Y-136005229D01*
X220949208Y-135782805D01*
X220862803Y-135573171D01*
X220737326Y-135384312D01*
X220577555Y-135223422D01*
X220485781Y-135161520D01*
X223551226Y-135161520D01*
X224812132Y-136422425D01*
X224791164Y-136521073D01*
X224787963Y-136750284D01*
X224829344Y-136975752D01*
X224913731Y-137188887D01*
X225037908Y-137381573D01*
X225197147Y-137546469D01*
X225385382Y-137677296D01*
X225595442Y-137769069D01*
X225819328Y-137818294D01*
X226048511Y-137823094D01*
X226274261Y-137783288D01*
X226487981Y-137700392D01*
X226681529Y-137577563D01*
X226847533Y-137419479D01*
X226931675Y-137300200D01*
X229394777Y-137300200D01*
X229442110Y-137373646D01*
X229599618Y-137536751D01*
X229785808Y-137666156D01*
X229993586Y-137756932D01*
X230215039Y-137805621D01*
X230441732Y-137810370D01*
X230665029Y-137770996D01*
X230876427Y-137689001D01*
X231067872Y-137567506D01*
X231232072Y-137411140D01*
X231362774Y-137225859D01*
X231454998Y-137018719D01*
X231505233Y-136797611D01*
X231508849Y-136538629D01*
X231464808Y-136316205D01*
X231378403Y-136106571D01*
X231252926Y-135917712D01*
X231093155Y-135756822D01*
X230905177Y-135630030D01*
X230696152Y-135542163D01*
X230474041Y-135496570D01*
X230247304Y-135494987D01*
X230024577Y-135537475D01*
X229814345Y-135622414D01*
X229624615Y-135746570D01*
X229462614Y-135905213D01*
X229395110Y-136003800D01*
X226931171Y-136003800D01*
X226868616Y-135909646D01*
X226707090Y-135746989D01*
X226517047Y-135618803D01*
X226305726Y-135529972D01*
X226081175Y-135483878D01*
X225851947Y-135482278D01*
X225728853Y-135505759D01*
X224335094Y-134112000D01*
X225728721Y-132718373D01*
X225819328Y-132738294D01*
X226048511Y-132743094D01*
X226274261Y-132703288D01*
X226487981Y-132620392D01*
X226681529Y-132497563D01*
X226847533Y-132339479D01*
X226931675Y-132220200D01*
X229373892Y-132220200D01*
X229429410Y-132306346D01*
X229586918Y-132469451D01*
X229773108Y-132598856D01*
X229980886Y-132689632D01*
X230202339Y-132738321D01*
X230429032Y-132743070D01*
X230652329Y-132703696D01*
X230863727Y-132621701D01*
X231055172Y-132500206D01*
X231219372Y-132343840D01*
X231350074Y-132158559D01*
X231442298Y-131951419D01*
X231492533Y-131730311D01*
X231496149Y-131471329D01*
X231452108Y-131248905D01*
X231365703Y-131039271D01*
X231240226Y-130850412D01*
X231080455Y-130689522D01*
X230892477Y-130562730D01*
X230683452Y-130474863D01*
X230461341Y-130429270D01*
X230234604Y-130427687D01*
X230011877Y-130470175D01*
X229801645Y-130555114D01*
X229611915Y-130679270D01*
X229449914Y-130837913D01*
X229391106Y-130923800D01*
X226931171Y-130923800D01*
X226868616Y-130829646D01*
X226707090Y-130666989D01*
X226517047Y-130538803D01*
X226305726Y-130449972D01*
X226081175Y-130403878D01*
X225851947Y-130402278D01*
X225626774Y-130445232D01*
X225414233Y-130531104D01*
X225222419Y-130656624D01*
X225058638Y-130817010D01*
X224929129Y-131006153D01*
X224838824Y-131216850D01*
X224791164Y-131441073D01*
X224787963Y-131670284D01*
X224812071Y-131801636D01*
X223548686Y-133065020D01*
X215483247Y-133065020D01*
X215442659Y-133046724D01*
X215314530Y-133028516D01*
X213315550Y-133028516D01*
X213242663Y-133034328D01*
X213119039Y-133072612D01*
X213010975Y-133143822D01*
X212927028Y-133242318D01*
X212873844Y-133360301D01*
X212855636Y-133488430D01*
X206208399Y-133488430D01*
X206202992Y-133420623D01*
X206164708Y-133296999D01*
X206093498Y-133188935D01*
X205995002Y-133104988D01*
X205877019Y-133051804D01*
X205748890Y-133033596D01*
X203749910Y-133033596D01*
X203677023Y-133039408D01*
X203577915Y-133070100D01*
X199849914Y-133070100D01*
X199849914Y-132359900D01*
X206040816Y-132359900D01*
X206040816Y-132711190D01*
X206046628Y-132784077D01*
X206084912Y-132907701D01*
X206156122Y-133015765D01*
X206254618Y-133099712D01*
X206372601Y-133152896D01*
X206500730Y-133171104D01*
X206950310Y-133171104D01*
X207023197Y-133165292D01*
X207126614Y-133133266D01*
X207170161Y-133152896D01*
X207298290Y-133171104D01*
X207747870Y-133171104D01*
X207820757Y-133165292D01*
X207927185Y-133132333D01*
X207972801Y-133152896D01*
X208100930Y-133171104D01*
X208550510Y-133171104D01*
X208623397Y-133165292D01*
X208747021Y-133127008D01*
X208855085Y-133055798D01*
X208939032Y-132957302D01*
X208992216Y-132839319D01*
X209010424Y-132711190D01*
X209010424Y-130712210D01*
X209004612Y-130639323D01*
X209001748Y-130630075D01*
X209032210Y-130624704D01*
X209241216Y-130833710D01*
X209241216Y-132711190D01*
X209247028Y-132784077D01*
X209285312Y-132907701D01*
X209356522Y-133015765D01*
X209455018Y-133099712D01*
X209573001Y-133152896D01*
X209701130Y-133171104D01*
X210150710Y-133171104D01*
X210223597Y-133165292D01*
X210327014Y-133133266D01*
X210370561Y-133152896D01*
X210498690Y-133171104D01*
X210948270Y-133171104D01*
X211021157Y-133165292D01*
X211127585Y-133132333D01*
X211173201Y-133152896D01*
X211301330Y-133171104D01*
X211750910Y-133171104D01*
X211823797Y-133165292D01*
X211927214Y-133133266D01*
X211970761Y-133152896D01*
X212098890Y-133171104D01*
X212548470Y-133171104D01*
X212621357Y-133165292D01*
X212744981Y-133127008D01*
X212853045Y-133055798D01*
X212936992Y-132957302D01*
X212990176Y-132839319D01*
X213008384Y-132711190D01*
X213008384Y-132448800D01*
X214463052Y-132448800D01*
X214495004Y-132498380D01*
X214661163Y-132670443D01*
X214857578Y-132806955D01*
X215076768Y-132902717D01*
X215310384Y-132954081D01*
X215549527Y-132959090D01*
X215785089Y-132917554D01*
X216008096Y-132831055D01*
X216210056Y-132702888D01*
X216383275Y-132537934D01*
X216521155Y-132342476D01*
X216618444Y-132123960D01*
X216671438Y-131890709D01*
X216675253Y-131617502D01*
X216628793Y-131382862D01*
X216537642Y-131161715D01*
X216405274Y-130962484D01*
X216236728Y-130792757D01*
X216038426Y-130659001D01*
X215817920Y-130566309D01*
X215583610Y-130518212D01*
X215344421Y-130516542D01*
X215109462Y-130561363D01*
X214887683Y-130650967D01*
X214687533Y-130781942D01*
X214516634Y-130949298D01*
X214464526Y-131025400D01*
X213008384Y-131025400D01*
X213008384Y-130712210D01*
X213002572Y-130639323D01*
X212964288Y-130515699D01*
X212893078Y-130407635D01*
X212794582Y-130323688D01*
X212696238Y-130279357D01*
X212715472Y-130261040D01*
X212846174Y-130075759D01*
X212938398Y-129868619D01*
X212988633Y-129647511D01*
X212992249Y-129388529D01*
X212948208Y-129166105D01*
X212861803Y-128956471D01*
X212736326Y-128767612D01*
X212576555Y-128606722D01*
X212388577Y-128479930D01*
X212179552Y-128392063D01*
X211957441Y-128346470D01*
X211730704Y-128344887D01*
X211507977Y-128387375D01*
X211297745Y-128472314D01*
X211108015Y-128596470D01*
X210946014Y-128755113D01*
X210817912Y-128942201D01*
X210728589Y-129150608D01*
X210681446Y-129372396D01*
X210678281Y-129599116D01*
X210700582Y-129720624D01*
X210331050Y-130090156D01*
X209949310Y-129708416D01*
X209966033Y-129634811D01*
X209969649Y-129375829D01*
X209925608Y-129153405D01*
X209839203Y-128943771D01*
X209713726Y-128754912D01*
X209553955Y-128594022D01*
X209365977Y-128467230D01*
X209156952Y-128379363D01*
X208934841Y-128333770D01*
X208708104Y-128332187D01*
X208485377Y-128374675D01*
X208275145Y-128459614D01*
X208085415Y-128583770D01*
X207923414Y-128742413D01*
X207795312Y-128929501D01*
X207712533Y-129122639D01*
X207633447Y-129043553D01*
X207587182Y-129005551D01*
X207541312Y-128967061D01*
X207538322Y-128965418D01*
X207535691Y-128963256D01*
X207482961Y-128934982D01*
X207430453Y-128906116D01*
X207427202Y-128905085D01*
X207424200Y-128903475D01*
X207366922Y-128885963D01*
X207309868Y-128867865D01*
X207306485Y-128867485D01*
X207303222Y-128866488D01*
X207243633Y-128860435D01*
X207184150Y-128853763D01*
X207177487Y-128853717D01*
X207177363Y-128853704D01*
X207177247Y-128853715D01*
X207175100Y-128853700D01*
X205059222Y-128853700D01*
X205002026Y-128767612D01*
X204842255Y-128606722D01*
X204654277Y-128479930D01*
X204445252Y-128392063D01*
X204223141Y-128346470D01*
X203996404Y-128344887D01*
X203773677Y-128387375D01*
X203563445Y-128472314D01*
X203373715Y-128596470D01*
X203211714Y-128755113D01*
X203083612Y-128942201D01*
X202994289Y-129150608D01*
X202947146Y-129372396D01*
X202943981Y-129599116D01*
X202984912Y-129822134D01*
X203068381Y-130032954D01*
X203191210Y-130223546D01*
X203348718Y-130386651D01*
X203534908Y-130516056D01*
X203742686Y-130606832D01*
X203964139Y-130655521D01*
X204190832Y-130660270D01*
X204414129Y-130620896D01*
X204625527Y-130538901D01*
X204816972Y-130417406D01*
X204981172Y-130261040D01*
X205059432Y-130150100D01*
X206906606Y-130150100D01*
X207018491Y-130261985D01*
X206950310Y-130252296D01*
X206500730Y-130252296D01*
X206427843Y-130258108D01*
X206304219Y-130296392D01*
X206196155Y-130367602D01*
X206112208Y-130466098D01*
X206059024Y-130584081D01*
X206040816Y-130712210D01*
X206040816Y-131063500D01*
X199364600Y-131063500D01*
X199305053Y-131069339D01*
X199245363Y-131074561D01*
X199242088Y-131075513D01*
X199238697Y-131075845D01*
X199181403Y-131093143D01*
X199123879Y-131109855D01*
X199120852Y-131111424D01*
X199117590Y-131112409D01*
X199064714Y-131140524D01*
X199011565Y-131168074D01*
X199008903Y-131170199D01*
X199005892Y-131171800D01*
X198959502Y-131209635D01*
X198938518Y-131226386D01*
X197866000Y-131226386D01*
X197793113Y-131232198D01*
X197669489Y-131270482D01*
X197561425Y-131341692D01*
X197477478Y-131440188D01*
X197424294Y-131558171D01*
X197406086Y-131686300D01*
X197406086Y-133070100D01*
X193680064Y-133070100D01*
X193596074Y-132943684D01*
X193427528Y-132773957D01*
X193229226Y-132640201D01*
X193008720Y-132547509D01*
X192774410Y-132499412D01*
X192535221Y-132497742D01*
X192300262Y-132542563D01*
X192078483Y-132632167D01*
X191878333Y-132763142D01*
X191707434Y-132930498D01*
X191572297Y-133127862D01*
X191478068Y-133347715D01*
X191428336Y-133581683D01*
X191424996Y-133820856D01*
X187096100Y-133820856D01*
X187096100Y-127046416D01*
X207655681Y-127046416D01*
X207696612Y-127269434D01*
X207780081Y-127480254D01*
X207902910Y-127670846D01*
X208060418Y-127833951D01*
X208246608Y-127963356D01*
X208454386Y-128054132D01*
X208675839Y-128102821D01*
X208902532Y-128107570D01*
X209125829Y-128068196D01*
X209337227Y-127986201D01*
X209528672Y-127864706D01*
X209692872Y-127708340D01*
X209823574Y-127523059D01*
X209915798Y-127315919D01*
X209966033Y-127094811D01*
X209969649Y-126835829D01*
X209929174Y-126631417D01*
X209942735Y-126588668D01*
X209943115Y-126585285D01*
X209944112Y-126582022D01*
X209950165Y-126522433D01*
X209956837Y-126462950D01*
X209956883Y-126456287D01*
X209956896Y-126456163D01*
X209956885Y-126456047D01*
X209956900Y-126453900D01*
X209956900Y-124082744D01*
X210056184Y-124019736D01*
X210227780Y-123856328D01*
X210325334Y-123718037D01*
X210389205Y-123817145D01*
X210553807Y-123987596D01*
X210692500Y-124083990D01*
X210692500Y-126466600D01*
X210698343Y-126526192D01*
X210703561Y-126585837D01*
X210704513Y-126589112D01*
X210704845Y-126592503D01*
X210721037Y-126646135D01*
X210681446Y-126832396D01*
X210678281Y-127059116D01*
X210719212Y-127282134D01*
X210802681Y-127492954D01*
X210925510Y-127683546D01*
X211083018Y-127846651D01*
X211269208Y-127976056D01*
X211476986Y-128066832D01*
X211698439Y-128115521D01*
X211925132Y-128120270D01*
X212148429Y-128080896D01*
X212359827Y-127998901D01*
X212551272Y-127877406D01*
X212715472Y-127721040D01*
X212846174Y-127535759D01*
X212938398Y-127328619D01*
X212988633Y-127107511D01*
X212992249Y-126848529D01*
X212948208Y-126626105D01*
X212861803Y-126416471D01*
X212736326Y-126227612D01*
X212576555Y-126066722D01*
X212388577Y-125939930D01*
X212179552Y-125852063D01*
X211988900Y-125812928D01*
X211988900Y-124082744D01*
X212088184Y-124019736D01*
X212259780Y-123856328D01*
X212396368Y-123662703D01*
X212492746Y-123446235D01*
X212545242Y-123215169D01*
X212545948Y-123164595D01*
X212670842Y-123164595D01*
X212713617Y-123397656D01*
X212800845Y-123617970D01*
X212929205Y-123817145D01*
X213093807Y-123987596D01*
X213288382Y-124122829D01*
X213505518Y-124217693D01*
X213736944Y-124268575D01*
X213973846Y-124273538D01*
X214207200Y-124232391D01*
X214428118Y-124146703D01*
X214628184Y-124019736D01*
X214799780Y-123856328D01*
X214936368Y-123662703D01*
X215032746Y-123446235D01*
X215085242Y-123215169D01*
X215089022Y-122944523D01*
X215042997Y-122712082D01*
X214952701Y-122493007D01*
X214821573Y-122295643D01*
X214654607Y-122127508D01*
X214458163Y-121995005D01*
X214239724Y-121903181D01*
X214007610Y-121855535D01*
X213770662Y-121853881D01*
X213537905Y-121898282D01*
X213318205Y-121987046D01*
X213119930Y-122116793D01*
X212950633Y-122282581D01*
X212816762Y-122478095D01*
X212723416Y-122695888D01*
X212674150Y-122927664D01*
X212670842Y-123164595D01*
X212545948Y-123164595D01*
X212549022Y-122944523D01*
X212502997Y-122712082D01*
X212412701Y-122493007D01*
X212281573Y-122295643D01*
X212114607Y-122127508D01*
X211918163Y-121995005D01*
X211699724Y-121903181D01*
X211467610Y-121855535D01*
X211230662Y-121853881D01*
X210997905Y-121898282D01*
X210778205Y-121987046D01*
X210579930Y-122116793D01*
X210410633Y-122282581D01*
X210324486Y-122408396D01*
X210249573Y-122295643D01*
X210082607Y-122127508D01*
X209886163Y-121995005D01*
X209667724Y-121903181D01*
X209435610Y-121855535D01*
X209198662Y-121853881D01*
X208965905Y-121898282D01*
X208746205Y-121987046D01*
X208547930Y-122116793D01*
X208378633Y-122282581D01*
X208244762Y-122478095D01*
X208151416Y-122695888D01*
X208102150Y-122927664D01*
X208098842Y-123164595D01*
X208141617Y-123397656D01*
X208228845Y-123617970D01*
X208357205Y-123817145D01*
X208521807Y-123987596D01*
X208660500Y-124083990D01*
X208660500Y-125801268D01*
X208485377Y-125834675D01*
X208275145Y-125919614D01*
X208085415Y-126043770D01*
X207923414Y-126202413D01*
X207795312Y-126389501D01*
X207705989Y-126597908D01*
X207658846Y-126819696D01*
X207655681Y-127046416D01*
X187096100Y-127046416D01*
X187096100Y-120560598D01*
X201760557Y-120560598D01*
X201829858Y-120938190D01*
X201971181Y-121295131D01*
X202179142Y-121617824D01*
X202445821Y-121893978D01*
X202761060Y-122113074D01*
X203112851Y-122266768D01*
X203487794Y-122349205D01*
X203871610Y-122357245D01*
X204249677Y-122290581D01*
X204607595Y-122151754D01*
X204609774Y-122150371D01*
X209204597Y-121107700D01*
X211531173Y-121107700D01*
X216639743Y-122184149D01*
X216828851Y-122266768D01*
X217203794Y-122349205D01*
X217587610Y-122357245D01*
X217880700Y-122305565D01*
X217880700Y-126045813D01*
X217864415Y-126056470D01*
X217702414Y-126215113D01*
X217678389Y-126250200D01*
X216256533Y-126250200D01*
X216241526Y-126227612D01*
X216081755Y-126066722D01*
X215893777Y-125939930D01*
X215684752Y-125852063D01*
X215462641Y-125806470D01*
X215235904Y-125804887D01*
X215013177Y-125847375D01*
X214802945Y-125932314D01*
X214613215Y-126056470D01*
X214451214Y-126215113D01*
X214323112Y-126402201D01*
X214233789Y-126610608D01*
X214186646Y-126832396D01*
X214183481Y-127059116D01*
X214224412Y-127282134D01*
X214307881Y-127492954D01*
X214430710Y-127683546D01*
X214588218Y-127846651D01*
X214774408Y-127976056D01*
X214982186Y-128066832D01*
X215203639Y-128115521D01*
X215430332Y-128120270D01*
X215653629Y-128080896D01*
X215865027Y-127998901D01*
X216056472Y-127877406D01*
X216220672Y-127721040D01*
X216254137Y-127673600D01*
X217675500Y-127673600D01*
X217681910Y-127683546D01*
X217839418Y-127846651D01*
X218025608Y-127976056D01*
X218233386Y-128066832D01*
X218454839Y-128115521D01*
X218681532Y-128120270D01*
X218904829Y-128080896D01*
X219116227Y-127998901D01*
X219307672Y-127877406D01*
X219471872Y-127721040D01*
X219602574Y-127535759D01*
X219694798Y-127328619D01*
X219745033Y-127107511D01*
X219748649Y-126848529D01*
X219704608Y-126626105D01*
X219618203Y-126416471D01*
X219492726Y-126227612D01*
X219332955Y-126066722D01*
X219304100Y-126047259D01*
X219304100Y-121551700D01*
X219297683Y-121486256D01*
X219291955Y-121420782D01*
X219290911Y-121417190D01*
X219290546Y-121413463D01*
X219271553Y-121350557D01*
X219253204Y-121287397D01*
X219251479Y-121284069D01*
X219250399Y-121280492D01*
X219219575Y-121222521D01*
X219215300Y-121214273D01*
X219303179Y-121016895D01*
X219388231Y-120642536D01*
X219394354Y-120204050D01*
X219319788Y-119827462D01*
X219173495Y-119472530D01*
X218961048Y-119152772D01*
X218690540Y-118880368D01*
X218372273Y-118665694D01*
X218018370Y-118516927D01*
X217642312Y-118439734D01*
X217258422Y-118437054D01*
X216881322Y-118508989D01*
X216633234Y-118609223D01*
X211531173Y-119684300D01*
X209204597Y-119684300D01*
X204586413Y-118636328D01*
X204302370Y-118516927D01*
X203926312Y-118439734D01*
X203542422Y-118437054D01*
X203165322Y-118508989D01*
X202809377Y-118652800D01*
X202488144Y-118863009D01*
X202213858Y-119131610D01*
X201996968Y-119448370D01*
X201845734Y-119801226D01*
X201765917Y-120176736D01*
X201760557Y-120560598D01*
X187096100Y-120560598D01*
X187096100Y-112128000D01*
X233591400Y-112128000D01*
X233591400Y-155994400D01*
X233591400Y-155994400D01*
G37*
X233591400Y-155994400D02*
X230898700Y-155994400D01*
X230898700Y-148069300D01*
X230898197Y-148065762D01*
X230896729Y-148062504D01*
X230894410Y-148059784D01*
X230891426Y-148057818D01*
X230888013Y-148056760D01*
X230886000Y-148056600D01*
X229301760Y-148056600D01*
X229293108Y-148012905D01*
X229206703Y-147803271D01*
X229081226Y-147614412D01*
X228921455Y-147453522D01*
X228733477Y-147326730D01*
X228524452Y-147238863D01*
X228302341Y-147193270D01*
X228075604Y-147191687D01*
X227852877Y-147234175D01*
X227642645Y-147319114D01*
X227452915Y-147443270D01*
X227290914Y-147601913D01*
X227162812Y-147789001D01*
X227073489Y-147997408D01*
X227060907Y-148056600D01*
X225336845Y-148056600D01*
X225330708Y-148025605D01*
X225244303Y-147815971D01*
X225118826Y-147627112D01*
X224959055Y-147466222D01*
X224771077Y-147339430D01*
X224562052Y-147251563D01*
X224339941Y-147205970D01*
X224113204Y-147204387D01*
X223890477Y-147246875D01*
X223680245Y-147331814D01*
X223490515Y-147455970D01*
X223328514Y-147614613D01*
X223200412Y-147801701D01*
X223111089Y-148010108D01*
X223101207Y-148056600D01*
X221374445Y-148056600D01*
X221368308Y-148025605D01*
X221281903Y-147815971D01*
X221156426Y-147627112D01*
X220996655Y-147466222D01*
X220808677Y-147339430D01*
X220599652Y-147251563D01*
X220377541Y-147205970D01*
X220150804Y-147204387D01*
X219928077Y-147246875D01*
X219717845Y-147331814D01*
X219528115Y-147455970D01*
X219366114Y-147614613D01*
X219238012Y-147801701D01*
X219148689Y-148010108D01*
X219138807Y-148056600D01*
X217427260Y-148056600D01*
X217418608Y-148012905D01*
X217332203Y-147803271D01*
X217206726Y-147614412D01*
X217046955Y-147453522D01*
X216858977Y-147326730D01*
X216649952Y-147238863D01*
X216427841Y-147193270D01*
X216201104Y-147191687D01*
X215978377Y-147234175D01*
X215768145Y-147319114D01*
X215578415Y-147443270D01*
X215416414Y-147601913D01*
X215288312Y-147789001D01*
X215198989Y-147997408D01*
X215186407Y-148056600D01*
X213462345Y-148056600D01*
X213456208Y-148025605D01*
X213369803Y-147815971D01*
X213244326Y-147627112D01*
X213084555Y-147466222D01*
X212896577Y-147339430D01*
X212687552Y-147251563D01*
X212465441Y-147205970D01*
X212238704Y-147204387D01*
X212015977Y-147246875D01*
X211805745Y-147331814D01*
X211616015Y-147455970D01*
X211454014Y-147614613D01*
X211325912Y-147801701D01*
X211236589Y-148010108D01*
X211226707Y-148056600D01*
X209499945Y-148056600D01*
X209493808Y-148025605D01*
X209407403Y-147815971D01*
X209281926Y-147627112D01*
X209122155Y-147466222D01*
X208934177Y-147339430D01*
X208725152Y-147251563D01*
X208503041Y-147205970D01*
X208276304Y-147204387D01*
X208053577Y-147246875D01*
X207843345Y-147331814D01*
X207653615Y-147455970D01*
X207491614Y-147614613D01*
X207363512Y-147801701D01*
X207274189Y-148010108D01*
X207264307Y-148056600D01*
X205550245Y-148056600D01*
X205544108Y-148025605D01*
X205457703Y-147815971D01*
X205332226Y-147627112D01*
X205172455Y-147466222D01*
X204984477Y-147339430D01*
X204775452Y-147251563D01*
X204553341Y-147205970D01*
X204326604Y-147204387D01*
X204103877Y-147246875D01*
X203893645Y-147331814D01*
X203703915Y-147455970D01*
X203541914Y-147614613D01*
X203413812Y-147801701D01*
X203324489Y-148010108D01*
X203314607Y-148056600D01*
X201577660Y-148056600D01*
X201569008Y-148012905D01*
X201482603Y-147803271D01*
X201357126Y-147614412D01*
X201197355Y-147453522D01*
X201009377Y-147326730D01*
X200800352Y-147238863D01*
X200578241Y-147193270D01*
X200351504Y-147191687D01*
X200128777Y-147234175D01*
X199918545Y-147319114D01*
X199728815Y-147443270D01*
X199566814Y-147601913D01*
X199438712Y-147789001D01*
X199349389Y-147997408D01*
X199336807Y-148056600D01*
X197627960Y-148056600D01*
X197619308Y-148012905D01*
X197532903Y-147803271D01*
X197407426Y-147614412D01*
X197247655Y-147453522D01*
X197059677Y-147326730D01*
X196850652Y-147238863D01*
X196628541Y-147193270D01*
X196401804Y-147191687D01*
X196179077Y-147234175D01*
X195968845Y-147319114D01*
X195779115Y-147443270D01*
X195617114Y-147601913D01*
X195489012Y-147789001D01*
X195399689Y-147997408D01*
X195387107Y-148056600D01*
X193675745Y-148056600D01*
X193669608Y-148025605D01*
X193583203Y-147815971D01*
X193457726Y-147627112D01*
X193297955Y-147466222D01*
X193109977Y-147339430D01*
X192900952Y-147251563D01*
X192678841Y-147205970D01*
X192452104Y-147204387D01*
X192229377Y-147246875D01*
X192019145Y-147331814D01*
X191829415Y-147455970D01*
X191667414Y-147614613D01*
X191539312Y-147801701D01*
X191449989Y-148010108D01*
X191440107Y-148056600D01*
X189839600Y-148056600D01*
X189836062Y-148057103D01*
X189832804Y-148058571D01*
X189830084Y-148060890D01*
X189828118Y-148063874D01*
X189827060Y-148067287D01*
X189826900Y-148069300D01*
X189826900Y-155994400D01*
X187096100Y-155994400D01*
X187096100Y-135496300D01*
X188884386Y-135496300D01*
X188884386Y-137020300D01*
X188890198Y-137093187D01*
X188928482Y-137216811D01*
X188999692Y-137324875D01*
X189098188Y-137408822D01*
X189216171Y-137462006D01*
X189344300Y-137480214D01*
X189458100Y-137480214D01*
X189458100Y-138214100D01*
X189463943Y-138273692D01*
X189469161Y-138333337D01*
X189470113Y-138336612D01*
X189470445Y-138340003D01*
X189487743Y-138397297D01*
X189504455Y-138454821D01*
X189506024Y-138457848D01*
X189507009Y-138461110D01*
X189535124Y-138513986D01*
X189562674Y-138567135D01*
X189564799Y-138569797D01*
X189566400Y-138572808D01*
X189604260Y-138619229D01*
X189641599Y-138666003D01*
X189646278Y-138670748D01*
X189646356Y-138670844D01*
X189646445Y-138670918D01*
X189647953Y-138672447D01*
X193153153Y-142177646D01*
X193199388Y-142215624D01*
X193245288Y-142254139D01*
X193248278Y-142255783D01*
X193250909Y-142257944D01*
X193303658Y-142286228D01*
X193356147Y-142315084D01*
X193359395Y-142316114D01*
X193362399Y-142317725D01*
X193419692Y-142335241D01*
X193476732Y-142353335D01*
X193480115Y-142353715D01*
X193483378Y-142354712D01*
X193542967Y-142360765D01*
X193602450Y-142367437D01*
X193609113Y-142367483D01*
X193609237Y-142367496D01*
X193609353Y-142367485D01*
X193611500Y-142367500D01*
X195448329Y-142367500D01*
X195521204Y-142480580D01*
X195687363Y-142652643D01*
X195883778Y-142789155D01*
X196102968Y-142884917D01*
X196336584Y-142936281D01*
X196491089Y-142939517D01*
X196289406Y-143141200D01*
X194589400Y-143141200D01*
X194529853Y-143147039D01*
X194470163Y-143152261D01*
X194466888Y-143153213D01*
X194463497Y-143153545D01*
X194406203Y-143170843D01*
X194348679Y-143187555D01*
X194345652Y-143189124D01*
X194342390Y-143190109D01*
X194289514Y-143218224D01*
X194236365Y-143245774D01*
X194233703Y-143247899D01*
X194230692Y-143249500D01*
X194184271Y-143287360D01*
X194137497Y-143324699D01*
X194132752Y-143329378D01*
X194132656Y-143329456D01*
X194132582Y-143329545D01*
X194131053Y-143331053D01*
X192776159Y-144685947D01*
X192678841Y-144665970D01*
X192452104Y-144664387D01*
X192229377Y-144706875D01*
X192019145Y-144791814D01*
X191829415Y-144915970D01*
X191667414Y-145074613D01*
X191539312Y-145261701D01*
X191449989Y-145470108D01*
X191402846Y-145691896D01*
X191399681Y-145918616D01*
X191440612Y-146141634D01*
X191524081Y-146352454D01*
X191646910Y-146543046D01*
X191804418Y-146706151D01*
X191990608Y-146835556D01*
X192198386Y-146926332D01*
X192419839Y-146975021D01*
X192646532Y-146979770D01*
X192869829Y-146940396D01*
X193081227Y-146858401D01*
X193272672Y-146736906D01*
X193436872Y-146580540D01*
X193567574Y-146395259D01*
X193659798Y-146188119D01*
X193710033Y-145967011D01*
X193713649Y-145708029D01*
X193692793Y-145602701D01*
X194857894Y-144437600D01*
X196557900Y-144437600D01*
X196617492Y-144431757D01*
X196677137Y-144426539D01*
X196680412Y-144425587D01*
X196683803Y-144425255D01*
X196741097Y-144407957D01*
X196798621Y-144391245D01*
X196801648Y-144389676D01*
X196804910Y-144388691D01*
X196857786Y-144360576D01*
X196910935Y-144333026D01*
X196913597Y-144330901D01*
X196916608Y-144329300D01*
X196963029Y-144291440D01*
X197009803Y-144254101D01*
X197014548Y-144249422D01*
X197014644Y-144249344D01*
X197014718Y-144249255D01*
X197016247Y-144247747D01*
X197328177Y-143935817D01*
X197349130Y-144049977D01*
X196725860Y-144673247D01*
X196628541Y-144653270D01*
X196401804Y-144651687D01*
X196179077Y-144694175D01*
X195968845Y-144779114D01*
X195779115Y-144903270D01*
X195617114Y-145061913D01*
X195489012Y-145249001D01*
X195399689Y-145457408D01*
X195352546Y-145679196D01*
X195349381Y-145905916D01*
X195390312Y-146128934D01*
X195473781Y-146339754D01*
X195596610Y-146530346D01*
X195754118Y-146693451D01*
X195940308Y-146822856D01*
X196148086Y-146913632D01*
X196369539Y-146962321D01*
X196596232Y-146967070D01*
X196819529Y-146927696D01*
X197030927Y-146845701D01*
X197222372Y-146724206D01*
X197386572Y-146567840D01*
X197517274Y-146382559D01*
X197609498Y-146175419D01*
X197659733Y-145954311D01*
X197663349Y-145695329D01*
X197642493Y-145590001D01*
X198266781Y-144965713D01*
X198393984Y-144993681D01*
X198633127Y-144998690D01*
X198868689Y-144957154D01*
X199091696Y-144870655D01*
X199293656Y-144742488D01*
X199466875Y-144577534D01*
X199604755Y-144382076D01*
X199702044Y-144163560D01*
X199755038Y-143930309D01*
X199758853Y-143657102D01*
X199749942Y-143612098D01*
X201736708Y-143612098D01*
X200675559Y-144673247D01*
X200578241Y-144653270D01*
X200351504Y-144651687D01*
X200128777Y-144694175D01*
X199918545Y-144779114D01*
X199728815Y-144903270D01*
X199566814Y-145061913D01*
X199438712Y-145249001D01*
X199349389Y-145457408D01*
X199302246Y-145679196D01*
X199299081Y-145905916D01*
X199340012Y-146128934D01*
X199423481Y-146339754D01*
X199546310Y-146530346D01*
X199703818Y-146693451D01*
X199890008Y-146822856D01*
X200097786Y-146913632D01*
X200319239Y-146962321D01*
X200545932Y-146967070D01*
X200769229Y-146927696D01*
X200980627Y-146845701D01*
X201172072Y-146724206D01*
X201336272Y-146567840D01*
X201466974Y-146382559D01*
X201559198Y-146175419D01*
X201609433Y-145954311D01*
X201613049Y-145695329D01*
X201592193Y-145590001D01*
X202935094Y-144247100D01*
X205089507Y-144247100D01*
X204650660Y-144685947D01*
X204553341Y-144665970D01*
X204326604Y-144664387D01*
X204103877Y-144706875D01*
X203893645Y-144791814D01*
X203703915Y-144915970D01*
X203541914Y-145074613D01*
X203413812Y-145261701D01*
X203324489Y-145470108D01*
X203277346Y-145691896D01*
X203274181Y-145918616D01*
X203315112Y-146141634D01*
X203398581Y-146352454D01*
X203521410Y-146543046D01*
X203678918Y-146706151D01*
X203865108Y-146835556D01*
X204072886Y-146926332D01*
X204294339Y-146975021D01*
X204521032Y-146979770D01*
X204744329Y-146940396D01*
X204955727Y-146858401D01*
X205147172Y-146736906D01*
X205311372Y-146580540D01*
X205442074Y-146395259D01*
X205534298Y-146188119D01*
X205584533Y-145967011D01*
X205588149Y-145708029D01*
X205567293Y-145602700D01*
X206279707Y-144890286D01*
X207692864Y-144890286D01*
X207653615Y-144915970D01*
X207491614Y-145074613D01*
X207363512Y-145261701D01*
X207274189Y-145470108D01*
X207227046Y-145691896D01*
X207223881Y-145918616D01*
X207264812Y-146141634D01*
X207348281Y-146352454D01*
X207471110Y-146543046D01*
X207628618Y-146706151D01*
X207814808Y-146835556D01*
X208022586Y-146926332D01*
X208244039Y-146975021D01*
X208470732Y-146979770D01*
X208694029Y-146940396D01*
X208905427Y-146858401D01*
X209096872Y-146736906D01*
X209261072Y-146580540D01*
X209391774Y-146395259D01*
X209483998Y-146188119D01*
X209534233Y-145967011D01*
X209537849Y-145708029D01*
X209516993Y-145602701D01*
X211695800Y-143423894D01*
X211695800Y-144863760D01*
X211616015Y-144915970D01*
X211454014Y-145074613D01*
X211325912Y-145261701D01*
X211236589Y-145470108D01*
X211189446Y-145691896D01*
X211186281Y-145918616D01*
X211227212Y-146141634D01*
X211310681Y-146352454D01*
X211433510Y-146543046D01*
X211591018Y-146706151D01*
X211777208Y-146835556D01*
X211984986Y-146926332D01*
X212206439Y-146975021D01*
X212433132Y-146979770D01*
X212656429Y-146940396D01*
X212867827Y-146858401D01*
X213059272Y-146736906D01*
X213223472Y-146580540D01*
X213354174Y-146395259D01*
X213446398Y-146188119D01*
X213496633Y-145967011D01*
X213500249Y-145708029D01*
X213456208Y-145485605D01*
X213369803Y-145275971D01*
X213244326Y-145087112D01*
X213084555Y-144926222D01*
X212992200Y-144863928D01*
X212992200Y-142390528D01*
X213003304Y-142312390D01*
X213003304Y-140313410D01*
X212997492Y-140240523D01*
X212959208Y-140116899D01*
X212887998Y-140008835D01*
X212789502Y-139924888D01*
X212671519Y-139871704D01*
X212543390Y-139853496D01*
X212093810Y-139853496D01*
X212020923Y-139859308D01*
X211923529Y-139889469D01*
X211884119Y-139871704D01*
X211755990Y-139853496D01*
X211306410Y-139853496D01*
X211233523Y-139859308D01*
X211121073Y-139894132D01*
X211071319Y-139871704D01*
X210943190Y-139853496D01*
X210493610Y-139853496D01*
X210420723Y-139859308D01*
X210323329Y-139889469D01*
X210283919Y-139871704D01*
X210155790Y-139853496D01*
X209706210Y-139853496D01*
X209633323Y-139859308D01*
X209535929Y-139889469D01*
X209496519Y-139871704D01*
X209368390Y-139853496D01*
X208918810Y-139853496D01*
X208845923Y-139859308D01*
X208733473Y-139894132D01*
X208683719Y-139871704D01*
X208555590Y-139853496D01*
X208106010Y-139853496D01*
X208033123Y-139859308D01*
X207920673Y-139894132D01*
X207870919Y-139871704D01*
X207742790Y-139853496D01*
X207293210Y-139853496D01*
X207220323Y-139859308D01*
X207107873Y-139894132D01*
X207058119Y-139871704D01*
X206929990Y-139853496D01*
X206480410Y-139853496D01*
X206407523Y-139859308D01*
X206283899Y-139897592D01*
X206175835Y-139968802D01*
X206091888Y-140067298D01*
X206038704Y-140185281D01*
X206020496Y-140313410D01*
X206020496Y-141004707D01*
X205433402Y-141591800D01*
X198107300Y-141591800D01*
X198047716Y-141597642D01*
X197988062Y-141602861D01*
X197984786Y-141603813D01*
X197981397Y-141604145D01*
X197924069Y-141621453D01*
X197866579Y-141638156D01*
X197863556Y-141639723D01*
X197860290Y-141640709D01*
X197807339Y-141668864D01*
X197754265Y-141696375D01*
X197751607Y-141698497D01*
X197748592Y-141700100D01*
X197702144Y-141737982D01*
X197699493Y-141740099D01*
X197701453Y-141599702D01*
X197654993Y-141365062D01*
X197563842Y-141143915D01*
X197431474Y-140944684D01*
X197262928Y-140774957D01*
X197064626Y-140641201D01*
X196844120Y-140548509D01*
X196609810Y-140500412D01*
X196370621Y-140498742D01*
X196135662Y-140543563D01*
X195913883Y-140633167D01*
X195713733Y-140764142D01*
X195542834Y-140931498D01*
X195447247Y-141071100D01*
X193879993Y-141071100D01*
X190754500Y-137945606D01*
X190754500Y-137480214D01*
X190868300Y-137480214D01*
X190941187Y-137474402D01*
X191064811Y-137436118D01*
X191172875Y-137364908D01*
X191256822Y-137266412D01*
X191310006Y-137148429D01*
X191328214Y-137020300D01*
X191328214Y-135496300D01*
X191322402Y-135423413D01*
X191284118Y-135299789D01*
X191212908Y-135191725D01*
X191114412Y-135107778D01*
X190996429Y-135054594D01*
X190868300Y-135036386D01*
X189344300Y-135036386D01*
X189271413Y-135042198D01*
X189147789Y-135080482D01*
X189039725Y-135151692D01*
X188955778Y-135250188D01*
X188902594Y-135368171D01*
X188884386Y-135496300D01*
X187096100Y-135496300D01*
X187096100Y-133820856D01*
X191424996Y-133820856D01*
X191468176Y-134056122D01*
X191556230Y-134278520D01*
X191685804Y-134479580D01*
X191851963Y-134651643D01*
X192048378Y-134788155D01*
X192267568Y-134883917D01*
X192501184Y-134935281D01*
X192740327Y-134940290D01*
X192975889Y-134898754D01*
X193198896Y-134812255D01*
X193400856Y-134684088D01*
X193574075Y-134519134D01*
X193681746Y-134366500D01*
X197575471Y-134366500D01*
X197553997Y-134397862D01*
X197459768Y-134617715D01*
X197410036Y-134851683D01*
X197406696Y-135090856D01*
X197449876Y-135326122D01*
X197537930Y-135548520D01*
X197667504Y-135749580D01*
X197833663Y-135921643D01*
X198030078Y-136058155D01*
X198249268Y-136153917D01*
X198482884Y-136205281D01*
X198722027Y-136210290D01*
X198957589Y-136168754D01*
X199180596Y-136082255D01*
X199382556Y-135954088D01*
X199555775Y-135789134D01*
X199663446Y-135636500D01*
X200815914Y-135636500D01*
X200880604Y-135736880D01*
X201046763Y-135908943D01*
X201243178Y-136045455D01*
X201462368Y-136141217D01*
X201695984Y-136192581D01*
X201935127Y-136197590D01*
X202170689Y-136156054D01*
X202393696Y-136069555D01*
X202595656Y-135941388D01*
X202768875Y-135776434D01*
X202906755Y-135580976D01*
X203004044Y-135362460D01*
X203057038Y-135129209D01*
X203060853Y-134856002D01*
X203014393Y-134621362D01*
X202923242Y-134400215D01*
X202900842Y-134366500D01*
X203289996Y-134366500D01*
X203289996Y-134730490D01*
X203295808Y-134803377D01*
X203330632Y-134915827D01*
X203308204Y-134965581D01*
X203289996Y-135093710D01*
X203289996Y-135543290D01*
X203295808Y-135616177D01*
X203325969Y-135713571D01*
X203308204Y-135752981D01*
X203289996Y-135881110D01*
X203289996Y-136330690D01*
X203295808Y-136403577D01*
X203330632Y-136516027D01*
X203308204Y-136565781D01*
X203289996Y-136693910D01*
X203289996Y-137143490D01*
X203295808Y-137216377D01*
X203325969Y-137313771D01*
X203308204Y-137353181D01*
X203289996Y-137481310D01*
X203289996Y-137930890D01*
X203295808Y-138003777D01*
X203330632Y-138116227D01*
X203308204Y-138165981D01*
X203289996Y-138294110D01*
X203289996Y-138743690D01*
X203295808Y-138816577D01*
X203330632Y-138929027D01*
X203308204Y-138978781D01*
X203289996Y-139106910D01*
X203289996Y-139556490D01*
X203295808Y-139629377D01*
X203334092Y-139753001D01*
X203405302Y-139861065D01*
X203503798Y-139945012D01*
X203621781Y-139998196D01*
X203749910Y-140016404D01*
X205748890Y-140016404D01*
X205821777Y-140010592D01*
X205945401Y-139972308D01*
X206053465Y-139901098D01*
X206137412Y-139802602D01*
X206190596Y-139684619D01*
X206208804Y-139556490D01*
X206208804Y-139106910D01*
X206202992Y-139034023D01*
X206168168Y-138921573D01*
X206190596Y-138871819D01*
X206208804Y-138743690D01*
X206208804Y-138294110D01*
X206202992Y-138221223D01*
X206168168Y-138108773D01*
X206190596Y-138059019D01*
X206208804Y-137930890D01*
X206208804Y-137481310D01*
X206202992Y-137408423D01*
X206172831Y-137311029D01*
X206190596Y-137271619D01*
X206208804Y-137143490D01*
X206208804Y-136693910D01*
X206202992Y-136621023D01*
X206168168Y-136508573D01*
X206190596Y-136458819D01*
X206208804Y-136330690D01*
X206208804Y-135881110D01*
X206202992Y-135808223D01*
X206172831Y-135710829D01*
X206190596Y-135671419D01*
X206208804Y-135543290D01*
X206208804Y-135093710D01*
X206202992Y-135020823D01*
X206168168Y-134908373D01*
X206190596Y-134858619D01*
X206208804Y-134730490D01*
X206208804Y-134280910D01*
X206202992Y-134208023D01*
X206172831Y-134110629D01*
X206190596Y-134071219D01*
X206208804Y-133943090D01*
X206208804Y-133493510D01*
X206208399Y-133488430D01*
X212855636Y-133488430D01*
X212855636Y-133938010D01*
X212861448Y-134010897D01*
X212893940Y-134115819D01*
X212873844Y-134160401D01*
X212855636Y-134288530D01*
X212855636Y-134738110D01*
X212861448Y-134810997D01*
X212899732Y-134934621D01*
X212970942Y-135042685D01*
X213069438Y-135126632D01*
X213187421Y-135179816D01*
X213315550Y-135198024D01*
X215314530Y-135198024D01*
X215387417Y-135192212D01*
X215486525Y-135161520D01*
X219187944Y-135161520D01*
X219109015Y-135213170D01*
X218947014Y-135371813D01*
X218922989Y-135406900D01*
X214367489Y-135406900D01*
X214317524Y-135401825D01*
X214179242Y-135414896D01*
X214132548Y-135428816D01*
X213315550Y-135428816D01*
X213242663Y-135434628D01*
X213119039Y-135472912D01*
X213010975Y-135544122D01*
X212927028Y-135642618D01*
X212873844Y-135760601D01*
X212855636Y-135888730D01*
X212855636Y-136338310D01*
X212861448Y-136411197D01*
X212893940Y-136516119D01*
X212873844Y-136560701D01*
X212855636Y-136688830D01*
X212855636Y-137138410D01*
X212861448Y-137211297D01*
X212893940Y-137316219D01*
X212873844Y-137360801D01*
X212855636Y-137488930D01*
X212855636Y-137938510D01*
X212861448Y-138011397D01*
X212893940Y-138116319D01*
X212873844Y-138160901D01*
X212855636Y-138289030D01*
X212855636Y-138738610D01*
X212861448Y-138811497D01*
X212893940Y-138916419D01*
X212873844Y-138961001D01*
X212855636Y-139089130D01*
X212855636Y-139538710D01*
X212861448Y-139611597D01*
X212899732Y-139735221D01*
X212970942Y-139843285D01*
X213069438Y-139927232D01*
X213187421Y-139980416D01*
X213315550Y-139998624D01*
X215314530Y-139998624D01*
X215387417Y-139992812D01*
X215438194Y-139977087D01*
X215658200Y-140197093D01*
X215658200Y-144851060D01*
X215578415Y-144903270D01*
X215416414Y-145061913D01*
X215288312Y-145249001D01*
X215198989Y-145457408D01*
X215151846Y-145679196D01*
X215148681Y-145905916D01*
X215189612Y-146128934D01*
X215273081Y-146339754D01*
X215395910Y-146530346D01*
X215553418Y-146693451D01*
X215739608Y-146822856D01*
X215947386Y-146913632D01*
X216168839Y-146962321D01*
X216395532Y-146967070D01*
X216618829Y-146927696D01*
X216830227Y-146845701D01*
X217021672Y-146724206D01*
X217185872Y-146567840D01*
X217316574Y-146382559D01*
X217408798Y-146175419D01*
X217459033Y-145954311D01*
X217462649Y-145695329D01*
X217418608Y-145472905D01*
X217332203Y-145263271D01*
X217206726Y-145074412D01*
X217046955Y-144913522D01*
X216954600Y-144851228D01*
X216954600Y-143436594D01*
X219120541Y-145602534D01*
X219101546Y-145691896D01*
X219098381Y-145918616D01*
X219139312Y-146141634D01*
X219222781Y-146352454D01*
X219345610Y-146543046D01*
X219503118Y-146706151D01*
X219689308Y-146835556D01*
X219897086Y-146926332D01*
X220118539Y-146975021D01*
X220345232Y-146979770D01*
X220568529Y-146940396D01*
X220779927Y-146858401D01*
X220971372Y-146736906D01*
X221135572Y-146580540D01*
X221266274Y-146395259D01*
X221358498Y-146188119D01*
X221408733Y-145967011D01*
X221412349Y-145708029D01*
X221368308Y-145485605D01*
X221281903Y-145275971D01*
X221156426Y-145087112D01*
X220996655Y-144926222D01*
X220808677Y-144799430D01*
X220599652Y-144711563D01*
X220377541Y-144665970D01*
X220150804Y-144664387D01*
X220037411Y-144686018D01*
X219573093Y-144221700D01*
X221702106Y-144221700D01*
X223082941Y-145602534D01*
X223063946Y-145691896D01*
X223060781Y-145918616D01*
X223101712Y-146141634D01*
X223185181Y-146352454D01*
X223308010Y-146543046D01*
X223465518Y-146706151D01*
X223651708Y-146835556D01*
X223859486Y-146926332D01*
X224080939Y-146975021D01*
X224307632Y-146979770D01*
X224530929Y-146940396D01*
X224742327Y-146858401D01*
X224933772Y-146736906D01*
X225097972Y-146580540D01*
X225228674Y-146395259D01*
X225320898Y-146188119D01*
X225371133Y-145967011D01*
X225374749Y-145708029D01*
X225330708Y-145485605D01*
X225244303Y-145275971D01*
X225118826Y-145087112D01*
X224959055Y-144926222D01*
X224771077Y-144799430D01*
X224562052Y-144711563D01*
X224339941Y-144665970D01*
X224113204Y-144664387D01*
X223999811Y-144686018D01*
X222900492Y-143586698D01*
X225905804Y-143586698D01*
X227336439Y-145017332D01*
X227290914Y-145061913D01*
X227162812Y-145249001D01*
X227073489Y-145457408D01*
X227026346Y-145679196D01*
X227023181Y-145905916D01*
X227064112Y-146128934D01*
X227147581Y-146339754D01*
X227270410Y-146530346D01*
X227427918Y-146693451D01*
X227614108Y-146822856D01*
X227821886Y-146913632D01*
X228043339Y-146962321D01*
X228270032Y-146967070D01*
X228493329Y-146927696D01*
X228704727Y-146845701D01*
X228896172Y-146724206D01*
X229060372Y-146567840D01*
X229191074Y-146382559D01*
X229283298Y-146175419D01*
X229333533Y-145954311D01*
X229337149Y-145695329D01*
X229293108Y-145472905D01*
X229206703Y-145263271D01*
X229081226Y-145074412D01*
X228921455Y-144913522D01*
X228819704Y-144844890D01*
X228818039Y-144825863D01*
X228817087Y-144822588D01*
X228816755Y-144819197D01*
X228799457Y-144761903D01*
X228782745Y-144704379D01*
X228781176Y-144701352D01*
X228780191Y-144698090D01*
X228752076Y-144645214D01*
X228724526Y-144592065D01*
X228722401Y-144589403D01*
X228720800Y-144586392D01*
X228682965Y-144540002D01*
X228645602Y-144493197D01*
X228640925Y-144488455D01*
X228640844Y-144488356D01*
X228640752Y-144488280D01*
X228639247Y-144486754D01*
X226632645Y-142480151D01*
X226586380Y-142442149D01*
X226540510Y-142403659D01*
X226537520Y-142402016D01*
X226534889Y-142399854D01*
X226482159Y-142371580D01*
X226429651Y-142342714D01*
X226426400Y-142341683D01*
X226423398Y-142340073D01*
X226366120Y-142322561D01*
X226309066Y-142304463D01*
X226305683Y-142304083D01*
X226302420Y-142303086D01*
X226242831Y-142297033D01*
X226183348Y-142290361D01*
X226176685Y-142290315D01*
X226176561Y-142290302D01*
X226176445Y-142290313D01*
X226174298Y-142290298D01*
X220384894Y-142290298D01*
X218948500Y-140853904D01*
X218948500Y-139128500D01*
X218942658Y-139068916D01*
X218937439Y-139009262D01*
X218936487Y-139005986D01*
X218936155Y-139002597D01*
X218918861Y-138945315D01*
X218902145Y-138887779D01*
X218900576Y-138884752D01*
X218899591Y-138881490D01*
X218871476Y-138828614D01*
X218843926Y-138775465D01*
X218841801Y-138772803D01*
X218840200Y-138769792D01*
X218802340Y-138723371D01*
X218765001Y-138676597D01*
X218760326Y-138671856D01*
X218760244Y-138671756D01*
X218760151Y-138671679D01*
X218758646Y-138670153D01*
X216918794Y-136830300D01*
X218920100Y-136830300D01*
X218926510Y-136840246D01*
X219084018Y-137003351D01*
X219270208Y-137132756D01*
X219477986Y-137223532D01*
X219699439Y-137272221D01*
X219926132Y-137276970D01*
X220149429Y-137237596D01*
X220360827Y-137155601D01*
X220552272Y-137034106D01*
X220716472Y-136877740D01*
X220847174Y-136692459D01*
X220939398Y-136485319D01*
X220989633Y-136264211D01*
X220993249Y-136005229D01*
X220949208Y-135782805D01*
X220862803Y-135573171D01*
X220737326Y-135384312D01*
X220577555Y-135223422D01*
X220485781Y-135161520D01*
X223551226Y-135161520D01*
X224812132Y-136422425D01*
X224791164Y-136521073D01*
X224787963Y-136750284D01*
X224829344Y-136975752D01*
X224913731Y-137188887D01*
X225037908Y-137381573D01*
X225197147Y-137546469D01*
X225385382Y-137677296D01*
X225595442Y-137769069D01*
X225819328Y-137818294D01*
X226048511Y-137823094D01*
X226274261Y-137783288D01*
X226487981Y-137700392D01*
X226681529Y-137577563D01*
X226847533Y-137419479D01*
X226931675Y-137300200D01*
X229394777Y-137300200D01*
X229442110Y-137373646D01*
X229599618Y-137536751D01*
X229785808Y-137666156D01*
X229993586Y-137756932D01*
X230215039Y-137805621D01*
X230441732Y-137810370D01*
X230665029Y-137770996D01*
X230876427Y-137689001D01*
X231067872Y-137567506D01*
X231232072Y-137411140D01*
X231362774Y-137225859D01*
X231454998Y-137018719D01*
X231505233Y-136797611D01*
X231508849Y-136538629D01*
X231464808Y-136316205D01*
X231378403Y-136106571D01*
X231252926Y-135917712D01*
X231093155Y-135756822D01*
X230905177Y-135630030D01*
X230696152Y-135542163D01*
X230474041Y-135496570D01*
X230247304Y-135494987D01*
X230024577Y-135537475D01*
X229814345Y-135622414D01*
X229624615Y-135746570D01*
X229462614Y-135905213D01*
X229395110Y-136003800D01*
X226931171Y-136003800D01*
X226868616Y-135909646D01*
X226707090Y-135746989D01*
X226517047Y-135618803D01*
X226305726Y-135529972D01*
X226081175Y-135483878D01*
X225851947Y-135482278D01*
X225728853Y-135505759D01*
X224335094Y-134112000D01*
X225728721Y-132718373D01*
X225819328Y-132738294D01*
X226048511Y-132743094D01*
X226274261Y-132703288D01*
X226487981Y-132620392D01*
X226681529Y-132497563D01*
X226847533Y-132339479D01*
X226931675Y-132220200D01*
X229373892Y-132220200D01*
X229429410Y-132306346D01*
X229586918Y-132469451D01*
X229773108Y-132598856D01*
X229980886Y-132689632D01*
X230202339Y-132738321D01*
X230429032Y-132743070D01*
X230652329Y-132703696D01*
X230863727Y-132621701D01*
X231055172Y-132500206D01*
X231219372Y-132343840D01*
X231350074Y-132158559D01*
X231442298Y-131951419D01*
X231492533Y-131730311D01*
X231496149Y-131471329D01*
X231452108Y-131248905D01*
X231365703Y-131039271D01*
X231240226Y-130850412D01*
X231080455Y-130689522D01*
X230892477Y-130562730D01*
X230683452Y-130474863D01*
X230461341Y-130429270D01*
X230234604Y-130427687D01*
X230011877Y-130470175D01*
X229801645Y-130555114D01*
X229611915Y-130679270D01*
X229449914Y-130837913D01*
X229391106Y-130923800D01*
X226931171Y-130923800D01*
X226868616Y-130829646D01*
X226707090Y-130666989D01*
X226517047Y-130538803D01*
X226305726Y-130449972D01*
X226081175Y-130403878D01*
X225851947Y-130402278D01*
X225626774Y-130445232D01*
X225414233Y-130531104D01*
X225222419Y-130656624D01*
X225058638Y-130817010D01*
X224929129Y-131006153D01*
X224838824Y-131216850D01*
X224791164Y-131441073D01*
X224787963Y-131670284D01*
X224812071Y-131801636D01*
X223548686Y-133065020D01*
X215483247Y-133065020D01*
X215442659Y-133046724D01*
X215314530Y-133028516D01*
X213315550Y-133028516D01*
X213242663Y-133034328D01*
X213119039Y-133072612D01*
X213010975Y-133143822D01*
X212927028Y-133242318D01*
X212873844Y-133360301D01*
X212855636Y-133488430D01*
X206208399Y-133488430D01*
X206202992Y-133420623D01*
X206164708Y-133296999D01*
X206093498Y-133188935D01*
X205995002Y-133104988D01*
X205877019Y-133051804D01*
X205748890Y-133033596D01*
X203749910Y-133033596D01*
X203677023Y-133039408D01*
X203577915Y-133070100D01*
X199849914Y-133070100D01*
X199849914Y-132359900D01*
X206040816Y-132359900D01*
X206040816Y-132711190D01*
X206046628Y-132784077D01*
X206084912Y-132907701D01*
X206156122Y-133015765D01*
X206254618Y-133099712D01*
X206372601Y-133152896D01*
X206500730Y-133171104D01*
X206950310Y-133171104D01*
X207023197Y-133165292D01*
X207126614Y-133133266D01*
X207170161Y-133152896D01*
X207298290Y-133171104D01*
X207747870Y-133171104D01*
X207820757Y-133165292D01*
X207927185Y-133132333D01*
X207972801Y-133152896D01*
X208100930Y-133171104D01*
X208550510Y-133171104D01*
X208623397Y-133165292D01*
X208747021Y-133127008D01*
X208855085Y-133055798D01*
X208939032Y-132957302D01*
X208992216Y-132839319D01*
X209010424Y-132711190D01*
X209010424Y-130712210D01*
X209004612Y-130639323D01*
X209001748Y-130630075D01*
X209032210Y-130624704D01*
X209241216Y-130833710D01*
X209241216Y-132711190D01*
X209247028Y-132784077D01*
X209285312Y-132907701D01*
X209356522Y-133015765D01*
X209455018Y-133099712D01*
X209573001Y-133152896D01*
X209701130Y-133171104D01*
X210150710Y-133171104D01*
X210223597Y-133165292D01*
X210327014Y-133133266D01*
X210370561Y-133152896D01*
X210498690Y-133171104D01*
X210948270Y-133171104D01*
X211021157Y-133165292D01*
X211127585Y-133132333D01*
X211173201Y-133152896D01*
X211301330Y-133171104D01*
X211750910Y-133171104D01*
X211823797Y-133165292D01*
X211927214Y-133133266D01*
X211970761Y-133152896D01*
X212098890Y-133171104D01*
X212548470Y-133171104D01*
X212621357Y-133165292D01*
X212744981Y-133127008D01*
X212853045Y-133055798D01*
X212936992Y-132957302D01*
X212990176Y-132839319D01*
X213008384Y-132711190D01*
X213008384Y-132448800D01*
X214463052Y-132448800D01*
X214495004Y-132498380D01*
X214661163Y-132670443D01*
X214857578Y-132806955D01*
X215076768Y-132902717D01*
X215310384Y-132954081D01*
X215549527Y-132959090D01*
X215785089Y-132917554D01*
X216008096Y-132831055D01*
X216210056Y-132702888D01*
X216383275Y-132537934D01*
X216521155Y-132342476D01*
X216618444Y-132123960D01*
X216671438Y-131890709D01*
X216675253Y-131617502D01*
X216628793Y-131382862D01*
X216537642Y-131161715D01*
X216405274Y-130962484D01*
X216236728Y-130792757D01*
X216038426Y-130659001D01*
X215817920Y-130566309D01*
X215583610Y-130518212D01*
X215344421Y-130516542D01*
X215109462Y-130561363D01*
X214887683Y-130650967D01*
X214687533Y-130781942D01*
X214516634Y-130949298D01*
X214464526Y-131025400D01*
X213008384Y-131025400D01*
X213008384Y-130712210D01*
X213002572Y-130639323D01*
X212964288Y-130515699D01*
X212893078Y-130407635D01*
X212794582Y-130323688D01*
X212696238Y-130279357D01*
X212715472Y-130261040D01*
X212846174Y-130075759D01*
X212938398Y-129868619D01*
X212988633Y-129647511D01*
X212992249Y-129388529D01*
X212948208Y-129166105D01*
X212861803Y-128956471D01*
X212736326Y-128767612D01*
X212576555Y-128606722D01*
X212388577Y-128479930D01*
X212179552Y-128392063D01*
X211957441Y-128346470D01*
X211730704Y-128344887D01*
X211507977Y-128387375D01*
X211297745Y-128472314D01*
X211108015Y-128596470D01*
X210946014Y-128755113D01*
X210817912Y-128942201D01*
X210728589Y-129150608D01*
X210681446Y-129372396D01*
X210678281Y-129599116D01*
X210700582Y-129720624D01*
X210331050Y-130090156D01*
X209949310Y-129708416D01*
X209966033Y-129634811D01*
X209969649Y-129375829D01*
X209925608Y-129153405D01*
X209839203Y-128943771D01*
X209713726Y-128754912D01*
X209553955Y-128594022D01*
X209365977Y-128467230D01*
X209156952Y-128379363D01*
X208934841Y-128333770D01*
X208708104Y-128332187D01*
X208485377Y-128374675D01*
X208275145Y-128459614D01*
X208085415Y-128583770D01*
X207923414Y-128742413D01*
X207795312Y-128929501D01*
X207712533Y-129122639D01*
X207633447Y-129043553D01*
X207587182Y-129005551D01*
X207541312Y-128967061D01*
X207538322Y-128965418D01*
X207535691Y-128963256D01*
X207482961Y-128934982D01*
X207430453Y-128906116D01*
X207427202Y-128905085D01*
X207424200Y-128903475D01*
X207366922Y-128885963D01*
X207309868Y-128867865D01*
X207306485Y-128867485D01*
X207303222Y-128866488D01*
X207243633Y-128860435D01*
X207184150Y-128853763D01*
X207177487Y-128853717D01*
X207177363Y-128853704D01*
X207177247Y-128853715D01*
X207175100Y-128853700D01*
X205059222Y-128853700D01*
X205002026Y-128767612D01*
X204842255Y-128606722D01*
X204654277Y-128479930D01*
X204445252Y-128392063D01*
X204223141Y-128346470D01*
X203996404Y-128344887D01*
X203773677Y-128387375D01*
X203563445Y-128472314D01*
X203373715Y-128596470D01*
X203211714Y-128755113D01*
X203083612Y-128942201D01*
X202994289Y-129150608D01*
X202947146Y-129372396D01*
X202943981Y-129599116D01*
X202984912Y-129822134D01*
X203068381Y-130032954D01*
X203191210Y-130223546D01*
X203348718Y-130386651D01*
X203534908Y-130516056D01*
X203742686Y-130606832D01*
X203964139Y-130655521D01*
X204190832Y-130660270D01*
X204414129Y-130620896D01*
X204625527Y-130538901D01*
X204816972Y-130417406D01*
X204981172Y-130261040D01*
X205059432Y-130150100D01*
X206906606Y-130150100D01*
X207018491Y-130261985D01*
X206950310Y-130252296D01*
X206500730Y-130252296D01*
X206427843Y-130258108D01*
X206304219Y-130296392D01*
X206196155Y-130367602D01*
X206112208Y-130466098D01*
X206059024Y-130584081D01*
X206040816Y-130712210D01*
X206040816Y-131063500D01*
X199364600Y-131063500D01*
X199305053Y-131069339D01*
X199245363Y-131074561D01*
X199242088Y-131075513D01*
X199238697Y-131075845D01*
X199181403Y-131093143D01*
X199123879Y-131109855D01*
X199120852Y-131111424D01*
X199117590Y-131112409D01*
X199064714Y-131140524D01*
X199011565Y-131168074D01*
X199008903Y-131170199D01*
X199005892Y-131171800D01*
X198959502Y-131209635D01*
X198938518Y-131226386D01*
X197866000Y-131226386D01*
X197793113Y-131232198D01*
X197669489Y-131270482D01*
X197561425Y-131341692D01*
X197477478Y-131440188D01*
X197424294Y-131558171D01*
X197406086Y-131686300D01*
X197406086Y-133070100D01*
X193680064Y-133070100D01*
X193596074Y-132943684D01*
X193427528Y-132773957D01*
X193229226Y-132640201D01*
X193008720Y-132547509D01*
X192774410Y-132499412D01*
X192535221Y-132497742D01*
X192300262Y-132542563D01*
X192078483Y-132632167D01*
X191878333Y-132763142D01*
X191707434Y-132930498D01*
X191572297Y-133127862D01*
X191478068Y-133347715D01*
X191428336Y-133581683D01*
X191424996Y-133820856D01*
X187096100Y-133820856D01*
X187096100Y-127046416D01*
X207655681Y-127046416D01*
X207696612Y-127269434D01*
X207780081Y-127480254D01*
X207902910Y-127670846D01*
X208060418Y-127833951D01*
X208246608Y-127963356D01*
X208454386Y-128054132D01*
X208675839Y-128102821D01*
X208902532Y-128107570D01*
X209125829Y-128068196D01*
X209337227Y-127986201D01*
X209528672Y-127864706D01*
X209692872Y-127708340D01*
X209823574Y-127523059D01*
X209915798Y-127315919D01*
X209966033Y-127094811D01*
X209969649Y-126835829D01*
X209929174Y-126631417D01*
X209942735Y-126588668D01*
X209943115Y-126585285D01*
X209944112Y-126582022D01*
X209950165Y-126522433D01*
X209956837Y-126462950D01*
X209956883Y-126456287D01*
X209956896Y-126456163D01*
X209956885Y-126456047D01*
X209956900Y-126453900D01*
X209956900Y-124082744D01*
X210056184Y-124019736D01*
X210227780Y-123856328D01*
X210325334Y-123718037D01*
X210389205Y-123817145D01*
X210553807Y-123987596D01*
X210692500Y-124083990D01*
X210692500Y-126466600D01*
X210698343Y-126526192D01*
X210703561Y-126585837D01*
X210704513Y-126589112D01*
X210704845Y-126592503D01*
X210721037Y-126646135D01*
X210681446Y-126832396D01*
X210678281Y-127059116D01*
X210719212Y-127282134D01*
X210802681Y-127492954D01*
X210925510Y-127683546D01*
X211083018Y-127846651D01*
X211269208Y-127976056D01*
X211476986Y-128066832D01*
X211698439Y-128115521D01*
X211925132Y-128120270D01*
X212148429Y-128080896D01*
X212359827Y-127998901D01*
X212551272Y-127877406D01*
X212715472Y-127721040D01*
X212846174Y-127535759D01*
X212938398Y-127328619D01*
X212988633Y-127107511D01*
X212992249Y-126848529D01*
X212948208Y-126626105D01*
X212861803Y-126416471D01*
X212736326Y-126227612D01*
X212576555Y-126066722D01*
X212388577Y-125939930D01*
X212179552Y-125852063D01*
X211988900Y-125812928D01*
X211988900Y-124082744D01*
X212088184Y-124019736D01*
X212259780Y-123856328D01*
X212396368Y-123662703D01*
X212492746Y-123446235D01*
X212545242Y-123215169D01*
X212545948Y-123164595D01*
X212670842Y-123164595D01*
X212713617Y-123397656D01*
X212800845Y-123617970D01*
X212929205Y-123817145D01*
X213093807Y-123987596D01*
X213288382Y-124122829D01*
X213505518Y-124217693D01*
X213736944Y-124268575D01*
X213973846Y-124273538D01*
X214207200Y-124232391D01*
X214428118Y-124146703D01*
X214628184Y-124019736D01*
X214799780Y-123856328D01*
X214936368Y-123662703D01*
X215032746Y-123446235D01*
X215085242Y-123215169D01*
X215089022Y-122944523D01*
X215042997Y-122712082D01*
X214952701Y-122493007D01*
X214821573Y-122295643D01*
X214654607Y-122127508D01*
X214458163Y-121995005D01*
X214239724Y-121903181D01*
X214007610Y-121855535D01*
X213770662Y-121853881D01*
X213537905Y-121898282D01*
X213318205Y-121987046D01*
X213119930Y-122116793D01*
X212950633Y-122282581D01*
X212816762Y-122478095D01*
X212723416Y-122695888D01*
X212674150Y-122927664D01*
X212670842Y-123164595D01*
X212545948Y-123164595D01*
X212549022Y-122944523D01*
X212502997Y-122712082D01*
X212412701Y-122493007D01*
X212281573Y-122295643D01*
X212114607Y-122127508D01*
X211918163Y-121995005D01*
X211699724Y-121903181D01*
X211467610Y-121855535D01*
X211230662Y-121853881D01*
X210997905Y-121898282D01*
X210778205Y-121987046D01*
X210579930Y-122116793D01*
X210410633Y-122282581D01*
X210324486Y-122408396D01*
X210249573Y-122295643D01*
X210082607Y-122127508D01*
X209886163Y-121995005D01*
X209667724Y-121903181D01*
X209435610Y-121855535D01*
X209198662Y-121853881D01*
X208965905Y-121898282D01*
X208746205Y-121987046D01*
X208547930Y-122116793D01*
X208378633Y-122282581D01*
X208244762Y-122478095D01*
X208151416Y-122695888D01*
X208102150Y-122927664D01*
X208098842Y-123164595D01*
X208141617Y-123397656D01*
X208228845Y-123617970D01*
X208357205Y-123817145D01*
X208521807Y-123987596D01*
X208660500Y-124083990D01*
X208660500Y-125801268D01*
X208485377Y-125834675D01*
X208275145Y-125919614D01*
X208085415Y-126043770D01*
X207923414Y-126202413D01*
X207795312Y-126389501D01*
X207705989Y-126597908D01*
X207658846Y-126819696D01*
X207655681Y-127046416D01*
X187096100Y-127046416D01*
X187096100Y-120560598D01*
X201760557Y-120560598D01*
X201829858Y-120938190D01*
X201971181Y-121295131D01*
X202179142Y-121617824D01*
X202445821Y-121893978D01*
X202761060Y-122113074D01*
X203112851Y-122266768D01*
X203487794Y-122349205D01*
X203871610Y-122357245D01*
X204249677Y-122290581D01*
X204607595Y-122151754D01*
X204609774Y-122150371D01*
X209204597Y-121107700D01*
X211531173Y-121107700D01*
X216639743Y-122184149D01*
X216828851Y-122266768D01*
X217203794Y-122349205D01*
X217587610Y-122357245D01*
X217880700Y-122305565D01*
X217880700Y-126045813D01*
X217864415Y-126056470D01*
X217702414Y-126215113D01*
X217678389Y-126250200D01*
X216256533Y-126250200D01*
X216241526Y-126227612D01*
X216081755Y-126066722D01*
X215893777Y-125939930D01*
X215684752Y-125852063D01*
X215462641Y-125806470D01*
X215235904Y-125804887D01*
X215013177Y-125847375D01*
X214802945Y-125932314D01*
X214613215Y-126056470D01*
X214451214Y-126215113D01*
X214323112Y-126402201D01*
X214233789Y-126610608D01*
X214186646Y-126832396D01*
X214183481Y-127059116D01*
X214224412Y-127282134D01*
X214307881Y-127492954D01*
X214430710Y-127683546D01*
X214588218Y-127846651D01*
X214774408Y-127976056D01*
X214982186Y-128066832D01*
X215203639Y-128115521D01*
X215430332Y-128120270D01*
X215653629Y-128080896D01*
X215865027Y-127998901D01*
X216056472Y-127877406D01*
X216220672Y-127721040D01*
X216254137Y-127673600D01*
X217675500Y-127673600D01*
X217681910Y-127683546D01*
X217839418Y-127846651D01*
X218025608Y-127976056D01*
X218233386Y-128066832D01*
X218454839Y-128115521D01*
X218681532Y-128120270D01*
X218904829Y-128080896D01*
X219116227Y-127998901D01*
X219307672Y-127877406D01*
X219471872Y-127721040D01*
X219602574Y-127535759D01*
X219694798Y-127328619D01*
X219745033Y-127107511D01*
X219748649Y-126848529D01*
X219704608Y-126626105D01*
X219618203Y-126416471D01*
X219492726Y-126227612D01*
X219332955Y-126066722D01*
X219304100Y-126047259D01*
X219304100Y-121551700D01*
X219297683Y-121486256D01*
X219291955Y-121420782D01*
X219290911Y-121417190D01*
X219290546Y-121413463D01*
X219271553Y-121350557D01*
X219253204Y-121287397D01*
X219251479Y-121284069D01*
X219250399Y-121280492D01*
X219219575Y-121222521D01*
X219215300Y-121214273D01*
X219303179Y-121016895D01*
X219388231Y-120642536D01*
X219394354Y-120204050D01*
X219319788Y-119827462D01*
X219173495Y-119472530D01*
X218961048Y-119152772D01*
X218690540Y-118880368D01*
X218372273Y-118665694D01*
X218018370Y-118516927D01*
X217642312Y-118439734D01*
X217258422Y-118437054D01*
X216881322Y-118508989D01*
X216633234Y-118609223D01*
X211531173Y-119684300D01*
X209204597Y-119684300D01*
X204586413Y-118636328D01*
X204302370Y-118516927D01*
X203926312Y-118439734D01*
X203542422Y-118437054D01*
X203165322Y-118508989D01*
X202809377Y-118652800D01*
X202488144Y-118863009D01*
X202213858Y-119131610D01*
X201996968Y-119448370D01*
X201845734Y-119801226D01*
X201765917Y-120176736D01*
X201760557Y-120560598D01*
X187096100Y-120560598D01*
X187096100Y-112128000D01*
X233591400Y-112128000D01*
X233591400Y-155994400D01*
M02*
