M48
;DRILL file {KiCad 4.0.7} date 08/25/20 08:51:05
;FORMAT={-:-/ absolute / inch / decimal}
FMAT,2
INCH,TZ
T1C0.025
T2C0.030
T3C0.032
T4C0.039
T5C0.040
T6C0.091
%
G90
G05
M72
T1
X7.7355Y-5.5795
X7.8165Y-5.6605
X7.9465Y-5.314
X8.4825Y-5.1865
T2
X8.896Y-5.18
X8.896Y-5.38
T3
X7.581Y-5.741
X7.581Y-5.841
X7.7365Y-5.7405
X7.7365Y-5.8405
X7.892Y-5.7405
X7.892Y-5.8405
X8.0355Y-4.9985
X8.0355Y-5.0985
X8.0485Y-5.741
X8.0485Y-5.841
X8.204Y-5.741
X8.204Y-5.841
X8.221Y-4.998
X8.221Y-5.098
X8.34Y-4.9985
X8.34Y-5.0985
X8.36Y-5.741
X8.36Y-5.841
X8.478Y-4.9985
X8.478Y-5.0985
X8.516Y-5.7405
X8.516Y-5.8405
X8.606Y-4.9985
X8.606Y-5.0985
X8.655Y-5.359
X8.655Y-5.459
X8.6715Y-5.741
X8.6715Y-5.841
X8.8275Y-5.741
X8.8275Y-5.841
X8.9835Y-5.7405
X8.9835Y-5.8405
X9.0685Y-5.0805
X9.0685Y-5.1805
X9.069Y-5.38
X9.069Y-5.48
T4
X8.1405Y-4.845
X8.2405Y-4.845
X8.3205Y-4.845
X8.4205Y-4.845
T5
X7.4845Y-5.2645
X7.4845Y-5.3645
X7.5845Y-5.2645
X7.5845Y-5.3645
X7.82Y-5.2145
X7.82Y-5.3145
T6
X8.0205Y-4.74
X8.5605Y-4.74
T0
M30
