G04 #@! TF.FileFunction,Legend,Top*
%FSLAX46Y46*%
G04 Gerber Fmt 4.6, Leading zero omitted, Abs format (unit mm)*
G04 Created by KiCad (PCBNEW 4.0.7) date 08/25/20 08:50:58*
%MOMM*%
%LPD*%
G01*
G04 APERTURE LIST*
%ADD10C,0.150000*%
%ADD11C,0.127000*%
%ADD12C,0.317500*%
%ADD13C,0.304800*%
%ADD14C,0.381000*%
%ADD15C,0.152400*%
%ADD16C,0.203200*%
%ADD17R,2.000000X5.000000*%
%ADD18C,1.501140*%
%ADD19C,2.999740*%
%ADD20C,1.422400*%
%ADD21C,1.397000*%
%ADD22R,1.524000X1.524000*%
%ADD23C,1.524000*%
%ADD24C,0.254000*%
G04 APERTURE END LIST*
D10*
D11*
X202831700Y-124206000D02*
X202831700Y-110109000D01*
X217817700Y-110109000D02*
X217817700Y-124206000D01*
X202831700Y-124206000D02*
X217817700Y-124206000D01*
X202831700Y-110109000D02*
X217817700Y-110109000D01*
D12*
X228498400Y-137287000D02*
X228498400Y-130937000D01*
X223418400Y-137287000D02*
X223418400Y-130937000D01*
X225958400Y-128397000D02*
G75*
G03X223418400Y-130937000I0J-2540000D01*
G01*
X228498400Y-130937000D02*
G75*
G03X225958400Y-128397000I-2540000J0D01*
G01*
X223418400Y-137287000D02*
G75*
G03X225958400Y-139827000I2540000J0D01*
G01*
X225958400Y-139827000D02*
G75*
G03X228498400Y-137287000I0J2540000D01*
G01*
D13*
X202831700Y-130721100D02*
X202831700Y-125691900D01*
X202831700Y-125691900D02*
X205371700Y-125691900D01*
X205371700Y-125691900D02*
X205371700Y-130771900D01*
X205371700Y-130771900D02*
X202831700Y-130771900D01*
X203466700Y-130771900D02*
X202831700Y-130136900D01*
X231609900Y-127825500D02*
X231609900Y-132854700D01*
X231609900Y-132854700D02*
X229069900Y-132854700D01*
X229069900Y-132854700D02*
X229069900Y-127774700D01*
X229069900Y-127774700D02*
X231609900Y-127774700D01*
X230974900Y-127774700D02*
X231609900Y-128409700D01*
X229082600Y-140411200D02*
X229082600Y-135382000D01*
X229082600Y-135382000D02*
X231622600Y-135382000D01*
X231622600Y-135382000D02*
X231622600Y-140462000D01*
X231622600Y-140462000D02*
X229082600Y-140462000D01*
X229717600Y-140462000D02*
X229082600Y-139827000D01*
X221107000Y-134899400D02*
X221107000Y-139928600D01*
X221107000Y-139928600D02*
X218567000Y-139928600D01*
X218567000Y-139928600D02*
X218567000Y-134848600D01*
X218567000Y-134848600D02*
X221107000Y-134848600D01*
X220472000Y-134848600D02*
X221107000Y-135483600D01*
X216611200Y-125742700D02*
X216611200Y-130771900D01*
X216611200Y-130771900D02*
X214071200Y-130771900D01*
X214071200Y-130771900D02*
X214071200Y-125691900D01*
X214071200Y-125691900D02*
X216611200Y-125691900D01*
X215976200Y-125691900D02*
X216611200Y-126326900D01*
D14*
X208813400Y-126949200D02*
X208813400Y-129489200D01*
X210233303Y-126949200D02*
G75*
G03X210233303Y-126949200I-1419903J0D01*
G01*
X211836000Y-126961900D02*
X211836000Y-129501900D01*
X213255903Y-126961900D02*
G75*
G03X213255903Y-126961900I-1419903J0D01*
G01*
X218592400Y-126961900D02*
X218592400Y-129501900D01*
X220012303Y-126961900D02*
G75*
G03X220012303Y-126961900I-1419903J0D01*
G01*
D13*
X188836300Y-132448300D02*
X193916300Y-132448300D01*
X193916300Y-132448300D02*
X193916300Y-137528300D01*
X193916300Y-137528300D02*
X188836300Y-137528300D01*
X188836300Y-137528300D02*
X188836300Y-132448300D01*
D14*
X224218500Y-145821400D02*
X224218500Y-148361400D01*
X225638403Y-145821400D02*
G75*
G03X225638403Y-145821400I-1419903J0D01*
G01*
X220256100Y-145821400D02*
X220256100Y-148361400D01*
X221676003Y-145821400D02*
G75*
G03X221676003Y-145821400I-1419903J0D01*
G01*
X216306400Y-145808700D02*
X216306400Y-148348700D01*
X217726303Y-145808700D02*
G75*
G03X217726303Y-145808700I-1419903J0D01*
G01*
X212344000Y-145821400D02*
X212344000Y-148361400D01*
X213763903Y-145821400D02*
G75*
G03X213763903Y-145821400I-1419903J0D01*
G01*
X208381600Y-145821400D02*
X208381600Y-148361400D01*
X209801503Y-145821400D02*
G75*
G03X209801503Y-145821400I-1419903J0D01*
G01*
X204431900Y-145821400D02*
X204431900Y-148361400D01*
X205851803Y-145821400D02*
G75*
G03X205851803Y-145821400I-1419903J0D01*
G01*
X200456800Y-145808700D02*
X200456800Y-148348700D01*
X201876703Y-145808700D02*
G75*
G03X201876703Y-145808700I-1419903J0D01*
G01*
X196507100Y-145808700D02*
X196507100Y-148348700D01*
X197927003Y-145808700D02*
G75*
G03X197927003Y-145808700I-1419903J0D01*
G01*
X228180900Y-145808700D02*
X228180900Y-148348700D01*
X229600803Y-145808700D02*
G75*
G03X229600803Y-145808700I-1419903J0D01*
G01*
X192557400Y-145821400D02*
X192557400Y-148361400D01*
X193977303Y-145821400D02*
G75*
G03X193977303Y-145821400I-1419903J0D01*
G01*
D15*
X197358000Y-131178300D02*
X199898000Y-131178300D01*
X199898000Y-131178300D02*
X199898000Y-136258300D01*
X199898000Y-136258300D02*
X197358000Y-136258300D01*
X197358000Y-136258300D02*
X197358000Y-131178300D01*
D13*
X209123643Y-113960729D02*
X209123643Y-112436729D01*
X209704215Y-112436729D01*
X209849357Y-112509300D01*
X209921929Y-112581871D01*
X209994500Y-112727014D01*
X209994500Y-112944729D01*
X209921929Y-113089871D01*
X209849357Y-113162443D01*
X209704215Y-113235014D01*
X209123643Y-113235014D01*
X211445929Y-113960729D02*
X210575072Y-113960729D01*
X211010500Y-113960729D02*
X211010500Y-112436729D01*
X210865357Y-112654443D01*
X210720215Y-112799586D01*
X210575072Y-112872157D01*
X224737385Y-126419429D02*
X225753385Y-127943429D01*
X225753385Y-126419429D02*
X224737385Y-127943429D01*
X227132243Y-127943429D02*
X226261386Y-127943429D01*
X226696814Y-127943429D02*
X226696814Y-126419429D01*
X226551671Y-126637143D01*
X226406529Y-126782286D01*
X226261386Y-126854857D01*
D16*
X203945067Y-128582057D02*
X203896686Y-128630438D01*
X203751543Y-128678819D01*
X203654781Y-128678819D01*
X203509639Y-128630438D01*
X203412877Y-128533676D01*
X203364496Y-128436914D01*
X203316115Y-128243390D01*
X203316115Y-128098248D01*
X203364496Y-127904724D01*
X203412877Y-127807962D01*
X203509639Y-127711200D01*
X203654781Y-127662819D01*
X203751543Y-127662819D01*
X203896686Y-127711200D01*
X203945067Y-127759581D01*
X204283734Y-127662819D02*
X204912686Y-127662819D01*
X204574020Y-128049867D01*
X204719162Y-128049867D01*
X204815924Y-128098248D01*
X204864305Y-128146629D01*
X204912686Y-128243390D01*
X204912686Y-128485295D01*
X204864305Y-128582057D01*
X204815924Y-128630438D01*
X204719162Y-128678819D01*
X204428877Y-128678819D01*
X204332115Y-128630438D01*
X204283734Y-128582057D01*
X230170567Y-130677557D02*
X230122186Y-130725938D01*
X229977043Y-130774319D01*
X229880281Y-130774319D01*
X229735139Y-130725938D01*
X229638377Y-130629176D01*
X229589996Y-130532414D01*
X229541615Y-130338890D01*
X229541615Y-130193748D01*
X229589996Y-130000224D01*
X229638377Y-129903462D01*
X229735139Y-129806700D01*
X229880281Y-129758319D01*
X229977043Y-129758319D01*
X230122186Y-129806700D01*
X230170567Y-129855081D01*
X231138186Y-130774319D02*
X230557615Y-130774319D01*
X230847901Y-130774319D02*
X230847901Y-129758319D01*
X230751139Y-129903462D01*
X230654377Y-130000224D01*
X230557615Y-130048605D01*
X230208667Y-138272157D02*
X230160286Y-138320538D01*
X230015143Y-138368919D01*
X229918381Y-138368919D01*
X229773239Y-138320538D01*
X229676477Y-138223776D01*
X229628096Y-138127014D01*
X229579715Y-137933490D01*
X229579715Y-137788348D01*
X229628096Y-137594824D01*
X229676477Y-137498062D01*
X229773239Y-137401300D01*
X229918381Y-137352919D01*
X230015143Y-137352919D01*
X230160286Y-137401300D01*
X230208667Y-137449681D01*
X230595715Y-137449681D02*
X230644096Y-137401300D01*
X230740858Y-137352919D01*
X230982762Y-137352919D01*
X231079524Y-137401300D01*
X231127905Y-137449681D01*
X231176286Y-137546443D01*
X231176286Y-137643205D01*
X231127905Y-137788348D01*
X230547334Y-138368919D01*
X231176286Y-138368919D01*
X219667667Y-137751457D02*
X219619286Y-137799838D01*
X219474143Y-137848219D01*
X219377381Y-137848219D01*
X219232239Y-137799838D01*
X219135477Y-137703076D01*
X219087096Y-137606314D01*
X219038715Y-137412790D01*
X219038715Y-137267648D01*
X219087096Y-137074124D01*
X219135477Y-136977362D01*
X219232239Y-136880600D01*
X219377381Y-136832219D01*
X219474143Y-136832219D01*
X219619286Y-136880600D01*
X219667667Y-136928981D01*
X220538524Y-137170886D02*
X220538524Y-137848219D01*
X220296620Y-136783838D02*
X220054715Y-137509552D01*
X220683667Y-137509552D01*
X215184567Y-128594757D02*
X215136186Y-128643138D01*
X214991043Y-128691519D01*
X214894281Y-128691519D01*
X214749139Y-128643138D01*
X214652377Y-128546376D01*
X214603996Y-128449614D01*
X214555615Y-128256090D01*
X214555615Y-128110948D01*
X214603996Y-127917424D01*
X214652377Y-127820662D01*
X214749139Y-127723900D01*
X214894281Y-127675519D01*
X214991043Y-127675519D01*
X215136186Y-127723900D01*
X215184567Y-127772281D01*
X216103805Y-127675519D02*
X215619996Y-127675519D01*
X215571615Y-128159329D01*
X215619996Y-128110948D01*
X215716758Y-128062567D01*
X215958662Y-128062567D01*
X216055424Y-128110948D01*
X216103805Y-128159329D01*
X216152186Y-128256090D01*
X216152186Y-128497995D01*
X216103805Y-128594757D01*
X216055424Y-128643138D01*
X215958662Y-128691519D01*
X215716758Y-128691519D01*
X215619996Y-128643138D01*
X215571615Y-128594757D01*
X208614433Y-132254776D02*
X208191100Y-131589538D01*
X207888719Y-132254776D02*
X207888719Y-130857776D01*
X208372528Y-130857776D01*
X208493481Y-130924300D01*
X208553957Y-130990824D01*
X208614433Y-131123871D01*
X208614433Y-131323443D01*
X208553957Y-131456490D01*
X208493481Y-131523014D01*
X208372528Y-131589538D01*
X207888719Y-131589538D01*
X209823957Y-132254776D02*
X209098243Y-132254776D01*
X209461100Y-132254776D02*
X209461100Y-130857776D01*
X209340148Y-131057348D01*
X209219195Y-131190395D01*
X209098243Y-131256919D01*
X211624333Y-132242076D02*
X211201000Y-131576838D01*
X210898619Y-132242076D02*
X210898619Y-130845076D01*
X211382428Y-130845076D01*
X211503381Y-130911600D01*
X211563857Y-130978124D01*
X211624333Y-131111171D01*
X211624333Y-131310743D01*
X211563857Y-131443790D01*
X211503381Y-131510314D01*
X211382428Y-131576838D01*
X210898619Y-131576838D01*
X212108143Y-130978124D02*
X212168619Y-130911600D01*
X212289571Y-130845076D01*
X212591952Y-130845076D01*
X212712905Y-130911600D01*
X212773381Y-130978124D01*
X212833857Y-131111171D01*
X212833857Y-131244219D01*
X212773381Y-131443790D01*
X212047667Y-132242076D01*
X212833857Y-132242076D01*
X220742933Y-125625376D02*
X220319600Y-124960138D01*
X220017219Y-125625376D02*
X220017219Y-124228376D01*
X220501028Y-124228376D01*
X220621981Y-124294900D01*
X220682457Y-124361424D01*
X220742933Y-124494471D01*
X220742933Y-124694043D01*
X220682457Y-124827090D01*
X220621981Y-124893614D01*
X220501028Y-124960138D01*
X220017219Y-124960138D01*
X221166267Y-124228376D02*
X221952457Y-124228376D01*
X221529124Y-124760567D01*
X221710552Y-124760567D01*
X221831505Y-124827090D01*
X221891981Y-124893614D01*
X221952457Y-125026662D01*
X221952457Y-125359281D01*
X221891981Y-125492329D01*
X221831505Y-125558852D01*
X221710552Y-125625376D01*
X221347695Y-125625376D01*
X221226743Y-125558852D01*
X221166267Y-125492329D01*
X190626396Y-135447919D02*
X190626396Y-134431919D01*
X191013443Y-134431919D01*
X191110205Y-134480300D01*
X191158586Y-134528681D01*
X191206967Y-134625443D01*
X191206967Y-134770586D01*
X191158586Y-134867348D01*
X191110205Y-134915729D01*
X191013443Y-134964110D01*
X190626396Y-134964110D01*
X191594015Y-134528681D02*
X191642396Y-134480300D01*
X191739158Y-134431919D01*
X191981062Y-134431919D01*
X192077824Y-134480300D01*
X192126205Y-134528681D01*
X192174586Y-134625443D01*
X192174586Y-134722205D01*
X192126205Y-134867348D01*
X191545634Y-135447919D01*
X192174586Y-135447919D01*
X223994133Y-144040376D02*
X223570800Y-143375138D01*
X223268419Y-144040376D02*
X223268419Y-142643376D01*
X223752228Y-142643376D01*
X223873181Y-142709900D01*
X223933657Y-142776424D01*
X223994133Y-142909471D01*
X223994133Y-143109043D01*
X223933657Y-143242090D01*
X223873181Y-143308614D01*
X223752228Y-143375138D01*
X223268419Y-143375138D01*
X225082705Y-143109043D02*
X225082705Y-144040376D01*
X224780324Y-142576852D02*
X224477943Y-143574710D01*
X225264133Y-143574710D01*
X220031733Y-144014976D02*
X219608400Y-143349738D01*
X219306019Y-144014976D02*
X219306019Y-142617976D01*
X219789828Y-142617976D01*
X219910781Y-142684500D01*
X219971257Y-142751024D01*
X220031733Y-142884071D01*
X220031733Y-143083643D01*
X219971257Y-143216690D01*
X219910781Y-143283214D01*
X219789828Y-143349738D01*
X219306019Y-143349738D01*
X221180781Y-142617976D02*
X220576019Y-142617976D01*
X220515543Y-143283214D01*
X220576019Y-143216690D01*
X220696971Y-143150167D01*
X220999352Y-143150167D01*
X221120305Y-143216690D01*
X221180781Y-143283214D01*
X221241257Y-143416262D01*
X221241257Y-143748881D01*
X221180781Y-143881929D01*
X221120305Y-143948452D01*
X220999352Y-144014976D01*
X220696971Y-144014976D01*
X220576019Y-143948452D01*
X220515543Y-143881929D01*
X216094733Y-143989576D02*
X215671400Y-143324338D01*
X215369019Y-143989576D02*
X215369019Y-142592576D01*
X215852828Y-142592576D01*
X215973781Y-142659100D01*
X216034257Y-142725624D01*
X216094733Y-142858671D01*
X216094733Y-143058243D01*
X216034257Y-143191290D01*
X215973781Y-143257814D01*
X215852828Y-143324338D01*
X215369019Y-143324338D01*
X217183305Y-142592576D02*
X216941400Y-142592576D01*
X216820448Y-142659100D01*
X216759971Y-142725624D01*
X216639019Y-142925195D01*
X216578543Y-143191290D01*
X216578543Y-143723481D01*
X216639019Y-143856529D01*
X216699495Y-143923052D01*
X216820448Y-143989576D01*
X217062352Y-143989576D01*
X217183305Y-143923052D01*
X217243781Y-143856529D01*
X217304257Y-143723481D01*
X217304257Y-143390862D01*
X217243781Y-143257814D01*
X217183305Y-143191290D01*
X217062352Y-143124767D01*
X216820448Y-143124767D01*
X216699495Y-143191290D01*
X216639019Y-143257814D01*
X216578543Y-143390862D01*
X212119633Y-144002276D02*
X211696300Y-143337038D01*
X211393919Y-144002276D02*
X211393919Y-142605276D01*
X211877728Y-142605276D01*
X211998681Y-142671800D01*
X212059157Y-142738324D01*
X212119633Y-142871371D01*
X212119633Y-143070943D01*
X212059157Y-143203990D01*
X211998681Y-143270514D01*
X211877728Y-143337038D01*
X211393919Y-143337038D01*
X212542967Y-142605276D02*
X213389633Y-142605276D01*
X212845348Y-144002276D01*
X208169933Y-143989576D02*
X207746600Y-143324338D01*
X207444219Y-143989576D02*
X207444219Y-142592576D01*
X207928028Y-142592576D01*
X208048981Y-142659100D01*
X208109457Y-142725624D01*
X208169933Y-142858671D01*
X208169933Y-143058243D01*
X208109457Y-143191290D01*
X208048981Y-143257814D01*
X207928028Y-143324338D01*
X207444219Y-143324338D01*
X208895648Y-143191290D02*
X208774695Y-143124767D01*
X208714219Y-143058243D01*
X208653743Y-142925195D01*
X208653743Y-142858671D01*
X208714219Y-142725624D01*
X208774695Y-142659100D01*
X208895648Y-142592576D01*
X209137552Y-142592576D01*
X209258505Y-142659100D01*
X209318981Y-142725624D01*
X209379457Y-142858671D01*
X209379457Y-142925195D01*
X209318981Y-143058243D01*
X209258505Y-143124767D01*
X209137552Y-143191290D01*
X208895648Y-143191290D01*
X208774695Y-143257814D01*
X208714219Y-143324338D01*
X208653743Y-143457386D01*
X208653743Y-143723481D01*
X208714219Y-143856529D01*
X208774695Y-143923052D01*
X208895648Y-143989576D01*
X209137552Y-143989576D01*
X209258505Y-143923052D01*
X209318981Y-143856529D01*
X209379457Y-143723481D01*
X209379457Y-143457386D01*
X209318981Y-143324338D01*
X209258505Y-143257814D01*
X209137552Y-143191290D01*
X204182133Y-143938776D02*
X203758800Y-143273538D01*
X203456419Y-143938776D02*
X203456419Y-142541776D01*
X203940228Y-142541776D01*
X204061181Y-142608300D01*
X204121657Y-142674824D01*
X204182133Y-142807871D01*
X204182133Y-143007443D01*
X204121657Y-143140490D01*
X204061181Y-143207014D01*
X203940228Y-143273538D01*
X203456419Y-143273538D01*
X204786895Y-143938776D02*
X205028800Y-143938776D01*
X205149752Y-143872252D01*
X205210228Y-143805729D01*
X205331181Y-143606157D01*
X205391657Y-143340062D01*
X205391657Y-142807871D01*
X205331181Y-142674824D01*
X205270705Y-142608300D01*
X205149752Y-142541776D01*
X204907848Y-142541776D01*
X204786895Y-142608300D01*
X204726419Y-142674824D01*
X204665943Y-142807871D01*
X204665943Y-143140490D01*
X204726419Y-143273538D01*
X204786895Y-143340062D01*
X204907848Y-143406586D01*
X205149752Y-143406586D01*
X205270705Y-143340062D01*
X205331181Y-143273538D01*
X205391657Y-143140490D01*
X199614971Y-143989576D02*
X199191638Y-143324338D01*
X198889257Y-143989576D02*
X198889257Y-142592576D01*
X199373066Y-142592576D01*
X199494019Y-142659100D01*
X199554495Y-142725624D01*
X199614971Y-142858671D01*
X199614971Y-143058243D01*
X199554495Y-143191290D01*
X199494019Y-143257814D01*
X199373066Y-143324338D01*
X198889257Y-143324338D01*
X200824495Y-143989576D02*
X200098781Y-143989576D01*
X200461638Y-143989576D02*
X200461638Y-142592576D01*
X200340686Y-142792148D01*
X200219733Y-142925195D01*
X200098781Y-142991719D01*
X201610686Y-142592576D02*
X201731638Y-142592576D01*
X201852590Y-142659100D01*
X201913067Y-142725624D01*
X201973543Y-142858671D01*
X202034019Y-143124767D01*
X202034019Y-143457386D01*
X201973543Y-143723481D01*
X201913067Y-143856529D01*
X201852590Y-143923052D01*
X201731638Y-143989576D01*
X201610686Y-143989576D01*
X201489733Y-143923052D01*
X201429257Y-143856529D01*
X201368781Y-143723481D01*
X201308305Y-143457386D01*
X201308305Y-143124767D01*
X201368781Y-142858671D01*
X201429257Y-142725624D01*
X201489733Y-142659100D01*
X201610686Y-142592576D01*
X195677971Y-144014976D02*
X195254638Y-143349738D01*
X194952257Y-144014976D02*
X194952257Y-142617976D01*
X195436066Y-142617976D01*
X195557019Y-142684500D01*
X195617495Y-142751024D01*
X195677971Y-142884071D01*
X195677971Y-143083643D01*
X195617495Y-143216690D01*
X195557019Y-143283214D01*
X195436066Y-143349738D01*
X194952257Y-143349738D01*
X196887495Y-144014976D02*
X196161781Y-144014976D01*
X196524638Y-144014976D02*
X196524638Y-142617976D01*
X196403686Y-142817548D01*
X196282733Y-142950595D01*
X196161781Y-143017119D01*
X198097019Y-144014976D02*
X197371305Y-144014976D01*
X197734162Y-144014976D02*
X197734162Y-142617976D01*
X197613210Y-142817548D01*
X197492257Y-142950595D01*
X197371305Y-143017119D01*
X227351771Y-143989576D02*
X226928438Y-143324338D01*
X226626057Y-143989576D02*
X226626057Y-142592576D01*
X227109866Y-142592576D01*
X227230819Y-142659100D01*
X227291295Y-142725624D01*
X227351771Y-142858671D01*
X227351771Y-143058243D01*
X227291295Y-143191290D01*
X227230819Y-143257814D01*
X227109866Y-143324338D01*
X226626057Y-143324338D01*
X228561295Y-143989576D02*
X227835581Y-143989576D01*
X228198438Y-143989576D02*
X228198438Y-142592576D01*
X228077486Y-142792148D01*
X227956533Y-142925195D01*
X227835581Y-142991719D01*
X229045105Y-142725624D02*
X229105581Y-142659100D01*
X229226533Y-142592576D01*
X229528914Y-142592576D01*
X229649867Y-142659100D01*
X229710343Y-142725624D01*
X229770819Y-142858671D01*
X229770819Y-142991719D01*
X229710343Y-143191290D01*
X228984629Y-143989576D01*
X229770819Y-143989576D01*
X191753671Y-144040376D02*
X191330338Y-143375138D01*
X191027957Y-144040376D02*
X191027957Y-142643376D01*
X191511766Y-142643376D01*
X191632719Y-142709900D01*
X191693195Y-142776424D01*
X191753671Y-142909471D01*
X191753671Y-143109043D01*
X191693195Y-143242090D01*
X191632719Y-143308614D01*
X191511766Y-143375138D01*
X191027957Y-143375138D01*
X192963195Y-144040376D02*
X192237481Y-144040376D01*
X192600338Y-144040376D02*
X192600338Y-142643376D01*
X192479386Y-142842948D01*
X192358433Y-142975995D01*
X192237481Y-143042519D01*
X193386529Y-142643376D02*
X194172719Y-142643376D01*
X193749386Y-143175567D01*
X193930814Y-143175567D01*
X194051767Y-143242090D01*
X194112243Y-143308614D01*
X194172719Y-143441662D01*
X194172719Y-143774281D01*
X194112243Y-143907329D01*
X194051767Y-143973852D01*
X193930814Y-144040376D01*
X193567957Y-144040376D01*
X193447005Y-143973852D01*
X193386529Y-143907329D01*
D15*
X197993001Y-133301014D02*
X197993001Y-133845300D01*
X197956715Y-133954157D01*
X197884144Y-134026729D01*
X197775287Y-134063014D01*
X197702715Y-134063014D01*
X198355858Y-134063014D02*
X198355858Y-133301014D01*
X198646143Y-133301014D01*
X198718715Y-133337300D01*
X198755000Y-133373586D01*
X198791286Y-133446157D01*
X198791286Y-133555014D01*
X198755000Y-133627586D01*
X198718715Y-133663871D01*
X198646143Y-133700157D01*
X198355858Y-133700157D01*
X199517000Y-134063014D02*
X199081572Y-134063014D01*
X199299286Y-134063014D02*
X199299286Y-133301014D01*
X199226715Y-133409871D01*
X199154143Y-133482443D01*
X199081572Y-133518729D01*
%LPC*%
D17*
X232141600Y-152161100D03*
X228181600Y-152161100D03*
X224221600Y-152161100D03*
X220261600Y-152161100D03*
X216301600Y-152161100D03*
X212341600Y-152161100D03*
X208381600Y-152161100D03*
X204421600Y-152161100D03*
X200461600Y-152161100D03*
X196501600Y-152161100D03*
X192541600Y-152161100D03*
X188581600Y-152161100D03*
D18*
X206768700Y-123063000D03*
X209308700Y-123063000D03*
X211340700Y-123063000D03*
X213880700Y-123063000D03*
D19*
X203720700Y-120396000D03*
X217436700Y-120396000D03*
D20*
X225958400Y-136652000D03*
X225958400Y-131572000D03*
D21*
X204101700Y-129501900D03*
X204101700Y-126961900D03*
X230339900Y-129044700D03*
X230339900Y-131584700D03*
X230352600Y-139192000D03*
X230352600Y-136652000D03*
X219837000Y-136118600D03*
X219837000Y-138658600D03*
X215341200Y-126961900D03*
X215341200Y-129501900D03*
X208813400Y-126949200D03*
X208813400Y-129489200D03*
X211836000Y-126961900D03*
X211836000Y-129501900D03*
X218592400Y-126961900D03*
X218592400Y-129501900D03*
D22*
X190106300Y-136258300D03*
D23*
X190106300Y-133718300D03*
X192646300Y-136258300D03*
X192646300Y-133718300D03*
D21*
X224218500Y-145821400D03*
X224218500Y-148361400D03*
X220256100Y-145821400D03*
X220256100Y-148361400D03*
X216306400Y-145808700D03*
X216306400Y-148348700D03*
X212344000Y-145821400D03*
X212344000Y-148361400D03*
X208381600Y-145821400D03*
X208381600Y-148361400D03*
X204431900Y-145821400D03*
X204431900Y-148361400D03*
X200456800Y-145808700D03*
X200456800Y-148348700D03*
X196507100Y-145808700D03*
X196507100Y-148348700D03*
X228180900Y-145808700D03*
X228180900Y-148348700D03*
X192557400Y-145821400D03*
X192557400Y-148361400D03*
D22*
X198628000Y-132448300D03*
D23*
X198628000Y-134988300D03*
X198539100Y-143776700D03*
X196481700Y-141719300D03*
X201841100Y-134975600D03*
X215455500Y-131737100D03*
D24*
G36*
X233476800Y-155879800D02*
X231013000Y-155879800D01*
X231013000Y-149783800D01*
X233476800Y-149783800D01*
X233476800Y-155879800D01*
X233476800Y-155879800D01*
G37*
X233476800Y-155879800D02*
X231013000Y-155879800D01*
X231013000Y-149783800D01*
X233476800Y-149783800D01*
X233476800Y-155879800D01*
G36*
X189712600Y-155879800D02*
X187210700Y-155879800D01*
X187210700Y-149783800D01*
X189712600Y-149783800D01*
X189712600Y-155879800D01*
X189712600Y-155879800D01*
G37*
X189712600Y-155879800D02*
X187210700Y-155879800D01*
X187210700Y-149783800D01*
X189712600Y-149783800D01*
X189712600Y-155879800D01*
M02*
