G04 #@! TF.FileFunction,Soldermask,Bot*
%FSLAX46Y46*%
G04 Gerber Fmt 4.6, Leading zero omitted, Abs format (unit mm)*
G04 Created by KiCad (PCBNEW 4.0.7) date 08/25/20 08:50:58*
%MOMM*%
%LPD*%
G01*
G04 APERTURE LIST*
%ADD10C,0.150000*%
%ADD11R,2.000000X5.000000*%
%ADD12C,1.501140*%
%ADD13C,2.999740*%
%ADD14R,1.998980X0.449580*%
%ADD15R,0.449580X1.998980*%
%ADD16C,1.422400*%
%ADD17C,1.397000*%
%ADD18R,1.524000X1.524000*%
%ADD19C,1.524000*%
%ADD20C,0.254000*%
G04 APERTURE END LIST*
D10*
D11*
X232141600Y-152161100D03*
X228181600Y-152161100D03*
X224221600Y-152161100D03*
X220261600Y-152161100D03*
X216301600Y-152161100D03*
X212341600Y-152161100D03*
X208381600Y-152161100D03*
X204421600Y-152161100D03*
X200461600Y-152161100D03*
X196501600Y-152161100D03*
X192541600Y-152161100D03*
X188581600Y-152161100D03*
D12*
X206768700Y-123063000D03*
X209308700Y-123063000D03*
X211340700Y-123063000D03*
X213880700Y-123063000D03*
D13*
X203720700Y-120396000D03*
X217436700Y-120396000D03*
D14*
X214315040Y-139313920D03*
X214315040Y-138513820D03*
X214315040Y-137713720D03*
X214315040Y-136913620D03*
X214315040Y-136113520D03*
X214315040Y-135313420D03*
X214315040Y-134513320D03*
X214315040Y-133713220D03*
X204749400Y-133718300D03*
X204749400Y-139331700D03*
X204749400Y-138518900D03*
X204749400Y-137706100D03*
X204749400Y-136918700D03*
X204749400Y-136105900D03*
X204749400Y-135318500D03*
X204749400Y-134505700D03*
D15*
X212323680Y-131711700D03*
X211526120Y-131711700D03*
X210723480Y-131711700D03*
X209925920Y-131711700D03*
X209123280Y-131711700D03*
X208325720Y-131711700D03*
X207523080Y-131711700D03*
X206725520Y-131711700D03*
X212318600Y-141312900D03*
X211531200Y-141312900D03*
X210718400Y-141312900D03*
X209931000Y-141312900D03*
X209143600Y-141312900D03*
X208330800Y-141312900D03*
X207518000Y-141312900D03*
X206705200Y-141312900D03*
D16*
X225958400Y-136652000D03*
X225958400Y-131572000D03*
D17*
X204101700Y-129501900D03*
X204101700Y-126961900D03*
X230339900Y-129044700D03*
X230339900Y-131584700D03*
X230352600Y-139192000D03*
X230352600Y-136652000D03*
X219837000Y-136118600D03*
X219837000Y-138658600D03*
X215341200Y-126961900D03*
X215341200Y-129501900D03*
X208813400Y-126949200D03*
X208813400Y-129489200D03*
X211836000Y-126961900D03*
X211836000Y-129501900D03*
X218592400Y-126961900D03*
X218592400Y-129501900D03*
D18*
X190106300Y-136258300D03*
D19*
X190106300Y-133718300D03*
X192646300Y-136258300D03*
X192646300Y-133718300D03*
D17*
X224218500Y-145821400D03*
X224218500Y-148361400D03*
X220256100Y-145821400D03*
X220256100Y-148361400D03*
X216306400Y-145808700D03*
X216306400Y-148348700D03*
X212344000Y-145821400D03*
X212344000Y-148361400D03*
X208381600Y-145821400D03*
X208381600Y-148361400D03*
X204431900Y-145821400D03*
X204431900Y-148361400D03*
X200456800Y-145808700D03*
X200456800Y-148348700D03*
X196507100Y-145808700D03*
X196507100Y-148348700D03*
X228180900Y-145808700D03*
X228180900Y-148348700D03*
X192557400Y-145821400D03*
X192557400Y-148361400D03*
D18*
X198628000Y-132448300D03*
D19*
X198628000Y-134988300D03*
X198539100Y-143776700D03*
X196481700Y-141719300D03*
X201841100Y-134975600D03*
X215455500Y-131737100D03*
D20*
G36*
X233476800Y-155879800D02*
X231013000Y-155879800D01*
X231013000Y-149783800D01*
X233476800Y-149783800D01*
X233476800Y-155879800D01*
X233476800Y-155879800D01*
G37*
X233476800Y-155879800D02*
X231013000Y-155879800D01*
X231013000Y-149783800D01*
X233476800Y-149783800D01*
X233476800Y-155879800D01*
G36*
X189712600Y-155879800D02*
X187210700Y-155879800D01*
X187210700Y-149783800D01*
X189712600Y-149783800D01*
X189712600Y-155879800D01*
X189712600Y-155879800D01*
G37*
X189712600Y-155879800D02*
X187210700Y-155879800D01*
X187210700Y-149783800D01*
X189712600Y-149783800D01*
X189712600Y-155879800D01*
M02*
